<?xml version="1.0" encoding="iso-8859-1"?>
<!-- Generator: Adobe Illustrator 16.0.0, SVG Export Plug-In . SVG Version: 6.00 Build 0)  -->
<!DOCTYPE svg PUBLIC "-//W3C//DTD SVG 1.1//EN" "http://www.w3.org/Graphics/SVG/1.1/DTD/svg11.dtd">
<svg version="1.1" id="Capa_1" xmlns="http://www.w3.org/2000/svg" xmlns:xlink="http://www.w3.org/1999/xlink" x="0px" y="0px"
	 width="468.562px" height="468.562px" viewBox="0 0 468.562 468.562" style="enable-background:new 0 0 468.562 468.562;"
	 xml:space="preserve">
<g>
	<g>
		<path d="M146.804,261.391c7.267,0,12.202-4.8,12.202-11.102c0-7.812-5.891-12.479-13.98-14.669
			c-6.847,1.922-10.834,6.856-10.834,13.302C134.066,255.366,139,261.391,146.804,261.391z"/>
		<path d="M148.181,220.138c4.8-1.377,9.046-5.766,9.046-11.236c0-5.623-3.156-11.112-10.834-11.112
			c-7.124,0-10.69,4.801-10.69,10.28C135.702,214.114,141.047,217.948,148.181,220.138z"/>
		<path d="M334.009,258.389c5.479,0,9.734-3.567,11.102-8.367c0.555-1.636,0.688-3.835,0.688-5.613v-9.869
			c0-1.233-0.134-2.601-0.401-3.834c-1.511-5.479-5.489-9.19-11.245-9.19c-7.679,0-13.713,6.856-13.713,19.058
			C320.43,250.576,325.364,258.389,334.009,258.389z"/>
		<path d="M234.281,468.562c129.391,0,234.281-104.891,234.281-234.281C468.562,104.891,363.672,0,234.281,0
			C104.891,0,0,104.891,0,234.281C0,363.672,104.891,468.562,234.281,468.562z M329.753,205.747c9.189,0,14.946,3.969,18.37,9.591
			h0.268l0.688-8.09h18.092c-0.277,4.38-0.545,10.002-0.545,20.014v37.275c0,12.891-2.601,23.438-10.279,30.16
			c-7.268,6.302-17.27,8.224-27.139,8.224c-8.902,0-18.092-1.788-24.126-5.068l4.112-15.902c4.245,2.468,11.513,5.068,19.459,5.068
			c9.869,0,17.404-5.202,17.404-17.681v-4.256h-0.277c-3.969,5.489-10.414,8.645-18.093,8.645
			c-16.581,0-28.372-13.436-28.372-32.627C299.335,219.459,313.172,205.747,329.753,205.747z M221.429,181.898h20.693v40.841h0.277
			c2.057-3.557,4.256-6.847,6.445-10.136l20.837-30.705h25.771l-30.571,39.34l32.073,53.043h-24.261l-22.749-39.885l-7.812,9.734
			v30.16h-20.693v-92.393H221.429z M115.964,208.759c0-15.08,13.569-25.082,31.394-25.082c20.837,0,29.462,12.058,29.462,22.893
			c0,7.679-4.112,15.214-13.015,19.603v0.411c8.778,3.29,16.447,10.691,16.447,22.07c0,16.171-13.569,27.139-34.262,27.139
			c-22.615,0-33.039-12.737-33.039-24.805c0-10.691,6.158-18.093,15.902-22.338v-0.277
			C120.22,223.839,115.964,216.571,115.964,208.759z"/>
	</g>
</g>
<g>
</g>
<g>
</g>
<g>
</g>
<g>
</g>
<g>
</g>
<g>
</g>
<g>
</g>
<g>
</g>
<g>
</g>
<g>
</g>
<g>
</g>
<g>
</g>
<g>
</g>
<g>
</g>
<g>
</g>
</svg>
