<?xml version="1.0" encoding="iso-8859-1"?>
<!-- Generator: Adobe Illustrator 16.0.0, SVG Export Plug-In . SVG Version: 6.00 Build 0)  -->
<!DOCTYPE svg PUBLIC "-//W3C//DTD SVG 1.1//EN" "http://www.w3.org/Graphics/SVG/1.1/DTD/svg11.dtd">
<svg version="1.1" id="Capa_1" xmlns="http://www.w3.org/2000/svg" xmlns:xlink="http://www.w3.org/1999/xlink" x="0px" y="0px"
	 width="442.339px" height="442.34px" viewBox="0 0 442.339 442.34" style="enable-background:new 0 0 442.339 442.34;"
	 xml:space="preserve">
<g>
	<g>
		<path d="M102.977,118.018l66.364,41.549v118.394c-2.534,2.084-4.475,4.915-5.374,8.328l-35.601,135.759
			c-2.267,8.645,2.907,17.49,11.551,19.757c1.368,0.363,2.764,0.535,4.122,0.535c7.172,0,13.731-4.81,15.635-12.077l20.043-76.434
			c1.769,19.011,17.576,33.957,37.055,33.957c20.664,0,37.408-16.744,37.408-37.399c0-1.224-0.248-2.381-0.363-3.586l22.615,82.429
			c1.97,7.182,8.482,11.905,15.597,11.905c1.405,0,2.85-0.182,4.284-0.573c8.615-2.362,13.693-11.265,11.331-19.891l-36.576-133.349
			c-1.1-3.988-3.624-7.172-6.847-9.257V165.046l75.113-47.028c6.713-4.198,10.949-11.398,11.36-19.307
			c0.411-7.899-3.051-15.51-9.275-20.378L247.916,5.162c-7.908-6.197-18.475-6.704-26.746-2.113
			c-8.271-4.59-18.838-4.083-26.746,2.113l-93.502,73.172c-6.226,4.877-9.687,12.479-9.276,20.378
			C92.028,106.62,96.264,113.82,102.977,118.018z M216.771,312.979c-12.623,0-23.734,6.292-30.504,15.874l6.636-25.322h49.036
			l8.415,30.677C244.311,321.681,231.612,312.979,216.771,312.979z M221.151,45.85l63.093,49.38l-63.093,39.503L158.057,95.23
			L221.151,45.85z"/>
	</g>
</g>
<g>
</g>
<g>
</g>
<g>
</g>
<g>
</g>
<g>
</g>
<g>
</g>
<g>
</g>
<g>
</g>
<g>
</g>
<g>
</g>
<g>
</g>
<g>
</g>
<g>
</g>
<g>
</g>
<g>
</g>
</svg>
