<?xml version="1.0" encoding="iso-8859-1"?>
<!-- Generator: Adobe Illustrator 16.0.0, SVG Export Plug-In . SVG Version: 6.00 Build 0)  -->
<!DOCTYPE svg PUBLIC "-//W3C//DTD SVG 1.1//EN" "http://www.w3.org/Graphics/SVG/1.1/DTD/svg11.dtd">
<svg version="1.1" id="Capa_1" xmlns="http://www.w3.org/2000/svg" xmlns:xlink="http://www.w3.org/1999/xlink" x="0px" y="0px"
	 width="547.463px" height="547.463px" viewBox="0 0 547.463 547.463" style="enable-background:new 0 0 547.463 547.463;"
	 xml:space="preserve">
<g>
	<g>
		<path d="M33.125,449.864c18.398,0,33.296-14.907,33.296-33.287c0-18.283-14.908-33.182-33.296-33.182
			C14.86,383.396,0,398.304,0,416.577C0,434.957,14.86,449.864,33.125,449.864z"/>
		<path d="M88.147,540.011c8.625,0,15.625-6.99,15.625-15.626v-72.312h78.843v62.348c0,11.514,9.333,20.837,20.837,20.837h36.72
			h67.129h36.719c11.504,0,20.838-9.333,20.838-20.837v-62.348h78.842v72.312c0,8.636,7,15.626,15.625,15.626
			c8.627,0,15.635-6.99,15.635-15.626V423.692c0-0.22-0.057-0.431-0.066-0.65v-20.139c0-5.757-4.656-10.414-10.414-10.414h-108.4
			c1.148-3.7,1.387-7.735,0.363-11.762l-40.209-157.713v-90.681L366.35,29.966c3.795-7.755,0.582-17.117-7.182-20.913
			c-7.736-3.806-17.107-0.593-20.914,7.162l-41.1,83.939c-0.879-0.105-1.74-0.268-2.648-0.268h-39.292
			c-1.042,0-2.046,0.163-3.05,0.306l-41.119-83.978c-3.806-7.755-13.177-10.958-20.914-7.162
			c-7.755,3.796-10.968,13.158-7.172,20.913l50.538,103.218v89.447l-43.29,157.714c-1.138,4.141-0.947,8.319,0.229,12.144H82.993
			c-5.756,0-10.414,4.667-10.414,10.414v20.139c-0.009,0.22-0.067,0.431-0.067,0.65v100.692
			C72.522,533.021,79.521,540.011,88.147,540.011z M232.091,391.84l39.187-142.797h6.771l36.318,142.414
			c1.377,5.384,4.695,9.725,8.969,12.604v17.968c-0.047,0.555-0.172,1.1-0.172,1.664v69.892h-15.873h-67.129h-15.874v-69.892
			c0-0.574-0.124-1.109-0.172-1.664v-18.532C227.874,400.704,230.762,396.697,232.091,391.84z"/>
		<path d="M514.338,449.864c18.264,0,33.125-14.907,33.125-33.287c0-18.283-14.861-33.182-33.125-33.182
			c-18.398,0-33.297,14.908-33.297,33.182C481.031,434.957,495.939,449.864,514.338,449.864z"/>
		<circle cx="274.874" cy="46.997" r="35.257"/>
	</g>
</g>
<g>
</g>
<g>
</g>
<g>
</g>
<g>
</g>
<g>
</g>
<g>
</g>
<g>
</g>
<g>
</g>
<g>
</g>
<g>
</g>
<g>
</g>
<g>
</g>
<g>
</g>
<g>
</g>
<g>
</g>
</svg>
