<?xml version="1.0" encoding="iso-8859-1"?>
<!-- Generator: Adobe Illustrator 16.0.0, SVG Export Plug-In . SVG Version: 6.00 Build 0)  -->
<!DOCTYPE svg PUBLIC "-//W3C//DTD SVG 1.1//EN" "http://www.w3.org/Graphics/SVG/1.1/DTD/svg11.dtd">
<svg version="1.1" id="Capa_1" xmlns="http://www.w3.org/2000/svg" xmlns:xlink="http://www.w3.org/1999/xlink" x="0px" y="0px"
	 width="555.711px" height="555.711px" viewBox="0 0 555.711 555.711" style="enable-background:new 0 0 555.711 555.711;"
	 xml:space="preserve">
<g>
	<g>
		<path d="M350.466,248.295l-13.226,12.45l-16.772,1.043l17.768-30.199c1.76-2.983,1.902-7.917,0.335-11.016
			c-9.945-19.393-50.548-98.465-68.707-125.02c-16.438-24.011-91.063,5.9-125.336,21.334c-9.639,4.332-22.5,14.937-28.688,23.504
			C60.215,217.352,25.168,294.186,20.99,315.29c-0.669,3.414,1.367,7.563,4.389,9.266l41.711,23.447
			c-2.084-0.21-4.208-0.334-6.349-0.334C27.196,347.669,0,374.864,0,408.419c0,33.546,27.196,60.741,60.741,60.741
			c33.555,0,60.75-27.195,60.75-60.741c0-13.903-4.733-26.67-12.575-36.901l32.226,18.102c3.031,1.712,8.252,2.61,11.676,2.027
			l73.497-12.546c3.414-0.583,8.062-3.175,10.347-5.767l23.103-26.191c2.295-2.591,6.971-4.705,10.442-4.705h0.507
			c3.461,0,7.899,2.296,9.897,5.136l9.018,12.766c1.999,2.84,6.407,4.781,9.85,4.342l111.432-14.277
			c-18.331,10.452-30.733,30.15-30.733,52.766c0,33.556,27.186,60.761,60.74,60.761c33.564,0,60.741-27.205,60.741-60.761
			c0-28.104-19.125-51.694-45.068-58.627l83.873-10.739c3.442-0.43,7.172-3.442,8.339-6.713l6.254-17.479
			c1.166-3.28,0.736-8.377-0.976-11.399l-31.537-56.074c-1.702-3.021-5.891-5.355-9.361-5.202l-151.882,6.79
			C357.838,243.859,352.98,245.905,350.466,248.295z M60.741,289.021l77.494-138.263l112.073-33.517l67.033,112.063
			C317.341,229.305,164.437,255.505,60.741,289.021z"/>
	</g>
</g>
<g>
</g>
<g>
</g>
<g>
</g>
<g>
</g>
<g>
</g>
<g>
</g>
<g>
</g>
<g>
</g>
<g>
</g>
<g>
</g>
<g>
</g>
<g>
</g>
<g>
</g>
<g>
</g>
<g>
</g>
</svg>
