<?xml version="1.0" encoding="iso-8859-1"?>
<!-- Generator: Adobe Illustrator 16.0.0, SVG Export Plug-In . SVG Version: 6.00 Build 0)  -->
<!DOCTYPE svg PUBLIC "-//W3C//DTD SVG 1.1//EN" "http://www.w3.org/Graphics/SVG/1.1/DTD/svg11.dtd">
<svg version="1.1" id="Capa_1" xmlns="http://www.w3.org/2000/svg" xmlns:xlink="http://www.w3.org/1999/xlink" x="0px" y="0px"
	 width="521.577px" height="521.577px" viewBox="0 0 521.577 521.577" style="enable-background:new 0 0 521.577 521.577;"
	 xml:space="preserve">
<g>
	<g>
		<circle cx="302.284" cy="50.174" r="50.174"/>
		<path d="M109.399,156.519l-8.683,83.939c-1.09,10.595,6.608,20.091,17.222,21.171c0.669,0.086,1.348,0.114,2.008,0.114
			c9.764,0,18.14-7.392,19.173-17.317l7.545-72.885l23.849-10.71c0,0,18.178,29.338,34.578,33.928l11.102-37.389l-1.434-16.409
			c-3.28-14.583-4.293-28.248-3.739-40.612l-90.317,40.545C114.429,143.724,110.107,149.672,109.399,156.519z"/>
		<path d="M250.054,432.454c3.118,12.212,14.104,20.35,26.153,20.35c2.219,0,4.466-0.269,6.694-0.842l49.208-12.546
			c7.335-1.865,13.541-6.713,17.117-13.368c3.586-6.646,4.217-14.507,1.75-21.649l-37.811-109.138
			c-9.533,10.739-25.168,15.884-39.617,11.724c-20.463-5.919-32.273-27.377-26.354-47.812l10.308-35.649
			c-13.626-15.673-24.537-32.866-32.474-51.169c-1.128-2.592-2.075-5.135-3.041-7.688l-34.272,117.36l-25.723,55.463
			c-2.467,5.308-3.136,11.265-1.922,16.974l30.877,145.694c2.687,12.708,13.913,21.42,26.412,21.42c1.845,0,3.739-0.201,5.623-0.593
			c14.592-3.089,23.925-17.433,20.827-32.035l-29.022-136.867l23.285-50.175l25.178,14.344l27.053,78.068l-20.732,5.288
			C255.103,403.279,246.363,417.986,250.054,432.454z"/>
		<path d="M371.345,266.535l-7.727-32.809c-1.894-8.071-7.392-14.822-14.918-18.312c-0.048-0.019-0.669-0.334-1.597-0.822
			c4.045-7.009,7.469-14.296,10.185-21.802l23.026,26.517l-3.223,11.733c0.01,0.038,0.019,0.067,0.038,0.105l7.717,32.799
			c0.593,2.572,0.928,5.136,0.995,7.689c0.028,0.009,0.066,0.019,0.096,0.028c1.721,0.478,3.433,0.698,5.125,0.698
			c8.473,0,16.237-5.623,18.599-14.182l10.615-38.594c1.702-6.225,0.2-12.89-4.045-17.767l-49.151-56.61
			c2.725-33.469-2.057-64.795-5.651-82.104c-5.192,23.858-24.184,42.61-48.176,47.401c1.434,22.003,0.22,47.985-9.047,69.137
			c-7.965-9.266-15.539-20.349-21.219-33.44c-6.981-16.123-9.027-29.759-8.884-40.545c-19.737-10.308-33.258-30.954-33.258-54.726
			c0-3.194,0.315-6.311,0.784-9.371c-0.669,0.536-1.301,1.128-1.941,1.711l0.01-0.009c-67.97,11.733-75.467,69.969-75.467,69.969
			l57.308-25.819l0.048-0.125c-3.271,21.707-1.625,49.391,11.81,80.392c9.371,21.63,22.166,39.063,35.238,53.101
			c-0.804,1.549-1.473,3.175-1.97,4.877l-10.605,36.663c-4.16,14.334,4.112,29.31,18.436,33.469c2.516,0.727,5.03,1.071,7.526,1.071
			c11.724,0,22.51-7.698,25.934-19.508l5.689-19.67c0.028,0.019,0.067,0.048,0.096,0.067l4.982,21.171
			c2.926,12.44,14.019,20.837,26.268,20.837c2.056,0,4.141-0.229,6.206-0.727C365.76,295.605,374.759,281.07,371.345,266.535z"/>
	</g>
</g>
<g>
</g>
<g>
</g>
<g>
</g>
<g>
</g>
<g>
</g>
<g>
</g>
<g>
</g>
<g>
</g>
<g>
</g>
<g>
</g>
<g>
</g>
<g>
</g>
<g>
</g>
<g>
</g>
<g>
</g>
</svg>
