<?xml version="1.0" encoding="iso-8859-1"?>
<!-- Generator: Adobe Illustrator 16.0.0, SVG Export Plug-In . SVG Version: 6.00 Build 0)  -->
<!DOCTYPE svg PUBLIC "-//W3C//DTD SVG 1.1//EN" "http://www.w3.org/Graphics/SVG/1.1/DTD/svg11.dtd">
<svg version="1.1" id="Capa_1" xmlns="http://www.w3.org/2000/svg" xmlns:xlink="http://www.w3.org/1999/xlink" x="0px" y="0px"
	 width="583.093px" height="583.093px" viewBox="0 0 583.093 583.093" style="enable-background:new 0 0 583.093 583.093;"
	 xml:space="preserve">
<g>
	<g>
		<path d="M291.459,0c-32.627,0-59.067,26.44-59.067,59.067c0,32.618,26.45,59.068,59.067,59.068
			c32.619,0,59.068-26.45,59.068-59.068C350.527,26.44,324.078,0,291.459,0z M340.21,62.042c0,1.32-1.071,2.391-2.391,2.391
			c-0.058,0-0.096,0-0.125,0c-0.162,0-0.334-0.019-0.497-0.048c-14.267-3.031-27.808-4.896-40.449-5.613v13.254
			c22.376,1.769,39.216,8.578,39.962,8.883c2.438,1.023,3.596,3.806,2.582,6.244c-0.766,1.836-2.544,2.955-4.418,2.955
			c-0.612,0-1.225-0.115-1.826-0.363c-0.173-0.067-15.826-6.378-36.29-8.128v18.838c0,2.639-2.143,4.781-4.782,4.781
			c-2.64,0-4.781-2.142-4.781-4.781V81.262c-19.412,0.354-31.279,7.946-31.403,8.032c-2.209,1.444-5.164,0.871-6.627-1.31
			c-1.473-2.189-0.899-5.145,1.281-6.617c0.603-0.411,14.248-9.381,36.749-9.658V58.475c-0.583,0-1.205-0.057-1.779-0.057
			c-26.402,0-39.053,5.737-39.187,5.794c-0.765,0.345-1.654,0.277-2.343-0.182c-0.698-0.459-1.1-1.252-1.062-2.084
			c0.841-19.25,16.256-30.83,16.906-31.308c0.411-0.306,0.909-0.468,1.416-0.468h59.766c0.411,0,0.823,0.105,1.187,0.315
			c15.969,9.123,17.757,26.698,17.968,30.743C340.162,61.478,340.21,61.755,340.21,62.042z"/>
		<path d="M360.157,583.093c1.453,0,2.936-0.096,4.418-0.277c18.321-2.429,31.222-19.24,28.802-37.562l-12.239-92.823
			c-11.657-0.211-32.427-0.297-67.502,0.096l13.388,101.486C329.241,570.833,343.623,583.093,360.157,583.093z"/>
		<path d="M225.335,583.093c16.534,0,30.916-12.25,33.134-29.08L271.78,453.1c-19.297,0.239-34.416,0.315-46.148,0.315
			c-9.056,0-15.921-0.057-21.391-0.134l-12.135,91.963c-2.419,18.322,10.481,35.133,28.802,37.562
			C222.409,582.997,223.881,583.093,225.335,583.093z"/>
		<path d="M274.763,430.494c-14.707,0.201-26.469,0.277-35.725,0.277c-20.445,0-28.898-0.354-31.748-0.526l-1.788,13.483
			c12.756,0.153,33.822,0.201,67.549-0.22L274.763,430.494z"/>
		<path d="M281.027,382.987l10.423,1.387h0.956l12.116-0.918l4.867,36.921c39.445-0.564,58.81-0.296,67.512-0.019l-8.271-62.721
			c-0.125-0.956-0.44-1.826-0.65-2.744l-4.064-31.279c-12.891-0.172-34.932-0.191-71.509,0.487
			c-24.461,0.449-42.429,0.593-55.52,0.593c-6.397,0-11.618-0.038-15.874-0.096l-2.85,27.512c-0.555,1.798-1.052,3.605-1.301,5.527
			l-8.329,63.112c4.915,0.239,22.127,0.804,67.492,0.172L281.027,382.987z"/>
		<path d="M213.87,153.688c-0.775,0-1.549-0.086-2.333-0.287c-12.813-3.203-24.222-9.582-32.666-15.357
			c-3.012,4.494-5.518,9.849-7.382,15.988c6.158,5.145,19.661,15.224,35.104,19.087c5.125,1.281,8.233,6.474,6.961,11.599
			c-1.09,4.341-4.982,7.239-9.266,7.239c-0.774,0-1.549-0.086-2.333-0.287c-14.306-3.577-26.756-11.064-35.362-17.289
			c-0.306,0.727-0.755,1.358-0.975,2.132L127.3,308.247c-3.691,12.68,3.605,25.943,16.275,29.625
			c2.228,0.65,4.475,0.976,6.684,0.976c10.356,0,19.909-6.8,22.94-17.242l28.229-97.03c11.915,18.829,21.726,47.755,20.253,90.461
			c12.919,0.173,34.76,0.153,70.552-0.507c35.879-0.631,57.825-0.649,70.945-0.487c-1.215-38.996,6.675-66.393,16.992-85.059
			l29.721,102.185c3.041,10.442,12.584,17.242,22.94,17.242c2.209,0,4.456-0.316,6.685-0.976
			c12.68-3.682,19.966-16.936,16.275-29.625l-38.308-131.723c-0.335-1.157-0.822-2.209-1.319-3.271
			c-8.473,5.852-20.11,12.412-33.163,15.683c-0.784,0.191-1.559,0.287-2.333,0.287c-4.284,0-8.176-2.897-9.267-7.239
			c-1.281-5.125,1.836-10.318,6.962-11.599c15.893-3.978,29.749-14.535,35.648-19.527c-1.357-6.426-3.356-12.087-5.891-16.993
			c-8.577,6.12-20.76,13.311-34.692,16.792c-0.774,0.201-1.559,0.287-2.333,0.287c-4.284,0-8.186-2.897-9.267-7.239
			c-1.281-5.125,1.836-10.318,6.962-11.599c10.729-2.677,20.502-8.367,27.568-13.33c-11.321-9.4-25.79-11.293-38.584-5.805
			c-27.942,11.972-65.36,11.179-65.36,11.179h-0.957c0,0-37.418,0.793-65.359-11.179c-10.777-4.619-22.721-3.968-32.981,1.96
			c6.493,4.103,14.439,8.205,23.065,10.366c5.125,1.281,8.233,6.474,6.961,11.599C222.045,150.791,218.153,153.688,213.87,153.688z
			 M292.32,234.291l26.689-40.641h14.544v39.33h8.425v9.333h-8.425v16.562h-11.637v-16.562H292.32V234.291z M240.922,251.35
			l7.727-7.124c15.357-14.248,22.577-22.08,22.682-30.705c0-5.814-3.118-10.939-11.647-10.939c-5.814,0-10.633,2.917-13.942,5.422
			l-3.605-8.73c4.714-3.815,11.838-6.723,20.062-6.723c14.449,0,21.478,9.132,21.478,19.766c0,11.437-8.224,20.674-19.67,31.202
			l-5.623,4.925v0.201h26.699v10.232h-44.15v-7.526H240.922z"/>
		<path d="M321.926,215.223c0-3.71,0.201-7.42,0.402-11.332h-0.402c-2.018,4.112-3.72,7.42-5.718,11.035l-12.039,17.863v0.201
			h17.757V215.223z"/>
		<path d="M379.875,442.83l-1.702-12.871c-7.439-0.259-26.297-0.632-67.512-0.039l1.722,13.054
			C346.837,442.581,367.759,442.657,379.875,442.83z"/>
	</g>
</g>
<g>
</g>
<g>
</g>
<g>
</g>
<g>
</g>
<g>
</g>
<g>
</g>
<g>
</g>
<g>
</g>
<g>
</g>
<g>
</g>
<g>
</g>
<g>
</g>
<g>
</g>
<g>
</g>
<g>
</g>
</svg>
