<?xml version="1.0" encoding="iso-8859-1"?>
<!-- Generator: Adobe Illustrator 16.0.0, SVG Export Plug-In . SVG Version: 6.00 Build 0)  -->
<!DOCTYPE svg PUBLIC "-//W3C//DTD SVG 1.1//EN" "http://www.w3.org/Graphics/SVG/1.1/DTD/svg11.dtd">
<svg version="1.1" id="Capa_1" xmlns="http://www.w3.org/2000/svg" xmlns:xlink="http://www.w3.org/1999/xlink" x="0px" y="0px"
	 width="550.432px" height="550.432px" viewBox="0 0 550.432 550.432" style="enable-background:new 0 0 550.432 550.432;"
	 xml:space="preserve">
<g>
	<g>
		<path d="M391.831,539.817c4.083-11.838,9.41-34.807,9.83-74.663c0.067-6.417-0.066-16.83-0.449-23.237
			c-3.471-57.882-26.077-127.334-35.343-153.774c-2.123-6.062-8.291-8.004-14.2-5.479c-12.125,5.154-35.975,12.154-76.471,12.47
			c-40.612,0.306-64.489-6.904-76.586-12.26c-5.871-2.61-11.953-0.784-14.085,5.27c-9.266,26.44-31.872,95.902-35.343,153.784
			c-0.383,6.406-0.517,16.811-0.45,23.236c0.421,39.866,5.747,62.826,9.83,74.674c2.094,6.072,9.926,10.596,16.352,10.596h44.571
			c6.417,0,14.42-4.399,17.375-10.107c8.549-16.486,24.834-53.617,36.3-115.047c1.186-6.312,2.878-6.312,4.063,0
			c11.476,61.43,27.751,98.58,36.3,115.047c2.964,5.708,10.958,10.107,17.375,10.107h44.57
			C381.905,550.422,389.737,545.899,391.831,539.817z"/>
		<path d="M243.66,151.561l-0.526,0.536v0.449l0.526,45.298v3.997c0,6.283,2.486,9.419,7.459,9.419
			c4.619,0,6.933-4.647,6.933-13.942v-8.434l0.526-33.306c0-16.945-1.979-25.398-5.948-25.398h-4.982
			c-3.318,1.807-4.973,5.45-4.973,10.93l0.45,10.471h0.535V151.561z"/>
		<path d="M292.801,151.561l-0.525,0.536v0.449l0.525,45.298v3.997c0,6.283,2.486,9.419,7.459,9.419
			c4.619,0,6.933-4.647,6.933-13.942v-8.434l0.526-33.306c0-16.945-1.989-25.398-5.958-25.398h-4.981
			c-3.318,1.807-4.973,5.45-4.973,10.93l0.449,10.471h0.545V151.561z"/>
		<path d="M126.807,20.009c-5.135,3.844-8.549,13.043-8.549,19.46v7.268c0,6.426-2.897,16.074-4.523,22.28
			c-1.808,6.914-2.745,17.041,0.717,29.959c1.654,6.196,8.3,13.598,13.846,16.83l42.4,24.643c5.546,3.222,11.838,5.842,14.047,5.842
			c2.2,0,3.998,5.202,3.998,11.628v81.386c0,6.417,3.662,15.472,9.553,18.025c10.49,4.542,32.025,9.897,75.467,10.318h2.907
			c43.442-0.421,64.968-5.776,75.468-10.318c5.891-2.553,9.562-11.609,9.562-18.025V157.92c0-6.426,1.788-11.628,3.987-11.628
			c2.209,0,8.501-2.62,14.047-5.842l42.4-24.643c5.546-3.232,12.192-10.624,13.847-16.83c3.462-12.919,2.524-23.045,0.717-29.959
			c-1.625-6.206-4.522-15.854-4.522-22.28v-7.268c0-6.417-3.414-15.616-8.559-19.46C385.912-8.229,311.544,1.688,311.544,1.688
			c-0.728,58.13-36.328,74.119-36.328,74.119c-37.791-16.715-36.328-74.119-36.328-74.119S164.512-8.229,126.807,20.009z
			 M290.315,117.719c4.112-1.96,7.431-2.945,9.945-2.945c9.295,0,16.256,6.961,20.875,20.884l-0.449,4.973v1.501l0.449,7.917
			l-0.449,9.496v0.449l0.449,13.942l0.526,29.845c0,10.299-5.977,17.585-17.93,21.85l-3.472,0.536
			c-11.255-3.271-16.878-7.096-16.878-11.456c-2.371-3.318-3.548-7.287-3.548-11.905c0-31.805-0.649-53.368-1.96-64.671
			C277.875,130.705,282.025,123.906,290.315,117.719z M241.174,117.719c4.121-1.96,7.439-2.945,9.955-2.945
			c9.294,0,16.256,6.961,20.875,20.884l-0.45,4.973v1.501l0.45,7.917l-0.45,9.496v0.449l0.45,13.942l0.525,29.845
			c0,10.299-5.976,17.585-17.929,21.85l-3.471,0.536c-11.255-3.271-16.888-7.096-16.888-11.456
			c-2.362-3.318-3.538-7.287-3.538-11.905c0-31.805-0.65-53.368-1.96-64.671C228.743,130.705,232.883,123.906,241.174,117.719z"/>
	</g>
</g>
<g>
</g>
<g>
</g>
<g>
</g>
<g>
</g>
<g>
</g>
<g>
</g>
<g>
</g>
<g>
</g>
<g>
</g>
<g>
</g>
<g>
</g>
<g>
</g>
<g>
</g>
<g>
</g>
<g>
</g>
</svg>
