<?xml version="1.0" encoding="iso-8859-1"?>
<!-- Generator: Adobe Illustrator 16.0.0, SVG Export Plug-In . SVG Version: 6.00 Build 0)  -->
<!DOCTYPE svg PUBLIC "-//W3C//DTD SVG 1.1//EN" "http://www.w3.org/Graphics/SVG/1.1/DTD/svg11.dtd">
<svg version="1.1" id="Capa_1" xmlns="http://www.w3.org/2000/svg" xmlns:xlink="http://www.w3.org/1999/xlink" x="0px" y="0px"
	 width="458.637px" height="458.637px" viewBox="0 0 458.637 458.637" style="enable-background:new 0 0 458.637 458.637;"
	 xml:space="preserve">
<g>
	<g>
		<path d="M229.357,88.602C109.08,88.602,9.964,144.762,0,217.379l125.872-0.009v-11.437c0.009-6.579,5.364-11.915,11.934-11.915
			c6.598,0,11.934,5.346,11.934,11.915v11.446h12.737v-11.446c-0.009-3.165,1.224-6.158,3.471-8.405
			c2.257-2.257,5.259-3.51,8.453-3.51c6.598,0,11.953,5.346,11.953,11.915v11.437l12.737,0.009v-11.446
			c0-6.579,5.336-11.924,11.905-11.924c6.608,0,11.953,5.345,11.953,11.915v11.437l12.728,0.01v-11.446
			c0-6.57,5.346-11.915,11.914-11.915c6.617,0,11.982,5.345,11.982,11.915v11.437l12.699,0.01l0.01-11.456
			c-0.029-3.146,1.195-6.139,3.432-8.386c2.258-2.276,5.27-3.529,8.492-3.529c6.588,0,11.943,5.346,11.943,11.915v11.437
			l12.699,0.01v-11.446c0-6.569,5.346-11.915,11.906-11.915c6.617,0,11.98,5.346,11.98,11.915l-0.018,11.437l125.918,0.01
			C448.654,144.762,349.529,88.602,229.357,88.602z"/>
		<path d="M332.736,252.693c-0.047,6.599-5.402,11.944-11.953,11.944c-6.578,0-11.934-5.355-11.934-11.953v-11.428H296.15v11.437
			c0,6.579-5.363,11.944-11.943,11.944c-6.568,0-11.934-5.355-11.953-11.935l0.01-11.446h-12.689v11.437
			c0,6.579-5.365,11.944-11.963,11.944c-6.578,0-11.924-5.355-11.924-11.953v-11.428H222.95v11.437
			c0,6.579-5.355,11.944-11.924,11.944s-11.924-5.355-11.934-11.944v-11.437h-12.737v11.437c0,6.579-5.355,11.944-11.953,11.944
			c-6.569,0-11.924-5.355-11.934-11.944v-11.437H149.73v11.428c0,6.598-5.355,11.953-11.925,11.953c-3.184,0-6.187-1.253-8.443-3.51
			s-3.5-5.26-3.49-8.443v-11.428L0,241.267c9.964,72.608,109.108,128.759,229.299,128.769c120.191,0,219.355-56.151,229.337-128.778
			l-125.9,0.01V252.693z"/>
	</g>
</g>
<g>
</g>
<g>
</g>
<g>
</g>
<g>
</g>
<g>
</g>
<g>
</g>
<g>
</g>
<g>
</g>
<g>
</g>
<g>
</g>
<g>
</g>
<g>
</g>
<g>
</g>
<g>
</g>
<g>
</g>
</svg>
