<?xml version="1.0" encoding="iso-8859-1"?>
<!-- Generator: Adobe Illustrator 16.0.0, SVG Export Plug-In . SVG Version: 6.00 Build 0)  -->
<!DOCTYPE svg PUBLIC "-//W3C//DTD SVG 1.1//EN" "http://www.w3.org/Graphics/SVG/1.1/DTD/svg11.dtd">
<svg version="1.1" id="Capa_1" xmlns="http://www.w3.org/2000/svg" xmlns:xlink="http://www.w3.org/1999/xlink" x="0px" y="0px"
	 width="460.006px" height="460.006px" viewBox="0 0 460.006 460.006" style="enable-background:new 0 0 460.006 460.006;"
	 xml:space="preserve">
<g>
	<g>
		<path d="M400.667,100.359c-29.73-23.858-69.099-37.169-110.877-37.514c-39.628-0.344-77.725,10.901-107.244,31.614
			c-16.008,11.255-28.831,24.757-38.222,40.115c-5.508,9.008-9.361,16.371-10.337,15.769c-0.574-0.364-1.186-0.679-1.836-0.957
			c-6.292-2.591-13.483,0.421-16.046,6.713c-0.402,0.928-3.796,9.295-6.158,18.102c-0.507,1.874-0.995,3.844-1.406,5.852
			c-0.66,3.261-4.236,6.828-6.751,9.878c-1.482,1.788-2.467,4.017-2.735,6.502c-0.727,6.771,4.188,12.833,10.93,13.56
			c8.014,0.851,15.176,2.208,21.487,4.045c10.137,2.964,16.983,8.864,16.419,10.337c-0.334,0.87-0.679,1.769-1.014,2.658
			c-4.456,11.637-9.429,24.652-14.956,37.962c-4.045,9.764-9.4,17.185-11.676,16.696c-1.329-0.287-2.687-0.573-4.112-0.889
			c-12.575-2.745-29.807-6.475-59.995-11.858c-0.191-0.038-0.402-0.066-0.593-0.095c-11.485-1.454-20.837-2.123-27.894,3.576
			c-4.542,3.662-6.321,8.615-7.086,12.909c-0.067,0.392-0.115,0.765-0.163,1.128c-0.076,0.622-2.228,9.41-4.724,19.68
			c-4.284,17.604-10.624,44.523-15.491,68.659c-0.938,5.298,1.664,10.586,6.474,13.081c20.32,10.462,40.287,12.097,59.288,4.829
			c26.144-9.974,46.828-35.353,63.744-65.541c5.173-9.209,13.655-16.151,19.555-15.405c5.91,0.756,10.127,7.765,10.624,15.797
			c0.507,8.023,3.299,22.97,8.319,32.273c6.273,11.6,15.118,20.196,26.44,25.762c33.326,16.429,80.133,3.566,113.536-10.089
			c7.697-3.92,20.492-8.587,35.544-6.655c10.48,1.358,18.475,5.853,18.8,6.196c0.334,0.345,7.43,5.394,16.926,9.209
			c7.066,2.831,14.095,5.04,17.471,6.11c7.487,2.257,12.775,2.171,17.595-5.173c1.75-2.735,3.127-5.651,6.617-14.268
			c0.411-1.032,0.774-1.989,1.09-2.907c0.555-1.615,1.004-3.231,1.129-3.557l0.229-0.603c1.042-2.879,2.687-6.771,4.733-11.705
			c11.628-27.788,35.802-85.66,31.106-136.494C454.896,167.459,434.604,127.574,400.667,100.359z M104.124,322.133
			c-13.512,22.567-29.108,40.812-46.952,47.631c-5.04,1.902-10.155,2.84-15.405,2.792c-8.702-0.096-13.636-11.236-11.332-21.554
			c6.79-30.247,13.751-57.604,13.847-57.968c0.028-0.096,0.038-0.191,0.057-0.269c0.038-0.144,1.817-0.182,3.959,0.048
			c1.109,0.105,2.391,0.249,3.854,0.44c29.529,5.269,46.417,8.931,58.762,11.618c0.42,0.096,0.841,0.172,1.243,0.258
			C112.845,305.293,109.546,313.067,104.124,322.133z M166.242,265.714c-0.134,1.367-0.296,2.716-0.478,4.055
			c-1.444,10.48-6.56,18.445-10.05,18.034s-2.907-8.645,1.071-18.445c0.669-1.626,1.32-3.262,1.97-4.877
			C162.656,254.669,167.284,255.204,166.242,265.714z"/>
	</g>
</g>
<g>
</g>
<g>
</g>
<g>
</g>
<g>
</g>
<g>
</g>
<g>
</g>
<g>
</g>
<g>
</g>
<g>
</g>
<g>
</g>
<g>
</g>
<g>
</g>
<g>
</g>
<g>
</g>
<g>
</g>
</svg>
