<?xml version="1.0" encoding="iso-8859-1"?>
<!-- Generator: Adobe Illustrator 16.0.0, SVG Export Plug-In . SVG Version: 6.00 Build 0)  -->
<!DOCTYPE svg PUBLIC "-//W3C//DTD SVG 1.1//EN" "http://www.w3.org/Graphics/SVG/1.1/DTD/svg11.dtd">
<svg version="1.1" id="Capa_1" xmlns="http://www.w3.org/2000/svg" xmlns:xlink="http://www.w3.org/1999/xlink" x="0px" y="0px"
	 width="585.393px" height="585.393px" viewBox="0 0 585.393 585.393" style="enable-background:new 0 0 585.393 585.393;"
	 xml:space="preserve">
<g>
	<g>
		<path d="M422.996,161.008c2.524,0.794,5.202-0.641,5.977-3.146c1.147-3.701,27.75-90.987,1.147-134.133
			c-7.784-12.622-19.326-20.292-34.301-22.787c-25.943-4.303-46.751,6.263-56.992,29.07c-1.588,3.529-2.85,7.21-3.787,10.93
			c-28.448-10.768-72.608-17.299-119.674-13.397c-57.021,4.733-97.433,40.899-116.232,73.163
			c-14.63,25.102-18.58,50.442-10.566,67.788c10.117,21.898,29.299,32.78,45.335,32.78c3.07,0,6.024-0.401,8.779-1.195
			c14.573-4.227,21.764-18.207,19.24-37.408c-0.517-3.911-0.641-7.526-0.545-10.949l8.071,39.464
			c0.832,4.093,2.735,7.889,5.499,11.026l34.654,39.273l-7.621,49.993c-1.406,5.087-0.449,12.949,2.151,17.548l20.12,48.625
			c-1.157,3.395-1.922,6.961-1.922,10.748v183.523c0,18.484,14.984,33.469,33.469,33.469s33.469-14.984,33.469-33.469V392.861
			l59.794,17.251c3.013,0.87,6.14,1.31,9.275,1.31h109.099c18.484,0,33.469-14.984,33.469-33.469s-14.984-33.469-33.469-33.469
			H363.059l-16.123-4.656c-0.22-0.163-0.296-0.345-0.545-0.498l-46.713-29.614c-4.466-2.831-7.152-9.305-6.015-14.459l5.202-23.534
			l18.532-12.011l107.884-31.106c12.689-3.663,20.005-16.917,16.352-29.596c-3.652-12.68-16.906-19.986-29.596-16.352
			L300.749,214.74c-2.257,0.65-4.408,1.635-6.378,2.917l-10.644,6.895l-33.784-9.477c-0.229-0.287-0.392-0.612-0.641-0.889
			l-34.282-38.862l-10.279-50.232c-2.64-12.929-15.271-21.238-28.209-18.628c-11.208,2.295-18.943,12.097-19.087,23.084
			c-5.011,9.065-6.828,20.492-4.992,34.349c1.884,14.305-2.639,24.136-12.421,26.966c-12.996,3.787-33.01-5.279-42.773-26.412
			c-6.607-14.286-2.715-36.882,10.146-58.962C124.99,75.309,162.8,41.477,216.168,37.04c47.488-3.949,91.208,3.356,117.189,13.33
			c-1.482,13.713,1.367,26.469,8.233,32.016c2.419,1.951,9.008,5.775,17.968-0.813c9.333-6.866,8.319-14.325,6.885-18.149
			c-2.477-6.608-10.452-13.082-22.472-18.733c0.803-3.566,1.979-7.21,3.576-10.767c4.896-10.892,17.48-28.391,46.703-23.562
			c12.307,2.046,21.372,8.061,27.731,18.36c24.337,39.455-1.864,125.431-2.133,126.292
			C419.057,157.556,420.472,160.224,422.996,161.008z M357.483,66.789c0.392,1.042,1.31,3.49-3.596,7.095
			c-4.007,2.936-5.594,1.635-6.292,1.081c-3.299-2.667-5.498-10.729-4.982-20.54C350.751,58.479,355.973,62.763,357.483,66.789z"/>
		<circle cx="289.274" cy="145.45" r="57.891"/>
	</g>
</g>
<g>
</g>
<g>
</g>
<g>
</g>
<g>
</g>
<g>
</g>
<g>
</g>
<g>
</g>
<g>
</g>
<g>
</g>
<g>
</g>
<g>
</g>
<g>
</g>
<g>
</g>
<g>
</g>
<g>
</g>
</svg>
