<?xml version="1.0" encoding="iso-8859-1"?>
<!-- Generator: Adobe Illustrator 16.0.0, SVG Export Plug-In . SVG Version: 6.00 Build 0)  -->
<!DOCTYPE svg PUBLIC "-//W3C//DTD SVG 1.1//EN" "http://www.w3.org/Graphics/SVG/1.1/DTD/svg11.dtd">
<svg version="1.1" id="Capa_1" xmlns="http://www.w3.org/2000/svg" xmlns:xlink="http://www.w3.org/1999/xlink" x="0px" y="0px"
	 width="481.711px" height="481.711px" viewBox="0 0 481.711 481.711" style="enable-background:new 0 0 481.711 481.711;"
	 xml:space="preserve">
<g>
	<g>
		<circle cx="246.846" cy="287.917" r="57.815"/>
		<path d="M382.52,292.736c7.172,0,14.391-2.295,20.492-7.028c14.602-11.331,17.25-32.359,5.918-46.961L256.754,42.716
			c-9.918-12.776-27.541-16.61-41.894-9.161L35.563,126.933c-10.901,5.68-17.232,16.533-17.834,27.97L0,260.874
			c0,5.288,3.261,12.336,7.287,15.75l69.099,50.557c4.025,3.414,11.456,5.192,16.581,3.959l1.463,0.01v96.878
			c0,13.205,10.7,23.906,23.906,23.906H288.07c12.393,0,22.471-9.468,23.666-21.555h10.414c13.207,0,23.906-10.7,23.906-23.906
			c0-13.205-10.699-23.906-23.906-23.906H176.323v-60.664c0.038-0.487,0.019-0.956,0-1.415v-32.57c0-1.874-0.268-3.682-0.679-5.432
			v-40.841c-2.229-4.791-10.06-7.583-15.167-6.244l-31.709-1.253c-5.106,1.339-8.482-1.798-7.535-6.99l-0.938-68.888l100.703-52.441
			l135.052,173.971C362.658,288.29,372.535,292.736,382.52,292.736z"/>
		<circle cx="430.609" cy="388.104" r="51.102"/>
	</g>
</g>
<g>
</g>
<g>
</g>
<g>
</g>
<g>
</g>
<g>
</g>
<g>
</g>
<g>
</g>
<g>
</g>
<g>
</g>
<g>
</g>
<g>
</g>
<g>
</g>
<g>
</g>
<g>
</g>
<g>
</g>
</svg>
