<?xml version="1.0" encoding="iso-8859-1"?>
<!-- Generator: Adobe Illustrator 16.0.0, SVG Export Plug-In . SVG Version: 6.00 Build 0)  -->
<!DOCTYPE svg PUBLIC "-//W3C//DTD SVG 1.1//EN" "http://www.w3.org/Graphics/SVG/1.1/DTD/svg11.dtd">
<svg version="1.1" id="Capa_1" xmlns="http://www.w3.org/2000/svg" xmlns:xlink="http://www.w3.org/1999/xlink" x="0px" y="0px"
	 width="535.841px" height="535.841px" viewBox="0 0 535.841 535.841" style="enable-background:new 0 0 535.841 535.841;"
	 xml:space="preserve">
<g>
	<g>
		<path d="M457.928,352.069L377.822,214.55c-7.277-12.499-21.783-18.915-35.897-15.884l-127.526,27.187
			c-0.067-0.058-0.115-0.134-0.182-0.191l-66.364-57.404l56.313-120.621c7.812-16.744,0.583-36.663-16.17-44.485
			c-16.725-7.822-36.663-0.583-44.485,16.17L76.507,162.855c-6.331,13.569-2.888,29.682,8.434,39.474l54.822,47.42l-11.475,61.153
			c-3.662,4.647-4.504,12.728-1.865,18.025l42.008,76.003v107.004c0,13.206,10.7,23.906,23.906,23.906h127.22
			c13.206,0,23.906-10.7,23.906-23.906c0-1.157-0.182-2.257-0.344-3.366h76.337c13.206,0,23.906-10.7,23.906-23.906
			c0-13.205-10.7-23.906-23.906-23.906H311.563v-13.885c24.978-9.619,42.735-33.794,42.735-62.137
			c0-36.815-29.845-66.65-66.642-66.65c-18.551,0-35.324,7.593-47.412,19.832l-11.752-19.345
			c-3.318-4.905-2.257-11.857,2.391-15.539l10.538-14.497l90.758-19.345l67.913,116.576c6.215,10.672,17.432,16.63,28.945,16.63
			c5.728,0,11.522-1.473,16.82-4.562C461.819,388.53,467.222,368.028,457.928,352.069z M264.095,488.019h-47.861v-77.762
			l8.454-3.873c6.407,18.59,20.779,33.44,39.072,40.479v37.791C263.75,485.81,263.932,486.909,264.095,488.019z"/>
	</g>
</g>
<g>
</g>
<g>
</g>
<g>
</g>
<g>
</g>
<g>
</g>
<g>
</g>
<g>
</g>
<g>
</g>
<g>
</g>
<g>
</g>
<g>
</g>
<g>
</g>
<g>
</g>
<g>
</g>
<g>
</g>
</svg>
