<?xml version="1.0" encoding="iso-8859-1"?>
<!-- Generator: Adobe Illustrator 16.0.0, SVG Export Plug-In . SVG Version: 6.00 Build 0)  -->
<!DOCTYPE svg PUBLIC "-//W3C//DTD SVG 1.1//EN" "http://www.w3.org/Graphics/SVG/1.1/DTD/svg11.dtd">
<svg version="1.1" id="Capa_1" xmlns="http://www.w3.org/2000/svg" xmlns:xlink="http://www.w3.org/1999/xlink" x="0px" y="0px"
	 width="470.982px" height="470.981px" viewBox="0 0 470.982 470.981" style="enable-background:new 0 0 470.982 470.981;"
	 xml:space="preserve">
<g>
	<g>
		<path d="M419.947,357.207H291.245l30.112-94.659c0.66-2.084,0.918-4.179,1.005-6.244c1.357-2.821,2.189-5.938,2.189-9.275v-80.411
			l47.439,32.426l13.35,77.648c1.597,9.313,9.687,15.883,18.828,15.883c1.081,0,2.171-0.086,3.261-0.277
			c10.404-1.788,17.395-11.676,15.606-22.089l-14.717-85.633c-0.88-5.097-3.787-9.629-8.062-12.546l-80.286-54.86
			c-2.889-1.97-6.14-2.964-9.391-3.204c-2.324-0.86-4.811-1.406-7.439-1.406h-60.216c-2.696,0-5.259,0.555-7.64,1.463
			c-0.249,0.028-0.488,0.009-0.736,0.048L75.716,139.488c-10.433,1.664-17.528,11.475-15.864,21.908
			c1.511,9.4,9.629,16.103,18.867,16.103c1.004,0,2.018-0.076,3.041-0.239l139.756-22.367v82.917l-27.903,18.751
			c-1.798-3.146-4.351-5.938-7.583-8.07c-11.025-7.286-25.848-4.227-33.125,6.771l-36.663,55.529
			c-6.273,9.515-4.973,22.128,3.117,30.15c4.619,4.58,10.701,6.933,16.84,6.933c4.619,0,9.266-1.339,13.32-4.063l112.13-75.372
			h7.641l-28.238,88.778H51.044c-5.288,0-9.562,4.274-9.562,9.562v10.318c0,5.288,4.274,9.562,9.562,9.562h180.665l-16.907,53.157
			c-3.997,12.585,2.955,26.029,15.53,30.036c2.41,0.765,4.848,1.128,7.248,1.128c10.137,0,19.547-6.502,22.778-16.667l21.516-67.646
			h138.063c5.288,0,9.562-4.274,9.562-9.562v-10.317C429.509,361.481,425.235,357.207,419.947,357.207z"/>
		<circle cx="273.057" cy="45.059" r="45.059"/>
	</g>
</g>
<g>
</g>
<g>
</g>
<g>
</g>
<g>
</g>
<g>
</g>
<g>
</g>
<g>
</g>
<g>
</g>
<g>
</g>
<g>
</g>
<g>
</g>
<g>
</g>
<g>
</g>
<g>
</g>
<g>
</g>
</svg>
