<?xml version="1.0" encoding="iso-8859-1"?>
<!-- Generator: Adobe Illustrator 16.0.0, SVG Export Plug-In . SVG Version: 6.00 Build 0)  -->
<!DOCTYPE svg PUBLIC "-//W3C//DTD SVG 1.1//EN" "http://www.w3.org/Graphics/SVG/1.1/DTD/svg11.dtd">
<svg version="1.1" id="Capa_1" xmlns="http://www.w3.org/2000/svg" xmlns:xlink="http://www.w3.org/1999/xlink" x="0px" y="0px"
	 width="497.291px" height="497.29px" viewBox="0 0 497.291 497.29" style="enable-background:new 0 0 497.291 497.29;"
	 xml:space="preserve">
<g>
	<g>
		<path d="M367.833,216.82h-0.642c0,0,19.767-51.619,19.775-77.772C386.966,62.252,324.706,0,247.899,0
			c-76.787,0-139.048,62.252-139.048,139.048c0,31.575,28.257,77.772,28.257,77.772c0.517,0-50.433,152.445-68.869,221.238
			c-3.614,13.482-2.744,33.229,4.6,42.275c4.093,5.039,9.304,10.203,15.606,14.057c7.908,4.849,25.35,3.328,31.556-2.429
			c3.471-3.213,7.086-7.593,10.223-13.54c4.398-8.339,9.753-7.134,17.098,1.912c4.093,5.039,9.304,10.203,15.606,14.057
			c7.898,4.849,25.35,3.328,31.556-2.429c3.471-3.213,7.086-7.593,10.223-13.54c4.389-8.339,9.753-7.134,17.088,1.912
			c4.093,5.039,9.304,10.203,15.606,14.057c7.898,4.849,25.34,3.328,31.556-2.429c3.48-3.213,7.086-7.593,10.232-13.54
			c4.389-8.339,9.754-7.134,17.098,1.912c4.093,5.039,9.304,10.203,15.605,14.057c7.898,4.849,25.341,3.328,31.557-2.429
			c3.48-3.213,7.086-7.593,10.231-13.54c4.39-8.339,9.754-7.134,17.098,1.912c4.093,5.039,9.305,10.203,15.606,14.057
			c7.898,4.849,25.341,3.328,31.557-2.429c3.471-3.213,7.085-7.593,10.231-13.54c4.398-8.339,3.376-26.967,0.201-40.555
			L367.833,216.82z M199.331,234.597l-41.081,178.57c-1.348,5.833-6.55,9.792-12.307,9.792c-0.937,0-1.894-0.096-2.85-0.315
			c-6.799-1.568-11.045-8.349-9.486-15.157l41.09-178.579c1.559-6.79,8.396-11.045,15.147-9.477
			C196.654,220.999,200.899,227.779,199.331,234.597z M261.287,410.327c0,6.99-5.661,12.632-12.642,12.632
			s-12.642-5.651-12.642-12.632v-178.57c0-6.99,5.661-12.642,12.642-12.642s12.642,5.651,12.642,12.642V410.327z M354.196,422.644
			c-0.956,0.22-1.912,0.315-2.85,0.315c-5.757,0-10.959-3.949-12.307-9.792l-41.09-178.57c-1.56-6.818,2.687-13.598,9.485-15.166
			c6.799-1.549,13.598,2.678,15.157,9.477l41.09,178.58C365.241,414.295,361.004,421.075,354.196,422.644z"/>
	</g>
</g>
<g>
</g>
<g>
</g>
<g>
</g>
<g>
</g>
<g>
</g>
<g>
</g>
<g>
</g>
<g>
</g>
<g>
</g>
<g>
</g>
<g>
</g>
<g>
</g>
<g>
</g>
<g>
</g>
<g>
</g>
</svg>
