<?xml version="1.0" encoding="iso-8859-1"?>
<!-- Generator: Adobe Illustrator 16.0.0, SVG Export Plug-In . SVG Version: 6.00 Build 0)  -->
<!DOCTYPE svg PUBLIC "-//W3C//DTD SVG 1.1//EN" "http://www.w3.org/Graphics/SVG/1.1/DTD/svg11.dtd">
<svg version="1.1" id="Capa_1" xmlns="http://www.w3.org/2000/svg" xmlns:xlink="http://www.w3.org/1999/xlink" x="0px" y="0px"
	 width="521.635px" height="521.635px" viewBox="0 0 521.635 521.635" style="enable-background:new 0 0 521.635 521.635;"
	 xml:space="preserve">
<g>
	<g>
		<path d="M260.817,0C116.998,0,0,116.998,0,260.817c0,143.811,116.998,260.817,260.817,260.817
			c143.82,0,260.817-116.997,260.817-260.817S404.638,0,260.817,0z M201.033,187.922c1.319,0.125,2.524,0.794,3.337,1.836
			l1.319,1.702c0.421,0.555,0.727,1.186,0.88,1.855c0.793,3.5,1.587,7.325,2.4,11.695c0.315,1.654-0.153,4.016-1.416,5.135
			l-23.227,20.473c-0.89,0.784-2.018,1.195-3.166,1.195c-0.564,0-1.128-0.096-1.673-0.306c-1.654-0.612-2.831-2.094-3.069-3.834
			l-0.296-2.218c-0.622-4.676-1.215-8.521-1.865-12.125c-0.296-1.645,0.172-3.987,1.434-5.097l21.717-19.135
			C198.413,188.238,199.751,187.817,201.033,187.922z M151.499,138.006l15.587-24.403c1.405-2.209,4.322-2.888,6.56-1.482
			l1.549,0.966c0.679,0.421,1.243,1.014,1.645,1.721c1.855,3.395,3.605,6.799,5.69,11.006c0.736,1.492,0.937,3.863,0.048,5.269
			l-16.639,26.048c-0.88,1.387-2.41,2.209-4.026,2.209c-0.125,0-0.249-0.01-0.373-0.019c-1.759-0.134-3.299-1.234-4.007-2.85
			l-0.899-2.046c-1.884-4.294-3.519-7.841-5.125-11.179C150.791,141.755,150.609,139.402,151.499,138.006z M124.312,319.952
			c1.855-0.21,3.615,0.593,4.609,2.133l17.892,27.482c0.86,1.329,1.348,3.528,0.736,4.982c-1.979,4.762-3.682,8.615-5.451,12.345
			l-0.899,1.923c-0.736,1.567-2.267,2.619-3.997,2.744c-0.115,0-0.22,0.01-0.335,0.01c-1.606,0-3.117-0.813-4.006-2.171
			L115.4,342.586c-0.851-1.311-1.014-2.955-0.43-4.398c1.664-4.122,3.06-7.956,4.619-12.651l0.793-2.353
			C120.966,321.444,122.486,320.191,124.312,319.952z M122.266,199.092c-0.439-1.789,0.182-3.672,1.607-4.839
			c1.415-1.186,3.385-1.415,5.058-0.641l2.267,1.062c1.482,0.698,19.928,9.285,27.444,12.766c1.435,0.669,3.012,2.257,3.271,3.815
			c0.841,4.992,1.453,9.161,1.96,13.359l0.258,2.123c0.21,1.721-0.536,3.423-1.941,4.446c-0.832,0.603-1.817,0.909-2.812,0.909
			c-0.688,0-1.377-0.144-2.018-0.45l-28.975-13.473c-1.396-0.641-2.391-1.922-2.677-3.433c-0.966-5.106-1.855-9.218-2.84-13.215
			L122.266,199.092z M132.737,280.66c-1.176-1.014-1.779-2.534-1.625-4.083c0.507-5.106,0.746-9.648,0.908-13.502l0.105-2.477
			c0.076-1.836,1.195-3.462,2.888-4.188c1.673-0.727,3.634-0.411,5.02,0.784l4.255,3.691c4.82,4.188,15.559,13.503,20.512,17.834
			c1.167,1.014,2.219,2.945,2.075,4.476c-0.459,4.428-0.985,8.367-1.741,13.426l-0.325,2.142c-0.258,1.722-1.435,3.175-3.07,3.777
			c-0.545,0.201-1.1,0.297-1.654,0.297c-1.138,0-2.247-0.402-3.136-1.167L132.737,280.66z M141.104,144.165
			c2.008,4.188,3.749,8.014,5.575,12.288l0.851,1.989c0.688,1.597,0.45,3.442-0.612,4.819c-0.918,1.176-2.314,1.846-3.777,1.846
			c-0.249,0-0.497-0.019-0.746-0.057l-31.7-4.982c-1.501-0.239-2.802-1.176-3.509-2.534c-2.419-4.724-4.447-8.453-6.455-11.962
			l-1.186-2.065c-0.899-1.568-0.842-3.509,0.163-5.021c0.995-1.511,2.792-2.381,4.561-2.104l2.362,0.287
			c0.535,0.067,16.763,2.611,30.265,4.733C138.465,141.659,140.425,142.75,141.104,144.165z M129.61,69.462l-6.197,20.875
			l-1.434-1.75c-2.238-2.735-4.619-5.46-7.028-8.167C119.685,76.586,124.581,72.924,129.61,69.462z M111.384,83.376
			c2.591,2.907,5.259,6.053,8.195,9.629l1.368,1.673L95.75,97.806C100.731,92.756,105.962,87.947,111.384,83.376z M90.586,418.408
			l0.899-0.995l0.516,2.238c0.01,0.038,0.029,0.134,0.058,0.296C91.561,419.431,91.064,418.924,90.586,418.408z M106.995,426.048
			c-0.918,1.042-2.228,1.625-3.586,1.625c-0.335,0-0.669-0.038-1.004-0.104c-1.692-0.364-3.06-1.616-3.557-3.28l-9.323-30.523
			c-0.45-1.473-0.163-3.061,0.765-4.284c2.496-3.299,5.278-7.038,7.937-10.93l1.454-2.133c1.052-1.53,2.907-2.295,4.733-2.018
			c1.836,0.306,3.328,1.645,3.825,3.442l0.688,2.486c0.134,0.449,1.252,4.112,2.687,8.807l6.11,19.948
			c0.45,1.501,0.325,3.729-0.641,4.953c-3.041,3.834-5.814,7.162-8.654,10.395L106.995,426.048z M159.923,429.232l-0.526,1.817
			c-0.153,0.517-0.382,1.004-0.688,1.443c-2.353,3.309-4.791,6.637-7.258,9.879c-0.957,1.252-2.812,2.419-4.418,2.419
			c-0.125,0-0.239,0-0.363-0.02l-30.811-3.586c-0.727-0.086-1.367-0.42-1.97-0.803c-0.22-0.182-0.45-0.354-0.679-0.536
			c-0.507-0.478-0.994-1.004-1.252-1.673c-0.641-1.654-0.325-3.52,0.832-4.857l1.473-1.702c2.458-2.859,4.953-5.891,7.851-9.515
			c1.033-1.291,3.069-2.458,4.686-2.286l29.07,3.356c1.396,0.163,2.648,0.928,3.433,2.095
			C160.086,426.43,160.306,427.884,159.923,429.232z M197.093,358.231c-1.444,4.217-2.955,8.118-4.255,11.465
			c-0.612,1.568-2.256,3.338-3.92,3.615l-30.609,5.059c-0.258,0.048-0.526,0.066-0.784,0.066c-1.482,0-2.897-0.688-3.806-1.884
			c-1.071-1.405-1.281-3.299-0.536-4.905l0.957-2.056c1.884-4.045,3.605-8.138,4.896-11.256c0.641-1.521,2.266-3.222,3.892-3.49
			l28.716-4.781c1.33-0.21,2.668,0.134,3.729,0.966c1.052,0.832,1.712,2.065,1.817,3.404l0.144,1.913
			C197.389,356.978,197.303,357.619,197.093,358.231z M212.517,288.482c-0.163,1.673-1.252,3.825-2.783,4.552l-27.941,13.272
			c-0.65,0.307-1.358,0.459-2.046,0.459c-1.014,0-2.018-0.315-2.85-0.946c-1.416-1.052-2.142-2.812-1.875-4.552l0.335-2.219
			c0.603-3.978,1.1-7.956,1.53-12.163c0.172-1.674,1.282-3.807,2.812-4.523l26.077-12.345c2.362-1.091,5.173-0.134,6.331,2.209
			l0.832,1.673c0.363,0.727,0.526,1.53,0.488,2.333C213.234,280.047,212.947,283.834,212.517,288.482z M405.536,82.888l4.839,0.593
			c5.632,4.752,11.045,9.773,16.199,15.051l-31.021-3.854l1.368-1.673c2.639-3.232,5.393-6.483,8.194-9.649L405.536,82.888z
			 M402.696,77.285l0.401,1.338l-0.439,0.498c-3.061,3.414-5.719,6.502-8.119,9.467l-1.425,1.769l-7.449-25.083
			C391.518,69.022,397.207,73.029,402.696,77.285z M368.721,158.479l0.832-1.979c1.597-3.796,3.395-7.755,5.336-11.771
			c0.679-1.406,2.285-2.965,3.825-3.213c8.29-1.319,30.208-4.752,30.81-4.829l2.4-0.306c1.779-0.201,3.567,0.583,4.581,2.094
			c1.004,1.511,1.07,3.461,0.172,5.03l-1.195,2.084c-2.229,3.892-4.284,7.717-6.11,11.36c-0.688,1.387-2.286,2.888-3.806,3.136
			l-31.69,4.982c-0.249,0.038-0.497,0.057-0.746,0.057c-1.453,0-2.85-0.669-3.758-1.836
			C368.3,161.922,368.052,160.077,368.721,158.479z M351.384,279.139c5.575-4.867,16.772-14.563,21.382-18.57l3.882-3.366
			c1.396-1.205,3.366-1.492,5.03-0.784c1.683,0.736,2.812,2.362,2.878,4.208l0.096,2.485c0.191,4.791,0.459,9.009,0.822,12.9
			c0.144,1.54-0.401,3.653-1.567,4.667l-24.155,20.989c-0.89,0.765-2.008,1.176-3.137,1.176c-0.545,0-1.1-0.095-1.625-0.286
			c-1.626-0.593-2.812-2.018-3.099-3.729l-0.345-2.113c-0.669-4.112-1.233-8.31-1.721-12.843
			C349.672,282.324,350.208,280.172,351.384,279.139z M349.777,226.756l0.258-2.132c0.546-4.485,1.139-8.654,1.827-12.747
			c0.268-1.568,1.396-3.528,2.84-4.188c8.339-3.844,26.536-12.326,27.941-12.986l2.257-1.081c1.664-0.803,3.634-0.573,5.068,0.593
			s2.075,3.041,1.645,4.838l-0.593,2.438c-1.004,4.15-1.912,8.396-2.688,12.613c-0.277,1.521-1.396,3.414-2.792,4.074
			l-28.993,13.483c-0.641,0.296-1.329,0.439-2.018,0.439c-0.995,0-1.971-0.306-2.812-0.908
			C350.312,230.179,349.576,228.477,349.777,226.756z M366.741,350.074c4.915-7.573,16.142-24.814,16.896-25.962l1.358-2.047
			c1.014-1.521,2.812-2.361,4.618-2.094c1.808,0.239,3.328,1.491,3.902,3.223l0.774,2.323c1.491,4.466,2.916,8.425,4.37,12.116
			c0.563,1.435,0.631,3.634-0.211,4.934l-17.423,26.795c-0.889,1.367-2.4,2.18-4.007,2.18c-0.104,0-0.21-0.01-0.306-0.01
			c-1.73-0.114-3.251-1.147-3.997-2.706l-0.918-1.922c-1.702-3.548-3.356-7.306-5.221-11.81
			C365.967,353.641,365.881,351.403,366.741,350.074z M333.664,126.378c2.009-4.017,3.863-7.679,5.843-11.265
			c0.182-0.344,0.421-0.65,0.68-0.937c0.268-0.287,0.956-0.966,1.281-1.186l1.281-0.841c1.071-0.698,2.371-0.937,3.624-0.669
			s2.343,1.023,3.021,2.104l0.65,1.014c0,0,9.228,14.487,14.603,22.826c0.908,1.416,1.377,3.768,0.641,5.269
			c-1.903,3.844-3.49,7.287-5.461,11.752l-0.889,2.037c-0.708,1.616-2.247,2.716-4.007,2.85c-0.124,0.01-0.249,0.02-0.373,0.02
			c-1.626,0-3.146-0.823-4.025-2.209l-16.63-26.029C332.995,129.677,332.909,127.889,333.664,126.378z M309.931,193.345
			c0.2-0.89,0.717-2.037,1.367-2.678l1.329-1.32c1.788-1.788,4.657-1.864,6.541-0.201l21.152,18.647
			c1.252,1.109,2.353,3.242,2.046,4.886c-0.822,4.542-1.425,8.492-1.96,12.728l-0.287,2.237c-0.22,1.76-1.405,3.242-3.051,3.873
			c-0.555,0.201-1.118,0.306-1.692,0.306c-1.147,0-2.275-0.412-3.165-1.195l-23.266-20.483c-1.253-1.109-1.846-2.792-1.539-4.447
			C308.267,201.071,309.079,197.141,309.931,193.345z M304.068,289.218c-0.469-4.59-0.765-8.616-0.976-12.642
			c-0.038-0.822,0.115-1.941,0.479-2.678l0.822-1.673c1.157-2.334,3.959-3.328,6.34-2.2l26.067,12.355
			c1.511,0.717,2.534,2.161,2.706,3.824c0.507,4.868,1.014,8.846,1.636,12.824l0.344,2.228c0.268,1.75-0.449,3.51-1.864,4.571
			c-0.842,0.621-1.846,0.946-2.859,0.946c-0.698,0-1.396-0.153-2.046-0.459l-27.942-13.272
			C305.264,292.326,304.25,290.873,304.068,289.218z M323.93,370.336c-1.76-4.437-3.165-8.204-4.437-11.818
			c-0.249-0.728-0.421-1.77-0.315-2.525l0.258-1.864c0.172-1.271,0.86-2.419,1.894-3.185c1.042-0.765,2.343-1.08,3.604-0.87
			l27.999,4.657c1.636,0.277,3.672,1.491,4.294,3.021c1.683,4.15,3.328,7.928,5.135,11.848l0.947,2.027
			c0.745,1.606,0.545,3.5-0.536,4.906c-0.918,1.195-2.323,1.884-3.806,1.884c-0.258,0-0.517-0.02-0.784-0.067l-30.581-5.059
			C325.938,373.034,324.542,371.915,323.93,370.336z M404.513,438.173c-0.641,1.645-2.142,2.812-3.901,3.012l-30.771,3.586
			c-0.191,0.029-0.373,0.029-0.555,0.029c-1.473,0-2.869-0.68-3.787-1.855l-0.421-0.535c-2.696-3.51-5.192-6.972-7.277-9.917
			c-0.162-0.22-0.478-0.832-0.593-1.08l-0.659-2.075c-0.373-1.291-0.182-2.678,0.525-3.825c0.698-1.147,1.855-1.941,3.175-2.189
			l1.368-0.259l27.444-3.174c1.645-0.221,3.978,0.42,5.001,1.749c2.782,3.586,5.316,6.675,8.166,9.993l1.463,1.702
			C404.829,434.654,405.153,436.519,404.513,438.173z M415.31,427.501c-0.335,0.076-0.67,0.105-1.005,0.105
			c-1.357,0-2.677-0.584-3.586-1.626l-1.415-1.616c-2.764-3.165-5.536-6.493-8.243-9.896c-0.984-1.234-1.673-3.366-1.214-4.868
			l3.48-11.331c2.688-8.74,5.46-17.796,5.642-18.331l0.784-2.305c0.584-1.722,2.095-2.965,3.893-3.204
			c1.826-0.248,3.586,0.564,4.6,2.066l1.348,1.998c2.152,3.185,4.619,6.589,7.526,10.395c0.927,1.224,1.597,3.299,1.147,4.771
			l-9.381,30.553C418.369,425.885,417.002,427.138,415.31,427.501z M423.418,426.278c0.583-3.663,1.014-6.331,1.043-6.531
			l0.363-2.506l1.702,1.874c0.611,0.67,1.31,1.339,1.94,2.009C426.794,422.864,425.13,424.584,423.418,426.278z"/>
	</g>
</g>
<g>
</g>
<g>
</g>
<g>
</g>
<g>
</g>
<g>
</g>
<g>
</g>
<g>
</g>
<g>
</g>
<g>
</g>
<g>
</g>
<g>
</g>
<g>
</g>
<g>
</g>
<g>
</g>
<g>
</g>
</svg>
