<?xml version="1.0" encoding="iso-8859-1"?>
<!-- Generator: Adobe Illustrator 16.0.0, SVG Export Plug-In . SVG Version: 6.00 Build 0)  -->
<!DOCTYPE svg PUBLIC "-//W3C//DTD SVG 1.1//EN" "http://www.w3.org/Graphics/SVG/1.1/DTD/svg11.dtd">
<svg version="1.1" id="Capa_1" xmlns="http://www.w3.org/2000/svg" xmlns:xlink="http://www.w3.org/1999/xlink" x="0px" y="0px"
	 width="550.44px" height="550.439px" viewBox="0 0 550.44 550.439" style="enable-background:new 0 0 550.44 550.439;"
	 xml:space="preserve">
<g>
	<g>
		<path d="M281.26,108.376c0,22.874,18.589,41.463,41.435,41.463c22.883,0,41.473-18.589,41.473-41.463
			c0-22.854-18.59-41.435-41.473-41.435C299.849,66.951,281.26,85.521,281.26,108.376z"/>
		<path d="M207.724,511.35c-4.552,16.39,5.221,33.248,21.745,37.676c16.38,4.38,33.249-5.402,37.638-21.803l53.895-162.706
			l54.889,163.099c4.379,16.514,21.276,26.172,37.647,21.755c16.371-4.409,26.153-21.277,21.735-37.667l-61.095-185.589V177.57
			c0-19.441-19.46-18.58-19.46-18.58h-62.462h-16.534c0,0-3.28-0.478-10.069,5.097l-45.986,26.833l-47.995-48.042
			c-7.832-9.304-21.649-10.634-30.916-2.812c-9.419,7.822-9.935,21.994-2.123,31.413l61.238,61.219
			c4.16,4.428,9.907,7.43,16.352,7.43c4.772,0,9.199-1.568,12.814-4.064l40.354-22.185v108.945L207.724,511.35z"/>
		<path d="M116.44,171.507l-0.641,0.708c-2.19,2.2-2.295,5.671-0.105,7.822l12.096,12.326c2.075,2.142,5.632,2.19,7.822,0
			l0.746-0.593c2.065-2.209,2.199-5.738,0-7.899l-11.992-12.278C122.188,169.394,118.63,169.394,116.44,171.507z"/>
		<path d="M301.916,0.004c-3.567-0.086-6.618,1.291-9.037,3.366l-50.452,49.878l-70.733,76.471l8.558,8.731l78.9-68.038
			l52.441-48.348c2.065-2.314,3.434-5.365,3.434-8.683C315.026,6.066,309.164,0.081,301.916,0.004z"/>
	</g>
</g>
<g>
</g>
<g>
</g>
<g>
</g>
<g>
</g>
<g>
</g>
<g>
</g>
<g>
</g>
<g>
</g>
<g>
</g>
<g>
</g>
<g>
</g>
<g>
</g>
<g>
</g>
<g>
</g>
<g>
</g>
</svg>
