<?xml version="1.0" encoding="iso-8859-1"?>
<!-- Generator: Adobe Illustrator 16.0.0, SVG Export Plug-In . SVG Version: 6.00 Build 0)  -->
<!DOCTYPE svg PUBLIC "-//W3C//DTD SVG 1.1//EN" "http://www.w3.org/Graphics/SVG/1.1/DTD/svg11.dtd">
<svg version="1.1" id="Capa_1" xmlns="http://www.w3.org/2000/svg" xmlns:xlink="http://www.w3.org/1999/xlink" x="0px" y="0px"
	 width="552.526px" height="552.526px" viewBox="0 0 552.526 552.526" style="enable-background:new 0 0 552.526 552.526;"
	 xml:space="preserve">
<g>
	<g>
		<path d="M393.97,302.734c5.184,3.356,14.449,0.411,20.56-7.104c11.504-14.124,26.393-34.062,32.217-49.132
			c6.617-17.174,24.795-31.279,41.156-41.033c8.311-4.963,13.914-10.987,12.288-14.373c-1.042-2.18-1.941-4.284-2.63-6.244
			c-4.456-12.556-19.498-26.307-33.631-30.715c-3.596-1.119-7.401-3.098-11.236-5.728c-5.766-3.949-14.276-1.597-19.105,6.799
			c-7.583,13.167-15.3,29.95-18.466,47.64c-4.733,26.44-15.807,57.222-23.992,77.771
			C387.563,289.643,388.787,299.377,393.97,302.734z"/>
		<path d="M524.604,225.134c-1.501-1.396-3.031-2.964-4.58-4.667c-2.43-2.677-11.398-1.673-19.757,3.223
			c-14.085,8.243-28.649,19.25-33.066,30.705c-6.828,17.71-22.988,39.55-35.392,54.803c-6.129,7.525-5.326,18.493,1.578,25.293
			c6.426,6.33,12.747,13.234,18.924,20.788c1.855,2.276,2.716,5.136,2.43,8.052c-0.297,2.917-1.712,5.527-3.988,7.383
			c-1.96,1.587-4.418,2.467-6.923,2.467c-3.328,0-6.426-1.463-8.511-4.035c-63.591-77.963-148.907-81.894-149.758-81.922
			c-6.044-0.201-10.796-5.27-10.624-11.294c0.19-5.957,5.001-10.633,10.958-10.633c1.023,0.029,7.229,0.277,17.012,1.855
			c9.353,1.501,18.207-4.332,19.154-13.971c1.711-17.643,2.256-43.041-2.745-73.038c-6.971-41.875,5.958-79.34,16.505-101.401
			c4.188-8.75,7.526-16.648,6.675-18.188c-0.497-0.937-0.966-1.884-1.367-2.85c-6.876-15.74-31.547-23.964-55.118-18.351
			l-6.771,1.616c-23.562,5.604-40.535,29.749-34.425,53.187c4.37,16.734,10.978,37.801,20.99,62.252
			c8.683,21.229,11.637,38.671,11.695,52.546c0.105,24.231-31.585,39.044-55.329,43.892c-3.213,0.66-6.302,1.386-9.304,2.18
			c-23.428,6.158-45.651-3.185-58.332-23.849c-20.272-33.048-48.654-51.733-72.005-62.156c-22.118-9.878-54.64-0.172-70.39,15.167
			c-15.759,15.348-16.467,43.28-0.411,61.42c3.146,3.557,6.512,7.306,10.05,11.169c16.371,17.863,45.728,45.402,53.579,68.324
			c2.008,5.843,3.414,11.646,4.398,17.222c4.188,23.858,3.596,64.355,21.535,80.641c6.005,5.45,12.737,10.49,19.412,14.956
			c20.148,13.474,46.436,40.344,66.345,54.162c25.36,17.575,72.139,32.397,156.26,15.262
			c107.885-21.975,168.683-104.939,196.386-155.314c8.635-15.73,12.871-38.499,12.833-57.069c-0.01-9.696-3.156-25.197-6.608-34.252
			C540.382,246.191,532.158,232.105,524.604,225.134z"/>
		<path d="M353.052,281.381c6.656,2.716,15.004-1.999,18.552-11.016c7.717-19.623,17.71-47.774,21.946-71.355
			c4.322-24.126,15.52-46.235,25.273-61.879c5.135-8.224,8.778-16.237,7.603-18.398c-0.718-1.329-1.387-2.658-1.971-3.987
			c-7.669-17.356-26.66-30.782-42.409-29.979c-3.644,0.182-7.411-0.354-11.15-1.454c-5.977-1.779-14.162,2.333-17.996,11.246
			c-8.511,19.852-17.299,49.907-11.943,81.989c5.775,34.683,4.742,63.591,2.553,82.917
			C342.409,269.083,346.396,278.666,353.052,281.381z"/>
		<path d="M256.337,209.031c-0.009-3.729-0.334-7.602-0.851-11.571c-5.689,0.976-11.207,2.133-16.505,3.558
			c3.318,6.579,6.13,13.626,8.549,20.989C252.875,217.962,256.356,213.497,256.337,209.031z"/>
		<path d="M144.102,112.163c6.216,2.974,15.941,8.09,27.244,15.558c10.06-3.548,21.085-6.455,32.924-8.443
			c-9.266-7.593-18.246-13.751-26.067-18.513C165.809,103.825,154.41,107.726,144.102,112.163z"/>
		<path d="M182.62,135.677c8.979,6.723,18.312,14.812,27.292,24.317c8.587-2.534,17.729-4.59,27.435-5.977
			c-6.904-9.486-14.497-17.92-22.291-25.283C203.457,130.102,192.651,132.569,182.62,135.677z"/>
		<path d="M172.197,175.247c7.698-4.036,16.38-7.947,25.924-11.399c-9.448-9.438-19.24-17.355-28.314-23.715
			c-8.97,3.49-17.117,7.363-24.279,11.284C154.315,158.044,163.438,165.971,172.197,175.247z"/>
		<path d="M166.87,223.413c5.116-3.71,11.456-7.927,18.963-12.24c-4.849-7.937-10.213-15.214-15.96-21.851
			c-7.574,4.37-13.895,8.597-18.819,12.211c5.422,6.455,10.395,13.273,14.812,20.473
			C166.182,222.514,166.555,222.935,166.87,223.413z"/>
		<path d="M162.099,180.86c-8.97-9.17-18.274-16.925-27.062-23.285c-7.889,4.944-14.085,9.496-18.274,12.852
			c9.744,6.79,18.733,14.411,26.804,22.845C148.443,189.6,154.611,185.316,162.099,180.86z"/>
		<path d="M131.432,118.14c-7.401,3.777-14.2,7.717-20.292,11.686c6.417,3.261,14.898,8.051,24.403,14.458
			c6.742-3.921,14.449-7.87,22.998-11.542c-14.573-9.018-25.293-13.483-25.589-13.598
			C132.369,118.905,131.881,118.542,131.432,118.14z"/>
		<path d="M229.811,127.692c1.597,1.664,3.213,3.271,4.772,5.021c-0.574-1.683-1.147-3.366-1.702-5.049
			C231.857,127.683,230.834,127.664,229.811,127.692z"/>
		<path d="M198.981,239.115c-2.19-6.359-4.695-12.498-7.641-18.255c-6.636,3.806-12.383,7.545-17.041,10.854
			C181.224,237.422,189.782,240.081,198.981,239.115z"/>
		<path d="M206.44,172.722c-9.782,3.309-18.618,7.182-26.545,11.208c5.613,6.713,10.901,14.028,15.683,22.003
			c8.07-4.112,17.05-8.1,27.042-11.513C217.695,186.531,212.235,179.301,206.44,172.722z"/>
		<path d="M82.912,151.8c1.062,0.401,2.142,0.736,3.156,1.195c7.344,3.28,14.334,7.047,21.057,11.13
			c3.749-3.184,9.782-7.975,17.978-13.387c-10.318-6.675-18.982-11.198-24.26-13.722C93.669,142.304,87.635,147.401,82.912,151.8z"
			/>
		<path d="M215.027,235.653c7.898-1.616,15.979-4.389,22.921-7.832c-2.591-8.338-5.775-16.266-9.61-23.581
			c-10.06,3.356-19.163,7.296-27.272,11.408c3.375,6.646,6.225,13.789,8.702,21.238C211.527,236.466,213.22,236.026,215.027,235.653
			z"/>
		<path d="M229.418,116.782c-1.874-6.12-3.643-12.202-5.202-18.188c-0.373-1.415-0.631-2.84-0.89-4.274
			c-10.394,0.43-20.215,1.587-29.577,3.194c8.081,5.422,16.772,12.011,25.484,19.88
			C222.572,117.107,225.957,116.887,229.418,116.782z"/>
		<path d="M244.164,164.231c-9.17,1.052-17.911,2.764-26.134,4.982c5.527,6.675,10.729,13.961,15.434,21.87
			c6.369-1.779,13.12-3.223,20.101-4.399c-0.822-3.586-1.817-7.258-3.022-10.997C248.563,171.718,246.44,167.913,244.164,164.231z"
			/>
	</g>
</g>
<g>
</g>
<g>
</g>
<g>
</g>
<g>
</g>
<g>
</g>
<g>
</g>
<g>
</g>
<g>
</g>
<g>
</g>
<g>
</g>
<g>
</g>
<g>
</g>
<g>
</g>
<g>
</g>
<g>
</g>
</svg>
