<?xml version="1.0" encoding="iso-8859-1"?>
<!-- Generator: Adobe Illustrator 16.0.0, SVG Export Plug-In . SVG Version: 6.00 Build 0)  -->
<!DOCTYPE svg PUBLIC "-//W3C//DTD SVG 1.1//EN" "http://www.w3.org/Graphics/SVG/1.1/DTD/svg11.dtd">
<svg version="1.1" id="Capa_1" xmlns="http://www.w3.org/2000/svg" xmlns:xlink="http://www.w3.org/1999/xlink" x="0px" y="0px"
	 width="546.596px" height="546.596px" viewBox="0 0 546.596 546.596" style="enable-background:new 0 0 546.596 546.596;"
	 xml:space="preserve">
<g>
	<g>
		<path d="M528.578,264.687c-96.725-18.991-63.113-52.556-132.747-148.314C322.009,14.876,148.009,26.743,54.43,105.834
			c-93.579,79.082-39.541,274.167-32.952,300.53c1.453,5.833,2.926,10.251,4.303,13.589c3.022,7.276,10.318,18.771,15.444,28.008
			c17.69,31.872,61.573,47.708,86.818,54.421c10.203,2.716,25.092-1.502,33.019-8.473l58.274-51.197
			c7.927-6.972,9.142-19.412,2.687-27.77c-9.218-11.944-21.276-27.521-25.895-33.297c-7.908-9.888-27.674-61.296,59.316-57.347
			c87,3.959,117.639-17.796,151.251-24.709c33.612-6.924,60.311-17.146,106.44-10.548c17.03,2.429,26.153,0.201,30.887-3.596
			C552.273,278.849,538.943,266.714,528.578,264.687z"/>
		<path d="M274.999,402.329c33.622,29.931,78.098,56.629,118.633,57.614c28.219,0.688,57.892-33.976,73.297-55.09
			c6.225-8.539,6.674-23.371,2.056-32.876c-8.215-16.896-19.67-42.716-22.463-60.32c-2.858,0.65-5.708,1.281-8.587,1.961
			c-6.101,1.415-12.259,2.858-18.676,4.179c-8.042,1.654-16.093,4.303-25.397,7.372c-27.521,9.075-62.481,20.684-129.4,17.614
			c-28.019-1.281-46.159,3.596-50.653,12.948c-3.596,7.468,1.176,18.589,3.194,21.104c2.534,3.175,7.325,9.305,12.632,16.151
			c1.53-0.65,3.012-1.271,4.389-1.808C243.902,387.363,258.063,387.239,274.999,402.329z"/>
	</g>
</g>
<g>
</g>
<g>
</g>
<g>
</g>
<g>
</g>
<g>
</g>
<g>
</g>
<g>
</g>
<g>
</g>
<g>
</g>
<g>
</g>
<g>
</g>
<g>
</g>
<g>
</g>
<g>
</g>
<g>
</g>
</svg>
