<?xml version="1.0" encoding="iso-8859-1"?>
<!-- Generator: Adobe Illustrator 16.0.0, SVG Export Plug-In . SVG Version: 6.00 Build 0)  -->
<!DOCTYPE svg PUBLIC "-//W3C//DTD SVG 1.1//EN" "http://www.w3.org/Graphics/SVG/1.1/DTD/svg11.dtd">
<svg version="1.1" id="Capa_1" xmlns="http://www.w3.org/2000/svg" xmlns:xlink="http://www.w3.org/1999/xlink" x="0px" y="0px"
	 width="492.469px" height="492.469px" viewBox="0 0 492.469 492.469" style="enable-background:new 0 0 492.469 492.469;"
	 xml:space="preserve">
<g>
	<g>
		<path d="M19.125,358.932l85.661-0.229c-12.565-23.878-24.279-41.09-28.372-46.856c-19.058-10.806-23.189-24.05-23.189-33.488
			c0-11.025,0.105-39.358,87.822-51.876v-41.233c0-10.558,8.568-19.125,19.125-19.125h160.172c10.557,0,19.125,8.567,19.125,19.125
			v39.693c99.68,11.552,99.775,41.913,99.775,53.416c0,9.448-4.141,22.711-23.247,33.517c-3.662,5.154-15.596,22.577-28.458,47.076
			l85.805-0.238c10.557-0.029,19.125-8.616,19.125-19.183V68.098c0-10.557-8.568-19.125-19.125-19.125
			c0,0-52.173-12.843-116.548-28.688c-64.365-15.845-166.043-15.845-227.109,0L19.125,48.973C8.568,48.973,0,57.541,0,68.098
			v271.766C0,350.421,8.568,358.96,19.125,358.932z"/>
		<path d="M405.316,279.706c0-14.774-11.973-26.746-26.746-26.746H113.277c-14.774,0-26.746,11.972-26.746,26.746
			s11.972,26.756,26.746,26.756h18.188c13.77,29.022,32.876,85.9,19.842,161.214c-0.832,4.858,2.41,9.477,7.268,10.309
			c0.516,0.086,1.023,0.134,1.53,0.134c4.255,0,8.023-3.051,8.778-7.392c2.247-12.967,3.461-25.303,4.112-37.198h64.012v41.616
			c0,4.935,3.987,8.922,8.921,8.922s8.922-3.987,8.922-8.922v-41.616h59.584c0.641,11.887,1.864,24.231,4.111,37.198
			c0.746,4.341,4.523,7.392,8.778,7.392c0.507,0,1.014-0.038,1.53-0.134c4.848-0.842,8.1-5.45,7.258-10.309
			c-12.986-75.094,6.139-132.115,19.909-161.214h22.549C393.344,306.462,405.316,294.48,405.316,279.706z M237.006,415.694h-63.59
			c-0.086-17.088-1.568-32.838-4.007-47.144h67.597V415.694z M237.006,350.717h-71.221c-4.179-17.547-9.448-32.493-14.564-44.255
			h85.795v44.255H237.006z M314.014,415.694h-59.173v-47.144h63.18C315.582,382.856,314.1,398.616,314.014,415.694z
			 M321.645,350.717h-66.804v-44.255h81.367C331.082,318.224,325.823,333.17,321.645,350.717z"/>
	</g>
</g>
<g>
</g>
<g>
</g>
<g>
</g>
<g>
</g>
<g>
</g>
<g>
</g>
<g>
</g>
<g>
</g>
<g>
</g>
<g>
</g>
<g>
</g>
<g>
</g>
<g>
</g>
<g>
</g>
<g>
</g>
</svg>
