<?xml version="1.0" encoding="iso-8859-1"?>
<!-- Generator: Adobe Illustrator 16.0.0, SVG Export Plug-In . SVG Version: 6.00 Build 0)  -->
<!DOCTYPE svg PUBLIC "-//W3C//DTD SVG 1.1//EN" "http://www.w3.org/Graphics/SVG/1.1/DTD/svg11.dtd">
<svg version="1.1" id="Capa_1" xmlns="http://www.w3.org/2000/svg" xmlns:xlink="http://www.w3.org/1999/xlink" x="0px" y="0px"
	 width="518.345px" height="518.345px" viewBox="0 0 518.345 518.345" style="enable-background:new 0 0 518.345 518.345;"
	 xml:space="preserve">
<g>
	<g>
		<path d="M239.555,244.398v207.659l-36.471,52.393c-1.875,2.706-2.104,6.226-0.574,9.142c1.521,2.917,4.542,4.753,7.832,4.753
			h76.328c3.186,0,6.121-1.712,7.697-4.484c1.559-2.773,1.521-6.178-0.123-8.903l-31.137-51.896V244.446h14.717
			c55.205,0,100.129-44.915,100.129-100.129V43.203C377.953,9.104,303.289,0,259.178,0c-44.122,0-118.786,9.104-118.786,43.203
			v101.114C140.392,199.206,184.791,243.872,239.555,244.398z M303.892,151.68h-35.879v-26.966h41.789
			C307.373,133.053,305.355,142.07,303.892,151.68z M250.342,107.042h-44.236c-4.102-10.49-8.568-19.536-12.852-27.062
			c18.752,4.007,39.531,5.843,57.088,6.292V107.042z M212.102,124.714h38.25v26.966h-32.34
			C216.548,142.07,214.53,133.053,212.102,124.714z M315.796,107.042h-47.783v-20.77c18.857-0.488,41.387-2.601,61.182-7.258
			C324.748,86.732,320.072,96.103,315.796,107.042z M259.178,23.562c54.898,0,89.945,12.412,94.947,19.641
			c-5.002,7.22-40.049,19.632-94.947,19.632c-54.908,0-89.955-12.412-94.956-19.632C169.223,35.983,204.27,23.562,259.178,23.562z
			 M163.954,70.695c1.081,0.498,2.123,1.014,3.251,1.482c10.958,14.927,36.672,56.275,35.563,114.673
			c-0.096,4.877,3.787,8.903,8.664,8.999c0.057,0,0.115,0,0.163,0c4.8,0,8.74-3.844,8.835-8.673
			c0.115-6.148-0.115-12.049-0.497-17.834h30.399v17.671c0,4.877,3.949,8.836,8.836,8.836c4.876,0,8.835-3.959,8.835-8.836v-17.671
			h33.938c-0.383,5.785-0.611,11.695-0.498,17.834c0.096,4.82,4.037,8.673,8.836,8.673c0.059,0,0.115,0,0.164,0
			c4.877-0.096,8.758-4.122,8.662-8.999c-1.09-57.633,24.166-98.915,35.287-114.243v71.709c0,42.218-34.359,76.567-76.578,76.567
			h-37.302c-42.219,0-76.567-34.349-76.567-76.567V70.695H163.954z"/>
	</g>
</g>
<g>
</g>
<g>
</g>
<g>
</g>
<g>
</g>
<g>
</g>
<g>
</g>
<g>
</g>
<g>
</g>
<g>
</g>
<g>
</g>
<g>
</g>
<g>
</g>
<g>
</g>
<g>
</g>
<g>
</g>
</svg>
