<?xml version="1.0" encoding="iso-8859-1"?>
<!-- Generator: Adobe Illustrator 16.0.0, SVG Export Plug-In . SVG Version: 6.00 Build 0)  -->
<!DOCTYPE svg PUBLIC "-//W3C//DTD SVG 1.1//EN" "http://www.w3.org/Graphics/SVG/1.1/DTD/svg11.dtd">
<svg version="1.1" id="Capa_1" xmlns="http://www.w3.org/2000/svg" xmlns:xlink="http://www.w3.org/1999/xlink" x="0px" y="0px"
	 width="528.739px" height="528.739px" viewBox="0 0 528.739 528.739" style="enable-background:new 0 0 528.739 528.739;"
	 xml:space="preserve">
<g>
	<g>
		<path d="M67.601,513.707l75.505-74.817c4.332-3.662,7.42-8.721,8.692-14.238l9.763-42.361l42.113,22.835v97.193
			c0,14.563,11.848,26.421,26.421,26.421c14.563,0,26.421-11.848,26.421-26.421V389.395c0-9.696-5.297-18.59-13.827-23.228
			l-38.116-20.674l-22.826-123.5l35.247-45.938c2.63-3.433,4.093-7.727,4.093-12.058v-48.281c0-10.93-8.893-19.813-19.813-19.813
			c-10.93,0-19.813,8.884-19.813,19.813v41.559l-20.396,26.584l-66.909,11.475L74.18,172.02l5.69-70.122
			c0.87-10.892-7.258-20.473-18.169-21.353C50.8,79.809,41.237,87.994,40.367,98.694l-6.359,78.355
			c-0.43,5.307,1.253,10.452,4.714,14.497l49.572,57.834l23.428,113.937l-9.429,40.87l-68.792,69.137
			c-11.121,9.4-12.537,26.097-3.136,37.246C39.42,521.262,56.881,522.763,67.601,513.707z"/>
		<path d="M114.515,89.897c-22.434,7.889-33.928,32.685-26.039,55.099c8.032,22.195,32.713,33.909,55.08,25.838
			c22.462-8.004,33.995-32.704,26.067-54.937C161.533,93.521,136.948,81.788,114.515,89.897z"/>
		<path d="M413.562,33.469c-33.823,0-91.045,6.98-91.045,33.115v77.495c0,42.065,34.023,76.309,75.993,76.71v43.633h18.063v-43.595
			h11.284c42.313,0,76.738-34.435,76.738-76.749V66.583C504.588,40.44,447.365,33.469,413.562,33.469z M413.562,51.522
			c42.074,0,68.936,9.515,72.771,15.052c-3.825,5.537-30.687,15.042-72.771,15.042c-42.085,0-68.956-9.515-72.78-15.042
			C344.606,61.038,371.468,51.522,413.562,51.522z M447.824,149.72h-27.501v-20.674h32.034
			C450.492,135.453,448.953,142.357,447.824,149.72z M406.792,115.505h-33.909c-3.136-8.042-6.569-14.975-9.849-20.741
			c14.372,3.07,30.303,4.485,43.758,4.829V115.505z M377.464,129.056h29.318v20.674h-24.786
			C380.878,142.357,379.328,135.453,377.464,129.056z M456.947,115.505h-36.624V99.593c14.448-0.373,31.728-1.999,46.894-5.565
			C463.813,99.938,460.228,107.129,456.947,115.505z M427.849,202.773h-28.592c-32.359,0-58.686-26.326-58.686-58.695V87.65
			c0.822,0.382,1.626,0.774,2.496,1.138c8.396,11.437,28.104,43.137,27.263,87.899c-0.076,3.739,2.907,6.827,6.637,6.895
			c0.038,0,0.086,0,0.134,0c3.682,0,6.703-2.955,6.77-6.646c0.087-4.714-0.086-9.237-0.382-13.674h23.304v13.55
			c0,3.739,3.021,6.771,6.771,6.771c3.738,0,6.77-3.031,6.77-6.771v-13.55h26.011c-0.297,4.437-0.469,8.96-0.383,13.674
			c0.076,3.691,3.099,6.646,6.771,6.646c0.038,0,0.086,0,0.124,0c3.739-0.067,6.713-3.166,6.646-6.895
			c-0.832-44.169,18.522-75.802,27.043-87.564v54.956C486.543,176.447,460.208,202.773,427.849,202.773z"/>
		<circle cx="234.247" cy="33.469" r="33.469"/>
	</g>
</g>
<g>
</g>
<g>
</g>
<g>
</g>
<g>
</g>
<g>
</g>
<g>
</g>
<g>
</g>
<g>
</g>
<g>
</g>
<g>
</g>
<g>
</g>
<g>
</g>
<g>
</g>
<g>
</g>
<g>
</g>
</svg>
