<?xml version="1.0" encoding="iso-8859-1"?>
<!-- Generator: Adobe Illustrator 16.0.0, SVG Export Plug-In . SVG Version: 6.00 Build 0)  -->
<!DOCTYPE svg PUBLIC "-//W3C//DTD SVG 1.1//EN" "http://www.w3.org/Graphics/SVG/1.1/DTD/svg11.dtd">
<svg version="1.1" id="Capa_1" xmlns="http://www.w3.org/2000/svg" xmlns:xlink="http://www.w3.org/1999/xlink" x="0px" y="0px"
	 width="517.255px" height="517.254px" viewBox="0 0 517.255 517.254" style="enable-background:new 0 0 517.255 517.254;"
	 xml:space="preserve">
<g>
	<g>
		<path d="M258.628,517.254c142.605,0,258.627-116.021,258.627-258.626C517.255,116.022,401.242,0,258.628,0
			C116.022,0,0,116.022,0,258.628C0,401.233,116.022,517.254,258.628,517.254z M28.697,258.628c0-3.691,0.105-7.354,0.277-11.006
			h218.637v-42.496c-63.16-4.15-101.831-39.589-127.621-63.228c-13.521-12.412-28.467-22.032-39.569-28.362
			c5.259-6.455,10.873-12.613,16.792-18.456c11.542,6.885,25.857,16.553,39.254,28.85c24.413,22.357,57.585,52.737,111.136,56.792
			V28.975c3.653-0.172,7.325-0.277,11.016-0.277c4.475,0,8.912,0.163,13.33,0.411v151.604
			c53.626-4.064,86.751-34.444,111.145-56.792c12.747-11.685,26.183-20.951,37.849-27.989c5.871,5.852,11.389,12.049,16.601,18.503
			c-11.055,6.388-25.063,15.606-37.992,27.463c-25.78,23.648-64.432,59.087-127.611,63.228v42.496h216.332
			c0.173,3.653,0.277,7.315,0.277,11.006c0,4.484-0.162,8.931-0.411,13.349H271.958v42.477
			c63.141,4.15,101.812,39.59,127.611,63.219c12.393,11.369,25.972,20.396,36.748,26.717c-5.278,6.426-10.92,12.537-16.858,18.35
			c-11.217-6.865-24.088-15.854-36.356-27.09c-24.385-22.367-57.509-52.756-111.145-56.791v149.289
			c-4.409,0.248-8.846,0.42-13.331,0.42c-3.69,0-7.363-0.104-11.016-0.277V338.877c-53.569,4.035-86.732,34.424-111.135,56.781
			c-12.929,11.828-26.641,21.219-37.772,27.951c-5.977-5.795-11.666-11.877-16.983-18.283c11.131-6.406,25.254-15.693,38.269-27.637
			c25.809-23.646,64.509-59.086,127.631-63.227v-42.477H29.108C28.86,267.559,28.697,263.112,28.697,258.628z"/>
	</g>
</g>
<g>
</g>
<g>
</g>
<g>
</g>
<g>
</g>
<g>
</g>
<g>
</g>
<g>
</g>
<g>
</g>
<g>
</g>
<g>
</g>
<g>
</g>
<g>
</g>
<g>
</g>
<g>
</g>
<g>
</g>
</svg>
