<?xml version="1.0" encoding="iso-8859-1"?>
<!-- Generator: Adobe Illustrator 16.0.0, SVG Export Plug-In . SVG Version: 6.00 Build 0)  -->
<!DOCTYPE svg PUBLIC "-//W3C//DTD SVG 1.1//EN" "http://www.w3.org/Graphics/SVG/1.1/DTD/svg11.dtd">
<svg version="1.1" id="Capa_1" xmlns="http://www.w3.org/2000/svg" xmlns:xlink="http://www.w3.org/1999/xlink" x="0px" y="0px"
	 width="539.115px" height="539.115px" viewBox="0 0 539.115 539.115" style="enable-background:new 0 0 539.115 539.115;"
	 xml:space="preserve">
<g>
	<g>
		<path d="M272.526,539.115l-5.938-0.363c90.882-1.53,126.741-17.872,140.731-29.232c6.072-4.935,8.76-17.251,8.76-25.073
			c0-10.347,0-24.796,0-37.801c0-14.362-14.65-23.045-26.145-27.645c-7.268-2.917-11.437-10.232-8.864-17.624l0.144-0.401
			c2.572-7.383,2.83-19.45,0.583-26.947l-35.534-118.116c-2.247-7.497-1.435-14.889,1.808-16.524
			c3.271-1.625,5.919-7.181,5.919-12.402c0-5.212,4.236-11.026,9.438-12.986c5.221-1.951,9.447-9.888,9.447-17.71v-12.986
			c0-7.832-2.916-16.294-6.492-18.896c-3.596-2.61-6.503-8.424-6.503-12.996c0-4.571,5.575-11.303,12.44-15.061l1.1-0.593
			c6.876-3.749,12.451-13.129,12.451-20.951V26.25c0-7.822-5.451-17.452-12.671-20.483c-5.049-2.123-11.207-4.274-17.758-5.556
			c-7.688-1.501-14.104,5.23-14.104,13.053v40.144c0,7.832-5.364,14.181-11.991,14.181c-6.598,0-11.972-40.249-11.972-48.071
			s-6.341-14.162-14.172-14.162h-30.695l-5.92,0.363h-30.695c-7.822,0-14.172,6.35-14.172,14.172s-5.355,48.071-11.972,48.071
			s-11.972-6.35-11.972-14.172V13.627c0-7.822-6.426-14.554-14.104-13.053c-6.55,1.281-12.718,3.433-17.767,5.556
			c-7.21,3.021-12.661,12.661-12.661,20.483v88.567c0,7.822,5.575,17.213,12.441,20.952l1.1,0.593
			c6.866,3.749,12.441,10.49,12.441,15.061c0,4.562-2.907,10.385-6.502,12.986c-3.576,2.601-6.493,11.074-6.493,18.896v12.986
			c0,7.822,4.227,15.759,9.448,17.71c5.212,1.96,9.448,7.774,9.448,12.986c0,5.221,2.64,10.777,5.91,12.402
			c3.261,1.635,4.074,9.027,1.817,16.524l-35.524,118.116c-2.257,7.487-1.999,19.556,0.574,26.947l0.134,0.401
			c2.572,7.392-1.597,14.717-8.855,17.634c-11.494,4.6-26.144,13.282-26.144,27.645c0,13.005,0,27.444,0,37.801
			c0,7.822,2.687,20.139,8.759,25.073C145.775,521.253,181.625,537.595,272.526,539.115z"/>
	</g>
</g>
<g>
</g>
<g>
</g>
<g>
</g>
<g>
</g>
<g>
</g>
<g>
</g>
<g>
</g>
<g>
</g>
<g>
</g>
<g>
</g>
<g>
</g>
<g>
</g>
<g>
</g>
<g>
</g>
<g>
</g>
</svg>
