<?xml version="1.0" encoding="iso-8859-1"?>
<!-- Generator: Adobe Illustrator 16.0.0, SVG Export Plug-In . SVG Version: 6.00 Build 0)  -->
<!DOCTYPE svg PUBLIC "-//W3C//DTD SVG 1.1//EN" "http://www.w3.org/Graphics/SVG/1.1/DTD/svg11.dtd">
<svg version="1.1" id="Capa_1" xmlns="http://www.w3.org/2000/svg" xmlns:xlink="http://www.w3.org/1999/xlink" x="0px" y="0px"
	 width="521.635px" height="521.635px" viewBox="0 0 521.635 521.635" style="enable-background:new 0 0 521.635 521.635;"
	 xml:space="preserve">
<g>
	<g>
		<path d="M260.817,0C116.998,0,0,116.998,0,260.817c0,143.82,116.998,260.817,260.817,260.817
			c143.82,0,260.817-116.997,260.817-260.817C521.635,116.998,404.628,0,260.817,0z M452.784,131.81
			c2.659,4.504-5.44,7.727,0.564,12.403c3.251,2.524,7.344,0.765,9.63,5.393c2.533,5.125-5.499,4.103-4.504,8.549
			c0.841,3.586,2.361,9.161,4.819,12.02c2.457,2.974,7.755,4.236,7.86,8.913c0.134,3.691-3.48,1.979-5.192,3.366
			c-1.339,1.033-0.688,3.223-0.44,4.619c1.167,5.192,7.297,7.535,9.945,12.049c1.062,1.894,2.189,4.609,0.65,6.502
			c-2.783,3.433-6.971-3.92-8.511-0.956c-0.928,1.893,0.87,3.911,2.219,4.982c3.413,2.983,7.727,5.709,8.854,10.404
			c2.008,8.865-8.673,1.32-9.132,7.641c-0.402,5.967,8.749,9.314,6.799,15.826c-1.654,5.633-7.105-2.142-8.559,1.712
			c-3.729,9.869,9.792,13.167,8.042,21.525c-1.826,8.224-9.562-1.195-10.901,2.257c-3.538,9.247,8.387,11.656,7.21,19.871
			c-1.062,7.478-7.449-0.307-9.228,3.299c-3.414,6.98,6.082,9.744,5.45,16.084c-0.697,6.598-7.085,1.138-8.605,5.432
			c-1.062,2.926-2.534,8.424-1.272,11.398c1.473,3.471,5.068,4.943,4.896,9.228c-0.297,5.891-6.655,2.429-7.928,6.646
			c-0.736,2.677-0.86,5.977,0.249,8.567c1.186,2.716,4.246,5.757,2.209,8.864c-2.343,3.653-6.006-0.908-8.396,1.827
			c-2.17,2.419-3.758,11.006-2.802,14.114c0.823,2.581,3.414,5.249,2.659,8.214c-0.822,2.974-4.896,3.309-6.016,6.34
			c-1.511,4.246,2.286,7.535,1.101,11.131c-1.101,3.223-5.403,3.376-6.99,6.35c-0.976,2.046-2.267,5.068-2.4,7.583
			c-7.469,8.481-15.529,16.419-24.136,23.734c-3.854-0.144-9.075,0.765-8.463-3.356c0.401-2.544,4.446-3.366,6.35-4.313
			c4.943-2.515,13.043-5.556,14.133-11.886c0.756-4.628-8.692-3.107-11.235-4.877c-1.568-1.138-3.528-3.854-1.932-5.757
			c1.625-1.96,4.791-0.765,6.971-1.022c6.818-0.698,13.521-3.032,13.589-11.188c0-5.709-18.351-1.205-14.411-9.83
			c1.511-3.404,5.795-2.143,8.788-2.582c7.096-1.205,13.713-5.192,12.891-13.598c-0.488-4.819-15.75,0.048-13.98-7.66
			c0.621-2.85,5.68-3.538,8.042-4.131c6.703-1.702,14.4-4.733,13.34-13.349c-0.307-2.209-2.726-2.209-4.428-2.037
			c-3.472,0.383-11.887,0.65-11.839-4.925c0.067-2.983,6.856-3.548,8.989-4.236c7.143-2.419,14.066-5.269,12.756-14.506
			c-0.822-6.13-16.485-0.363-16.485-8.53c0-4.322,9.161-4.322,11.963-4.752c6.77-1.023,8.463-5.709,8.348-12.145
			c-0.191-6.024-17.021-2.229-15.826-10.137c0.307-2.343,3.414-2.515,5.26-2.726c3.997-0.563,11.762-0.238,12.527-5.23
			c0.372-2.409,1.31-6.731-0.88-8.491c-3.271-2.602-15.473-3.041-14.134-9.811c0.479-2.534,3.548-2.907,5.661-2.792
			c4.398,0.315,10.987,1.339,11.638-4.571c0.794-7.698-5.824-7.784-11.332-10.528c-2.084-1.09-6.062-3.452-5.632-6.292
			c1.377-8.271,16.275,4.045,17.021-3.481c0.307-3.538,0.813-8.549-3.165-10.069c-3.06-1.128-14.238-1.262-13.999-6.148
			c0.401-8.406,16.705-0.823,17.643-7.019c1.597-9.744-16.868-6.015-15.597-15.826c0.89-6.704,12.891,1.472,14.058-4.791
			c1.807-9.668-17.48-4.227-18.935-13.626c-1.654-10.299,16.219,1.1,15.31-5.747c-0.324-2.716-2.104-7.277-4.81-8.406
			c-4.867-2.094-10.012,0.612-13.474-4.886c-4.332-6.713,10.423-2.926,8.808-8.922c-0.259-1.014-0.842-1.97-1.358-2.859
			c-3.854-6.627-7.152-1.387-12.737-2.094c-2.343-0.296-6.895-2.831-5.891-5.824c1.339-3.911,7.736-2.63,8.96-6.378
			c0.813-2.716-4.227-9.238-6.855-9.486c-5.633-0.641-7.956,5.575-13.962,0.947c-0.928-0.698-2.036-1.645-2.285-2.831
			c-0.708-4.446,10.557-4.877,8.864-10.203c-3.806-11.37-15.204,4.103-20.53-3.615c-2.764-4.026,8.31-5.919,5.575-10.624
			c-1.464-2.524-8.215-7.898-11.332-6.875c-2.744,0.947-6.837,6.178-9.993,3.166c-3.547-3.414,4.408-6.799,0.947-10.385
			c-2.229-2.362-8.54-6.464-11.905-5.642c-2.095,0.43-4.743,4.571-6.952,3.29c-3.739-2.142,0.698-7.526-4.188-9.859
			c-2.027-1.023-4.991-2.477-7.277-1.654c-1.902,0.698-4.217,4.752-6.445,2.907c-2.295-1.96,0.574-4.752-0.525-7.019
			c-1.453-3.299-7.88-5.24-11.131-6.139c-4.638-1.253-6.072,5.651-9.486,4.504c-2.677-0.938-1.721-5.24-3.423-7.144
			c-2.4-2.744-9.305-3.997-12.785-4.236c-4.294-0.382-2.831,6.636-6.397,6.053c-2.716-0.498-2.965-5.747-4.839-7.449
			c-2.285-2.161-8.559-2.726-11.666-2.926c-5.632-0.373-3.165,9.753-7.908,8.606c-2.859-0.698-2.429-4.982-3.28-7.152
			c-1.453-3.481-8.367-4.877-11.599-2.984c-3.347,1.979,1.204,7.793-2.965,9.123c-2.151,0.679-3.786-2.151-4.743-3.595
			c-1.798-2.668-3.872-4.37-7.21-4.437c-2.199,0-6.655-0.315-8.291,1.444c-1.779,1.979-0.325,7.344-4.379,7.344
			c-3.481,0-5.193-4.6-7.65-6.283c-2.371-1.559-7.287-0.315-9.811,0.516c-4.581,1.463,0.87,8.492-4.485,9.821
			c-5.03,1.282-9.361-7.851-14.506-4.169c-3.614,2.582,2.104,8.73-3.614,10.873c-2.783,1.081-5.738-2.267-8.195-3.166
			c-2.792-1.081-5.747,0.316-8.233,1.635c-5.699,3.108,2.343,7.363-1.97,10.136c-1.827,1.214-4.954,0.058-6.961,0.058
			c-5.04,0-11.781,1.769-14.43,6.77c-1.903,3.596,7.65,5.374,3.739,9.562c-3.691,4.045-15.616-1.578-17.844,4.676
			c-0.688,2.094,2.228,2.151,3.49,2.209c3.625,0.315,6.694,3.987,4.562,7.525c-1.769,2.984-5.001,1.396-7.717,1.396
			c-5.977,0.067-14.784,0.889-16.333,8.157c-0.832,3.796,11.848,1.157,9.936,7.965c-0.966,3.5-5.125,3.137-7.899,3.567
			c-5.326,0.88-14.066,3.481-14.889,10.06c-0.258,2.085,2.152,1.722,3.414,1.463c3.299-0.65,10.318,0.382,9.687,5.24
			c-0.487,3.48-5.173,3.404-7.765,3.93c-6.024,1.023-16.61,3.614-15.854,11.905c0.258,2.467,2.802,1.903,4.437,1.435
			c3.366-0.861,12.278-1.435,12.536,3.987c0.182,3.442-6.072,4.007-8.405,4.571c-5.843,1.339-18.36,9.056-15.902,16.572
			c1.014,3.108,4.733-0.373,6.034-1.262c3.749-2.649,15.922-9.811,18.561-2.084c1.3,3.749-5.231,5.04-7.43,6.35
			c-6.091,3.586-20.483,12.02-16.839,20.817c1.119,2.821,4.81-0.832,6.015-1.731c3.988-2.84,14.42-9.486,17.71-2.285
			c1.769,4.006-4.504,6.273-6.885,8.051c-7.22,5.298-22.912,9.295-17.031,20.808c1.587,3.175,4.829,0.383,6.521-1.081
			c3.796-3.098,12.632-11.628,17.213-5.183c2.218,3.146-2.735,5.001-4.81,6.129c-4.877,2.668-15.998,8.501-15.434,15.128
			c0.182,2.41,2.056,11.265,5.317,11.083c3.165-0.115,7.965-6.063,10.739-7.908c2.735-1.836,9.008-5.183,10.652,0
			c1.138,3.615-4.81,6.206-7.143,7.679c-6.904,4.418-14.573,11.427-9.008,19.794c1.846,2.792,4.303,0.889,6.072-0.87
			c2.553-2.658,11.389-12.862,15.338-7.497c3.586,4.829-5.259,11.083-8.252,13.436c-7.669,5.871-8.855,11.589-4.753,20.368
			c1.721,3.672,4.437,1.845,6.646-0.259c3.108-3.041,13.455-14.306,17.681-7.593c1.884,2.975-0.899,6.062-3.395,7.393
			c-4.858,2.61-15.233,9.246-14.449,15.711c0.239,2.008,1.262,3.92,2.085,5.757c1.004,2.218,2.208,6.827,4.81,7.735
			c1.951,0.622,3.796-1.473,5.001-2.668c3.175-3.031,11.513-11.828,15.94-6.272c2.936,3.682-2.974,8.692-5.451,10.91
			c-2.639,2.267-10.318,5.423-10.528,9.362c-0.143,2.381,1.808,5.183,2.84,7.268c1.071,2.285,2.591,7.717,5.814,7.649
			c6.531-0.182,9.562-12.201,16.83-10.241c5.958,1.645,2.084,8.166-0.669,10.748c-2.697,2.468-12.297,5.948-12.67,9.63
			c-0.258,2.285,1.97,4.991,2.831,7.019c0.698,1.578,1.339,3.596,2.735,4.743c5.699,4.619,12.9-11.322,18.896-4.628
			c4.925,5.384-4.408,10.719-8.568,12.307c-1.463,0.479-3.433,0.688-4.38,2.008c-1.396,1.961,0.87,6.13,1.712,8.109
			c3.213,7.468,7.009,4.36,12.766,2.285c3.003-1.071,7.382-1.521,9.008,1.808c2.084,4.312-6.072,9.065-9.295,10.146
			c-1.635,0.479-3.988,0.938-3.988,3.213c0.115,5.451,4.973,12.412,10.71,11.523c3.337-0.421,8.817-4.801,11.169-0.373
			c4.045,7.593-13.091,6.77-10.758,12.976c1.281,3.28,3.672,9.562,7.774,9.438c5.699-0.2,9.524-4.055,14.631-5.278
			c1.779-0.431,3.624,0.765,4.122,2.553c1.281,4.801-8.214,8.97-11.714,9.936c-1.913,0.555-4.982,0.688-4.81,3.338
			c0.564,10.261,17.471,0.507,18.131,8.922c0.478,5.843-10.528,3.682-10.271,7.927c0.364,8.09,14.66-0.258,15.951,6.321
			c1.138,6.081-10.204,3.041-10.567,7.028v0.01c-3.471-0.861-6.914-1.817-10.327-2.831c0-0.105,0.076-0.182,0.057-0.296
			c-0.354-1.616-3.768-1.291-5.25-1.32c-4.446-1.443-8.816-3.031-13.148-4.724c-0.268-0.487-0.468-1.014-0.526-1.606
			c-0.363-3.538,9.696-0.736,11.542-0.736c1.262,0,3.787-0.593,3.28-2.429c-0.479-1.874-3.93-1.874-5.499-2.133
			c-4.255-0.698-13.11-0.517-14.248-6.139c-0.45-2.199,1.893-3.424,3.749-3.242c2.333,0.325,11.695,5.317,11.446-0.296
			c-0.067-1.731-1.597-3.232-3.156-3.538c-2.343-0.517-4.963,0.248-7.354-0.134c-4.361-0.774-7.593-3.165-11.073-5.651
			c-1.76-1.263-6.646-3.223-4.935-6.14c2.591-4.37,10.605,1.215,13.799,2.104c1.779,0.431,4.552,0.584,5.173-1.597
			c0.765-2.515-2.132-7.143-4.552-7.918c-1.96-0.621-4.227,0.067-6.331-0.411c-5.068-1.147-9.591-3.758-13.952-6.396
			c-2.18-1.32-5.345-2.927-6.034-5.585c-0.631-2.189,1.826-3.653,3.796-3.079c4.676,1.233,8.338,4.991,13.368,5.737
			c2.964,0.449,5.097-1.147,3.834-4.245c-3.528-8.396-7.631-3.586-14.344-5.479c-5.632-1.646-9.715-5.278-13.282-9.696
			c-1.233-1.521-4.581-3.396-4.504-5.575c0.124-2.143,2.878-2.658,4.504-2.276c4.36,1.005,7.956,4.562,12.326,5.394
			c2.515,0.431,6.148-0.708,5.24-3.939c-1.587-6.13-6.436-3.663-10.93-4.36c-5.756-0.899-12.661-3.309-16.83-7.421
			c-1.405-1.311-4.484-3.538-4.484-5.613c0-2.209,2.658-2.477,4.188-2.027c4.533,1.435,8.979,4.935,13.971,4.935
			c1.941,0,5.814-0.584,5.565-3.299c-0.201-2.592-3.49-10.251-5.948-11.332c-1.979-0.822-4.819,0.249-6.961,0.182
			c-3.223-0.058-6.397-1.329-9.496-2.257c-3.031-1.023-10.299-2.544-10.585-6.589c-0.115-1.836,1.999-3.241,3.557-3.48
			c4.074-0.507,8.559,1.645,12.737,1.578c1.893-0.048,4.733-0.383,4.676-2.84c0-1.654-1.205-3.348-1.893-4.753
			c-1.004-2.151-1.846-4.935-3.796-6.34c-1.702-1.243-3.978-0.698-5.948-0.985c-4.045-0.717-7.841-1.988-11.771-3.117
			c-3.118-0.889-7.86-1.645-9.104-5.125c-0.88-2.544,2.199-4.361,4.36-4.361c2.917,0,16.256,4.868,15.931-0.774
			c-0.928-16.304-24.604-6.139-29.787-18.972c-0.889-2.295,1.759-3.739,3.672-3.682c3.185,0.191,15.003,3.223,15.558-2.085
			c0.985-10.06-13.234-11.273-20.311-12.163c-2.601-0.363-8.989-1.387-8.205-5.308c1.109-5.833,9.907-4.504,13.875-4.427
			c1.846,0,4.562,0.325,5.47-1.654c0.765-1.702-0.564-4.103-1.262-5.623c-2.419-5.699-11.284-8.473-16.849-10.06
			c-2.276-0.622-6.015-1.311-6.407-4.179c-0.832-6.598,10.528-3.863,13.378-3.404c1.396,0.191,2.458-0.517,2.458-2.027
			c-0.105-2.926-2.276-10.002-5.011-11.36c-5.106-2.391-16.591-0.172-19.354-6.445c-1.062-2.41,1.568-4.169,3.471-4.876
			c3.271-1.31,13.301,1.989,13.263-2.716c-0.096-3.041-1.119-11.762-3.825-13.531c-1.702-1.147-4.045-0.115-5.948-0.268
			c-3.758-0.296-10.71-4.925-9.878-9.352c0.937-5.269,11.561,0.067,15.185-2.601c2.152-1.597,1.702-4.628,1.702-6.952
			c0-2.477,0.45-5.441-1.195-7.536c-3.48-4.561-11.8-7.229-12.354-13.731c-0.89-10.634,12.527,3.653,14.42-2.544
			c0.756-2.534,2.171-8.472,0.641-10.71c-2.763-4.16-11.771-7.325-8.291-14.047c3.481-6.636,9.419,4.562,12.594,0.201
			c1.587-2.276,3.232-7.536,1.635-10.002c-1.932-3.242-8.338-7.229-5.689-11.752c3.538-6.225,8.147,5.805,12.049,0.794
			c2.094-2.716,4.16-7.335,2.582-10.682c-1.511-3.28-6.961-7.927-4.762-11.724c2.429-4.045,6.847-3.844,9.725-0.631
			c1.482,1.597,2.802,5.25,5.336,2.907c2.257-2.075,6.455-7.583,5.183-10.882c-1.31-3.356-7.344-6.952-4.8-11.073
			c5.135-8.616,9.18,5.451,13.464,2.983c9.371-5.316-2.018-14.994,3.997-20.636c4.944-4.552,5.756,7.22,10.395,4.8
			c3.213-1.702,12.383-9.237,13.091-12.909c0.708-3.414-1.501-7.115-0.717-10.395c2.008-1.042,3.997-2.113,6.043-3.098
			c1.435,1.903,2.161,5.718,3.873,6.426c2.534,0.995,7.898-3.576,9.725-5.125c1.147-1.081,2.228-4.905,2.295-8.176
			c26.249-10.318,54.784-16.046,84.647-16.046c53.655,0,103.074,18.351,142.434,49.037c-0.87,1.348-1.243,2.744-0.325,3.653
			c2.534,2.629,7.449,7.277,10.939,8.338c1.291,0.383,2.505,0.229,3.691,0.058c2.026,1.855,4.006,3.758,5.967,5.689
			c-0.622,0.861-1.291,1.779-1.253,3.012c0.067,2.276,3.672,5.69,5.326,7c1.894,1.501,4.438,1.301,6.818,1.473
			c1.692,1.903,3.375,3.815,5.011,5.776c-1.263,1.54-3.605,2.821-2.697,5.097c1.272,3.098,5.126,8.539,7.966,10.26
			C447.439,129.734,450.824,128.52,452.784,131.81z"/>
	</g>
</g>
<g>
</g>
<g>
</g>
<g>
</g>
<g>
</g>
<g>
</g>
<g>
</g>
<g>
</g>
<g>
</g>
<g>
</g>
<g>
</g>
<g>
</g>
<g>
</g>
<g>
</g>
<g>
</g>
<g>
</g>
</svg>
