<?xml version="1.0" encoding="iso-8859-1"?>
<!-- Generator: Adobe Illustrator 16.0.0, SVG Export Plug-In . SVG Version: 6.00 Build 0)  -->
<!DOCTYPE svg PUBLIC "-//W3C//DTD SVG 1.1//EN" "http://www.w3.org/Graphics/SVG/1.1/DTD/svg11.dtd">
<svg version="1.1" id="Capa_1" xmlns="http://www.w3.org/2000/svg" xmlns:xlink="http://www.w3.org/1999/xlink" x="0px" y="0px"
	 width="548.35px" height="548.35px" viewBox="0 0 548.35 548.35" style="enable-background:new 0 0 548.35 548.35;"
	 xml:space="preserve">
<g>
	<g>
		<path d="M140.078,148.16c2.61,16.18,14.573,24.298,23.333,28.143c5.135,2.247,12.699,6.837,17.997,8.673
			c4.695,1.625,10.834,1.415,16.973-5.546c11.475-13.015,21.047-41.291,51.265-46.493c5.518-0.947,8.204,3.29,5.565,8.233
			c-5.613,10.528-15.759,27.301-26.412,34.033c-14.133,8.932-25.656,28.362-24.154,52.489c0.344,5.594,5.881,10.041,11.484,10.041
			h0.019c5.307,2.888,9.601,8.09,9.601,11.618c0,3.529-2.248,8.023-5.021,10.021c-2.764,2.018-5.011,8.559-5.011,14.583v10.031
			c0,6.043,3.261,12.163,7.287,13.674c4.026,1.512,7.296,6.006,7.296,10.031c0,4.035,2.036,8.319,4.561,9.572
			c2.516,1.263,3.146,6.971,1.406,12.757l-27.435,91.178c-1.741,5.785-1.54,15.1,0.449,20.809l0.105,0.306
			c1.989,5.719-1.233,11.36-6.847,13.607c-8.874,3.558-20.187,10.251-20.187,21.344c0,10.04,0,21.181,0,29.175
			c0,6.044,2.075,15.559,6.771,19.354c10.796,8.769,38.469,21.382,108.639,22.558l-4.58-0.277
			c70.17-1.186,97.844-13.798,108.649-22.567c4.686-3.806,6.761-13.32,6.761-19.354c0-7.994,0-19.144,0-29.185
			c0-11.083-11.312-17.786-20.187-21.334c-5.613-2.247-8.826-7.898-6.838-13.607l0.105-0.315c1.979-5.699,2.181-15.013,0.449-20.799
			l-27.435-91.188c-1.74-5.785-1.109-11.494,1.396-12.757c2.524-1.252,4.57-5.536,4.57-9.562c0-4.025,3.271-8.52,7.287-10.03
			c4.025-1.512,7.296-7.631,7.296-13.675v-10.021c0-6.043-2.247-12.584-5.011-14.583c-2.772-2.008-5.011-6.502-5.011-10.031
			c0-3.529,4.304-8.73,9.601-11.628l0.852-0.459c5.307-2.897,6.445-16.18,6.445-16.18c2.056-46.493-1.75-174.315-103.562-192.885
			c-5.518-1.004-11.465-5.776-14.219-10.653c-1.76-3.098-4.084-6.521-7.02-9.477c-3.939-3.978-12.135-3.414-16.323,0.296
			c-2.964,2.63-6.139,5.958-8.367,9.687c-2.888,4.8-5.775,5.967-9.687,1.96c-6.426-6.569-16.916-15.587-28.965-19.364
			c-5.345-1.683-10.528,2.745-10.748,8.338c-0.249,6.828-0.029,15.893,2.104,23.208c1.568,5.374,0.851,11.599-2.773,15.874
			c-4.982,5.872-10.48,15.319-9.534,27.712C174.723,97.459,135.851,121.958,140.078,148.16z"/>
	</g>
</g>
<g>
</g>
<g>
</g>
<g>
</g>
<g>
</g>
<g>
</g>
<g>
</g>
<g>
</g>
<g>
</g>
<g>
</g>
<g>
</g>
<g>
</g>
<g>
</g>
<g>
</g>
<g>
</g>
<g>
</g>
</svg>
