<?xml version="1.0" encoding="iso-8859-1"?>
<!-- Generator: Adobe Illustrator 16.0.0, SVG Export Plug-In . SVG Version: 6.00 Build 0)  -->
<!DOCTYPE svg PUBLIC "-//W3C//DTD SVG 1.1//EN" "http://www.w3.org/Graphics/SVG/1.1/DTD/svg11.dtd">
<svg version="1.1" id="Capa_1" xmlns="http://www.w3.org/2000/svg" xmlns:xlink="http://www.w3.org/1999/xlink" x="0px" y="0px"
	 width="446.254px" height="446.254px" viewBox="0 0 446.254 446.254" style="enable-background:new 0 0 446.254 446.254;"
	 xml:space="preserve">
<g>
	<g>
		<path d="M223.131,446.249c123.232,0,223.123-99.89,223.123-223.122c0-123.232-99.891-223.122-223.123-223.122
			C99.9,0.005,0,99.895,0,223.127C0,346.359,99.9,446.249,223.131,446.249z M288.473,103.596
			c66.01,0,119.531,53.521,119.531,119.531s-53.521,119.531-119.531,119.531c-66.01,0-119.532-53.521-119.532-119.531
			S222.462,103.596,288.473,103.596z"/>
		<path d="M246.416,249.262c0,17.059,14.736,35.094,46.732,35.094c29.279,0,48.482-15.51,48.482-38.394
			c0-16.094-10.863-26.564-23.275-31.221v-0.574c12.604-6.206,18.426-16.878,18.426-27.731c0-15.319-12.221-32.388-41.691-32.388
			c-25.207,0-44.398,14.153-44.398,35.486c0,11.055,6.004,21.334,18.225,27.731v0.382
			C255.137,223.672,246.416,234.134,246.416,249.262z M293.732,174.023c10.854,0,15.318,7.755,15.318,15.711
			c0,7.755-6.016,13.961-12.795,15.902c-10.088-3.098-17.652-8.53-17.652-17.069C278.604,180.813,283.643,174.023,293.732,174.023z
			 M291.791,227.545c11.445,3.107,19.775,9.696,19.775,20.751c0,8.921-6.98,15.711-17.262,15.711
			c-11.053,0-18.035-8.53-17.844-17.643C276.471,237.241,282.094,230.261,291.791,227.545z"/>
	</g>
</g>
<g>
</g>
<g>
</g>
<g>
</g>
<g>
</g>
<g>
</g>
<g>
</g>
<g>
</g>
<g>
</g>
<g>
</g>
<g>
</g>
<g>
</g>
<g>
</g>
<g>
</g>
<g>
</g>
<g>
</g>
</svg>
