<?xml version="1.0" encoding="iso-8859-1"?>
<!-- Generator: Adobe Illustrator 16.0.0, SVG Export Plug-In . SVG Version: 6.00 Build 0)  -->
<!DOCTYPE svg PUBLIC "-//W3C//DTD SVG 1.1//EN" "http://www.w3.org/Graphics/SVG/1.1/DTD/svg11.dtd">
<svg version="1.1" id="Capa_1" xmlns="http://www.w3.org/2000/svg" xmlns:xlink="http://www.w3.org/1999/xlink" x="0px" y="0px"
	 width="588.946px" height="588.946px" viewBox="0 0 588.946 588.946" style="enable-background:new 0 0 588.946 588.946;"
	 xml:space="preserve">
<g>
	<g>
		<path d="M580.431,241.885c-4.265-5.068-14.688-9.266-19.058-14.239c-6.168-7.019-9.678-16.782-11.618-24.403
			c-1.636-6.426-1.301-13.875-0.191-16.447c1.1-2.582,0.956-6.015-0.335-7.679c-1.281-1.654-7.287-0.871-13.713,0.727
			c-53.482,13.253-203.566,9.993-267.29,8.004c-6.627-0.21-17.366-0.603-23.993-0.583c-49.782,0.191-69.337,12.852-69.337,12.852
			L67.289,262.129c-5.747,3.309-15.75,6.283-22.376,6.637l-38.03,2.046c-6.617,0.345-8.855,4.227-4.982,8.645
			c3.863,4.418,12.374,12.891,18.991,12.996h552.167c6.627,0.115,13.521-0.172,14.602-6.703
			C590.434,268.976,589.027,252.079,580.431,241.885z M230.559,218.954c-7,10.156-24.002,9.831-24.002,9.831l-59.393,0.067
			l36.796-21.334c0,0,18.934-0.067,31.939-0.067C228.895,207.451,237.568,208.79,230.559,218.954z"/>
		<path d="M575.554,304.28H25.586c-4.418-0.086-5.575,6.962-1.616,8.941c6.015,3.002,17.681,7.268,40.153,12.135
			c16.687-10.969,40.879-11.647,57.624-0.774l20.76,13.464c8.099,1.023,16.543,2.056,25.713,3.079
			c6.273,0.698,13.426,1.291,21.171,1.788l21.497-16.189c16.753-12.594,43.375-13.713,61.124-2.544l32.894,20.779
			c13.321-0.124,26.813-0.315,40.277-0.573l30.523-19.813c16.955-11.055,43.567-10.939,60.521,0.239l24.595,16.218
			c18.646-0.698,34.846-1.387,47.439-1.932l31.565-23.323c11.256-8.377,28.286-6.206,37.485,4.284
			C579.981,316.089,579.379,304.347,575.554,304.28z"/>
		<path d="M550.328,334l-56.515,41.759c-3.385,2.506-10.461,2.716-14.009,0.364l-49.515-32.646
			c-12.737-8.415-32.015-8.511-44.8-0.191l-50.71,32.904c-3.902,2.506-11.819,2.562-15.75,0.096l-52.698-33.287
			c-13.148-8.281-32.417-7.487-44.848,1.855l-40.928,30.829c-3.385,2.562-10.414,2.802-13.971,0.487l-50.69-32.866
			c-13.34-8.673-32.618-7.516-44.829,2.678l-49.075,40.947c-5.719,4.762-6.483,13.253-1.731,18.972
			c2.677,3.193,6.512,4.848,10.366,4.848c3.041,0,6.11-1.032,8.616-3.127l49.094-40.937c3.108-2.602,9.477-2.974,12.891-0.774
			l50.71,32.885c13.11,8.521,32.397,7.822,44.857-1.567l40.937-30.83c3.414-2.592,10.586-2.897,14.22-0.593l52.698,33.287
			c12.823,8.08,32.054,7.966,44.801-0.277l50.71-32.904c3.824-2.468,11.522-2.429,15.3,0.076l49.515,32.637
			c13.015,8.616,32.331,8.109,44.877-1.167l56.514-41.769c5.977-4.428,7.229-12.871,2.821-18.848
			C564.748,330.835,556.305,329.573,550.328,334z"/>
	</g>
</g>
<g>
</g>
<g>
</g>
<g>
</g>
<g>
</g>
<g>
</g>
<g>
</g>
<g>
</g>
<g>
</g>
<g>
</g>
<g>
</g>
<g>
</g>
<g>
</g>
<g>
</g>
<g>
</g>
<g>
</g>
</svg>
