<?xml version="1.0" encoding="iso-8859-1"?>
<!-- Generator: Adobe Illustrator 16.0.0, SVG Export Plug-In . SVG Version: 6.00 Build 0)  -->
<!DOCTYPE svg PUBLIC "-//W3C//DTD SVG 1.1//EN" "http://www.w3.org/Graphics/SVG/1.1/DTD/svg11.dtd">
<svg version="1.1" id="Capa_1" xmlns="http://www.w3.org/2000/svg" xmlns:xlink="http://www.w3.org/1999/xlink" x="0px" y="0px"
	 width="576.943px" height="576.943px" viewBox="0 0 576.943 576.943" style="enable-background:new 0 0 576.943 576.943;"
	 xml:space="preserve">
<g>
	<g>
		<path d="M125.527,576.943h51.857c10.557,0,23.333-7.458,27.951-16.954c15.291-31.432,44.714-101.984,40.688-172.517
			c-5.403-94.717-75.353-117.313-64.585-199.111c9.753-74.147,38.078-165.049-13.607-184.662
			c-8.521-3.232-15.443-3.634-16.381-3.691C150.523,0.057,143.6,0.468,135.08,3.7c-51.695,19.604-23.361,110.504-13.598,184.652
			c10.758,81.807-59.192,104.403-64.595,199.11c-4.026,70.533,25.398,141.085,40.688,172.517
			C102.194,569.485,114.96,576.943,125.527,576.943z"/>
		<path d="M455.472,188.362c9.744-74.147,38.077-165.049-13.607-184.671C433.344,0.459,426.421,0.057,425.493,0
			c-0.928,0.047-7.86,0.459-16.381,3.691c-51.686,19.613-23.352,110.523-13.598,184.671
			c10.758,81.807-59.192,104.394-64.595,199.111c-4.026,70.532,25.397,141.085,40.688,172.517
			c4.618,9.496,17.385,16.954,27.951,16.954h51.857c10.557,0,23.323-7.458,27.951-16.954
			c15.29-31.432,44.714-101.984,40.688-172.517C514.653,292.756,444.704,270.16,455.472,188.362z"/>
	</g>
</g>
<g>
</g>
<g>
</g>
<g>
</g>
<g>
</g>
<g>
</g>
<g>
</g>
<g>
</g>
<g>
</g>
<g>
</g>
<g>
</g>
<g>
</g>
<g>
</g>
<g>
</g>
<g>
</g>
<g>
</g>
</svg>
