<?xml version="1.0" encoding="iso-8859-1"?>
<!-- Generator: Adobe Illustrator 16.0.0, SVG Export Plug-In . SVG Version: 6.00 Build 0)  -->
<!DOCTYPE svg PUBLIC "-//W3C//DTD SVG 1.1//EN" "http://www.w3.org/Graphics/SVG/1.1/DTD/svg11.dtd">
<svg version="1.1" id="Capa_1" xmlns="http://www.w3.org/2000/svg" xmlns:xlink="http://www.w3.org/1999/xlink" x="0px" y="0px"
	 width="502.434px" height="502.434px" viewBox="0 0 502.434 502.434" style="enable-background:new 0 0 502.434 502.434;"
	 xml:space="preserve">
<g>
	<g>
		<path d="M251.207,0C112.464,0,0,112.474,0,251.216c0,138.743,112.474,251.217,251.216,251.217
			c138.752,0,251.217-112.465,251.217-251.217C502.434,112.474,389.959,0,251.207,0z M98.867,156.021
			c0-16.18,13.12-29.299,29.309-29.299c16.18,0,29.309,13.12,29.309,29.299s-13.12,29.309-29.309,29.309
			C111.986,185.321,98.867,172.201,98.867,156.021z M173.033,257.193c-16.18,0-29.299-13.12-29.299-29.31
			c0-16.18,13.12-29.309,29.299-29.309s29.309,13.129,29.309,29.309C202.333,244.063,189.213,257.193,173.033,257.193z
			 M221.917,185.321c-16.18,0-29.3-13.12-29.3-29.309c0-16.18,13.12-29.3,29.3-29.3s29.299,13.12,29.299,29.3
			C251.216,172.201,238.097,185.321,221.917,185.321z"/>
	</g>
</g>
<g>
</g>
<g>
</g>
<g>
</g>
<g>
</g>
<g>
</g>
<g>
</g>
<g>
</g>
<g>
</g>
<g>
</g>
<g>
</g>
<g>
</g>
<g>
</g>
<g>
</g>
<g>
</g>
<g>
</g>
</svg>
