<?xml version="1.0" encoding="iso-8859-1"?>
<!-- Generator: Adobe Illustrator 16.0.0, SVG Export Plug-In . SVG Version: 6.00 Build 0)  -->
<!DOCTYPE svg PUBLIC "-//W3C//DTD SVG 1.1//EN" "http://www.w3.org/Graphics/SVG/1.1/DTD/svg11.dtd">
<svg version="1.1" id="Capa_1" xmlns="http://www.w3.org/2000/svg" xmlns:xlink="http://www.w3.org/1999/xlink" x="0px" y="0px"
	 width="537.518px" height="537.518px" viewBox="0 0 537.518 537.518" style="enable-background:new 0 0 537.518 537.518;"
	 xml:space="preserve">
<g>
	<g>
		<path d="M201.855,200.602c1.654,3.404,6.225,6.082,10.012,6.082h11.992c1.396-18.695,8.721-31.002,14.707-40.851
			c5.862-9.648,9.734-16.017,8.329-26.785c-0.631-4.829-1.501-9.878-2.371-14.917c-1.234-7.22-2.477-14.956-3.108-22.52
			c-6.072-10.002-11.456-19.393-9.515-34.138c3.49-26.555,13.636-59.125-4.887-66.153C223.486-0.01,220.703,0,221.152,0
			c0.459,0-2.333-0.01-5.862,1.32c-18.522,7.028-8.367,39.598-4.867,66.153c3.854,29.309-21.2,37.409-23.132,71.327
			C185.848,164.073,196.386,189.347,201.855,200.602z"/>
		<path d="M297.652,119.875c-0.861,5.059-1.731,10.098-2.362,14.937c-1.425,10.758,2.448,17.126,8.319,26.775
			c6.139,10.098,13.789,22.673,14.898,42.181c0.058,0.975-0.01,1.941,0.02,2.917h10.088c3.787,0,8.357-2.678,10.003-6.082
			c5.479-11.265,16.017-36.538,14.582-61.802c-1.94-33.928-26.995-42.018-23.141-71.317c3.5-26.564,13.646-59.125-4.877-66.153
			C321.645-0.01,318.861,0,319.33,0c0.449,0-2.333-0.01-5.871,1.329c-18.514,7.028-8.367,39.589-4.867,66.153
			c1.759,13.397-2.592,22.357-7.946,31.394C299.976,105.953,298.809,113.134,297.652,119.875z"/>
		<path d="M252.642,279.015c1.654,3.404,6.226,6.072,10.012,6.072h18.57c3.787,0,8.357-2.678,10.002-6.072
			c5.489-11.265,16.027-36.538,14.573-61.802c-1.932-33.928-26.994-42.018-23.131-71.336c3.49-26.555,13.636-59.125-4.877-66.153
			c-3.529-1.339-6.321-1.32-5.862-1.32s-2.333-0.019-5.861,1.32c-18.522,7.028-8.367,39.598-4.867,66.153
			c3.854,29.309-21.2,37.409-23.141,71.336C236.625,242.477,247.163,267.75,252.642,279.015z"/>
		<path d="M137.595,165.498c-12.967-2.209-25.359,6.522-27.597,19.536l-55.51,324.542c-2.219,13.015,6.521,25.369,19.536,27.598
			c1.358,0.229,2.716,0.344,4.054,0.344c11.437,0,21.544-8.233,23.534-19.88l55.51-324.542
			C159.359,180.081,150.61,167.727,137.595,165.498z"/>
		<path d="M459.439,537.518c1.339,0,2.697-0.114,4.055-0.344c13.015-2.229,21.755-14.583,19.536-27.598l-56.763-331.867
			c-2.229-13.015-14.583-21.774-27.598-19.536c-13.015,2.228-21.755,14.583-19.536,27.597l56.764,331.867
			C437.905,529.284,448.013,537.518,459.439,537.518z"/>
	</g>
</g>
<g>
</g>
<g>
</g>
<g>
</g>
<g>
</g>
<g>
</g>
<g>
</g>
<g>
</g>
<g>
</g>
<g>
</g>
<g>
</g>
<g>
</g>
<g>
</g>
<g>
</g>
<g>
</g>
<g>
</g>
</svg>
