<?xml version="1.0" encoding="iso-8859-1"?>
<!-- Generator: Adobe Illustrator 16.0.0, SVG Export Plug-In . SVG Version: 6.00 Build 0)  -->
<!DOCTYPE svg PUBLIC "-//W3C//DTD SVG 1.1//EN" "http://www.w3.org/Graphics/SVG/1.1/DTD/svg11.dtd">
<svg version="1.1" id="Capa_1" xmlns="http://www.w3.org/2000/svg" xmlns:xlink="http://www.w3.org/1999/xlink" x="0px" y="0px"
	 width="531.914px" height="531.915px" viewBox="0 0 531.914 531.915" style="enable-background:new 0 0 531.914 531.915;"
	 xml:space="preserve">
<g>
	<g>
		<path d="M22.434,376.792H55.53c5.269,1.673,12.68,4.628,19.938,7.956c9.4,4.312,21.516,9.725,35.114,15.452
			c23.342,9.821,53.98,15.357,75.62,9.592c11.972-3.194,16.974-12.546,14.267-14.439c-2.706-1.884-9.361-1.291-15.252-0.88
			c-3.949,0.277-7.698-0.593-8.472-4.59c-1.75-9.084,13.493-7.956,23.849,0.411c10.347,8.339,18.58,13.101,32.646,7.765
			c10.06-3.806,19.899-15.711,17.375-54.707l-1.74-67.894c0,0,1.597-37.074-36.902-35.582c0,0-59.374-1.004-97.671,8.07
			c-38.317,9.123-50.681,21.525-64.872,21.879c-1.167,0.029-2.697,0.076-4.523,0.115H22.434C10.041,269.94,0,279.99,0,292.383
			v61.965C0.01,366.741,10.041,376.792,22.434,376.792z M28.802,325.986h13.569v39.272H28.802V325.986z"/>
		<path d="M482.495,269.825c-14.19-0.354-26.545-12.756-64.872-21.879c-38.298-9.075-97.671-8.07-97.671-8.07
			c-38.499-1.492-36.902,35.582-36.902,35.582l-1.75,67.903c-2.524,38.986,7.315,50.892,17.376,54.707
			c14.066,5.336,22.299,0.573,32.646-7.765c10.356-8.367,25.59-9.496,23.85-0.411c-0.774,3.997-4.523,4.877-8.473,4.59
			c-5.891-0.411-12.546-1.004-15.252,0.88s2.295,11.245,14.267,14.439c21.641,5.775,52.278,0.229,75.621-9.592
			c13.607-5.737,25.713-11.14,35.113-15.453c7.258-3.327,14.669-6.282,19.938-7.956h33.096c12.394,0,22.434-10.05,22.434-22.442
			v-61.965c0-12.394-10.04-22.443-22.434-22.443h-22.472C485.191,269.901,483.662,269.854,482.495,269.825z M489.553,325.986h13.568
			v39.272h-13.568V325.986z"/>
		<path d="M183.036,178.111c-4.533-2.725-10.404-1.252-13.12,3.28c-2.715,4.533-1.252,10.404,3.28,13.12l53.789,32.273
			c1.54,0.928,3.232,1.368,4.915,1.368c3.251,0,6.417-1.654,8.205-4.638c2.716-4.533,1.253-10.404-3.28-13.12L183.036,178.111z"/>
		<path d="M345.245,178.111l-53.789,32.273c-4.533,2.716-5.996,8.587-3.28,13.12c1.798,2.983,4.963,4.638,8.205,4.638
			c1.673,0,3.375-0.44,4.915-1.367l53.789-32.273c4.532-2.716,5.995-8.587,3.279-13.12
			C355.648,176.858,349.777,175.386,345.245,178.111z"/>
		<path d="M266.564,228.142c5.278,0,9.562-4.274,9.562-9.562v-89.247c0-5.288-4.284-9.562-9.562-9.562s-9.562,4.274-9.562,9.562
			v89.247C257.002,223.868,261.286,228.142,266.564,228.142z"/>
	</g>
</g>
<g>
</g>
<g>
</g>
<g>
</g>
<g>
</g>
<g>
</g>
<g>
</g>
<g>
</g>
<g>
</g>
<g>
</g>
<g>
</g>
<g>
</g>
<g>
</g>
<g>
</g>
<g>
</g>
<g>
</g>
</svg>
