<?xml version="1.0" encoding="iso-8859-1"?>
<!-- Generator: Adobe Illustrator 16.0.0, SVG Export Plug-In . SVG Version: 6.00 Build 0)  -->
<!DOCTYPE svg PUBLIC "-//W3C//DTD SVG 1.1//EN" "http://www.w3.org/Graphics/SVG/1.1/DTD/svg11.dtd">
<svg version="1.1" id="Capa_1" xmlns="http://www.w3.org/2000/svg" xmlns:xlink="http://www.w3.org/1999/xlink" x="0px" y="0px"
	 width="421.994px" height="421.994px" viewBox="0 0 421.994 421.994" style="enable-background:new 0 0 421.994 421.994;"
	 xml:space="preserve">
<g>
	<g>
		<path d="M155.458,144.576l-6.503-1.042c0,0-0.459-2.983-1.033-6.665c-0.564-3.682-2.4-3.969-4.102-0.641l-3.07,6.015
			c0,0-2.907-0.469-6.483-1.033c-3.586-0.583-4.427,1.081-1.903,3.72l4.59,4.752c0,0-1.339,2.649-3.003,5.919
			c-1.654,3.271-0.334,4.581,2.945,2.917l5.948-3.002c0,0,2.104,2.104,4.705,4.695c2.601,2.592,4.265,1.769,3.72-1.845l-0.985-6.55
			c0,0,2.61-1.387,5.842-3.089C159.35,146.995,159.044,145.14,155.458,144.576z"/>
		<path d="M131.542,244.399l-0.985-6.551c0,0,2.61-1.386,5.843-3.088c3.222-1.712,2.926-3.558-0.66-4.132l-6.502-1.042
			c0,0-0.459-2.983-1.033-6.665c-0.564-3.682-2.4-3.969-4.102-0.641l-3.07,6.015c0,0-2.907-0.469-6.483-1.032
			c-3.586-0.584-4.427,1.08-1.903,3.72l4.59,4.752c0,0-1.338,2.649-3.002,5.92c-1.654,3.27-0.335,4.58,2.945,2.916l5.948-3.003
			c0,0,2.104,2.104,4.705,4.695C130.433,248.845,132.097,248.013,131.542,244.399z"/>
		<path d="M122.008,315.505l-6.502-1.042c0,0-0.459-2.983-1.033-6.665c-0.574-3.682-2.4-3.969-4.103-0.641l-3.069,6.015
			c0,0-2.907-0.469-6.483-1.033c-3.577-0.583-4.428,1.081-1.903,3.721l4.581,4.752c0,0-1.339,2.649-2.993,5.919
			c-1.654,3.271-0.334,4.581,2.945,2.917l5.948-3.003c0,0,2.104,2.104,4.705,4.695c2.601,2.592,4.265,1.77,3.72-1.846l-0.985-6.55
			c0,0,2.61-1.387,5.843-3.089C125.9,317.925,125.604,316.07,122.008,315.505z"/>
		<path d="M300.837,49.783c-41.291-0.115-138.389-0.354-179.67-0.363c-10.557,0-19.125,8.568-19.125,19.125
			c0,17.193,0,39.732,0,39.732c-7.564,5.929-24.451,20.225-37.408,38.938c-15.061,21.764-31.222,61.018-50.854,123.528
			c-5.106,16.294-9.4,30.858-12.766,43.28c-2.113,7.793-0.899,15.777,3.423,22.481c4.457,6.913,11.829,11.646,20.225,12.995
			l53.397,8.606l46.837-238.422h46.55l-45.958,246.071l39.809,6.417c1.683,0.268,3.356,0.401,5.021,0.401
			c15.032,0,29.003-10.662,32.446-25.628l9.333-40.506l9.343,40.506c3.815,16.63,20.693,27.856,37.466,25.169l138.437-22.567
			c8.396-1.377,15.769-6.13,20.215-13.043c4.322-6.704,5.537-14.688,3.424-22.491c-3.356-12.402-7.65-26.967-12.767-43.28
			c-19.622-62.5-35.772-101.764-50.805-123.509c-12.996-18.761-29.874-33.029-37.438-38.938V68.965
			C319.962,58.399,311.403,49.802,300.837,49.783z M127.746,102.319l-5.192,2.391h-5.432l-4.857-2.391V77.868
			c0-10.557,3.461-19.125,7.746-19.125h7.746v43.577H127.746z M153.775,102.319l-5.192,2.391h-5.413l-5.221-2.391V58.743h15.826
			V102.319L153.775,102.319z M179.813,96.037v6.273l-5.192,2.391h-5.451l-5.183-2.391V58.733h15.826v3.271h8.109
			c-10.566,0-19.125,8.013-19.125,17.882C168.807,87.048,173.33,93.177,179.813,96.037z M205.852,102.319l-5.211,2.391h-5.432
			l-5.173-2.391v-4.533c4.925,0,10.28,0,15.816,0V102.319L205.852,102.319z M205.852,62.013c-5.499,0-10.854,0-15.816,0v-3.271
			h15.816V62.013z M231.872,102.319l-5.183,2.391h-5.432l-5.192-2.391v-4.533c5.537,0,10.92,0,15.807,0V102.319z M231.872,62.013
			c-4.887,0-10.261,0-15.807,0v-3.271h15.807V62.013z M257.901,102.319l-5.192,2.391h-5.441l-5.183-2.391v-6.531
			c6.216-2.955,10.528-8.931,10.528-15.893c0-9.868-8.568-17.882-19.125-17.882h8.597v-3.271h15.816V102.319z M283.931,102.319
			l-5.174,2.391h-5.45l-5.183-2.391V58.743h15.807V102.319z M309.759,102.319l-4.982,2.391h-5.422l-5.173-2.391V58.743
			c0,0,3.49,0,7.783,0c4.304,0,7.794,8.568,7.794,19.125V102.319L309.759,102.319z"/>
	</g>
</g>
<g>
</g>
<g>
</g>
<g>
</g>
<g>
</g>
<g>
</g>
<g>
</g>
<g>
</g>
<g>
</g>
<g>
</g>
<g>
</g>
<g>
</g>
<g>
</g>
<g>
</g>
<g>
</g>
<g>
</g>
</svg>
