<?xml version="1.0" encoding="iso-8859-1"?>
<!-- Generator: Adobe Illustrator 16.0.0, SVG Export Plug-In . SVG Version: 6.00 Build 0)  -->
<!DOCTYPE svg PUBLIC "-//W3C//DTD SVG 1.1//EN" "http://www.w3.org/Graphics/SVG/1.1/DTD/svg11.dtd">
<svg version="1.1" id="Capa_1" xmlns="http://www.w3.org/2000/svg" xmlns:xlink="http://www.w3.org/1999/xlink" x="0px" y="0px"
	 width="532.573px" height="532.573px" viewBox="0 0 532.573 532.573" style="enable-background:new 0 0 532.573 532.573;"
	 xml:space="preserve">
<g>
	<g>
		<circle cx="202.031" cy="55.95" r="55.95"/>
		<path d="M112.583,530.661c3.749,1.301,7.574,1.912,11.332,1.912c14.354,0,27.779-8.988,32.751-23.332l44.293-127.937
			c0.479-1.367,0.813-2.773,1.109-4.188l16.792,16.333l63.877,120.679c6.216,11.752,18.236,18.445,30.667,18.445
			c5.461,0,11.007-1.31,16.18-4.035c16.917-8.97,23.353-29.921,14.401-46.837l-66.421-125.479c-1.702-3.193-3.873-6.11-6.464-8.625
			l-72.37-70.399l10.854-44.159l81.616,21.678c2.229,0.593,4.466,0.87,6.675,0.87c10.146,0,19.651-5.967,23.84-15.664l16.944-39.13
			l35.936,6.015c7.172,8.338,17.682,13.741,29.559,13.741c21.63,0,39.168-17.538,39.168-39.178
			c0-21.621-17.538-39.139-39.168-39.139c-11.112,0-21.086,4.667-28.21,12.087l-15.998-2.668l6.799-15.702
			c12.68-6.942,21.344-19.909,21.344-35.037c0-21.621-17.538-39.14-39.168-39.14c-21.64,0-39.168,17.519-39.168,39.14
			c0,7.832,2.353,15.099,6.32,21.229l-8.96,20.665l-74.588-12.489c-2.142-0.363-4.246-0.354-6.321-0.201l-31.279-3.452
			c-5.25-0.583-13.407,0.736-17.968,3.404c-59.9,35.181-64.538,119.627-64.48,145.876c-1.253,5.297-1.435,10.93,0.019,16.562
			l19.536,75.993l-40.87,118.078C84.909,504.661,94.5,524.397,112.583,530.661z M222.332,181.123
			c0.564,0.134,1.061,0.354,1.635,0.45l61.889,10.366l-2.945,6.78l-60.923-16.17L222.332,181.123z"/>
	</g>
</g>
<g>
</g>
<g>
</g>
<g>
</g>
<g>
</g>
<g>
</g>
<g>
</g>
<g>
</g>
<g>
</g>
<g>
</g>
<g>
</g>
<g>
</g>
<g>
</g>
<g>
</g>
<g>
</g>
<g>
</g>
</svg>
