<?xml version="1.0" encoding="iso-8859-1"?>
<!-- Generator: Adobe Illustrator 16.0.0, SVG Export Plug-In . SVG Version: 6.00 Build 0)  -->
<!DOCTYPE svg PUBLIC "-//W3C//DTD SVG 1.1//EN" "http://www.w3.org/Graphics/SVG/1.1/DTD/svg11.dtd">
<svg version="1.1" id="Capa_1" xmlns="http://www.w3.org/2000/svg" xmlns:xlink="http://www.w3.org/1999/xlink" x="0px" y="0px"
	 width="429.596px" height="429.596px" viewBox="0 0 429.596 429.596" style="enable-background:new 0 0 429.596 429.596;"
	 xml:space="preserve">
<g>
	<g>
		<circle cx="219.832" cy="76.18" r="75.438"/>
		<path d="M85.326,344.227c2.419,0,4.877-0.373,7.268-1.147l91.848-29.625c12.46-4.017,19.307-17.375,15.281-29.835
			c-4.016-12.47-17.413-19.316-29.825-15.281l-32.494,10.48l38.413-65.197c6.646-11.273,2.888-25.809-8.386-32.455
			c-11.274-6.636-25.799-2.878-32.455,8.386L64.901,308.491c-5.001,8.473-4.227,19.163,1.922,26.842
			C71.394,341.061,78.25,344.227,85.326,344.227z"/>
		<path d="M273.707,181.817c-10.92,7.229-13.912,21.926-6.693,32.847l48.836,73.794l-48.836,73.784
			c-7.219,10.92-4.227,25.627,6.684,32.856c4.027,2.658,8.568,3.939,13.062,3.939c7.689,0,15.234-3.738,19.795-10.614l57.49-86.875
			c5.25-7.937,5.25-18.235,0-26.163l-57.49-86.875C299.334,177.59,284.619,174.606,273.707,181.817z"/>
		<path d="M214.793,428.854c118.633,0,214.803-41.683,214.803-76.041c0-16.648-22.691-31.709-59.469-42.859l-56.057,84.695
			c-6.607,9.974-17.699,15.931-29.672,15.931c-6.98,0-13.752-2.036-19.594-5.899c-16.352-10.825-20.855-32.934-10.041-49.276
			l44.504-67.253l-44.504-67.263c-10.814-16.342-6.311-38.441,10.041-49.266c5.834-3.863,12.604-5.91,19.594-5.91
			c2.879,0,5.699,0.382,8.424,1.052c-3.184-1.587-6.713-2.553-10.49-2.553H157.341c-3.567,0-6.904,0.842-9.945,2.248
			c1.874-0.306,3.72-0.746,5.651-0.746c6.321,0,12.556,1.702,18.016,4.925c16.897,9.955,22.539,31.786,12.594,48.673l-22.586,38.336
			l2.812-0.908c3.528-1.147,7.2-1.731,10.911-1.731c3.041,0,5.977,0.488,8.826,1.215l-1.281-10.06
			c-0.823-6.483,3.768-12.422,10.26-13.254l13.789-1.76c-5.871,0.708-10.48,5.518-10.48,11.58v19.221
			c1.435,1.062,2.802,2.229,4.074,3.5v-19.508c0-6.55,5.307-11.848,11.848-11.848h15.32c6.549,0,11.848,5.308,11.848,11.848v28.525
			c0,6.541-5.309,11.848-11.848,11.848h-15.32c-0.65,0-1.205-0.268-1.817-0.373c0.947,7.105-0.22,14.315-3.567,20.837
			c-4.332,8.453-11.695,14.717-20.731,17.634l-91.838,29.624c-3.509,1.138-7.181,1.722-10.911,1.722
			c-10.863,0-20.98-4.858-27.76-13.34c-6.569-8.186-8.941-18.8-7.076-28.821C18.073,324.298,0,337.915,0,352.794
			C-0.01,387.172,96.161,428.854,214.793,428.854z"/>
	</g>
</g>
<g>
</g>
<g>
</g>
<g>
</g>
<g>
</g>
<g>
</g>
<g>
</g>
<g>
</g>
<g>
</g>
<g>
</g>
<g>
</g>
<g>
</g>
<g>
</g>
<g>
</g>
<g>
</g>
<g>
</g>
</svg>
