<?xml version="1.0" encoding="iso-8859-1"?>
<!-- Generator: Adobe Illustrator 16.0.0, SVG Export Plug-In . SVG Version: 6.00 Build 0)  -->
<!DOCTYPE svg PUBLIC "-//W3C//DTD SVG 1.1//EN" "http://www.w3.org/Graphics/SVG/1.1/DTD/svg11.dtd">
<svg version="1.1" id="Capa_1" xmlns="http://www.w3.org/2000/svg" xmlns:xlink="http://www.w3.org/1999/xlink" x="0px" y="0px"
	 width="570.227px" height="570.227px" viewBox="0 0 570.227 570.227" style="enable-background:new 0 0 570.227 570.227;"
	 xml:space="preserve">
<g>
	<path d="M47.89,402.957c3.06,14.458,6.292,29.271,7.965,36.873c0.909,4.159,3.577,10.155,6.063,13.655l41.463,58.14
		c5.078,7.124,15.902,12.747,24.662,12.805l10.375,0.076c0.009,0,0.134,0,0.143,0c6.771,0,9.372-3.203,10.328-5.106
		s1.932-5.938-2.19-11.38l-27.119-35.897c29.127-4.963,43.949-9.964,51.657-14.104l0.009,3.863
		c0.02,9.658,8.396,15.884,17.72,12.891l7.984-2.572c4.007-1.301,9.792-4.227,13.148-6.694l64.031-46.723
		c3.93-2.878,7.124-8.701,7.42-13.568l0.793-13.034c0.316-5.164-2.859-10.968-7.392-13.492l-55.405-30.83
		c9.266-4.063,26.622-12.307,39.742-22.338c3.29-2.524,7.995-6.866,10.653-9.601c5.47-5.671,12.154-13.34,19.23-21.458
		c15.376-17.644,38.623-44.303,46.578-44.303h0.804c10.662,0,29.452-4.686,39.703-7.488c4.408-1.214,11.428-5.393,11.552-11.484
		c0.096-4.628-1.635-10.662-3.395-14.248c-1.301-2.611-4.351-5.737-11.59-5.737c-5.843,0-16.524-3.366-29.309-9.238
		c-2.582-1.186-5.929-4.398-8.119-7.057c-1.473-1.798-3.682-2.821-6.043-2.821c-3.386,0-6.264,2.084-7.144,5.183
		c-0.698,2.429-2.878,6.349-5.183,8.443c-6.866,6.235-17.825,17.26-31.078,34.224c-20.847,26.699-41.626,39.771-52.556,40.641
		c-3.777,0-8.521-4.236-14.019-9.152c-5.097-4.561-10.882-9.734-18.36-14.104c-1.281-0.755-2.888-0.603-4.016,0.363
		c-1.119,0.985-1.492,2.553-0.937,3.921c5.432,13.321,4.992,31.355,3.653,44.16c-0.956,9.256-9.601,16.792-19.259,16.792h-48.932
		c-8.807,0-16.744-6.914-18.857-16.419c-6.656-29.912-32.503-66.221-32.742-66.536l-0.641-0.899
		c-0.947-1.329-2.687-1.798-4.188-1.157c-1.683,0.727-3.031,1.195-4.246,1.473c-18.284,4.15-70.39,24.298-70.064,61.2
		c0.029,3.634,0.497,7.038,1.138,10.347c-3.165,17.71-5.708,53.493,20.646,69.635C35.047,387.877,42.888,395.823,47.89,402.957z
		 M191.652,369.325c0.985,0.182,1.884,0.411,2.562,0.736c29.672,14.555,43.682,22.836,47.411,26.02
		c-3.356,3.931-17.165,14.641-42.63,31.519c-2.917,1.932-7.201,3.423-9.199,3.566l-5.068,0.315
		c2.783-16.132,5.278-38.967,7.124-58.561C191.968,371.668,191.863,370.473,191.652,369.325z M92.69,405.214
		c7.946-10.5,17.709-25.79,19.192-39.072c0.813-7.315-0.449-13.837-2.438-19.298c0.995,0.402,2.008,0.87,2.955,1.205
		c5.767,2.047,11.064,5.737,16.667,9.678c5.891,4.121,12.278,8.558,19.919,11.446c-0.688,1.625-1.071,3.395-1.052,5.269l0.42,42.515
		c0.019,1.606-1.358,3.901-2.151,4.332c-5.192,2.744-13.875,6.464-25.713,8.606c-8.913,1.625-16.304,3.471-21.956,5.508
		c-1.721,0.621-3.232,1.597-4.485,2.83c-1.894-2.716-3.834-7.286-4.322-10.347c-0.727-4.522-1.779-11.188-2.897-18.445
		C88.587,408.943,90.701,407.834,92.69,405.214z"/>
	<path d="M185.169,258.486c-6.024-0.631-21.066-2.658-30.466-7.793c-2.027-1.109-4.533-2.878-7.439-4.915
		c-9.629-6.751-24.174-16.945-38.843-16.945c-6.895,0-13.244,2.353-18.867,6.981c-1.377,1.128-1.664,3.117-0.679,4.59
		c7.325,10.958,24.958,39.139,30.533,64.222c1.214,5.47,5.766,11.006,12.115,11.006h48.932c6.005,0,11.791-4.953,12.383-10.586
		c2.084-20.1,0.287-36.05-5.059-44.896C187.215,259.213,186.25,258.611,185.169,258.486z M160.306,296.574h-24.289v-4.849
		l4.37-3.949c7.535-6.741,11.169-10.586,11.226-14.592c0-2.792-1.635-5.001-5.584-5.001c-2.955,0-5.537,1.463-7.325,2.792
		l-2.266-5.689c2.524-1.951,6.579-3.529,11.169-3.529c7.793,0,12.01,4.533,12.01,10.691c0,5.794-4.112,10.375-9.113,14.812
		l-3.166,2.63v0.105h12.958v6.579H160.306z"/>
	<path d="M312.762,297.186c11.666-2.581,20.626-6.358,26.172-9.294c6.579-3.51,11.322-11.753,11.236-19.594l-0.01-1.195
		c-3.385,0.497-6.512,0.86-9.257,1.004C334.563,272.859,321.951,286.753,312.762,297.186z"/>
	<path d="M275.257,198.472c2.419,3.815,5.03,9.763,4.619,16.639c9.858-11.714,18.169-20.091,23.954-25.407
		c1.854-6.216,6.034-11.379,11.389-14.851c-8.252-0.564-15.529-7.143-17.537-16.151c-6.599-29.625-32.207-65.58-32.437-65.914
		l-0.641-0.889c-0.937-1.32-2.668-1.76-4.15-1.147c-1.664,0.717-3.012,1.195-4.208,1.463c-18.111,4.112-69.73,24.078-69.405,60.626
		c0.029,3.605,0.488,6.971,1.128,10.251c-3.137,17.547-5.661,52.986,20.444,68.975c9.199,5.642,15.845,11.437,20.684,16.945
		c2.065,1.759,4.016,3.471,5.766,5.039c0.812,0.717,1.798,1.607,2.754,2.429c6.828-3.481,19.747-13.015,33.813-31.03
		c0.889-1.138,1.683-2.046,2.553-3.137c-0.526-3.337-0.995-5.9-1.396-7.478c-0.89-3.51-4.476-14.306-8.406-25.915l4.017,2.897
		C271.298,194.064,274.396,197.114,275.257,198.472z"/>
	<path d="M555.391,64.655c-5.775,0-16.371-3.337-29.022-9.151c-2.572-1.167-5.881-4.351-8.052-6.99
		c-1.453-1.779-3.643-2.792-5.995-2.792c-3.356,0-6.206,2.065-7.076,5.116c-0.688,2.419-2.859,6.302-5.126,8.367
		c-6.799,6.177-17.643,17.088-30.771,33.909c-20.665,26.45-41.243,39.397-52.078,40.258c-3.729,0-8.434-4.198-13.875-9.056
		c-5.039-4.533-10.786-9.648-18.197-13.98c-1.271-0.727-2.859-0.612-3.969,0.373c-1.1,0.957-1.482,2.515-0.928,3.873
		c5.375,13.167,4.935,31.059,3.625,43.739c-0.957,9.18-9.515,16.639-19.077,16.639h-19.298c2.353,1.53,4.552,3.28,6.379,5.499
		c0.611,0.736,1.357,1.473,1.836,1.903c11.828,5.346,18.283,6.78,19.804,6.875h0.01c13.234,0,24.002,6.129,29.347,16.811
		c2.831,5.775,5.699,14.86,5.508,23.61c-0.057,2.515-0.525,4.857-1.166,7.124c10.213,5.537,15.998,9.17,18.159,11.006
		c-3.318,3.882-16.993,14.506-42.229,31.222c-2.888,1.902-7.124,3.395-9.112,3.538l-1.502,0.086
		c0.995-5.785,1.989-12.9,2.983-20.885c-8.013,2.056-15.146,3.615-21.343,4.676c-1.971,14.468-3.711,23.448-4.867,26.555
		c-3.214,2.62-17.127,7.736-43.931,12.546c-6.493,7.469-13.607,15.635-19.421,21.659c-3.252,3.347-8.664,8.348-12.805,11.513
		c-0.325,0.239-0.688,0.459-1.014,0.708l12.345,17.317l1.741,0.966c5.689,3.175,10.317,8.004,13.406,13.675
		c4.312,2.189,9.008,3.548,13.234,3.586l10.289,0.067h0.144c6.713,0,9.285-3.175,10.232-5.059c0.937-1.884,1.902-5.882-2.171-11.284
		l-24.537-32.493c25.876-4.494,40.516-9.142,48.854-13.226v0.01c0.02,9.562,8.319,15.74,17.547,12.775l7.908-2.553
		c3.979-1.271,9.696-4.188,13.024-6.627l63.428-46.283c3.901-2.85,7.058-8.616,7.354-13.435l0.784-12.919
		c0.315-5.125-2.84-10.863-7.334-13.359l-54.889-30.542c9.189-4.007,26.383-12.173,39.368-22.118
		c3.242-2.467,7.908-6.771,10.558-9.496c5.422-5.623,12.049-13.215,19.039-21.248c15.252-17.48,38.259-43.902,46.158-43.902h0.793
		c10.558,0,29.176-4.647,39.331-7.42c4.351-1.195,11.322-5.345,11.427-11.37c0.105-4.59-1.616-10.567-3.347-14.124
		C565.574,67.734,562.543,64.655,555.391,64.655z"/>
	<path d="M331.532,143.21c2.592,0,4.352-1.721,4.352-3.968c0-2.792-2.104-4.456-4.982-5.24c-2.448,0.688-3.863,2.448-3.863,4.743
		C326.98,141.049,328.74,143.21,331.532,143.21z"/>
	<path d="M332.021,128.475c1.721-0.497,3.231-2.065,3.231-4.016c0-2.008-1.118-3.968-3.863-3.968c-2.543,0-3.815,1.721-3.815,3.672
		C327.564,126.313,329.486,127.69,332.021,128.475z"/>
	<path d="M364.839,168.102c5.947,0,11.676-4.896,12.269-10.48c2.056-19.899,0.268-35.706-5.021-44.475
		c-0.555-0.927-1.501-1.53-2.572-1.654c-5.977-0.622-20.875-2.62-30.188-7.727c-2.009-1.09-4.495-2.84-7.373-4.867
		c-9.534-6.684-23.954-16.792-38.47-16.792c-6.847,0-13.129,2.333-18.705,6.933c-1.358,1.109-1.645,3.079-0.669,4.552
		c7.258,10.854,24.72,38.766,30.256,63.61c1.205,5.412,5.719,10.901,11.982,10.901H364.839z M320.517,124.411
		c0-5.384,4.857-8.97,11.217-8.97c7.439,0,10.528,4.303,10.528,8.186c0,2.735-1.473,5.422-4.647,6.99v0.153
		c3.137,1.176,5.871,3.815,5.871,7.88c0,5.775-4.848,9.696-12.24,9.696c-8.07,0-11.79-4.562-11.79-8.864
		c0-3.815,2.199-6.464,5.68-7.985v-0.096C322.037,129.785,320.517,127.193,320.517,124.411z"/>
</g>
<g>
</g>
<g>
</g>
<g>
</g>
<g>
</g>
<g>
</g>
<g>
</g>
<g>
</g>
<g>
</g>
<g>
</g>
<g>
</g>
<g>
</g>
<g>
</g>
<g>
</g>
<g>
</g>
<g>
</g>
</svg>
