<?xml version="1.0" encoding="iso-8859-1"?>
<!-- Generator: Adobe Illustrator 16.0.0, SVG Export Plug-In . SVG Version: 6.00 Build 0)  -->
<!DOCTYPE svg PUBLIC "-//W3C//DTD SVG 1.1//EN" "http://www.w3.org/Graphics/SVG/1.1/DTD/svg11.dtd">
<svg version="1.1" id="Capa_1" xmlns="http://www.w3.org/2000/svg" xmlns:xlink="http://www.w3.org/1999/xlink" x="0px" y="0px"
	 width="536.026px" height="536.027px" viewBox="0 0 536.026 536.027" style="enable-background:new 0 0 536.026 536.027;"
	 xml:space="preserve">
<g>
	<path d="M515.3,64.7c-8.061,0-22.825-4.647-40.507-12.766c-3.566-1.645-8.194-6.082-11.217-9.763
		c-2.036-2.477-5.087-3.892-8.357-3.892c-4.686,0-8.654,2.878-9.878,7.152c-0.966,3.366-3.979,8.788-7.162,11.676
		c-9.486,8.625-24.643,23.849-42.955,47.306c-28.812,36.902-57.538,54.975-72.637,56.17c-5.212,0-11.752-5.853-19.316-12.632
		c-7.975-7.143-18.083-16.065-31.441-22.663c11.274,18.972,11.293,48.262,8.97,70.619c-1.578,15.157-15.653,27.492-31.374,27.492
		h-67.636c-14.392,0-27.33-11.121-30.734-26.44c-9.027-40.554-44.122-89.734-44.475-90.212l-3.729-5.183
		c-1.683,0.679-3.328,1.243-4.925,1.606c-25.264,5.738-97.298,33.584-96.839,84.59c0.048,5.03,0.688,9.745,1.568,14.306
		c-4.37,24.489-7.889,73.928,28.535,96.247c17.27,10.576,28.094,21.572,35.008,31.432c4.227,19.976,8.692,40.439,11.006,50.968
		c1.262,5.747,4.944,14.038,8.376,18.877l57.308,80.363c7.019,9.839,21.994,17.613,34.09,17.7l14.344,0.096c0.01,0,0.191,0,0.201,0
		c9.361,0,12.957-4.418,14.267-7.048c1.32-2.64,2.677-8.205-3.022-15.74l-37.475-49.61c40.258-6.847,60.75-13.77,71.394-19.488
		l0.009,5.346c0.02,13.35,11.628,21.945,24.5,17.814l11.034-3.547c5.547-1.798,13.531-5.853,18.179-9.257l88.501-64.575
		c5.432-3.979,9.84-12.04,10.251-18.753l1.1-18.024c0.439-7.144-3.959-15.167-10.223-18.657l-76.586-42.601
		c12.805-5.613,36.797-17.012,54.937-30.877c4.552-3.481,11.055-9.477,14.717-13.264c7.573-7.832,16.811-18.437,26.584-29.663
		c21.257-24.385,53.368-61.238,64.375-61.238l1.1,0.009l0,0c14.745,0,40.717-6.493,54.889-10.356
		c6.091-1.683,15.797-7.459,15.969-15.874c0.125-6.407-2.266-14.745-4.704-19.689C529.538,69.012,525.312,64.7,515.3,64.7z
		 M205.055,349.088c0.019,2.209-1.884,5.394-2.974,5.986c-7.181,3.787-19.173,8.94-35.534,11.905
		c-12.316,2.237-22.529,4.791-30.351,7.611c-2.381,0.861-4.466,2.209-6.187,3.911c-2.62-3.768-5.298-10.069-5.977-14.296
		c-1.004-6.244-2.467-15.462-4.017-25.503c2.429-0.688,5.365-2.219,8.109-5.843c10.978-14.506,24.48-35.648,26.526-53.999
		c1.128-10.107-0.622-19.125-3.366-26.68c1.368,0.564,2.773,1.205,4.093,1.674c7.966,2.82,15.291,7.937,23.036,13.358
		c8.138,5.699,16.974,11.819,27.53,15.826c-0.956,2.237-1.482,4.695-1.453,7.276L205.055,349.088z M333.985,320.248
		c-4.638,5.423-23.725,20.234-58.914,43.558c-4.035,2.668-9.955,4.743-12.728,4.935l-7,0.439c3.854-22.28,7.296-53.865,9.84-80.946
		c0.163-1.731,0.01-3.376-0.277-4.973c1.358,0.249,2.611,0.583,3.538,1.023C309.458,304.413,328.821,315.839,333.985,320.248z"/>
	<g>
		<path d="M207.474,162.409c-3.462,0.966-5.451,3.404-5.451,6.417c-0.115,3.175,2.266,6.015,6.187,6.015
			c3.691,0,6.129-2.324,6.129-5.508C214.34,165.584,211.615,163.547,207.474,162.409z"/>
		<path d="M208.841,157.246c2.553-0.736,4.59-2.783,4.59-5.565c0-2.553-1.53-5.221-5.279-5.221c-3.519,0-5.336,2.324-5.336,4.992
			C202.817,154.463,205.322,156.28,208.841,157.246z"/>
		<path d="M255.449,134.822c-9.257-0.976-30.323-3.911-43.911-11.351c-2.983-1.625-6.407-4.026-10.739-7.066
			c-12.813-8.979-32.188-22.548-50.939-22.548c-8.472,0-16.065,2.811-23.045,8.568c10.442,15.616,35.027,54.984,42.907,90.385
			c1.233,5.556,5.891,11.465,12.068,11.465h67.636c5.9,0,11.791-4.934,12.354-10.347
			C264.553,167.238,262.238,146.077,255.449,134.822z M207.981,179.775c-8.625,0-13.11-4.992-13.11-10.155
			c0-4.542,2.668-7.669,6.923-9.534v-0.172c-3.854-1.874-5.613-4.944-5.613-8.186c0-6.015,5.336-10.107,12.316-10.107
			c8.004,0,11.58,4.771,11.58,9.314c0,3.117-1.645,6.359-5.68,8.348v0.163c4.025,1.53,7.038,4.705,7.038,9.314
			C221.435,175.357,215.879,179.775,207.981,179.775z"/>
	</g>
</g>
<g>
</g>
<g>
</g>
<g>
</g>
<g>
</g>
<g>
</g>
<g>
</g>
<g>
</g>
<g>
</g>
<g>
</g>
<g>
</g>
<g>
</g>
<g>
</g>
<g>
</g>
<g>
</g>
<g>
</g>
</svg>
