<?xml version="1.0" encoding="iso-8859-1"?>
<!-- Generator: Adobe Illustrator 16.0.0, SVG Export Plug-In . SVG Version: 6.00 Build 0)  -->
<!DOCTYPE svg PUBLIC "-//W3C//DTD SVG 1.1//EN" "http://www.w3.org/Graphics/SVG/1.1/DTD/svg11.dtd">
<svg version="1.1" id="Capa_1" xmlns="http://www.w3.org/2000/svg" xmlns:xlink="http://www.w3.org/1999/xlink" x="0px" y="0px"
	 width="589.184px" height="589.184px" viewBox="0 0 589.184 589.184" style="enable-background:new 0 0 589.184 589.184;"
	 xml:space="preserve">
<g>
	<path d="M541.872,156.117c-8.07,0-22.825-4.647-40.507-12.766c-3.566-1.645-8.195-6.082-11.217-9.754
		c-2.037-2.477-5.087-3.892-8.357-3.892c-4.686,0-8.654,2.878-9.878,7.153c-0.966,3.366-3.979,8.788-7.153,11.676
		c-8.376,7.612-21.161,20.387-36.634,39.388c-16.926-3.022-29.089-9.458-36.901-15.052c0.564-9.104-5.967-17.212-15.138-18.35
		l-69.797-8.74l-14.238-37.476c-1.195-3.146-3.223-5.699-5.709-7.602l-0.258-2.104c-1.932-4.399-7.287-6.99-11.934-5.776
		l-46.961,12.25c-4.647,1.214-7.937,6.082-7.344,10.844l11.054,88.53c-0.268-0.182-0.487-0.335-0.765-0.536
		c-13.311-9.333-33.412-23.418-53.684-23.418c-9.534,0-18.303,3.251-26.077,9.658c-1.894,1.559-2.305,4.303-0.938,6.349
		c10.127,15.138,34.501,54.086,42.209,88.759c1.683,7.564,7.975,15.214,16.744,15.214h67.635c8.3,0,16.294-6.837,17.117-14.63
		c0.363-3.442,0.631-6.809,0.822-10.079c3.673,1.521,6.35,5.173,6.216,9.228l-0.373,10.853c-4.542,8.33-13.76,14.191-23.782,14.191
		h-67.635c-12.183,0-23.142-9.543-26.067-22.692c-9.199-41.329-44.934-91.513-45.259-91.962l-0.88-1.233
		c-1.32-1.827-3.72-2.477-5.795-1.606c-2.333,1.014-4.198,1.664-5.872,2.046c-25.264,5.737-97.298,33.583-96.849,84.59
		c0.038,4.332,0.478,8.463,1.147,12.45c-4.131,25.226-6.273,72.14,28.955,93.732c16.189,9.926,26.737,20.215,33.698,29.596
		c4.581,21.812,9.763,45.564,12.316,57.193c1.262,5.746,4.944,14.037,8.387,18.877l57.308,80.363
		c7.019,9.84,21.994,17.613,34.09,17.699l14.344,0.096c0.01,0,0.191,0,0.21,0c9.362,0,12.958-4.418,14.268-7.047
		c1.319-2.641,2.677-8.205-3.032-15.74l-40.401-53.482c42.276-7.01,63.399-14.145,74.31-20.006l0.02,9.725
		c0.028,13.35,11.618,21.947,24.489,17.816l11.035-3.549c5.546-1.797,13.531-5.852,18.179-9.256l88.501-64.576
		c5.431-3.977,9.84-12.039,10.251-18.752l1.1-18.025c0.439-7.143-3.959-15.166-10.223-18.656l-60.885-33.869
		c0.201-1.234,0.402-2.459,0.431-3.75l0.277-12.68c12.154-6.043,26.574-14.057,38.518-23.189c4.552-3.48,11.055-9.477,14.717-13.262
		c7.573-7.833,16.811-18.437,26.584-29.654c21.257-24.385,53.368-61.238,64.375-61.238l1.1,0.009l0,0
		c14.745,0,40.717-6.493,54.889-10.356c6.091-1.683,15.797-7.459,15.969-15.874c0.125-6.407-2.266-14.745-4.704-19.699
		C556.11,160.43,551.883,156.117,541.872,156.117z M155.001,467.443c-2.046-3.701-3.863-8.443-4.408-11.818
		c-1.004-6.244-2.467-15.463-4.007-25.504c2.429-0.688,5.355-2.209,8.1-5.842c10.978-14.508,24.49-35.65,26.526-54
		c1.128-10.107-0.622-19.125-3.366-26.68c1.367,0.564,2.782,1.205,4.092,1.674c7.966,2.82,15.291,7.938,23.036,13.359
		c7.832,5.479,16.333,11.33,26.354,15.338c-0.191,1.1-0.296,2.227-0.287,3.385l0.574,58.771c0.02,2.209-1.884,5.393-2.974,5.986
		c-7.182,3.785-19.173,8.939-35.534,11.904c-12.326,2.238-22.529,4.791-30.352,7.611
		C159.573,462.777,156.962,464.852,155.001,467.443z M291.755,375.262c0.019-0.191-0.009-0.363,0-0.555
		c1.253,0.238,2.391,0.572,3.261,0.984c41.014,20.119,60.377,31.557,65.531,35.965c-4.638,5.422-23.725,20.234-58.914,43.557
		c-4.036,2.668-9.955,4.744-12.728,4.934l-7.095,0.451c-0.249,0.018-0.478,0.113-0.717,0.133
		C285.281,438.354,289.03,404.217,291.755,375.262z M371.746,189.06c0.593,0.086,1.195,0.125,1.788,0.144
		c5.766,0.134,11.025-2.63,14.306-7.038c7.889,5.298,19.02,10.911,33.517,14.21c-28.659,36.51-57.175,54.439-72.197,55.625
		c-0.86,0-1.77-0.201-2.706-0.507c-1.377-2.658-3.424-5.011-5.833-6.244l-9.821-5.001c-0.344-0.296-0.669-0.593-1.004-0.899
		c-7.048-6.302-15.042-13.445-25.389-19.498c-1.08-0.631-2.285-0.65-3.442-0.383c-0.344-1.1-0.603-2.199-0.641-3.27l-4.437-36.644
		L371.746,189.06z M218.104,584.365L218.104,584.365L218.104,584.365L218.104,584.365z"/>
	<circle cx="239.429" cy="40.258" r="40.258"/>
</g>
<g>
</g>
<g>
</g>
<g>
</g>
<g>
</g>
<g>
</g>
<g>
</g>
<g>
</g>
<g>
</g>
<g>
</g>
<g>
</g>
<g>
</g>
<g>
</g>
<g>
</g>
<g>
</g>
<g>
</g>
</svg>
