<?xml version="1.0" encoding="iso-8859-1"?>
<!-- Generator: Adobe Illustrator 16.0.0, SVG Export Plug-In . SVG Version: 6.00 Build 0)  -->
<!DOCTYPE svg PUBLIC "-//W3C//DTD SVG 1.1//EN" "http://www.w3.org/Graphics/SVG/1.1/DTD/svg11.dtd">
<svg version="1.1" id="Capa_1" xmlns="http://www.w3.org/2000/svg" xmlns:xlink="http://www.w3.org/1999/xlink" x="0px" y="0px"
	 width="551.805px" height="551.805px" viewBox="0 0 551.805 551.805" style="enable-background:new 0 0 551.805 551.805;"
	 xml:space="preserve">
<g>
	<path d="M132.02,110.992c18.627,0,47.717-9.696,77.8-25.934c4.562-2.458,8.97-5.011,13.273-7.602
		c-4.542,11.102-8.673,23.055-10.012,32.474c-3.356,23.591,10.395,46.292,13.225,50.662c1.721,3.844,13.378,32.312-0.755,68.314
		c-5.403,13.77-12.823,26.918-20.282,38.355l-2.831-4.771c-3.098-5.221-8.75-7.927-14.439-7.602
		c-1.329-0.029-2.648,0.115-3.873,0.669l-0.067,0.028c-1.071,0.354-2.132,0.804-3.156,1.406c-0.048,0.029-0.077,0.058-0.125,0.086
		l-36.481,16.62c-3.949,1.797-6.12,6.616-4.857,10.767l37.887,124.064c0.182,0.594,0.564,1.119,0.87,1.674
		c-2.85,2.229-5.575,4.418-8.635,6.703c-94.152,70.217-77.312,121.137-75.075,126.713c1.979,4.953,6.771,8.186,12.097,8.186h92.747
		c7.201,0,13.024-5.834,13.024-13.025c0-7.199-5.833-13.023-13.024-13.023h-81.08c0.946-14.363,10.538-45.928,66.899-87.955
		c10.433-7.785,19.632-15.311,28.047-22.674l14.812-0.4c4.341-0.125,8.329,3.26,8.931,7.562l7.937,57.107
		c1.779,12.891,12.928,21.889,24.872,20.092c11.944-1.799,20.062-13.684,18.121-26.547l-12.412-82.131
		c-0.641-4.295-4.542-8.799-8.683-10.08l-15.95-4.904c13.809-18.121,22.29-35.66,27.569-53.521l7.354-0.354
		c8.673-0.412,15.356-7.766,14.945-16.439c-0.401-8.52-7.717-15.262-16.007-14.926c1.654-14.469,2.094-29.453,2.094-45.432
		c0-38.546,21.821-60.234,40.134-71.633c2.037-1.271,3.682-3.079,4.753-5.221l13.693-27.263c0.191-0.402,0.383-0.736,0.564-1.033
		c0.22,0.268,0.449,0.593,0.679,0.965l15.396,23.868c1.405,2.592,3.7,4.667,6.493,5.814c13.033,5.346,26.517,14.583,40.057,27.473
		c1.225,1.157,2.649,2.065,4.218,2.687c0,0,12.354,4.858,22.118,8.501c5.564,2.085,8.701,4.6,9.705,5.46
		c-1.262,1.291-4.522,3.347-9.218,4.265l-1.903,0.373c-10.997,2.123-20.588,4.169-26.593,7.918
		c-3.873,2.419-7.573,5.632-11.159,8.73c-11.352,9.83-16.448,12.813-22.405,10.06c-5.24-2.41-11.418-1.109-15.224,3.204
		c-3.806,4.312-4.342,10.614-1.301,15.51c0.756,1.224,18.934,30.237,42.572,47.344c5.805,4.207,13.971,2.916,18.188-2.908
		c4.227-5.822,2.926-13.971-2.907-18.197c-8.233-5.967-15.884-14.008-21.975-21.324c8.186-3.691,14.984-9.562,20.109-14
		c2.955-2.562,5.747-4.972,7.832-6.283c2.802-1.587,13.684-3.681,17.776-4.465l1.999-0.392
		c18.006-3.557,30.571-15.711,30.571-29.548c0-12.756-9.82-23.744-26.966-30.16c-7.02-2.62-15.377-5.871-19.364-7.43
		c-14-13.005-28.2-22.826-42.333-29.242l-13.799-21.392c-6.034-9.362-14.87-14.468-24.05-13.952
		c-9.237,0.498-17.404,6.502-22.405,16.467l-12.077,24.078c-19.766,13.177-49.267,41.32-49.267,91.714
		c0,16.763-0.344,32.044-2.314,46.654l-37.504,1.789l-4.791-8.08c9.677-13.914,20.004-31.117,27.263-49.61
		c18.197-46.35,0.641-82.716-0.115-84.246l-0.669-1.138c-0.134-0.191-13.148-19.641-10.557-37.886
		c2.314-16.228,16.275-45.556,22.405-57.337c2.687-2.276,5.259-4.542,7.583-6.78c15.931-15.376,21.258-28.267,15.827-38.317
		C275.313,5.546,269.442,0,255.71,0c-18.628,0-47.717,9.696-77.801,25.934c-20.923,11.284-39.455,24.27-52.183,36.548
		c-15.921,15.376-21.257,28.267-15.826,38.317C112.416,105.446,118.288,110.992,132.02,110.992z M250.546,323.623
		c-4.944,13.178-12.297,26.27-23.189,39.877c-0.363-0.785-0.736-1.568-0.899-2.354l-10.806-35.869L250.546,323.623z M186.994,42.764
		c26.603-14.354,53.579-23.639,68.726-23.639c2.381,0,3.892,0.249,4.781,0.478c-2.151,6.771-19.852,27.101-59.756,48.635
		c-26.603,14.363-53.579,23.638-68.716,23.638c-2.381,0-3.892-0.249-4.781-0.478C129.399,84.619,147.1,64.289,186.994,42.764z"/>
	<path d="M87.869,245.278c8.406,4.485,21.038,1.329,28.209-7.038l1.042-1.214c7.832,9.62,20.301,15.08,33.459,13.101
		c19.833-2.983,33.498-21.478,30.514-41.3c-1.693-11.303-8.521-20.455-17.672-25.809l0.545-0.641
		c7.172-8.367,9.639-22.806,5.489-32.264c-4.15-9.448-13.321-10.337-20.493-1.96l-15.156,17.681l-25.341-1.559
		c-10.987-0.688-18.006,7.497-15.654,18.264l5.413,24.786l-12.584,14.688C78.469,230.37,79.464,240.793,87.869,245.278z"/>
</g>
<g>
</g>
<g>
</g>
<g>
</g>
<g>
</g>
<g>
</g>
<g>
</g>
<g>
</g>
<g>
</g>
<g>
</g>
<g>
</g>
<g>
</g>
<g>
</g>
<g>
</g>
<g>
</g>
<g>
</g>
</svg>
