<?xml version="1.0" encoding="iso-8859-1"?>
<!-- Generator: Adobe Illustrator 16.0.0, SVG Export Plug-In . SVG Version: 6.00 Build 0)  -->
<!DOCTYPE svg PUBLIC "-//W3C//DTD SVG 1.1//EN" "http://www.w3.org/Graphics/SVG/1.1/DTD/svg11.dtd">
<svg version="1.1" id="Capa_1" xmlns="http://www.w3.org/2000/svg" xmlns:xlink="http://www.w3.org/1999/xlink" x="0px" y="0px"
	 width="483.293px" height="483.293px" viewBox="0 0 483.293 483.293" style="enable-background:new 0 0 483.293 483.293;"
	 xml:space="preserve">
<g>
	<path d="M23.438,134.998c10.232,5.46,25.608,1.616,34.339-8.568l1.262-1.473c9.543,11.714,24.709,18.351,40.736,15.95
		c24.146-3.624,40.774-26.144,37.15-50.28c-2.065-13.76-10.366-24.91-21.516-31.432l0.669-0.784
		c8.74-10.184,11.733-27.77,6.675-39.273c-5.049-11.503-16.218-12.575-24.949-2.391L79.35,38.273l-30.839-1.903
		c-13.378-0.832-21.917,9.132-19.058,22.232l6.588,30.18l-15.319,17.872C11.992,116.858,13.206,129.538,23.438,134.998z"/>
	<path d="M136.725,149.265c-0.048,0.029-0.096,0.077-0.144,0.105l-44.427,20.234c-4.8,2.19-7.449,8.062-5.91,13.11l46.12,151.039
		c0.334,1.09,0.927,2.104,1.597,3.061c-100.588,76.242-82.429,131.379-80,137.461c2.18,5.441,7.449,9.018,13.321,9.018h102.099
		c7.927,0,14.344-6.416,14.344-14.344s-6.417-14.344-14.344-14.344H80.125c1.042-15.816,11.599-50.566,73.65-96.83
		c7.258-5.412,14-10.719,20.349-15.941l19.918-0.545c5.288-0.143,10.156,3.979,10.873,9.209l9.649,69.529
		c2.18,15.691,15.74,26.65,30.284,24.461c14.545-2.189,24.423-16.658,22.062-32.32L251.79,312.162
		c-0.793-5.221-5.526-10.719-10.576-12.268l-18.8-5.777c17.863-22.242,28.429-43.594,34.617-65.436l7.296-0.344
		c10.547-0.497,18.694-9.457,18.188-20.014c-0.478-10.06-8.52-17.892-18.561-18.121c1.339-14.229,1.664-28.945,1.664-44.523
		c0-42.438,24.03-66.316,44.188-78.872c2.237-1.396,4.054-3.385,5.24-5.747l15.061-30.017c0.22-0.44,0.431-0.822,0.631-1.147
		c0.229,0.296,0.488,0.65,0.756,1.062l16.974,26.326c1.568,2.84,4.063,5.097,7.133,6.359c14.344,5.881,29.186,16.056,44.112,30.246
		c1.339,1.272,2.907,2.276,4.628,2.955c0,0,13.599,5.355,24.347,9.362c6.129,2.295,9.581,5.068,10.681,6.015
		c-1.386,1.425-4.981,3.682-10.146,4.695l-2.104,0.401c-12.106,2.333-22.673,4.609-29.28,8.721
		c-4.265,2.668-8.339,6.196-12.278,9.601c-12.489,10.815-18.102,14.095-24.672,11.083c-5.775-2.658-12.564-1.233-16.763,3.528
		c-4.198,4.753-4.781,11.686-1.435,17.069c0.842,1.348,20.856,33.277,46.866,52.125c6.436,4.657,15.386,3.204,20.033-3.203
		c4.647-6.417,3.213-15.386-3.203-20.034c-9.065-6.569-17.48-15.424-24.184-23.476c9.026-4.054,16.505-10.528,22.137-15.405
		c3.252-2.812,6.321-5.479,8.636-6.923c3.088-1.75,15.061-4.055,19.564-4.925l2.199-0.421c19.823-3.911,33.66-17.289,33.66-32.532
		c0-14.038-10.815-26.134-29.691-33.21c-7.727-2.878-16.936-6.464-21.315-8.176c-15.424-14.325-31.078-25.13-46.617-32.197
		L355.592,15.4c-6.656-10.318-16.313-15.95-26.479-15.357c-10.175,0.555-19.164,7.162-24.662,18.13L291.159,44.68
		c-21.745,14.506-54.238,45.479-54.238,100.98c0,16.333-0.315,31.375-1.884,45.766l-49.687,2.362l-22.453-37.858
		c-3.777-6.369-10.662-9.658-17.585-9.256c-1.606-0.038-3.223,0.144-4.695,0.813l-0.077,0.028
		C139.259,147.974,137.968,148.529,136.725,149.265z M226.536,230.145c-6.139,17.117-15.97,34.052-31.365,51.906
		c-1.415-1.885-2.572-3.922-3.002-5.977l-13.158-43.672L226.536,230.145z"/>
</g>
<g>
</g>
<g>
</g>
<g>
</g>
<g>
</g>
<g>
</g>
<g>
</g>
<g>
</g>
<g>
</g>
<g>
</g>
<g>
</g>
<g>
</g>
<g>
</g>
<g>
</g>
<g>
</g>
<g>
</g>
</svg>
