<?xml version="1.0" encoding="iso-8859-1"?>
<!-- Generator: Adobe Illustrator 16.0.0, SVG Export Plug-In . SVG Version: 6.00 Build 0)  -->
<!DOCTYPE svg PUBLIC "-//W3C//DTD SVG 1.1//EN" "http://www.w3.org/Graphics/SVG/1.1/DTD/svg11.dtd">
<svg version="1.1" id="Capa_1" xmlns="http://www.w3.org/2000/svg" xmlns:xlink="http://www.w3.org/1999/xlink" x="0px" y="0px"
	 width="544.642px" height="544.642px" viewBox="0 0 544.642 544.642" style="enable-background:new 0 0 544.642 544.642;"
	 xml:space="preserve">
<g>
	<g>
		<path d="M371.034,446.147c-5.948-2.391-9.371-8.386-7.268-14.448l0.115-0.335c2.113-6.062,2.323-15.96,0.478-22.09l-29.137-96.858
			c-1.836-6.158-1.186-12.211,1.492-13.55c2.677-1.339,4.848-5.871,4.848-10.175c0-4.274,3.462-9.036,7.755-10.643
			c4.266-1.606,7.746-8.119,7.746-14.516v-10.662c0-6.417-2.381-13.359-5.326-15.491s-5.326-6.914-5.326-10.653
			c0-3.749,4.561-9.275,10.184-12.345l0.908-0.488c5.633-3.079,10.203-10.777,10.203-17.184l-14.229-54.057
			c8.405-14.124,13.32-30.562,13.32-48.186C366.798,42.295,324.503,0,272.33,0s-94.468,42.295-94.468,94.468
			c0,17.671,4.944,34.128,13.368,48.281l-14.286,54.257c0,6.417,4.58,14.114,10.203,17.184l0.908,0.487
			c5.632,3.079,10.184,8.597,10.184,12.355c0,3.749-2.381,8.52-5.326,10.653c-2.945,2.132-5.326,9.075-5.326,15.481v10.653
			c0,6.417,3.471,12.918,7.746,14.535c4.284,1.597,7.755,6.369,7.755,10.644c0,4.283,2.171,8.826,4.849,10.174
			c2.677,1.339,3.337,7.393,1.492,13.551l-29.137,96.849c-1.846,6.148-1.635,16.036,0.478,22.089l0.115,0.345
			c2.113,6.062-1.319,12.049-7.268,14.449c-9.428,3.768-21.448,10.892-21.448,22.663c0,10.662,0,22.51,0,30.992
			c0,6.426,2.199,16.533,7.191,20.559c11.465,9.314,40.86,22.721,115.391,23.974l-4.858-0.297
			c74.53-1.242,103.926-14.659,115.391-23.963c4.992-4.045,7.191-14.144,7.191-20.56c0-8.491,0-20.34,0-31.002
			C392.482,457.049,380.473,449.935,371.034,446.147z"/>
	</g>
</g>
<g>
</g>
<g>
</g>
<g>
</g>
<g>
</g>
<g>
</g>
<g>
</g>
<g>
</g>
<g>
</g>
<g>
</g>
<g>
</g>
<g>
</g>
<g>
</g>
<g>
</g>
<g>
</g>
<g>
</g>
</svg>
