<?xml version="1.0" encoding="iso-8859-1"?>
<!-- Generator: Adobe Illustrator 16.0.0, SVG Export Plug-In . SVG Version: 6.00 Build 0)  -->
<!DOCTYPE svg PUBLIC "-//W3C//DTD SVG 1.1//EN" "http://www.w3.org/Graphics/SVG/1.1/DTD/svg11.dtd">
<svg version="1.1" id="Capa_1" xmlns="http://www.w3.org/2000/svg" xmlns:xlink="http://www.w3.org/1999/xlink" x="0px" y="0px"
	 width="535.88px" height="535.88px" viewBox="0 0 535.88 535.88" style="enable-background:new 0 0 535.88 535.88;"
	 xml:space="preserve">
<g>
	<g>
		<path d="M194.241,94.834c23.495,0,42.477-19.106,42.477-42.591c0-23.495-18.981-42.467-42.477-42.467
			c-23.476,0-42.591,18.972-42.591,42.467C151.65,75.729,170.766,94.834,194.241,94.834z"/>
		<path d="M505.213,378.238c-5.804-10.892-15.176-10.863-20.922,0.058l-7.115,13.521c-5.756,10.92-20.416,19.775-32.751,19.775
			h-16.764c-12.345,0-29.644,6.847-38.642,15.28l-32.445,30.438c-8.999,8.435-25.704,11.896-37.313,7.698l-16.839-6.072
			c-7.479-2.706-17.997-3.815-27.693-3.299l62.691-300.569v-0.774c0-5.279-4.322-9.725-9.725-9.725
			c-4.887,0-8.616,3.796-9.658,8.559l-14.038,67.377c-0.755-0.287-1.511-0.574-2.305-0.774l-59.966-15.061l-17.011-65.656
			c-3.099-11.953-15.616-21.631-27.952-21.631h-40.038c-1.788,0-3.557,0.258-5.316,0.641l0.229-0.641c0,0-56.371,7.708-68.477,55.53
			c-12.097,47.822,13.961,97.375,13.961,97.375l0.01-0.038l-48.702,200.01c-0.373,2.065-0.507,4.063-0.507,6.053
			c0,2.438,0.373,4.771,0.909,7.048l-8.004-2.937c-11.58-4.245-25.608,1.167-31.336,12.097l-7.2,13.789
			c-5.728,10.94-0.354,19.795,11.981,19.795h486.004c12.336,0,24.308-9.812,26.727-21.908l7.994-39.98
			c2.42-12.097-0.324-30.733-6.139-41.626L505.213,378.238z M191.487,465.382l-19.221-6.694
			c-11.657-4.055-28.831-0.994-38.374,6.838l-24.002,19.718c-1.416,1.166-3.051,2.18-4.762,3.117
			c0.497-1.138,0.985-2.285,1.339-3.49l51.417-156.921l44.054,139.832C198.133,467.236,194.547,466.443,191.487,465.382z
			 M197.856,233.443l5.651-24.776l4.437,19.508c3.997,12.67,15.568,13.961,15.568,13.961l69.251,17.557
			c1.032,0.191,2.018,0.239,3.021,0.287l-38.202,183.399L197.856,233.443z"/>
	</g>
</g>
<g>
</g>
<g>
</g>
<g>
</g>
<g>
</g>
<g>
</g>
<g>
</g>
<g>
</g>
<g>
</g>
<g>
</g>
<g>
</g>
<g>
</g>
<g>
</g>
<g>
</g>
<g>
</g>
<g>
</g>
</svg>
