<?xml version="1.0" encoding="iso-8859-1"?>
<!-- Generator: Adobe Illustrator 16.0.0, SVG Export Plug-In . SVG Version: 6.00 Build 0)  -->
<!DOCTYPE svg PUBLIC "-//W3C//DTD SVG 1.1//EN" "http://www.w3.org/Graphics/SVG/1.1/DTD/svg11.dtd">
<svg version="1.1" id="Capa_1" xmlns="http://www.w3.org/2000/svg" xmlns:xlink="http://www.w3.org/1999/xlink" x="0px" y="0px"
	 width="500.793px" height="500.793px" viewBox="0 0 500.793 500.793" style="enable-background:new 0 0 500.793 500.793;"
	 xml:space="preserve">
<g>
	<g>
		<path d="M482.076,120.125C482.076,53.885,428.191,0,361.951,0c-66.229,0-120.114,53.885-120.114,120.125
			c0,66.229,53.885,120.114,120.114,120.114C428.191,240.239,482.076,186.354,482.076,120.125z M446.303,57.71
			c2.409,3.242,4.608,6.646,6.636,10.155c-1.339,4.312-3.423,10.653-6.416,18.417l-9.429-3.634
			c4.915-12.737,7.344-21.544,7.784-23.18L446.303,57.71z M421.593,33.804c2.897,2.008,5.681,4.16,8.349,6.436
			c-1.205,4.102-3.538,11.494-7.191,20.99l-9.429-3.634c4.915-12.737,7.344-21.535,7.765-23.17L421.593,33.804z M272.093,174.305
			c14.946-3.471,55.692-15.816,85.986-51.848c30.647-36.433,46.292-79.914,51.341-95.912c3.089,1.578,6.091,3.29,8.988,5.154
			c-5.804,18.102-21.678,60.502-52.594,97.26c-30.284,36.022-69.261,49.629-87.64,54.306
			C275.994,180.387,273.957,177.404,272.093,174.305z M412.432,85.116c-3.806,7.937-7.937,15.683-12.23,22.988l-8.701-5.125
			c4.159-7.066,8.147-14.554,11.828-22.242L412.432,85.116z M385.915,129.945c-3.299,4.552-6.771,8.989-10.289,13.177
			c-2.094,2.477-4.207,4.848-6.378,7.124l-7.306-6.971c2.008-2.123,4.007-4.341,5.938-6.646c3.385-4.017,6.684-8.262,9.858-12.623
			L385.915,129.945z M349.53,167.803c-6.924,5.202-14.411,9.974-22.233,14.172l-4.781-8.903c7.392-3.959,14.43-8.443,20.942-13.34
			L349.53,167.803z M282.324,188.391c4.198-0.976,10.252-2.601,17.471-5.212l3.434,9.496c-4.849,1.75-9.199,3.079-12.881,4.103
			C287.526,194.128,284.85,191.336,282.324,188.391z M293.628,199.704c12.087-2.505,56.294-13.98,88.625-52.432
			c37.093-44.092,52.183-98.379,53.167-102.032c2.821,2.764,5.479,5.68,7.976,8.75c-5.097,16.458-21.019,61.277-53.406,99.785
			c-29.31,34.865-66.861,48.769-85.9,53.865C300.427,205.211,296.945,202.553,293.628,199.704z M436.204,110.179
			c-3.806,7.946-7.917,15.683-12.23,22.998l-8.701-5.125c4.169-7.067,8.147-14.545,11.828-22.243L436.204,110.179z M409.697,155.008
			c-3.299,4.562-6.761,8.989-10.279,13.177c-2.095,2.477-4.218,4.848-6.379,7.124l-7.324-6.961c2.027-2.123,4.006-4.342,5.967-6.665
			c3.366-4.007,6.675-8.243,9.84-12.604L409.697,155.008z M373.293,192.866c-6.914,5.211-14.401,9.983-22.233,14.171l-4.762-8.902
			c7.382-3.949,14.43-8.434,20.933-13.34L373.293,192.866z M311.433,212.096c3.462-0.946,7.555-2.199,12.145-3.854l3.434,9.505
			c-0.68,0.249-1.263,0.42-1.923,0.641C320.364,216.61,315.803,214.506,311.433,212.096z M344.558,223.619
			c-6.417-1.071-12.651-2.716-18.618-4.896c11.179-2.725,55.787-15.73,87.038-56.026c24.021-30.944,37.657-66.125,44.197-86.684
			c2.247,4.819,4.131,9.849,5.633,15.032c-7.736,21.42-20.952,50.911-41.846,77.838C396.281,200.698,364.61,216.361,344.558,223.619
			z"/>
		<path d="M213.991,359.178l16.112,9.658l34.091,55.223c7.009-6.779,18.666-19.842,25.503-37.131l-24.528-39.742l-2.533-18.789
			c7.946-9.469,9.438-23.229,2.601-34.311L108.268,39.856c-8.529-13.837-26.679-18.13-40.507-9.582L32.686,51.924
			c-13.827,8.54-18.111,26.68-9.581,40.517L180.072,346.67C187.312,358.393,201.426,363.154,213.991,359.178z"/>
		<path d="M277.734,445.986l6.226,10.098c6.148-5.623,18.532-18.342,26.297-35.85l-1.435-2.334
			C297.95,431.957,285.136,441.301,277.734,445.986z"/>
		<path d="M270.524,434.311l0.994,1.625c7.211-4.619,20.416-14.373,30.601-28.889l-4.925-7.965
			C288.827,416.018,277.123,428.256,270.524,434.311z"/>
		<path d="M306.394,492.412c5.116,8.291,15.998,10.871,24.298,5.746l5.002-3.088c8.31-5.125,10.882-16.008,5.766-24.309
			l-23.887-38.68c-9.295,17.395-21.765,29.385-27.311,34.195L306.394,492.412z"/>
	</g>
</g>
<g>
</g>
<g>
</g>
<g>
</g>
<g>
</g>
<g>
</g>
<g>
</g>
<g>
</g>
<g>
</g>
<g>
</g>
<g>
</g>
<g>
</g>
<g>
</g>
<g>
</g>
<g>
</g>
<g>
</g>
</svg>
