<?xml version="1.0" encoding="iso-8859-1"?>
<!-- Generator: Adobe Illustrator 16.0.0, SVG Export Plug-In . SVG Version: 6.00 Build 0)  -->
<!DOCTYPE svg PUBLIC "-//W3C//DTD SVG 1.1//EN" "http://www.w3.org/Graphics/SVG/1.1/DTD/svg11.dtd">
<svg version="1.1" id="Capa_1" xmlns="http://www.w3.org/2000/svg" xmlns:xlink="http://www.w3.org/1999/xlink" x="0px" y="0px"
	 width="428.302px" height="428.302px" viewBox="0 0 428.302 428.302" style="enable-background:new 0 0 428.302 428.302;"
	 xml:space="preserve">
<g>
	<g>
		<path d="M277.025,198.269l-11.131-6.665l-23.523-38.106c-4.839,4.686-12.891,13.693-17.604,25.627l16.936,27.425l1.75,12.966
			c-5.479,6.531-6.522,16.037-1.798,23.677l108.323,175.463c5.891,9.543,18.428,12.508,27.961,6.617l24.203-14.946
			c9.553-5.891,12.508-18.408,6.607-27.961L300.425,206.904C295.434,198.814,285.689,195.525,277.025,198.269z"/>
		<path d="M210.585,156.137l0.995,1.606c7.497-9.696,16.342-16.142,21.448-19.383l-4.293-6.961
			C224.489,135.281,215.931,144.05,210.585,156.137z"/>
		<path d="M219.584,170.729c5.775-11.685,13.855-20.129,18.417-24.308l-0.688-1.128c-4.973,3.184-14.086,9.916-21.123,19.928
			L219.584,170.729z"/>
		<path d="M30.849,418.359c7.918,0,14.344-6.416,14.344-14.344V34.292c3.184-2.18,10.557-5.604,25.503-5.604
			c14.726,0,21.754,3.299,24.7,5.355v369.973c0,7.928,6.426,14.344,14.344,14.344s14.344-6.416,14.344-14.344V34.292
			c3.184-2.18,10.557-5.604,25.503-5.604c14.726,0,21.754,3.299,24.7,5.355v369.973c0,7.928,6.426,14.344,14.344,14.344
			s14.344-6.416,14.344-14.344V143.82l2.562,4.141c6.417-12.011,15.023-20.282,18.857-23.601l-11.141-18.035
			c-2.275-3.691-6.225-5.527-10.27-5.565V28.688c0-2.008-0.421-3.987-1.234-5.823C200.047,19.049,189.577,0,149.596,0
			c-19.154,0-31.633,4.351-39.665,9.266C102.042,4.322,89.744,0,70.705,0C31.164,0,19.88,18.552,18.025,22.271
			c-0.995,1.989-1.511,4.188-1.511,6.416v375.328C16.505,411.934,22.931,418.359,30.849,418.359z"/>
	</g>
</g>
<g>
</g>
<g>
</g>
<g>
</g>
<g>
</g>
<g>
</g>
<g>
</g>
<g>
</g>
<g>
</g>
<g>
</g>
<g>
</g>
<g>
</g>
<g>
</g>
<g>
</g>
<g>
</g>
<g>
</g>
</svg>
