<?xml version="1.0" encoding="iso-8859-1"?>
<!-- Generator: Adobe Illustrator 16.0.0, SVG Export Plug-In . SVG Version: 6.00 Build 0)  -->
<!DOCTYPE svg PUBLIC "-//W3C//DTD SVG 1.1//EN" "http://www.w3.org/Graphics/SVG/1.1/DTD/svg11.dtd">
<svg version="1.1" id="Capa_1" xmlns="http://www.w3.org/2000/svg" xmlns:xlink="http://www.w3.org/1999/xlink" x="0px" y="0px"
	 width="551.972px" height="551.972px" viewBox="0 0 551.972 551.972" style="enable-background:new 0 0 551.972 551.972;"
	 xml:space="preserve">
<g>
	<g>
		<circle cx="192.981" cy="140.458" r="42.639"/>
		<path d="M367.506,168.668c4.141,1.578,11.752,3.863,20.157,3.376l11.657-17.7l7.229-4.639c5.413,1.454,11.37-0.573,14.612-5.498
			l74.501-113.229c4.055-6.148,2.353-14.449-3.806-18.503l-15.635-10.28c-6.158-4.045-14.439-2.343-18.494,3.825l-74.501,113.22
			c-3.442,5.23-2.688,11.943,1.348,16.353l-0.889,8.472L367.506,168.668z"/>
		<path d="M361.08,178.432l-1.425,2.161c-2.906,0.315-5.775,1.214-8.396,2.916l-40.421,26.383l-54.162-16.926
			c-1.846-0.583-3.768-0.87-5.709-0.87h-14.373v-0.057h-58.57c-15.845,0-28.688,12.842-28.688,28.688V341.09h0.105
			c-0.373,1.645-0.66,3.327-0.736,5.068l-4.274,98.828l-78.116,54.812c-12.967,9.104-16.104,26.994-7,39.971
			c5.575,7.956,14.468,12.202,23.505,12.202c5.689,0,11.446-1.692,16.457-5.202l89.687-62.931c7.296-5.126,11.8-13.35,12.183-22.242
			l3.49-80.603l59.737,51.159v91.131c0,15.845,12.843,28.688,28.688,28.688s28.688-12.843,28.688-28.688V418.947
			c0-8.377-3.662-16.342-10.031-21.783l-75.113-64.327v-48.328l26.938-1.234c3.414-0.162,6.723-1.224,9.582-3.089l43.519-28.41
			l16.667,5.212c1.903,0.593,3.815,0.88,5.709,0.88c8.147,0,15.692-5.25,18.255-13.426c1.913-6.12,0.555-12.45-3.021-17.203
			l17.92-11.704c8.846-5.776,11.332-17.624,5.565-26.47c-0.555-0.851-1.215-1.587-1.864-2.313c0.688,0.019,1.329,0.124,2.036,0.114
			l0.688-1.032c-1.922-0.431-3.738-0.976-5.45-1.568c-2.391-1.788-5.126-2.993-8.004-3.52
			C363.557,179.913,362.131,179.101,361.08,178.432z M256.59,245.312l-19.976,0.908v-15.864h11.456l21.267,6.646L256.59,245.312z"/>
		<path d="M364.035,173.946c3.271,2.095,9.812,5.651,17.738,7.058l2.324-3.548c-8.559-0.201-15.836-2.668-19.584-4.227
			L364.035,173.946z"/>
	</g>
</g>
<g>
</g>
<g>
</g>
<g>
</g>
<g>
</g>
<g>
</g>
<g>
</g>
<g>
</g>
<g>
</g>
<g>
</g>
<g>
</g>
<g>
</g>
<g>
</g>
<g>
</g>
<g>
</g>
<g>
</g>
</svg>
