<?xml version="1.0" encoding="iso-8859-1"?>
<!-- Generator: Adobe Illustrator 16.0.0, SVG Export Plug-In . SVG Version: 6.00 Build 0)  -->
<!DOCTYPE svg PUBLIC "-//W3C//DTD SVG 1.1//EN" "http://www.w3.org/Graphics/SVG/1.1/DTD/svg11.dtd">
<svg version="1.1" id="Capa_1" xmlns="http://www.w3.org/2000/svg" xmlns:xlink="http://www.w3.org/1999/xlink" x="0px" y="0px"
	 width="535.904px" height="535.904px" viewBox="0 0 535.904 535.904" style="enable-background:new 0 0 535.904 535.904;"
	 xml:space="preserve">
<g>
	<path d="M232.433,220.696c58.455-80.851,37.829-158.47,21.726-195.467c5.47,77.523-25.704,167.172-25.704,167.172L232.433,220.696z
		"/>
	<path d="M307.833,271.865l-11.188-6.149C315.942,95.723,283.382,28.767,263.205,4.373c-4.408-5.326-8.157-5.489-9.83-2.094
		c13.407,23.275,63.132,124.513-17.174,229.519c-0.545,0.708-1.243,1.157-2.008,1.473l4.562,32.445c0,0-4.896,3.452-10.939,7.717
		c-6.043,4.274-10.93,16.284-10.93,26.86v132.441c0,5.289,1.052,13.713,2.362,18.828l9.218,36.1h1.252l-6.703,19.832
		c-3.385,9.992,0.736,23.494,11.092,25.59c7.937,1.605,19.469,2.82,36.174,2.82c14.631,0,26.346-1.453,35.027-3.156
		c10.367-2.018,15.396-13.244,11.744-23.16l-8.08-21.926h1.021l7.336-40.861c0.936-5.191,1.691-13.693,1.691-18.973V297.139
		C319.021,286.572,314.021,275.25,307.833,271.865z"/>
</g>
<g>
</g>
<g>
</g>
<g>
</g>
<g>
</g>
<g>
</g>
<g>
</g>
<g>
</g>
<g>
</g>
<g>
</g>
<g>
</g>
<g>
</g>
<g>
</g>
<g>
</g>
<g>
</g>
<g>
</g>
</svg>
