<?xml version="1.0" encoding="iso-8859-1"?>
<!-- Generator: Adobe Illustrator 16.0.0, SVG Export Plug-In . SVG Version: 6.00 Build 0)  -->
<!DOCTYPE svg PUBLIC "-//W3C//DTD SVG 1.1//EN" "http://www.w3.org/Graphics/SVG/1.1/DTD/svg11.dtd">
<svg version="1.1" id="Capa_1" xmlns="http://www.w3.org/2000/svg" xmlns:xlink="http://www.w3.org/1999/xlink" x="0px" y="0px"
	 width="497.174px" height="497.174px" viewBox="0 0 497.174 497.174" style="enable-background:new 0 0 497.174 497.174;"
	 xml:space="preserve">
<g>
	<g>
		<circle cx="451.045" cy="204.221" r="46.129"/>
		<path d="M295.367,54.31c-12.154-17.289-34.818-26.622-50.615-20.865c-15.797,5.776-19.087,24.672-7.325,42.219l65.598,97.92
			c0.727,1.052,1.033,1.826,1.301,1.932c-0.4,0.182-1.195,0.449-2.467,0.564l-74.606,6.579c-14.296,1.252-28.295,10.9-32.57,22.434
			c-4.026,10.9-1.348,27.692,6.244,39.072l39.971,59.957c3.653,5.47,3.529,15.357-0.258,20.75l-70.877,99.651H28.688
			C12.843,424.522,0,433.674,0,444.977s12.843,20.454,28.688,20.454h235.189c15.846,0,28.688-9.151,28.688-20.454
			s-12.842-20.454-28.688-20.454H240.43l66.191-80.65c9.047-11.035,11.457-29.185,5.604-42.209L292,256.806
			c-0.908-2.018-0.717-3.089-0.641-3.213c0.096-0.124,0.986-0.736,3.195-0.736h32.971c12.967,0,30.074-6.474,39.779-15.052
			l14.766-13.023c11.713-10.348,13.635-28.315,4.379-40.899L295.367,54.31z"/>
	</g>
</g>
<g>
</g>
<g>
</g>
<g>
</g>
<g>
</g>
<g>
</g>
<g>
</g>
<g>
</g>
<g>
</g>
<g>
</g>
<g>
</g>
<g>
</g>
<g>
</g>
<g>
</g>
<g>
</g>
<g>
</g>
</svg>
