<?xml version="1.0" encoding="iso-8859-1"?>
<!-- Generator: Adobe Illustrator 16.0.0, SVG Export Plug-In . SVG Version: 6.00 Build 0)  -->
<!DOCTYPE svg PUBLIC "-//W3C//DTD SVG 1.1//EN" "http://www.w3.org/Graphics/SVG/1.1/DTD/svg11.dtd">
<svg version="1.1" id="Capa_1" xmlns="http://www.w3.org/2000/svg" xmlns:xlink="http://www.w3.org/1999/xlink" x="0px" y="0px"
	 width="490.319px" height="490.319px" viewBox="0 0 490.319 490.319" style="enable-background:new 0 0 490.319 490.319;"
	 xml:space="preserve">
<g>
	<path d="M469.029,33.417c-4.188-3.213-10.041-8.855-13.148-13.129c-6.062-8.31-17.614-20.043-34.664-20.282
		c-26.45-0.392-64.652,23.514-67.588,75.439c-2.945,51.924-36.242,128.329-60.741,144.986
		c-24.499,16.639-66.612,74.444-128.329,94.038c-61.716,19.584-139.105,32.321-138.13,52.88
		c0.784,16.534,61.573,13.465,85.499,11.619c5.269-0.411,5.508,0.631,0.574,2.524c-26.354,10.031-101.917,40.229-102.73,56.399
		c-0.976,19.594,94.047-31.355,166.541-35.257c72.493-3.921,112.158-8.329,132.737,26.928c0,0,4.045,6.521,11.446,13.933
		c-1.884,0.746-3.127,1.167-3.166,1.186c-0.679,0.221-1.224,0.746-1.473,1.416c-0.258,0.669-0.19,1.424,0.163,2.046l9.094,15.711
		c-4.37,0.718-8.988,1.692-12.804,3.338c-4.858,2.094-4.332,5.307-0.813,4.484c3.52-0.803,6.369,0.076,6.369,1.96
		c0,1.903,3.815,1.473,8.683-0.583c5.785-2.448,12.861-4.896,15.807-3.825c1.913,0.688,3.385,1.884,4.504,3.137
		c2.037,2.257-1.443,4.274-6.713,4.667c-4.437,0.334-9.658,1.233-13.933,3.395c-4.704,2.409-2.696,5.508,2.506,4.608
		c8.405-1.415,20.119-2.916,24.9-1.118c7.832,2.936,28.898,9.304,45.068,4.896c11.188-3.041,22.615-6.33,31.192-8.07
		c5.174-1.043,13.264-5.623,9.056-7.038c-1.625-0.545-4.149-0.938-7.927-1.042c-12.929-0.373-23.352,4.274-32.952,3.844
		c-5.279-0.239-6.397-5.757-1.979-8.645c3.184-2.094,7.42-4.198,12.718-5.412c5.154-1.177,6.579-4.562,1.482-5.958
		c-4.112-1.138-10.06-1.491-18.456,0.507c-14.697,3.481-27.062,3.386-35.648-1.186l4.972-2.658c0.632-0.345,1.081-0.956,1.215-1.664
		c0.144-0.698-0.048-1.435-0.517-1.989l-15.826-18.848c-0.43-0.507-1.042-0.812-1.701-0.851c-0.488,0-0.89,0.239-1.301,0.487
		c-0.832-16.132,5.518-38.661,31.651-59.507c38.7-30.858,72.981-48.501,83.758-92.585c10.777-44.073-19.105-165.067-19.105-165.067
		s-4.925-19.364-2.544-37.208c0.698-5.231,4.38-13.053,8.578-16.247c5.402-4.131,14.468-8.271,28.181-6.684
		c5.25,0.612,8.683-2.467,6.196-7.114C477.712,42.061,474.394,37.519,469.029,33.417z M356.297,450.322l-25.57,13.684l-9.142-15.778
		c4.791-1.846,14.841-6.196,22.366-12.584L356.297,450.322z"/>
	<path d="M331.271,450.781c0.201-0.431,0.766-1.195,1.454-1.626c0.851-0.526,1.501-0.411,1.816,0.096
		c0.449,0.727-0.22,1.511-0.898,1.941l-0.794,0.487l0.898,1.435l0.822-0.507c0.88-0.545,1.961-0.688,2.496,0.162
		c0.393,0.632,0.172,1.454-0.86,2.113c-0.822,0.507-1.836,0.688-2.314,0.708l0.536,1.769c0.688-0.019,1.807-0.315,2.916-1.004
		c2.171-1.348,2.812-3.289,1.865-4.781c-0.698-1.138-2.019-1.387-3.156-0.937l-0.019-0.038c0.841-1.014,0.898-2.057,0.334-2.975
		c-0.736-1.157-2.352-1.491-4.159-0.354c-1.119,0.688-1.941,1.645-2.247,2.295L331.271,450.781z"/>
	<path d="M340.155,444.565c0.994-0.612,1.75-0.315,2.189,0.373c0.603,1.014,0.297,2.543-0.535,5.402l-0.479,1.664l0.756,1.215
		l6.062-3.787l-1.023-1.645l-3.241,2.036l-0.02-0.038l0.383-1.138c0.564-1.884,0.87-3.682-0.028-5.135
		c-0.966-1.53-2.726-2.018-4.667-0.784c-1.147,0.707-1.922,1.74-2.237,2.61l1.443,1.062
		C339.008,445.789,339.429,445.005,340.155,444.565z"/>
</g>
<g>
</g>
<g>
</g>
<g>
</g>
<g>
</g>
<g>
</g>
<g>
</g>
<g>
</g>
<g>
</g>
<g>
</g>
<g>
</g>
<g>
</g>
<g>
</g>
<g>
</g>
<g>
</g>
<g>
</g>
</svg>
