<?xml version="1.0" encoding="iso-8859-1"?>
<!-- Generator: Adobe Illustrator 16.0.0, SVG Export Plug-In . SVG Version: 6.00 Build 0)  -->
<!DOCTYPE svg PUBLIC "-//W3C//DTD SVG 1.1//EN" "http://www.w3.org/Graphics/SVG/1.1/DTD/svg11.dtd">
<svg version="1.1" id="Capa_1" xmlns="http://www.w3.org/2000/svg" xmlns:xlink="http://www.w3.org/1999/xlink" x="0px" y="0px"
	 width="519.194px" height="519.194px" viewBox="0 0 519.194 519.194" style="enable-background:new 0 0 519.194 519.194;"
	 xml:space="preserve">
<g>
	<path d="M309.698,122.826c18.905,15.443,46.761,12.642,62.194-6.254c5.05-6.168,7.947-13.321,9.181-20.655l4.522,2.056
		c4.82,2.19,10.404-0.086,10.653-5.364c0.172-3.71-0.269-8.272-2.219-13.177c-3.48-8.778,7.2-41.329-26.45-56.629
		c-24.068-10.939-54.851,16.811-64.518,27.473c-2.955,3.271-2.286,7.392,0.745,9.974c-0.114,0.134-0.258,0.229-0.373,0.373
		C287.991,79.527,290.793,107.383,309.698,122.826z"/>
	<path d="M271.047,134.531l-64.805,102.252c-6.359-0.459-12.565-0.765-18.398-0.765c-38.91,0-59.909,9.964-71.174,19.603
		c-9.237-3.356-39.072-12.565-63.399-1.788c-13.005,5.767-22.281,16.275-27.559,31.222l-3.002,8.52
		C4.961,343.729-3.942,368.908,1.671,391.838c0.334,1.349,1.233,2.486,2.477,3.117c0.679,0.354,1.425,0.526,2.171,0.526
		c0.612,0,1.224-0.115,1.807-0.354c0.583-0.238,58.656-24.681,58.752-84.962c0.019-7.449,2.008-12.346,6.101-14.946
		c8.491-5.413,24.795-0.728,33.067,2.572v16.094c0,5.106-0.449,13.426-1.004,18.551l-2.238,20.483
		c-0.478,4.37-3.184,11.331-5.804,14.889L17.401,475.874c-5.604,7.612-4.188,13.216-2.84,15.884s5.021,7.143,14.468,7.143h14.86
		c12.011,0,27.311-7.324,34.846-16.667l83.146-103.104c2.151-2.668,7.105-4.666,10.958-4.045c2.792,0.44,6.388,0.947,10.528,1.464
		l-8.788,9.954c-10.481,11.887-9.964,29.3,1.186,38.91c11.131,9.619,28.554,7.679,38.881-4.312l35.18-40.823
		c11.284-0.038,22.797-0.372,34.272-1.052c47.525-2.792,73.488-10.299,86.904-16.094c3.107-1.338,7.497-0.697,9.429,1.425
		l61.716,67.837c1.999,2.209,2.19,6.216,0.393,8.597l-26.498,34.989c-5.719,7.545-4.36,13.139-3.031,15.787
		c1.319,2.659,4.953,7.124,14.42,7.124h16.046c11.944,0,27.454-7.028,35.334-16.007l32.914-37.533
		c5.029-5.747,5.173-14.87,0.325-20.77l-79.771-96.964c-2.41-2.936,0.478-7.104,1.08-7.908c2.945-3.931,4.476-8.262,4.581-12.881
		c0.076-3.604-1.004-7.755-2.037-11.771c-0.698-2.668-1.405-5.432-1.568-7.354c-0.822-10.05-0.134-20.225,0.698-27.511
		c7.507,5.737,17.7,6.148,25.924,6.474c3.528,0.144,6.856,0.277,9.429,0.784c3.414,0.669,11.274,5.632,15.501,8.3l1.396,0.88
		c10.146,6.34,22.109,6.693,27.923,0.487c5.384-5.747,5.316-15.845-0.2-27.014c-1.454-2.926-3.032-6.148-4.418-9.037
		c-2.095-4.351-3.959-12.01-4.485-16.62c-1.09-9.553-2.983-18.398-5.613-26.297c-1.396-4.188-2.4-11.484-1.597-15.94l2.716-14.822
		c1.1-5.977,0.028-11.274-2.993-14.908c-4.025-4.829-11.103-6.129-18.694-3.347l-15.042,5.527
		c-3.72,1.368-11.207,2.132-16.333,1.645c-2.735-0.249-5.613-0.401-8.606-0.401c-23.591,0-44.925,9.438-61.688,27.292
		c-16.485,17.566-31.298,32.025-50.012,42.018l-4.982-5.279l14.525-47.143c0.564-1.836,0.746-3.672,0.766-5.499l0.765-1.195
		c1.415-5.087-1.31-11.016-6.082-13.225l-2.716-1.262c-1.615-1.147-3.385-2.123-5.374-2.735c-0.315-0.096-0.631-0.105-0.946-0.191
		l-39.321-18.226C280.045,128.258,273.868,130.075,271.047,134.531z"/>
</g>
<g>
</g>
<g>
</g>
<g>
</g>
<g>
</g>
<g>
</g>
<g>
</g>
<g>
</g>
<g>
</g>
<g>
</g>
<g>
</g>
<g>
</g>
<g>
</g>
<g>
</g>
<g>
</g>
<g>
</g>
</svg>
