<?xml version="1.0" encoding="iso-8859-1"?>
<!-- Generator: Adobe Illustrator 16.0.0, SVG Export Plug-In . SVG Version: 6.00 Build 0)  -->
<!DOCTYPE svg PUBLIC "-//W3C//DTD SVG 1.1//EN" "http://www.w3.org/Graphics/SVG/1.1/DTD/svg11.dtd">
<svg version="1.1" id="Capa_1" xmlns="http://www.w3.org/2000/svg" xmlns:xlink="http://www.w3.org/1999/xlink" x="0px" y="0px"
	 width="593.947px" height="593.946px" viewBox="0 0 593.947 593.946" style="enable-background:new 0 0 593.947 593.946;"
	 xml:space="preserve">
<g>
	<g>
		<path d="M297.06,61.009c16.887,0,30.571-13.684,30.571-30.552C327.63,13.684,313.947,0,297.06,0
			c-16.763,0-30.399,13.684-30.399,30.457C266.67,47.325,280.296,61.009,297.06,61.009z"/>
		<path d="M126.78,199.502h115.486v108.487c0,7.516,6.091,13.607,13.617,13.607v255.165c0,9.562,7.669,17.175,17.088,17.175
			c9.562,0,17.174-7.612,17.174-17.175V434.108h13.895l0.105,142.663c0,9.562,7.717,17.175,17.193,17.175
			c9.457,0,17.078-7.612,17.078-17.175V321.605c7.516,0,13.617-6.091,13.617-13.607V199.502h115.123
			c10.021,0,18.148-8.128,18.148-18.15s-8.127-18.149-18.148-18.149h-56.352c-0.23-2.219-0.957-4.418-2.324-6.378l-57.059-81.683
			c-3.559-5.097-9.975-6.961-15.588-5.011h-70.236c-2.936-1.014-6.082-1.004-8.941,0h-0.774v0.306
			c-2.286,0.966-4.351,2.534-5.872,4.714l-57.06,81.683c-1.367,1.96-2.084,4.16-2.324,6.378H126.79
			c-10.021,0-18.149,8.128-18.149,18.15C108.63,191.384,116.759,199.502,126.78,199.502z M269.491,288.663v-24.317
			c4.886,10.327,15.271,17.519,27.377,17.519c12.479,0,23.161-7.497,27.913-18.198v24.997H269.491L269.491,288.663z
			 M324.791,239.024c-4.752-10.671-15.443-18.159-27.913-18.159c-12.106,0-22.5,7.191-27.377,17.48v-38.833h55.3v39.512H324.791z
			 M338.408,104.059l41.311,59.144h-41.311V104.059z M255.883,114.271v48.932h-34.186L255.883,114.271z"/>
	</g>
</g>
<g>
</g>
<g>
</g>
<g>
</g>
<g>
</g>
<g>
</g>
<g>
</g>
<g>
</g>
<g>
</g>
<g>
</g>
<g>
</g>
<g>
</g>
<g>
</g>
<g>
</g>
<g>
</g>
<g>
</g>
</svg>
