<?xml version="1.0" encoding="iso-8859-1"?>
<!-- Generator: Adobe Illustrator 16.0.0, SVG Export Plug-In . SVG Version: 6.00 Build 0)  -->
<!DOCTYPE svg PUBLIC "-//W3C//DTD SVG 1.1//EN" "http://www.w3.org/Graphics/SVG/1.1/DTD/svg11.dtd">
<svg version="1.1" id="Capa_1" xmlns="http://www.w3.org/2000/svg" xmlns:xlink="http://www.w3.org/1999/xlink" x="0px" y="0px"
	 width="499.638px" height="499.638px" viewBox="0 0 499.638 499.638" style="enable-background:new 0 0 499.638 499.638;"
	 xml:space="preserve">
<g>
	<g>
		<path d="M484.911,136.757c-10.317-2.486-20.588,3.93-23.007,14.209l-6.254,26.469l-185.513-48.472v-26.192
			c0-10.557-8.568-19.125-19.125-19.125s-19.125,8.568-19.125,19.125v26.144L44.693,177.302l-7.077-26.823
			c-2.687-10.203-13.12-16.294-23.371-13.607c-10.203,2.688-16.304,13.158-13.607,23.371l44.781,169.725v66.899
			c0,10.557,8.568,19.125,19.125,19.125h377.718c10.557,0,19.125-8.568,19.125-19.125V327.49c0-1.692-0.287-3.328-0.708-4.905
			l38.441-162.821C501.55,149.484,495.182,139.186,484.911,136.757z M62.756,245.76l169.132-39.847v63.59L78.314,304.712
			L62.756,245.76z M425.729,304.139L270.138,268.91v-61.716l166.856,49.256L425.729,304.139z M451.251,196.054l-9.858,41.76
			l-171.255-50.557v-38.527L451.251,196.054z M231.888,148.671v37.59L57.879,227.256l-8.3-31.46L231.888,148.671z"/>
	</g>
</g>
<g>
</g>
<g>
</g>
<g>
</g>
<g>
</g>
<g>
</g>
<g>
</g>
<g>
</g>
<g>
</g>
<g>
</g>
<g>
</g>
<g>
</g>
<g>
</g>
<g>
</g>
<g>
</g>
<g>
</g>
</svg>
