<?xml version="1.0" encoding="iso-8859-1"?>
<!-- Generator: Adobe Illustrator 16.0.0, SVG Export Plug-In . SVG Version: 6.00 Build 0)  -->
<!DOCTYPE svg PUBLIC "-//W3C//DTD SVG 1.1//EN" "http://www.w3.org/Graphics/SVG/1.1/DTD/svg11.dtd">
<svg version="1.1" id="Capa_1" xmlns="http://www.w3.org/2000/svg" xmlns:xlink="http://www.w3.org/1999/xlink" x="0px" y="0px"
	 width="526.444px" height="526.444px" viewBox="0 0 526.444 526.444" style="enable-background:new 0 0 526.444 526.444;"
	 xml:space="preserve">
<g>
	<g>
		<path d="M126.273,241.683c-4.532,18.943-12.24,55.338-9.419,72.713c1.932,11.981,10.968,20.817,19.613,26.679
			c-0.631-4.695-1.195-9.438-1.654-14.296c-3.366-34.864,4.552-65.436,15.157-91.484l-8.664-2.381
			C134.669,231.088,127.87,234.999,126.273,241.683z"/>
		<path d="M376.515,212.441c-5.46-4.15-13.942-1.597-17.882,4.045l-3.777,5.393c12.326,27.798,22.396,61.181,18.686,99.833
			c-1.233,12.909-2.983,25.12-5.183,36.834l26.984,4.064c6.856-0.497,13.627-6.35,14.162-13.196
			c0.947-11.676,1.358-32.828-1.73-68.438C404.246,240.287,387.77,220.99,376.515,212.441z"/>
		<path d="M189.242,182.472c-1.272,2.726-2.649,5.537-4.16,8.482c40.334,0.105,70.284-5.345,91.323-11.791
			C243.749,182.606,205.9,182.653,189.242,182.472z"/>
		<path d="M178.198,103.83c-3.175,1.711-5.202,4.561-5.565,7.832c-0.383,3.375,1.061,6.761,3.93,9.266
			c7.258,6.321,19.412,19.88,19.412,39.723c0,3.06-0.812,6.626-2.132,10.557c34.214,0.201,94.966-1.453,119.666-10.519
			c0-0.01,0-0.038,0-0.048c0-19.842,12.173-33.402,19.421-39.723c2.869-2.505,4.303-5.891,3.939-9.266
			c-0.392-3.27-2.409-6.129-5.594-7.832c-6.187-3.318-30.791-11.417-50.05-9.065c-9.113,1.435-16.524,4.332-21.937,7.01
			l-0.335-38.69c15.97-2.573,28.191-15.568,28.191-31.26C287.144,14.268,271.91,0,253.206,0c-18.714,0-33.937,14.268-33.937,31.814
			c0,15.75,12.307,28.774,28.372,31.279l0.325,37.791c-3.863-2.4-9.448-4.81-20.282-6.101
			C207.028,94.344,184.231,100.588,178.198,103.83z M230.6,31.824c0-11.312,10.146-20.502,22.625-20.502
			c12.479,0,22.625,9.199,22.625,20.502s-10.146,20.502-22.625,20.502l0,0l0,0C240.736,52.326,230.6,43.127,230.6,31.824z"/>
		<path d="M144.681,330.844c7.917,82.543,38.03,141.41,97.595,190.887c3.682,3.031,8.53,4.714,13.674,4.714
			c5.164,0,10.013-1.683,13.694-4.733c58.551-48.797,87.028-105.876,95.185-190.867c5.126-53.358-17.862-97.002-34.674-128.864
			c-5.46-10.366-10.451-19.852-13.521-27.903c-16.936,10.48-56.487,28.238-130.711,28.238c-2.17,0-4.475-0.057-6.703-0.096
			C162.438,234.062,139.546,277.609,144.681,330.844z M281.741,465.312c-6.876,0-12.441-5.585-12.441-12.44
			c0-6.876,5.565-12.451,12.441-12.451c6.885,0,12.45,5.575,12.45,12.451C294.191,459.727,288.626,465.312,281.741,465.312z
			 M318.661,354.855c2.85,1.922,3.615,5.775,1.712,8.625c-1.884,2.869-5.757,3.644-8.625,1.73
			c-39.617-26.431-101.43,13.12-102.061,13.531c-1.033,0.669-2.209,1.014-3.376,1.014c-2.046,0-4.035-1.014-5.221-2.84
			c-1.865-2.888-1.062-6.742,1.807-8.606C205.709,366.474,272.226,323.93,318.661,354.855z M190.218,227.684
			c4.724-13.761,38.862-21.095,61.688-21.095c14.545,0,34.578,2.486,47.421,14.315c7.315,6.751,6.723,20.005,2.008,28.449
			c-6.053,10.767-14.066,26.517-17.853,40.44c-2.324,8.567-9.391,14.076-18.016,14.076c-1.033,0-2.143-0.077-3.233-0.249
			c-7.22-1.157-14.468-1.215-21.152-0.182c-10.242,1.626-19.364-4.274-21.783-13.598c-6.264-24.117-15.243-42.094-24.585-49.353
			C188.381,235.601,189.472,229.912,190.218,227.684z"/>
	</g>
</g>
<g>
</g>
<g>
</g>
<g>
</g>
<g>
</g>
<g>
</g>
<g>
</g>
<g>
</g>
<g>
</g>
<g>
</g>
<g>
</g>
<g>
</g>
<g>
</g>
<g>
</g>
<g>
</g>
<g>
</g>
</svg>
