<?xml version="1.0" encoding="iso-8859-1"?>
<!-- Generator: Adobe Illustrator 16.0.0, SVG Export Plug-In . SVG Version: 6.00 Build 0)  -->
<!DOCTYPE svg PUBLIC "-//W3C//DTD SVG 1.1//EN" "http://www.w3.org/Graphics/SVG/1.1/DTD/svg11.dtd">
<svg version="1.1" id="Capa_1" xmlns="http://www.w3.org/2000/svg" xmlns:xlink="http://www.w3.org/1999/xlink" x="0px" y="0px"
	 width="554.682px" height="554.682px" viewBox="0 0 554.682 554.682" style="enable-background:new 0 0 554.682 554.682;"
	 xml:space="preserve">
<g>
	<g>
		<path d="M13.511,515.093c3.041,0,6.111-1.031,8.616-3.127l49.094-40.936c3.108-2.611,9.477-2.984,12.89-0.775l50.71,32.895
			c13.11,8.521,32.398,7.822,44.848-1.568l40.937-30.828c3.414-2.592,10.586-2.898,14.22-0.594l52.708,33.277
			c12.805,8.08,32.054,7.967,44.791-0.277l50.69-32.914c3.825-2.467,11.523-2.428,15.31,0.076l49.506,32.637
			c13.023,8.617,32.34,8.109,44.886-1.166l56.505-41.77c5.986-4.428,7.239-12.871,2.821-18.848
			c-4.418-5.994-12.861-7.258-18.848-2.82l-56.505,41.76c-3.386,2.506-10.471,2.715-14.009,0.363l-49.515-32.646
			c-12.737-8.416-32.025-8.51-44.82-0.191l-50.71,32.904c-3.892,2.506-11.81,2.562-15.739,0.096l-52.699-33.277
			c-13.148-8.281-32.417-7.488-44.838,1.855l-40.928,30.83c-3.375,2.562-10.414,2.801-13.971,0.486l-50.7-32.875
			c-13.33-8.674-32.618-7.516-44.829,2.678L4.847,491.272c-5.718,4.764-6.483,13.254-1.73,18.973
			C5.823,513.438,9.648,515.093,13.511,515.093z"/>
		<path d="M277.331,98.781c16.409,0,29.625-13.206,29.625-29.567c0-16.294-13.216-29.625-29.625-29.625
			c-16.352,0-29.567,13.33-29.567,29.625C247.764,85.575,260.979,98.781,277.331,98.781z"/>
		<path d="M468.045,402.829V46.914c0-2.333-1.367-4.332-3.472-5.317c-2.113-0.803-4.446-0.315-6.129,1.301L350.532,150.887
			c-1.702-0.755-3.472-1.186-5.47-1.186h-31.394c-5.288,0-12.584-3.031-16.381-6.722c-13.952-13.646-41.979-40.459-43.958-40.995
			c-8.463-7.373-21.238-7.248-29.415,0.87l-58.006,57.997c-9.792,7.669-9.792,21.277-9.792,24.892l4.208,26.88h-14.717h-25.083
			H67.138c-5.279,0-9.562,4.208-9.562,9.41s4.284,9.409,9.562,9.409h53.387h28.009h14.726l25.321,113.822
			c1.578,10.443,11.322,18.916,21.765,18.916c10.442,0,17.891-8.502,16.629-18.982l-22.061-113.755h13.971h47.468h10.997v142.406
			H74.864c-5.278,0-9.562,4.273-9.562,9.562v6.215c0,5.289,4.284,9.562,9.562,9.562H277.35h0.88h10.317
			c5.278,0,9.562-4.273,9.562-9.562V231.441h14.469c5.288,0,9.562-4.207,9.562-9.409s-4.274-9.41-9.562-9.41h-46.226h-49.41h-13.655
			c-0.029-0.698,57.088-59.259,57.088-59.259l27.55,21.095c2.648,2.763,6.33,4.217,10.289,4.217h46.837
			c8.014,0,14.459-6.445,14.459-14.458c0-1.884-0.393-3.739-1.043-5.413l98.37-98.359v342.384H468.045z"/>
	</g>
</g>
<g>
</g>
<g>
</g>
<g>
</g>
<g>
</g>
<g>
</g>
<g>
</g>
<g>
</g>
<g>
</g>
<g>
</g>
<g>
</g>
<g>
</g>
<g>
</g>
<g>
</g>
<g>
</g>
<g>
</g>
</svg>
