<?xml version="1.0" encoding="iso-8859-1"?>
<!-- Generator: Adobe Illustrator 16.0.0, SVG Export Plug-In . SVG Version: 6.00 Build 0)  -->
<!DOCTYPE svg PUBLIC "-//W3C//DTD SVG 1.1//EN" "http://www.w3.org/Graphics/SVG/1.1/DTD/svg11.dtd">
<svg version="1.1" id="Capa_1" xmlns="http://www.w3.org/2000/svg" xmlns:xlink="http://www.w3.org/1999/xlink" x="0px" y="0px"
	 width="471.754px" height="471.754px" viewBox="0 0 471.754 471.754" style="enable-background:new 0 0 471.754 471.754;"
	 xml:space="preserve">
<g>
	<g>
		<path d="M428.718,66.696c-15.844,0-28.688,12.842-28.688,28.688v137.308H234.792H71.722V95.384
			c0-15.845-12.842-28.688-28.688-28.688c-15.845,0-28.688,12.842-28.688,28.688v165.995c0,15.845,12.843,28.688,28.688,28.688
			h163.069v153c0,15.845,12.843,28.688,28.688,28.688c15.844,0,28.688-12.843,28.688-28.688v-153h165.238
			c15.846,0,28.689-12.843,28.689-28.688V95.384C457.407,79.529,444.563,66.696,428.718,66.696z"/>
		<path d="M217.464,65.013c-17.767,43.509-12.106,87.65,12.68,101.984l18.599-45.527l-4.141-1.693
			c-2.371-0.975-3.51-3.701-2.543-6.082c0.965-2.381,3.689-3.529,6.062-2.553l4.141,1.692l1.873-4.609l-4.141-1.693
			c-1.146-0.468-2.045-1.367-2.533-2.505c-0.479-1.157-0.488-2.429-0.02-3.576c0.984-2.391,3.701-3.538,6.082-2.563l4.141,1.693
			l1.883-4.6l-4.148-1.683c-2.373-0.975-3.52-3.701-2.555-6.072c0.986-2.391,3.711-3.538,6.082-2.562l4.141,1.692l1.875-4.59
			l-4.141-1.702c-2.371-0.976-3.52-3.691-2.553-6.072c0.984-2.391,3.709-3.538,6.08-2.572l4.15,1.702l1.865-4.59l-4.131-1.702
			c-1.148-0.45-2.057-1.349-2.535-2.486c-0.486-1.147-0.496-2.429-0.018-3.586c0.965-2.391,3.699-3.538,6.072-2.572l4.141,1.692
			l1.883-4.59l-4.111-1.683c-2.371-0.976-3.52-3.691-2.553-6.062c0.984-2.4,3.709-3.548,6.08-2.582l4.141,1.702l18.609-45.546
			C270.173-5.998,235.221,21.561,217.464,65.013z"/>
		<path d="M265.104,126.672c-1.156,0.479-2.43,0.488-3.576,0.02l-4.141-1.693l-18.6,45.527c27.74,7.125,62.701-20.435,80.469-63.906
			c17.748-43.471,12.096-87.631-12.699-101.965l-18.6,45.527l4.141,1.692c2.381,0.995,3.52,3.72,2.555,6.091
			c-0.967,2.381-3.701,3.519-6.082,2.553l-4.131-1.692l-1.885,4.59l4.15,1.692c2.371,0.976,3.52,3.71,2.553,6.092
			c-0.975,2.381-3.701,3.519-6.092,2.562l-4.131-1.702l-1.883,4.6l4.141,1.692c2.371,0.976,3.52,3.71,2.553,6.101
			c-0.975,2.372-3.711,3.519-6.082,2.543l-4.141-1.692l-1.873,4.609l4.141,1.693c2.371,0.975,3.518,3.701,2.553,6.082
			c-0.977,2.372-3.701,3.519-6.082,2.563l-4.141-1.702l-1.875,4.609l4.141,1.693c2.373,0.975,3.52,3.701,2.545,6.091
			c-0.977,2.381-3.701,3.519-6.072,2.562l-4.141-1.702l-1.885,4.609l4.131,1.683c2.381,0.975,3.539,3.7,2.572,6.082
			C267.142,125.286,266.251,126.185,265.104,126.672z"/>
	</g>
</g>
<g>
</g>
<g>
</g>
<g>
</g>
<g>
</g>
<g>
</g>
<g>
</g>
<g>
</g>
<g>
</g>
<g>
</g>
<g>
</g>
<g>
</g>
<g>
</g>
<g>
</g>
<g>
</g>
<g>
</g>
</svg>
