<?xml version="1.0" encoding="iso-8859-1"?>
<!-- Generator: Adobe Illustrator 16.0.0, SVG Export Plug-In . SVG Version: 6.00 Build 0)  -->
<!DOCTYPE svg PUBLIC "-//W3C//DTD SVG 1.1//EN" "http://www.w3.org/Graphics/SVG/1.1/DTD/svg11.dtd">
<svg version="1.1" id="Capa_1" xmlns="http://www.w3.org/2000/svg" xmlns:xlink="http://www.w3.org/1999/xlink" x="0px" y="0px"
	 width="460.925px" height="460.926px" viewBox="0 0 460.925 460.926" style="enable-background:new 0 0 460.925 460.926;"
	 xml:space="preserve">
<g>
	<g>
		<path d="M299.48,426.984c11.666,0,22.405-3.825,31.106-10.251l-8.386,31.805c-1.798,6.847,2.467,12.384,9.543,12.384h35.238
			c7.076,0,11.083-5.47,8.97-12.221l-10.749-34.091c9.113,7.641,20.771,12.364,33.604,12.364c29.021,0,52.546-23.523,52.546-52.546
			c0-29.021-23.524-52.546-52.546-52.546c-2.572,0-5.078,0.249-7.545,0.603c6.531-8.749,10.442-19.574,10.442-31.346
			c0-29.013-23.534-52.536-52.556-52.536c-29.003,0-52.527,23.523-52.527,52.536c0,11.771,3.911,22.597,10.433,31.346
			c-2.467-0.363-4.981-0.603-7.554-0.603c-29.013,0-52.527,23.524-52.527,52.546C246.944,403.461,270.458,426.984,299.48,426.984z"
			/>
		<path d="M62.101,188.372c11.666,0,22.396-3.815,31.097-10.242l-8.386,31.795c-1.798,6.847,2.467,12.383,9.543,12.383h35.228
			c7.076,0,11.083-5.47,8.97-12.221l-10.739-34.09c9.104,7.65,20.76,12.374,33.593,12.374c29.032,0,52.555-23.524,52.555-52.546
			C213.962,106.803,140.781,0,111.749,0C82.746,0,9.574,106.803,9.574,135.826C9.574,164.848,33.078,188.372,62.101,188.372z"/>
		<path d="M349.167,198.766c29.003,0,102.176-106.804,102.176-135.826c0-29.022-23.505-52.546-52.527-52.546
			c-11.666,0-40.946,8.587-49.657,15.013c-9.104-7.65-36.816-15.013-49.64-15.013c-29.031,0-52.556,23.524-52.556,52.546
			C246.944,91.962,320.135,198.766,349.167,198.766z"/>
		<path d="M132.002,257.164c-9.142-11.618-24.336-11.925-33.918-0.669l-66.229,77.714c-9.591,11.255-9.591,29.5,0,40.756
			l66.229,77.714c9.582,11.255,24.777,10.949,33.918-0.669l60.024-76.376c9.142-11.618,9.142-30.476,0-42.094L132.002,257.164z"/>
	</g>
</g>
<g>
</g>
<g>
</g>
<g>
</g>
<g>
</g>
<g>
</g>
<g>
</g>
<g>
</g>
<g>
</g>
<g>
</g>
<g>
</g>
<g>
</g>
<g>
</g>
<g>
</g>
<g>
</g>
<g>
</g>
</svg>
