<?xml version="1.0" encoding="iso-8859-1"?>
<!-- Generator: Adobe Illustrator 16.0.0, SVG Export Plug-In . SVG Version: 6.00 Build 0)  -->
<!DOCTYPE svg PUBLIC "-//W3C//DTD SVG 1.1//EN" "http://www.w3.org/Graphics/SVG/1.1/DTD/svg11.dtd">
<svg version="1.1" id="Capa_1" xmlns="http://www.w3.org/2000/svg" xmlns:xlink="http://www.w3.org/1999/xlink" x="0px" y="0px"
	 width="487.985px" height="487.984px" viewBox="0 0 487.985 487.984" style="enable-background:new 0 0 487.985 487.984;"
	 xml:space="preserve">
<g>
	<g>
		<path d="M238.464,244.686c-1.167-4.141,1.243-8.444,5.365-9.62l6.024-1.721c9.792-10.959,21.563-20.043,34.798-26.747
			l-45.603,12.996c-0.698,0.201-1.396,0.296-2.113,0.296c-0.229,0-0.45-0.019-0.66-0.029c-3.213-0.268-5.938-2.534-6.828-5.613
			c-1.167-4.121,1.234-8.424,5.336-9.62l126.32-36.003c4.169-1.205,8.463,1.368,9.62,5.336c1.166,4.141-1.243,8.453-5.355,9.629
			l-37.762,10.758c3.375-0.277,6.741-0.517,10.164-0.517c11.887,0,23.352,1.817,34.177,5.087c1.979-0.057,3.806,0.593,5.269,1.836
			c19.278,6.856,36.242,18.532,49.438,33.66c1.922-12.106,1.301-25.522-2.305-39.79c-11.475-45.317-49.247-65.943-79.483-65.943
			c-9.629,0-18.848,2.065-25.962,5.642l-105.331,44.934L138.354,27.062C130.494,10.624,113.626,0,95.371,0
			c-6.196,0-12.202,1.224-17.844,3.615c-11.178,4.714-19.67,13.483-23.896,24.681c-4.322,11.398-3.739,23.877,1.74,35.286
			L155.615,266.23c12.374,25.875,36.52,44.035,64.212,49.877c-0.048-1.387-0.21-2.734-0.21-4.141
			c0-24.127,7.315-46.578,19.775-65.303C239,246.062,238.665,245.393,238.464,244.686z"/>
		<path d="M353.329,487.984v-58.609l14.277-25.521c40.296-12.719,69.604-50.434,69.604-94.879c0-54.852-44.628-99.479-99.469-99.479
			c-54.851,0-99.478,44.628-99.478,99.479c0,45.172,30.293,83.336,71.613,95.424l17.519,24.967v58.609h25.934V487.984z
			 M282.336,361.434c0.66,0.076,1.167,0.287,1.855,0.287c18.255,0,19.211-21.133,19.211-21.133h-35.142
			c-4.408-9.648-6.924-20.35-6.924-31.613c0-0.623,0.077-1.215,0.086-1.836c2.611,5.039,7.325,9.887,16.046,9.887
			c18.236,0,19.201-21.143,19.201-21.143h-34.128c1.912-11.035,6.148-21.285,12.288-30.17c2.591,5.088,7.306,9.984,16.074,9.984
			c18.255,0,19.211-21.143,19.211-21.143h-25.924c13.809-13.58,32.704-21.985,53.55-21.985c20.847,0,39.742,8.406,53.55,21.985
			h-25.924c0,0,0.976,21.143,19.221,21.143c8.769,0,13.483-4.896,16.084-9.975c6.12,8.883,10.356,19.125,12.278,30.16h-13.923
			c0,0,0.956,17.27,14.755,20.473c-0.832,8.568-3.117,16.717-6.56,24.232h-3.434c0,0,0.144,2.219,0.88,5.191
			c-13.015,23.582-38.116,39.6-66.918,39.6C315.92,385.369,296.279,376.15,282.336,361.434z"/>
		<path d="M337.971,275.697c18.255,0,19.221-21.143,19.221-21.143H318.76C318.76,254.555,319.736,275.697,337.971,275.697z"/>
		<path d="M343.738,295.883h-38.413c0,0,0.966,21.143,19.211,21.143S343.738,295.883,343.738,295.883z"/>
		<path d="M371.144,317.025c18.245,0,19.211-21.143,19.211-21.143h-38.423C351.932,295.883,352.908,317.025,371.144,317.025z"/>
		<path d="M350.469,340.588h-38.422c0,0,0.976,21.133,19.23,21.133C349.513,361.721,350.469,340.588,350.469,340.588z"/>
		<path d="M377.875,361.721c18.235,0,19.201-21.133,19.201-21.133h-38.422C358.655,340.588,359.63,361.721,377.875,361.721z"/>
	</g>
</g>
<g>
</g>
<g>
</g>
<g>
</g>
<g>
</g>
<g>
</g>
<g>
</g>
<g>
</g>
<g>
</g>
<g>
</g>
<g>
</g>
<g>
</g>
<g>
</g>
<g>
</g>
<g>
</g>
<g>
</g>
</svg>
