<?xml version="1.0" encoding="iso-8859-1"?>
<!-- Generator: Adobe Illustrator 16.0.0, SVG Export Plug-In . SVG Version: 6.00 Build 0)  -->
<!DOCTYPE svg PUBLIC "-//W3C//DTD SVG 1.1//EN" "http://www.w3.org/Graphics/SVG/1.1/DTD/svg11.dtd">
<svg version="1.1" id="Capa_1" xmlns="http://www.w3.org/2000/svg" xmlns:xlink="http://www.w3.org/1999/xlink" x="0px" y="0px"
	 width="498.729px" height="498.729px" viewBox="0 0 498.729 498.729" style="enable-background:new 0 0 498.729 498.729;"
	 xml:space="preserve">
<g>
	<g>
		<path d="M476.604,308.59c-3.509-7.401-7.401-21.525-7.401-29.95c0-17.748-14.544-32.197-32.474-32.197l-34.109,0.296
			c-0.89,0-2.143-0.22-3.07-1.205c-0.956-1.014-1.08-2.285-1.022-3.194l10.174-159.569c0.239-3.863,1.798-5.565,1.492-5.651
			c7.152,0,13.396-3.29,17.164-9.037c4.533-6.971,4.647-16.562,0.325-26.287c-6.33-14.258-22.997-25.016-38.775-25.016H179.909
			c-18.427,0-32.235,9.849-32.828,23.399c-0.296,6.388,1.989,12.479,6.436,17.098c1.788,1.874,3.844,3.414,6.168,4.581
			L12.67,284.435C5.441,295.354,0,312.032,0,323.249v50.614c0,17.757,14.468,32.378,32.235,32.569l29.013,0.307
			c-2.209,6.015-3.471,12.479-3.471,19.249c0,30.906,25.054,55.96,55.969,55.96c30.906,0,55.96-25.044,55.96-55.96
			c0-6.35-1.109-12.44-3.06-18.131l168.989,1.798c-1.578,5.174-2.438,10.652-2.438,16.333c0,30.906,25.054,55.96,55.959,55.96
			c30.906,0,55.96-25.044,55.96-55.96c0-5.269-0.774-10.356-2.142-15.195l24.719,0.269h0.249c9.228,0,17.853-3.893,23.705-10.663
			c5.633-6.54,8.032-14.85,6.741-23.39C494.41,350.253,484.351,325.037,476.604,308.59z M345.369,282.57l-100.875,20.081
			c-4.427,0.851-8.109,3.834-9.84,8.004l-19.24,45.957h-68.697l-19.192-43.031l74.071-92.689l27.263,15.807
			c1.482,0.861,3.127,1.272,4.724,1.272c3.261,0,6.445-1.692,8.205-4.705c2.61-4.523,1.071-10.309-3.433-12.929L175.31,183.77
			c-4.542-2.639-10.309-1.081-12.929,3.433c-2.61,4.513-1.071,10.299,3.433,12.928l19.383,11.236l-66.316,82.831l-10.242-22.96
			c-1.53-3.385-4.437-6.024-8.032-7.258l-4.274-1.415L222.749,68.112c12.708-1.396,41.349-4.227,66.488-4.227
			c11.552,0,21.047,0.593,28.199,1.75c19.853,3.175,34.741,7.44,43.434,10.328L345.369,282.57z"/>
	</g>
</g>
<g>
</g>
<g>
</g>
<g>
</g>
<g>
</g>
<g>
</g>
<g>
</g>
<g>
</g>
<g>
</g>
<g>
</g>
<g>
</g>
<g>
</g>
<g>
</g>
<g>
</g>
<g>
</g>
<g>
</g>
</svg>
