<?xml version="1.0" encoding="iso-8859-1"?>
<!-- Generator: Adobe Illustrator 16.0.0, SVG Export Plug-In . SVG Version: 6.00 Build 0)  -->
<!DOCTYPE svg PUBLIC "-//W3C//DTD SVG 1.1//EN" "http://www.w3.org/Graphics/SVG/1.1/DTD/svg11.dtd">
<svg version="1.1" id="Capa_1" xmlns="http://www.w3.org/2000/svg" xmlns:xlink="http://www.w3.org/1999/xlink" x="0px" y="0px"
	 width="553.451px" height="553.451px" viewBox="0 0 553.451 553.451" style="enable-background:new 0 0 553.451 553.451;"
	 xml:space="preserve">
<g>
	<g>
		<path d="M42.444,553.451h468.562c10.557,0,19.125-8.568,19.125-19.125v-27.482c0-10.558-8.568-19.125-19.125-19.125H279.202
			c2.534-3.338,4.093-7.459,4.093-11.973V352.744h6.847c8.798,0,15.932-7.134,15.932-15.932V129.823l79.809-82.554
			c10.7-11.073,10.403-28.726-0.67-39.436c-11.063-10.69-28.726-10.413-39.426,0.67L229.745,128.542l-143.696,59.88
			c-14.219,5.929-20.942,22.252-15.013,36.472c4.466,10.7,14.832,17.165,25.752,17.165c3.576,0,7.21-0.688,10.72-2.152
			l108.945-45.402v142.309c0,8.798,7.134,15.932,15.941,15.932h11.083v9.429c-3.566-0.87-7.248-1.454-11.083-1.454
			c-25.991,0-47.076,21.076-47.076,47.076c0,26.001,21.076,47.076,47.076,47.076c3.834,0,7.506-0.583,11.083-1.453v22.328
			c0,4.514,1.559,8.635,4.093,11.973H42.444c-10.557,0-19.125,8.567-19.125,19.125v27.482
			C23.319,544.883,31.887,553.451,42.444,553.451z"/>
	</g>
</g>
<g>
</g>
<g>
</g>
<g>
</g>
<g>
</g>
<g>
</g>
<g>
</g>
<g>
</g>
<g>
</g>
<g>
</g>
<g>
</g>
<g>
</g>
<g>
</g>
<g>
</g>
<g>
</g>
<g>
</g>
</svg>
