<?xml version="1.0" encoding="iso-8859-1"?>
<!-- Generator: Adobe Illustrator 16.0.0, SVG Export Plug-In . SVG Version: 6.00 Build 0)  -->
<!DOCTYPE svg PUBLIC "-//W3C//DTD SVG 1.1//EN" "http://www.w3.org/Graphics/SVG/1.1/DTD/svg11.dtd">
<svg version="1.1" id="Capa_1" xmlns="http://www.w3.org/2000/svg" xmlns:xlink="http://www.w3.org/1999/xlink" x="0px" y="0px"
	 width="554.434px" height="554.434px" viewBox="0 0 554.434 554.434" style="enable-background:new 0 0 554.434 554.434;"
	 xml:space="preserve">
<g>
	<g>
		<circle cx="74.622" cy="280.204" r="45.804"/>
		<path d="M505.393,353.243c-4.428-6.732-11.934-10.777-19.984-10.777H62.926c-8.597,0-16.543,4.619-20.789,12.106L3.123,423.278
			c-6.521,11.484-2.496,26.077,8.979,32.589c3.729,2.123,7.784,3.127,11.781,3.127c8.329,0,16.409-4.351,20.808-12.105l32.14-56.601
			h395.667l38.039,57.93c7.258,11.035,22.08,14.095,33.105,6.856c11.035-7.249,14.115-22.07,6.867-33.105L505.393,353.243z"/>
		<path d="M321.057,326.028v-0.297h149.118c13.206,0,23.905-10.7,23.905-23.906s-10.699-23.906-23.905-23.906H321.057v-7.277
			c0-5.279-4.274-9.562-9.562-9.562H178.919l10.739-71.155c0.201-1.358,0.249-2.697,0.172-4.016c0.86-0.182,1.721-0.191,2.572-0.421
			c24.422-6.569,38.91-31.7,32.35-56.123c-6.579-24.432-31.7-38.91-56.132-32.35c-24.441,6.569-38.919,31.7-32.35,56.122
			c2.85,10.605,9.323,19.164,17.595,25.111c-0.956,1.836-1.702,3.806-2.027,5.967l-12.747,84.466
			c-0.258,1.692-0.201,3.347-0.029,4.973v52.364h181.994V326.028z"/>
	</g>
</g>
<g>
</g>
<g>
</g>
<g>
</g>
<g>
</g>
<g>
</g>
<g>
</g>
<g>
</g>
<g>
</g>
<g>
</g>
<g>
</g>
<g>
</g>
<g>
</g>
<g>
</g>
<g>
</g>
<g>
</g>
</svg>
