<?xml version="1.0" encoding="iso-8859-1"?>
<!-- Generator: Adobe Illustrator 16.0.0, SVG Export Plug-In . SVG Version: 6.00 Build 0)  -->
<!DOCTYPE svg PUBLIC "-//W3C//DTD SVG 1.1//EN" "http://www.w3.org/Graphics/SVG/1.1/DTD/svg11.dtd">
<svg version="1.1" id="Capa_1" xmlns="http://www.w3.org/2000/svg" xmlns:xlink="http://www.w3.org/1999/xlink" x="0px" y="0px"
	 width="557.24px" height="557.239px" viewBox="0 0 557.24 557.239" style="enable-background:new 0 0 557.24 557.239;"
	 xml:space="preserve">
<g>
	<g>
		<path d="M113.233,115.882c1.205,4.228,5.642,6.646,9.812,5.499c0.545-0.153,53.865-14.583,90.527,19.412
			c37.868,35.132,46.331,111.202,24.5,219.794c-0.316,1.415-30.926,142.815,70.399,195.754c1.186,0.611,2.447,0.898,3.69,0.898
			c2.869,0,5.643-1.549,7.058-4.274c2.027-3.883,0.525-8.692-3.376-10.729c-90.442-47.238-62.539-176.829-62.214-178.312
			c23.361-116.251,13.483-195.285-29.366-234.902c-43.299-40.038-103.026-23.658-105.551-22.95
			C114.496,107.267,112.047,111.655,113.233,115.882z"/>
		<path d="M339.826,194.275c-5.967-2.313-13.263,6.302-13.263,6.302l18.398,7.459C344.961,208.036,345.793,196.59,339.826,194.275z"
			/>
		<path d="M362.499,206.133c-5.967-2.313-13.272,6.302-13.272,6.302l18.408,7.449C367.634,219.894,368.466,208.447,362.499,206.133z
			"/>
		<path d="M371.717,188.251c-5.967-2.313-13.264,6.302-13.264,6.302l18.398,7.449C376.852,202.012,377.684,190.565,371.717,188.251z
			"/>
		<path d="M371.909,224.292l18.397,7.459c0,0,0.832-11.446-5.135-13.761C379.195,215.677,371.909,224.292,371.909,224.292z"/>
		<path d="M330.608,210.8c-5.967-2.314-13.263,6.302-13.263,6.302l18.397,7.449C335.743,224.561,336.575,213.123,330.608,210.8z"/>
		<path d="M353.281,222.667c-5.967-2.314-13.264,6.292-13.264,6.292l18.398,7.459C358.416,236.418,359.248,224.972,353.281,222.667z
			"/>
		<path d="M375.962,234.515c-5.967-2.314-13.272,6.302-13.272,6.302l18.398,7.449C381.088,248.266,381.92,236.829,375.962,234.515z"
			/>
		<path d="M321.39,228.175c-5.968-2.314-13.264,6.302-13.264,6.302l18.398,7.459C326.535,241.936,327.357,230.489,321.39,228.175z"
			/>
		<path d="M344.062,240.032c-5.967-2.314-13.263,6.292-13.263,6.292l18.398,7.459C349.198,253.793,350.02,242.347,344.062,240.032z"
			/>
		<path d="M366.735,251.88c-5.967-2.313-13.263,6.302-13.263,6.302l18.397,7.459C371.871,265.65,372.702,254.204,366.735,251.88z"/>
		<path d="M312.171,245.54c-5.967-2.313-13.263,6.302-13.263,6.302l18.397,7.459C317.306,259.311,318.138,247.854,312.171,245.54z"
			/>
		<path d="M334.844,257.397c-5.967-2.313-13.264,6.302-13.264,6.302l18.398,7.449C339.979,271.158,340.811,259.722,334.844,257.397z
			"/>
		<path d="M392.095,310.288c0,0,3.978-42.764,39.779-114.358C467.677,124.336,427.897-1.966,289.67,0.023
			C151.445,2.012,130.819,93.735,130.819,93.735c114.357-10.939,136.973,66.393,142.939,117.112
			c5.968,50.72-4.972,144.192-4.972,144.192C319.505,356.035,392.095,310.288,392.095,310.288z M288.916,247.328
			c0,0,22.003-98.866,81.032-85.44c61.87,14.085,24.27,141.276-48.94,148.18C280.28,313.912,288.916,247.328,288.916,247.328z"/>
	</g>
</g>
<g>
</g>
<g>
</g>
<g>
</g>
<g>
</g>
<g>
</g>
<g>
</g>
<g>
</g>
<g>
</g>
<g>
</g>
<g>
</g>
<g>
</g>
<g>
</g>
<g>
</g>
<g>
</g>
<g>
</g>
</svg>
