<?xml version="1.0" encoding="iso-8859-1"?>
<!-- Generator: Adobe Illustrator 16.0.0, SVG Export Plug-In . SVG Version: 6.00 Build 0)  -->
<!DOCTYPE svg PUBLIC "-//W3C//DTD SVG 1.1//EN" "http://www.w3.org/Graphics/SVG/1.1/DTD/svg11.dtd">
<svg version="1.1" id="Capa_1" xmlns="http://www.w3.org/2000/svg" xmlns:xlink="http://www.w3.org/1999/xlink" x="0px" y="0px"
	 width="535.881px" height="535.881px" viewBox="0 0 535.881 535.881" style="enable-background:new 0 0 535.881 535.881;"
	 xml:space="preserve">
<g>
	<g>
		<path d="M277.546,105.335c2.667,17.136,17.709,30.026,35.457,29.328c19.106-0.765,33.938-16.906,33.182-36.012
			c-0.076-1.827-0.401-3.576-0.745-5.317l1.443,0.22c4.935,0.765,8.626-2.697,7.124-7.449c-4.848-15.31-18.034-27.339-34.932-29.95
			c-23.858-3.682-46.091,12.661-49.764,36.452c-0.306,1.932-0.468,3.844-0.516,5.728
			C268.719,101.424,272.793,104.465,277.546,105.335z"/>
		<path d="M451.143,207.454c9.133,12.747,37.246-16.371,48.941-40.478c12.47-26.029,10.271-61.927-1.989-63.954L376.747,84.183
			c-4.428-0.679-8.626,2.4-9.333,6.942c-0.354,2.267,0.334,4.609,1.673,6.292L451.143,207.454z"/>
		<path d="M14.28,480.243h486.005c12.345,0,24.308-9.812,26.727-21.908l7.994-39.98c2.41-12.097-0.325-30.734-6.139-41.626
			l-23.658-44.36c-5.813-10.892-15.175-10.863-20.932,0.058l-7.114,13.521c-5.757,10.92-20.416,19.775-32.752,19.775h-16.754
			c-12.345,0-29.644,6.847-38.642,15.28L356.57,411.44c-8.999,8.435-25.704,11.896-37.313,7.698l-16.84-6.072
			c-9.036-3.261-22.5-4.208-33.593-2.764c0.842-2.744,1.367-5.527,1.243-8.319l0.096-80.383c0.239-6.396-2.075-12.66-6.455-17.471
			l-51.571-50.948l59.316-48.635l13.693,37.982c1.177,2.524,2.955,4.781,5.116,6.551l56.657,43.003
			c7.631,4.704,17.921,3.451,24.271-3.328c7.324-7.87,6.903-20.187-0.928-27.521c-0.201-0.201-0.545-0.431-0.736-0.622
			l-49.678-37.963l-22.988-67.473c-3.652-8.874-10.146-16.629-19.144-21.754c-9.17-5.193-19.422-6.761-29.099-5.241
			c-4.217-5.24-11.628-8.616-18.121-10.691c0.096-0.287,0.172-0.573,0.249-0.851c6.617-1.119,12.785-4.791,16.782-10.806
			c7.679-11.552,4.533-27.187-7.009-34.865s-27.187-4.532-34.865,7.019c-3.07,4.609-4.342,9.869-4.103,15.013
			c-3.461,0.765-6.464,2.419-8.214,5.221c-7.506,12.068-18.188,27.779-26.077,33.382c-13.474,9.591-50.021,30.007-35.219,45.422
			c7.344,7.66,16.935,14.019,24.729,18.494l-3.768,3.079c-4.609,3.538-8.597,8.061-11.609,13.378
			c-2.945,5.125-4.724,10.586-5.556,15.998l-23.333,100.521l-55.291,52.871c-1.769,1.663-3.347,3.586-4.485,5.756
			c-6.789,11.81-2.716,26.89,9.209,33.68c9.505,5.45,21.219,3.768,28.888-3.213l62.481-60.12c1.033-1.271,1.979-2.601,2.802-4.063
			c1.071-1.894,1.903-3.768,2.41-5.776l14.554-63.686l47.841,47.697l-0.105,71.375c0,6.961,3.098,13.616,8.463,18.379
			c-11.705,2.353-27.569,1.673-37.781-1.884l-19.221-6.694c-11.657-4.054-28.831-0.984-38.375,6.838l-24.002,19.718
			c-9.543,7.822-26.66,10.729-38.25,6.483l-30.81-11.303c-11.58-4.246-25.608,1.166-31.336,12.097l-7.21,13.789
			C-3.43,471.379,1.935,480.243,14.28,480.243z M208.896,91.422c0.058-1.167,0.201-2.333,0.479-3.471
			c1.004-4.169,3.662-7.65,7.468-9.82c3.768-2.142,8.214-2.745,12.536-1.693c3.548,0.861,6.579,3.003,8.521,6.005
			c1.96,3.05,2.591,6.627,1.74,10.069c-0.698,2.878-2.534,5.278-5.154,6.79c-2.591,1.482-5.642,1.893-8.606,1.176
			c-5.145-1.271-8.367-6.311-7.163-11.245c1.023-4.208,5.403-6.751,9.773-5.69c3.749,0.899,6.053,4.581,5.183,8.176
			c-0.756,3.108-4.007,4.992-7.22,4.208c-0.153-0.028-0.296-0.076-0.431-0.115c-0.229-0.076-0.134,0,0.229,0.144
			c0.22,0.086,0.45,0.153,0.679,0.22c1.855,0.449,3.758,0.201,5.355-0.717c1.559-0.889,2.639-2.314,3.05-3.988
			c0.545-2.237,0.134-4.6-1.167-6.607c-1.32-2.046-3.395-3.5-5.843-4.103c-3.203-0.784-6.502-0.334-9.285,1.243
			c-2.735,1.559-4.628,4.055-5.355,7.009c-0.937,3.854-0.229,7.86,1.989,11.293c2.229,3.49,5.757,5.948,9.907,6.952
			c3.366,0.823,6.693,0.736,9.801,0c-5.651,3.213-12.842,3.28-18.608-0.554c-4.887-3.251-7.583-8.521-7.851-13.971
			c-0.009-0.287-0.067-0.583-0.057-0.87C208.858,91.709,208.887,91.565,208.896,91.422z M226.596,125.302
			c0.258-0.363,0.383-0.736,0.622-1.1c4.638,1.425,9.534,3.51,12.996,6.149c-3.385,1.233-6.655,2.811-9.658,4.858l-27.119,22.166
			L226.596,125.302z"/>
	</g>
</g>
<g>
</g>
<g>
</g>
<g>
</g>
<g>
</g>
<g>
</g>
<g>
</g>
<g>
</g>
<g>
</g>
<g>
</g>
<g>
</g>
<g>
</g>
<g>
</g>
<g>
</g>
<g>
</g>
<g>
</g>
</svg>
