<?xml version="1.0" encoding="iso-8859-1"?>
<!-- Generator: Adobe Illustrator 16.0.0, SVG Export Plug-In . SVG Version: 6.00 Build 0)  -->
<!DOCTYPE svg PUBLIC "-//W3C//DTD SVG 1.1//EN" "http://www.w3.org/Graphics/SVG/1.1/DTD/svg11.dtd">
<svg version="1.1" id="Capa_1" xmlns="http://www.w3.org/2000/svg" xmlns:xlink="http://www.w3.org/1999/xlink" x="0px" y="0px"
	 width="511.211px" height="511.211px" viewBox="0 0 511.211 511.211" style="enable-background:new 0 0 511.211 511.211;"
	 xml:space="preserve">
<g>
	<g>
		<path d="M62.29,111.857c-5.049,9.275-12.508,17.231-17.71,17.231h-9.457C15.721,129.089,0,144.81,0,164.212v31.222
			c0,7.21,2.17,13.904,5.9,19.469c5.871,8.778,13.407,20.836,12.986,31.394c-1.549,38.852,3.242,98.149,38.192,145.923
			c7.641,10.442,25.503,19.221,38.327,20.904l88.205,11.504c0.937,0.124,1.836,0.172,2.706,0.162
			c1.501-0.01,10.079,4.198,19.154,9.61l105.167,62.625c4.678,2.802,9.85,4.131,14.957,4.131c9.973,0,19.717-5.059,25.225-14.182
			l24.777-41.061c6.521-10.797,9.533-28.258,7-40.632l-8.119-39.675c-2.113-10.347,4.973-19.688,11.475-27.052
			c3.873-4.399,6.244-10.117,6.244-16.257v-48.778c0-12.947,10.463-24.279,23.334-25.331l48.939-3.997
			c5.002-0.412,9.621-2.046,13.398-4.495c6.607-4.284,17.775-13.225,24.719-21.19c5.365-6.168,8.625-14.229,8.625-23.055v-31.222
			c0-19.402-15.711-35.123-35.123-35.123c0,0-2.744,0-6.148,0c-3.395,0-9.734-7.793-15.146-16.868
			C429.959,70.624,373.502,10.055,255.625,10.055C138.082,10.055,84.962,70.27,62.29,111.857z M365,194.525l6.617-17.04
			c3.836-9.84,12.174-17.825,18.639-17.825c6.473,0,8.605,7.975,4.781,17.825l-6.627,17.04c-3.826,9.84-12.164,17.825-18.639,17.825
			C363.309,212.35,361.166,204.375,365,194.525z M316.709,194.525l6.617-17.04c3.836-9.84,12.174-17.825,18.639-17.825
			c6.473,0,8.605,7.975,4.781,17.825l-6.627,17.04c-3.826,9.84-12.164,17.825-18.637,17.825
			C315.008,212.35,312.865,204.375,316.709,194.525z M204.561,283.246l68.955-11.695c12.748-2.161,27.014,5.805,31.873,17.786
			l15.605,38.547c2.064,5.087,5.842,9.639,10.5,13.12c7.525,5.632,17.164,15.099,19.287,25.445l8.902,43.5
			c1.357,6.655-0.602,18.035-4.121,23.849l-24.777,41.062c-1.691,2.792-5.363,3.7-8.166,2.037l-103.428-61.593
			c-9.075-5.402-16.457-9.992-16.467-10.241c-0.009-0.152-0.019-0.296-0.048-0.459l-17.04-94.41
			C183.342,297.475,191.804,285.397,204.561,283.246z"/>
	</g>
</g>
<g>
</g>
<g>
</g>
<g>
</g>
<g>
</g>
<g>
</g>
<g>
</g>
<g>
</g>
<g>
</g>
<g>
</g>
<g>
</g>
<g>
</g>
<g>
</g>
<g>
</g>
<g>
</g>
<g>
</g>
</svg>
