<?xml version="1.0" encoding="iso-8859-1"?>
<!-- Generator: Adobe Illustrator 16.0.0, SVG Export Plug-In . SVG Version: 6.00 Build 0)  -->
<!DOCTYPE svg PUBLIC "-//W3C//DTD SVG 1.1//EN" "http://www.w3.org/Graphics/SVG/1.1/DTD/svg11.dtd">
<svg version="1.1" id="Capa_1" xmlns="http://www.w3.org/2000/svg" xmlns:xlink="http://www.w3.org/1999/xlink" x="0px" y="0px"
	 width="523.053px" height="523.053px" viewBox="0 0 523.053 523.053" style="enable-background:new 0 0 523.053 523.053;"
	 xml:space="preserve">
<g>
	<path d="M301.829,60.189c1.291-1.396,1.616-3.433,0.842-5.173l-4.074-9.113l9.85-18.714c1.214-2.295,0.344-5.173-1.941-6.407
		c-0.019-0.019-0.048-0.038-0.066-0.038c-2.334-1.233-5.231-0.335-6.465,1.999l-9.725,18.475l-10.662,1.042
		c-2.113,0.182-3.835,1.76-4.236,3.844l-7.248,37.208L98.435,405.788c-1.224,2.295-0.344,5.173,1.941,6.406
		c0.019,0.02,0.038,0.038,0.067,0.038c2.333,1.234,5.23,0.335,6.464-1.998L276.65,87.633L301.829,60.189z"/>
	<path d="M344.525,41.494c-0.019,0-0.048-0.019-0.066-0.019c-2.334-1.233-5.231-0.334-6.465,1.999l-9.725,18.475l-10.653,1.042
		c-2.113,0.201-3.834,1.779-4.235,3.844l-7.239,37.169L136.455,426.5c-1.214,2.314-0.344,5.174,1.941,6.426
		c0.019,0.02,0.047,0.02,0.067,0.039c2.333,1.233,5.23,0.334,6.464-2.019l169.725-322.562l25.207-27.454
		c1.291-1.406,1.615-3.433,0.832-5.173l-4.064-9.113l9.84-18.714C347.69,45.606,346.811,42.747,344.525,41.494z"/>
	<path d="M409.685,6.715c-1.578-5.039-6.924-7.86-11.973-6.273c-5.029,1.568-7.851,6.933-6.292,11.953
		c0.096,0.296,1.76,5.805,3.901,15.482L136.78,502.082c-7.163,1.492-11.351,1.846-11.571,1.865
		c-5.278,0.334-9.285,4.876-8.96,10.146c0.22,3.414,2.19,6.292,4.982,7.803c1.53,0.842,3.309,1.253,5.164,1.138
		c5.078-0.296,109.586-8.559,206.512-136.093c2.343,0.841,4.093,1.252,4.198,1.291c1.271,0.258,2.601,0,3.672-0.728
		c14.258-9.639,14.162-19.086,14.114-25.321c-0.029-3.289,0-4.935,1.176-6.272c4.695-5.413,11.819-17.385,17.241-26.985
		c0.335-0.316,0.622-0.708,0.86-1.139c0.221-0.411,0.383-0.841,0.488-1.291c0.229-0.43,0.449-0.822,0.631-1.214h0.01
		c3.414-6.426,11.646-22.262,13.99-30.294c0.507-1.722,1.854-2.63,4.638-4.408c5.288-3.347,13.282-8.387,13.655-25.59
		c0.028-1.291-0.479-2.544-1.387-3.452c-0.067-0.077-1.109-1.081-2.764-2.391C447.332,130.99,411.463,12.415,409.685,6.715z
		 M385.348,252.5c-5.393,0.191-10.519,2.314-15.032,6.971c-12.536,12.871-15.51,15.932-14.43,28.162
		c0.315,6.607-18.351,40.841-24.06,44.149c-10.892,5.738-11.838,9.879-16.046,28.104c-1.3,5.623-0.497,10.7,1.971,15.128
		c-66.842,87.478-137.461,115.869-171.6,124.857L397.578,38.731C405.534,80.041,415.049,164.535,385.348,252.5z"/>
</g>
<g>
</g>
<g>
</g>
<g>
</g>
<g>
</g>
<g>
</g>
<g>
</g>
<g>
</g>
<g>
</g>
<g>
</g>
<g>
</g>
<g>
</g>
<g>
</g>
<g>
</g>
<g>
</g>
<g>
</g>
</svg>
