<?xml version="1.0" encoding="iso-8859-1"?>
<!-- Generator: Adobe Illustrator 16.0.0, SVG Export Plug-In . SVG Version: 6.00 Build 0)  -->
<!DOCTYPE svg PUBLIC "-//W3C//DTD SVG 1.1//EN" "http://www.w3.org/Graphics/SVG/1.1/DTD/svg11.dtd">
<svg version="1.1" id="Capa_1" xmlns="http://www.w3.org/2000/svg" xmlns:xlink="http://www.w3.org/1999/xlink" x="0px" y="0px"
	 width="498.287px" height="498.287px" viewBox="0 0 498.287 498.287" style="enable-background:new 0 0 498.287 498.287;"
	 xml:space="preserve">
<g>
	<path d="M492.602,14.711c2.209-3.815,2.209-8.291-0.373-11.58c-3.48-4.466-11.475-4.093-17.643,0.727L232.053,193.75
		c-2.085,1.626-3.768,2.649-4.628,3.156h-1.693c-3.299,0-7.87,3.041-11.13,5.584l-43.854,34.349
		c-5.173,4.035-9.734,11.972-10.624,18.475l-0.755,5.432c-0.641,4.666-3.089,12.087-5.355,16.208l-17.069,31.317
		c-1.979,3.787-4.963,9.524-7.583,11.36c-3.576,2.486-8.874,3.921-15.338,4.188c-6.034,0.239-14.669,3.021-19.479,7.88
		L7.659,419.071c-9.199,9.267-9.543,24.633-0.765,34.311l34.625,38.049c4.017,4.428,9.123,6.856,14.392,6.856
		c6.426,0,12.278-3.548,16.056-9.744l88.979-145.866l9.534,4.169c1.941,0.842,3.969,1.253,5.986,1.253
		c5.441,0,10.719-2.936,13.426-7.956l16.094-29.845c1.31-2.429,1.826-5.059,1.606-7.659c3.165-1.023,6.225-2.582,8.96-4.705
		c5.24-4.112,8.835-9.734,10.117-15.816c1.358-6.407,0.038-12.565-3.71-17.327c-0.622-0.804-1.387-1.453-2.132-2.133l30.457-29.042
		L490.709,33.233c6.521-5.431,8.787-11.781,5.66-15.778C495.395,16.155,494.084,15.237,492.602,14.711z M197.58,305.736
		l-16.094,29.845c-1.329,2.448-4.6,3.586-7.181,2.486l-8.329-3.644l21.009-34.444c3.146,2.219,6.952,3.529,11.083,3.787
		C198.048,304.445,197.924,305.096,197.58,305.736z M217.326,280.109c-0.822,3.901-3.184,7.545-6.655,10.27
		c-2.372,1.846-5.097,2.802-7.812,3.328c-1.023-0.899-2.037-1.798-3.328-2.372l-5.183-2.295c2.18-2.764,4.552-5.47,6.474-7.306
		l13.158-12.546c0.526,0.449,1.033,0.918,1.463,1.454C217.422,273.167,218.082,276.523,217.326,280.109z"/>
</g>
<g>
</g>
<g>
</g>
<g>
</g>
<g>
</g>
<g>
</g>
<g>
</g>
<g>
</g>
<g>
</g>
<g>
</g>
<g>
</g>
<g>
</g>
<g>
</g>
<g>
</g>
<g>
</g>
<g>
</g>
</svg>
