<?xml version="1.0" encoding="iso-8859-1"?>
<!-- Generator: Adobe Illustrator 16.0.0, SVG Export Plug-In . SVG Version: 6.00 Build 0)  -->
<!DOCTYPE svg PUBLIC "-//W3C//DTD SVG 1.1//EN" "http://www.w3.org/Graphics/SVG/1.1/DTD/svg11.dtd">
<svg version="1.1" id="Capa_1" xmlns="http://www.w3.org/2000/svg" xmlns:xlink="http://www.w3.org/1999/xlink" x="0px" y="0px"
	 width="561.892px" height="561.893px" viewBox="0 0 561.892 561.893" style="enable-background:new 0 0 561.892 561.893;"
	 xml:space="preserve">
<g>
	<g>
		<path d="M229.343,81.205c1.415,0.392,3.347,1.195,5.68,2.152l0.354,0.144c9.859,13.148,25.369,20.951,41.788,20.951
			c16.83,0,32.58-8.1,42.4-21.735l3.061-1.301c2.361-1.023,4.398-1.912,5.852-2.362c9.133-2.773,16.008-12.45,16.008-22.51V42.878
			c0-10.509-8.108-19.718-18.455-20.952c-2.065-0.249-4.38-0.516-6.886-0.765C309.295,7.87,293.765,0,277.156,0
			c-17.002,0-32.733,8.176-42.544,21.984l-2.725,0.229c-10.547,0.966-18.819,10.041-18.819,20.665v15.807
			C213.077,67.358,218.767,78.192,229.343,81.205z M229.353,42.812c0-2.295,1.979-4.485,4.227-4.686
			c9.199-0.823,27.349-2.276,45.575-2.754c2.065-0.057,4.13-0.086,6.177-0.086c15.271,0,29.653,1.358,39.034,2.486
			c2.267,0.277,4.341,2.677,4.341,5.04v13.655c0,2.917-2.304,6.483-4.638,7.191c-2.113,0.631-4.676,1.74-7.717,3.05
			c-8.663,3.749-20.54,8.893-37.475,9.429l-2.62,0.048c-15.874,0-26.957-4.504-35.047-7.784c-2.831-1.147-5.24-2.123-7.277-2.696
			c-2.267-0.631-4.581-4.208-4.581-7.076V42.812L229.353,42.812z"/>
		<path d="M120.139,471.527c-1.54,0.545-3.079,1.195-4.561,2.113l-12.183,7.573c-8.97,5.565-15.883,18.102-15.434,28.018
			c0.44,9.897,8.09,13.407,17.06,7.842l27.09-16.82c8.97-5.575,12.546-16.046,7.985-23.39c-0.048-0.087-0.124-0.153-0.182-0.221
			l-33.22-239.196l1.234,0.631c3.72,1.903,7.765,2.85,11.791,2.85c5.278,0,10.538-1.616,14.994-4.791l76.223-54.171l-0.545,74.062
			c-0.048,7.143-1.252,18.609-2.668,25.618L184.839,394.3c-1.425,7,3.184,13.235,10.308,13.914l0.029,0.01l-19.517,90.346
			c-2.419,11.217,2.897,22.195,12.288,27.693l-7.726,24.394c-1.435,4.552,1.071,9.391,5.613,10.835
			c0.871,0.268,1.75,0.401,2.611,0.401c3.663,0,7.057-2.343,8.224-6.024l7.736-24.451c0.191-0.603,0.143-1.215,0.201-1.817
			c10.414-1.491,19.297-9.237,21.649-20.109l20.808-96.295l1.042,0.105c7.115,0.679,13.875-4.476,15.109-11.513l11.724-67.244
			c1.224-7.028,3.347-7.057,4.733-0.058l13.311,67.349c1.387,7.02,8.233,11.781,15.291,10.653l0.966-0.163l20.989,97.165
			c2.62,12.125,13.35,20.416,25.274,20.416c0.325,0,0.65-0.096,0.975-0.105c0.058,0.545,0,1.071,0.173,1.616l7.735,24.451
			c1.167,3.682,4.562,6.024,8.225,6.024c0.86,0,1.74-0.134,2.61-0.401c4.542-1.435,7.057-6.283,5.623-10.835l-7.746-24.432
			c-0.268-0.852-0.765-1.55-1.243-2.247c7.268-5.958,11.093-15.587,8.97-25.398l-20.396-94.43l3.165-0.507
			c7.057-1.128,11.283-7.641,9.447-14.544l-28.917-108.439c-1.836-6.914-3.241-18.293-3.137-25.445l1.177-79.713l40.019,13.407
			c2.688,0.889,5.461,1.339,8.224,1.339c5.098,0,10.137-1.501,14.469-4.418l95.969-64.709c11.857-7.985,14.984-24.079,7-35.926
			c-7.994-11.848-24.078-14.975-35.926-6.98l-85.384,57.557l-40.201-13.474c-5.068-1.692-10.299-1.74-15.09-0.411
			c-0.401-0.029-0.793-0.125-1.214-0.125H224.333c-0.564,0-1.1,0.105-1.645,0.172c-7.268-2.037-15.348-0.89-21.975,3.806
			l-83.165,59.106l-19.546-10.012l-10.06-72.407c-0.555-5.25-5.269-9.056-10.519-8.501c-5.241,0.564-9.056,5.278-8.501,10.519
			l8.673,62.166c-10.117-0.812-20.196,4.399-25.111,13.99c-6.521,12.718-1.482,28.324,11.236,34.836l22.28,11.417L120.139,471.527z"
			/>
	</g>
</g>
<g>
</g>
<g>
</g>
<g>
</g>
<g>
</g>
<g>
</g>
<g>
</g>
<g>
</g>
<g>
</g>
<g>
</g>
<g>
</g>
<g>
</g>
<g>
</g>
<g>
</g>
<g>
</g>
<g>
</g>
</svg>
