<?xml version="1.0" encoding="iso-8859-1"?>
<!-- Generator: Adobe Illustrator 16.0.0, SVG Export Plug-In . SVG Version: 6.00 Build 0)  -->
<!DOCTYPE svg PUBLIC "-//W3C//DTD SVG 1.1//EN" "http://www.w3.org/Graphics/SVG/1.1/DTD/svg11.dtd">
<svg version="1.1" id="Capa_1" xmlns="http://www.w3.org/2000/svg" xmlns:xlink="http://www.w3.org/1999/xlink" x="0px" y="0px"
	 width="530.179px" height="530.179px" viewBox="0 0 530.179 530.179" style="enable-background:new 0 0 530.179 530.179;"
	 xml:space="preserve">
<g>
	<g>
		<path d="M484.078,155.87c-25.475,0-46.178,20.646-46.178,46.12c0,25.455,20.703,46.168,46.178,46.168
			c25.465,0,46.101-20.713,46.101-46.168C530.179,176.516,509.543,155.87,484.078,155.87z"/>
		<path d="M46.115,259.776l-19.096-1.186c-0.517-0.029-2.639-1.626-4.59-6.216c-2.553-6.005-3.71-14.392-3.165-23.007l3.997-64.423
			c0.325-5.278-3.682-9.811-8.95-10.136c-5.145-0.172-9.812,3.682-10.136,8.941l-4.007,64.413
			c-0.727,11.657,0.928,22.912,4.647,31.681c4.647,10.949,12.106,17.28,21.009,17.825l19.096,1.186
			c0.201,0.01,0.402,0.02,0.603,0.02c5.011,0,9.218-3.902,9.534-8.97C55.391,264.644,51.384,260.102,46.115,259.776z"/>
		<path d="M275.204,410.406c-5.288,0-9.562,4.274-9.562,9.562v19.125c0,2.381-10.174,9.562-28.688,9.562h-64.547
			c-5.278,0-9.562,4.275-9.562,9.562c0,5.289,4.284,9.562,9.562,9.562h64.547c27.263,0,47.812-12.335,47.812-28.687v-19.125
			C284.767,414.68,280.492,410.406,275.204,410.406z"/>
		<path d="M413.65,166.504L271.379,66.729c-10.796-7.573-25.713-4.953-33.296,5.843c-7.583,10.815-4.963,25.713,5.843,33.296
			l107.549,75.419H191.943H58.068c-15.845,0-28.688,12.843-28.688,28.688c0,15.845,12.842,28.688,28.688,28.688h132.278v169.745
			c0,15.845,12.843,28.688,28.688,28.688c15.845,0,28.688-12.843,28.688-28.688v-150.61h147.425
			c15.845,0,28.688-12.843,28.688-28.688v-47.812h-0.545C422.112,175.521,418.852,170.157,413.65,166.504z"/>
	</g>
</g>
<g>
</g>
<g>
</g>
<g>
</g>
<g>
</g>
<g>
</g>
<g>
</g>
<g>
</g>
<g>
</g>
<g>
</g>
<g>
</g>
<g>
</g>
<g>
</g>
<g>
</g>
<g>
</g>
<g>
</g>
</svg>
