<?xml version="1.0" encoding="iso-8859-1"?>
<!-- Generator: Adobe Illustrator 16.0.0, SVG Export Plug-In . SVG Version: 6.00 Build 0)  -->
<!DOCTYPE svg PUBLIC "-//W3C//DTD SVG 1.1//EN" "http://www.w3.org/Graphics/SVG/1.1/DTD/svg11.dtd">
<svg version="1.1" id="Capa_1" xmlns="http://www.w3.org/2000/svg" xmlns:xlink="http://www.w3.org/1999/xlink" x="0px" y="0px"
	 width="533.691px" height="533.691px" viewBox="0 0 533.691 533.691" style="enable-background:new 0 0 533.691 533.691;"
	 xml:space="preserve">
<g>
	<g>
		<path d="M488.691,238.01L388.62,286.405l-17.93-16.332l-20.101-44.437l7.745,0.86c0.766,0.086,1.53,0.134,2.305,0.134
			c3.376,0,6.694-0.803,9.716-2.372l53.206-27.626c10.327-5.355,14.344-18.073,8.979-28.4c-5.364-10.318-18.073-14.325-28.4-8.979
			l-47.535,24.681l-23.294-2.572c-4.438-0.498-8.692,0.459-12.346,2.448l-66.45,15.702c-1.406,0.067-2.831,0.277-4.246,0.641
			l-16.715,4.313l-4.714,1.109l0.058,0.077l-1.74,0.449l-33.115-35.372c12.154-17.327,19.354-38.374,19.354-61.104
			c0-58.838-47.86-106.708-106.698-106.708C47.87,2.916,0,50.786,0,109.624c0,58.838,47.87,106.708,106.698,106.708
			c20.903,0,40.354-6.129,56.839-16.552l41.415,44.236c4.036,4.312,9.63,6.665,15.367,6.665c1.759,0,3.519-0.22,5.259-0.669
			l26.718-6.895l60.741,97.231l-67.187,149.644c-6.225,15.052,0.909,32.293,15.96,38.527c3.7,1.54,7.516,2.257,11.284,2.257
			c11.57,0,22.538-6.847,27.253-18.197l68.878-152.742l150.485-71.661c13.847-8.568,18.131-26.737,9.572-40.583
			C520.707,233.726,502.538,229.452,488.691,238.01z M25.273,109.614c0-44.896,36.529-81.435,81.434-81.435
			c44.906,0,81.435,36.529,81.435,81.435c0,19.632-6.981,37.657-18.59,51.733c-3.126,0.89-6.101,2.419-8.644,4.791
			c-2.592,2.429-4.342,5.384-5.422,8.53c-13.617,10.232-30.466,16.38-48.778,16.38C61.812,191.058,25.273,154.52,25.273,109.614z"/>
		<circle cx="265.359" cy="141.61" r="45.518"/>
	</g>
</g>
<g>
</g>
<g>
</g>
<g>
</g>
<g>
</g>
<g>
</g>
<g>
</g>
<g>
</g>
<g>
</g>
<g>
</g>
<g>
</g>
<g>
</g>
<g>
</g>
<g>
</g>
<g>
</g>
<g>
</g>
</svg>
