<?xml version="1.0" encoding="iso-8859-1"?>
<!-- Generator: Adobe Illustrator 16.0.0, SVG Export Plug-In . SVG Version: 6.00 Build 0)  -->
<!DOCTYPE svg PUBLIC "-//W3C//DTD SVG 1.1//EN" "http://www.w3.org/Graphics/SVG/1.1/DTD/svg11.dtd">
<svg version="1.1" id="Capa_1" xmlns="http://www.w3.org/2000/svg" xmlns:xlink="http://www.w3.org/1999/xlink" x="0px" y="0px"
	 width="517.092px" height="517.092px" viewBox="0 0 517.092 517.092" style="enable-background:new 0 0 517.092 517.092;"
	 xml:space="preserve">
<g>
	<g>
		<path d="M45.225,45.269c-6.723,11.37-2.964,26.029,8.405,32.742l128.597,76.06c0.507,0.296,1.062,0.412,1.578,0.669v25.848
			l-27.875-29.979c-8.999-9.687-24.107-10.213-33.784-1.233c-9.677,8.989-10.213,24.116-1.234,33.784l60.378,64.92
			c-0.995,1.626-1.932,3.299-2.659,5.135l-22.386,56.391c-2.821,7.086-3.127,14.917-0.88,22.213l41.463,134.344
			c3.318,10.748,11.561,18.609,21.477,21.898l11.485,23.639c1.654,3.414,5.059,5.393,8.606,5.393c1.406,0,2.821-0.306,4.169-0.966
			c4.752-2.304,6.732-8.032,4.427-12.775l-7.497-15.424c1.52-0.517,2.964-1.138,4.36-1.846l7.497,15.425
			c1.654,3.403,5.059,5.383,8.605,5.383c1.396,0,2.821-0.306,4.17-0.966c4.752-2.304,6.731-8.032,4.427-12.775l-10.25-21.095
			c4.064-7.602,5.231-16.763,2.486-25.646l-37.991-123.079l17.126-43.146l153.909,186.603c6.617,8.032,16.189,12.173,25.838,12.173
			c2.151,0,4.293-0.268,6.416-0.679l17.251,15.242c1.816,1.606,4.083,2.391,6.33,2.391c2.64,0,5.278-1.09,7.162-3.232
			c3.5-3.958,3.127-10.002-0.832-13.492l-12.191-10.768c1.1-1.167,2.122-2.362,3.031-3.644l12.469,11.017
			c1.817,1.616,4.084,2.4,6.331,2.4c2.639,0,5.278-1.091,7.162-3.232c3.5-3.959,3.127-10.003-0.832-13.493l-19.01-16.791
			c-0.173-7.229-2.534-14.459-7.497-20.474L278.598,221.888V135.73c0-10.566-8.568-19.125-19.125-19.125h-48.281
			c-1.387-1.377-2.888-2.648-4.647-3.691L77.948,36.854C66.616,30.141,51.938,33.909,45.225,45.269z"/>
		<circle cx="228.806" cy="47.812" r="47.812"/>
	</g>
</g>
<g>
</g>
<g>
</g>
<g>
</g>
<g>
</g>
<g>
</g>
<g>
</g>
<g>
</g>
<g>
</g>
<g>
</g>
<g>
</g>
<g>
</g>
<g>
</g>
<g>
</g>
<g>
</g>
<g>
</g>
</svg>
