<?xml version="1.0" encoding="iso-8859-1"?>
<!-- Generator: Adobe Illustrator 16.0.0, SVG Export Plug-In . SVG Version: 6.00 Build 0)  -->
<!DOCTYPE svg PUBLIC "-//W3C//DTD SVG 1.1//EN" "http://www.w3.org/Graphics/SVG/1.1/DTD/svg11.dtd">
<svg version="1.1" id="Capa_1" xmlns="http://www.w3.org/2000/svg" xmlns:xlink="http://www.w3.org/1999/xlink" x="0px" y="0px"
	 width="478.947px" height="478.947px" viewBox="0 0 478.947 478.947" style="enable-background:new 0 0 478.947 478.947;"
	 xml:space="preserve">
<g>
	<g>
		<path d="M110.522,257.986L27.119,412.211c-7.392,13.674-2.305,30.762,11.37,38.154c4.255,2.305,8.845,3.404,13.369,3.404
			c10.002,0,19.689-5.355,24.786-14.773l74.616-137.969c0.421,1.215,0.813,2.447,1.416,3.625l29.605,57.92l-38.977,75.275
			c-7.152,13.799-1.75,30.791,12.049,37.943c4.141,2.143,8.568,3.156,12.929,3.156c10.184,0,20.014-5.547,25.015-15.213
			l45.642-88.129c4.179-8.07,4.208-17.672,0.067-25.752l-27.339-53.502l71.603-128.205h115.247c11.112,0,20.11-8.998,20.11-20.119
			c0-11.103-9.008-20.101-20.11-20.101H291.101l-82.514-27.416L163.7,82.17l26.325-47.267c2.314-5.221,2.2-10.882,0.191-15.778
			h71.317c-20.578,3.5-36.328,21.382-36.328,42.955c0,24.203,19.555,43.835,43.605,43.835c24.212,0,43.844-19.632,43.844-43.835
			c0-21.573-15.816-39.455-36.52-42.955h169.524c5.278,0,9.562-4.274,9.562-9.562S450.938,0,445.659,0H67.616
			c-5.278,0-9.562,4.274-9.562,9.562s4.284,9.562,9.562,9.562h85.364l-34.454,65.656c-2.209,4.963-2.314,10.624-0.277,15.673
			c2.027,5.04,6.015,9.056,11.045,11.112l53.693,21.936l-71.078,122.447C111.46,256.619,110.924,257.24,110.522,257.986z"/>
	</g>
</g>
<g>
</g>
<g>
</g>
<g>
</g>
<g>
</g>
<g>
</g>
<g>
</g>
<g>
</g>
<g>
</g>
<g>
</g>
<g>
</g>
<g>
</g>
<g>
</g>
<g>
</g>
<g>
</g>
<g>
</g>
</svg>
