<?xml version="1.0" encoding="iso-8859-1"?>
<!-- Generator: Adobe Illustrator 16.0.0, SVG Export Plug-In . SVG Version: 6.00 Build 0)  -->
<!DOCTYPE svg PUBLIC "-//W3C//DTD SVG 1.1//EN" "http://www.w3.org/Graphics/SVG/1.1/DTD/svg11.dtd">
<svg version="1.1" id="Capa_1" xmlns="http://www.w3.org/2000/svg" xmlns:xlink="http://www.w3.org/1999/xlink" x="0px" y="0px"
	 width="506.812px" height="506.812px" viewBox="0 0 506.812 506.812" style="enable-background:new 0 0 506.812 506.812;"
	 xml:space="preserve">
<g>
	<g>
		<circle cx="98.981" cy="95.854" r="40.698"/>
		<path d="M487.688,385.923H98.532c0.258-1.405,0.439-2.84,0.439-4.322V269.787l42.037,12.125c2.113,0.611,4.312,0.918,6.521,0.918
			h76.701c12.996,0,23.533-10.538,23.533-23.523c0-12.986-10.538-23.534-23.533-23.534h-73.363l-11.351-3.271
			c-0.153-0.125-0.201-0.239-0.382-0.354l-32.837-20.817c-3.146-1.989-5.03-6.541-4.227-10.155l3.653-16.543l13.034-8.444
			l75.84-21.87c8.922-2.572,14.066-11.886,11.494-20.808c-2.572-8.912-11.886-14.047-20.808-11.494l-78.241,22.558
			c-1.587,0.459-3.098,1.147-4.485,2.046l-7.478,4.858l-23.753-6.665c-0.172-0.201-0.277-0.421-0.449-0.622L46.77,116.882
			l-7.21-35.324c-1.865-9.094-10.739-14.927-19.842-13.101C10.624,70.313,4.762,79.196,6.617,88.291l8.119,39.704
			c0.593,2.878,1.922,5.546,3.863,7.755l24.365,27.617l-5.355,35.142c-0.995,3.576-0.315,9.104,1.501,12.335l14.143,34.186
			c-0.822,2.381-1.358,4.896-1.358,7.555v129.017c0,1.482,0.172,2.917,0.44,4.322h-33.21C8.568,385.923,0,394.491,0,405.048v27.483
			c0,10.557,8.568,19.125,19.125,19.125h468.562c10.557,0,19.125-8.568,19.125-19.125v-27.483
			C506.812,394.491,498.244,385.923,487.688,385.923z"/>
	</g>
</g>
<g>
</g>
<g>
</g>
<g>
</g>
<g>
</g>
<g>
</g>
<g>
</g>
<g>
</g>
<g>
</g>
<g>
</g>
<g>
</g>
<g>
</g>
<g>
</g>
<g>
</g>
<g>
</g>
<g>
</g>
</svg>
