<?xml version="1.0" encoding="iso-8859-1"?>
<!-- Generator: Adobe Illustrator 16.0.0, SVG Export Plug-In . SVG Version: 6.00 Build 0)  -->
<!DOCTYPE svg PUBLIC "-//W3C//DTD SVG 1.1//EN" "http://www.w3.org/Graphics/SVG/1.1/DTD/svg11.dtd">
<svg version="1.1" id="Capa_1" xmlns="http://www.w3.org/2000/svg" xmlns:xlink="http://www.w3.org/1999/xlink" x="0px" y="0px"
	 width="599.187px" height="599.186px" viewBox="0 0 599.187 599.186" style="enable-background:new 0 0 599.187 599.186;"
	 xml:space="preserve">
<g>
	<g>
		<path d="M576.008,294.907c-6.303-2.83-18.189-11.035-28.68-18.283l-8.453-5.805c-26.756-18.216-64.881-38.775-92.152-52.813
			c-5.719-2.945-11.418-4.437-16.945-4.437c-8.74,0-15.701,3.748-20.178,6.569c-0.592,0.373-1.318,0.555-2.219,0.555
			c-6.654,0-17.842-9.075-23.217-13.445c-10.5-8.51-25.244-10.27-30.295-3.414c-4.732,6.417-3.326,15.912,3.195,21.621
			c2.982,2.611,6.436,8.932,9.236,16.878c1.168,3.309-3.184,9.371-11.293,12.795c-9.496,4.016-30.045,6.952-45.27,6.158
			c-38.048-1.932-63.915-3.462-74.807-4.437c-6.579-0.593-13.34-2.161-20.091-4.667c-11.312-4.208-32.761-11.533-49.189-13.206
			l-20.741-2.104c-5.03-0.517-10.356-0.784-15.415-0.784c-6.856,0-19.144,0.497-24.308,3.806c-2.104,1.349-4.236,1.827-5.527,1.827
			c-0.612,0-0.966-0.105-0.87-0.019c-3.902-3.71-10.949-3.825-15.424-0.277c-8.128,6.436,3.347,23.543,5.728,26.899
			c5.078,7.172,4.236,18.589-1.836,24.929c-7.392,7.737-16.161,12.671-19.737,12.671c-0.01,0-0.01,0-0.01,0
			c-6.722,0-23.963,3.844-36.777,7.468C21.497,316.003,0,323.07,0,332.154c0,6.178,5.47,11.198,11.236,11.017
			c1.128,0.822,3.328,5.985,3.328,14.162c0,11.771,5.852,25.742,13.32,31.805c8.052,6.531,28.314,10.433,43.251,10.433h291.618
			c16.811,0,42.754-2.247,57.814-5.001c13.482-2.468,33.984-6.369,55.1-11.007c26.621-5.861,44.914-11.36,55.922-16.792
			c8.137-4.025,15.701-8.797,22.461-14.2c3.232-2.562,6.521-5.326,9.764-8.042c8.053-6.751,17.184-14.41,21.793-15.673
			c6.445-1.76,11.131-5.25,12.871-9.601c1.139-2.85,0.898-5.833-0.678-8.435C594.463,305.35,584.088,298.541,576.008,294.907z"/>
	</g>
</g>
<g>
</g>
<g>
</g>
<g>
</g>
<g>
</g>
<g>
</g>
<g>
</g>
<g>
</g>
<g>
</g>
<g>
</g>
<g>
</g>
<g>
</g>
<g>
</g>
<g>
</g>
<g>
</g>
<g>
</g>
</svg>
