<?xml version="1.0" encoding="iso-8859-1"?>
<!-- Generator: Adobe Illustrator 16.0.0, SVG Export Plug-In . SVG Version: 6.00 Build 0)  -->
<!DOCTYPE svg PUBLIC "-//W3C//DTD SVG 1.1//EN" "http://www.w3.org/Graphics/SVG/1.1/DTD/svg11.dtd">
<svg version="1.1" id="Capa_1" xmlns="http://www.w3.org/2000/svg" xmlns:xlink="http://www.w3.org/1999/xlink" x="0px" y="0px"
	 width="599.187px" height="599.187px" viewBox="0 0 599.187 599.187" style="enable-background:new 0 0 599.187 599.187;"
	 xml:space="preserve">
<g>
	<g>
		<path d="M597.801,285.53c-3.338-5.479-13.713-12.298-21.785-15.922c-6.311-2.84-18.215-11.064-28.734-18.322l-8.396-5.776
			c-26.775-18.226-64.891-38.776-92.152-52.804c-5.719-2.945-11.408-4.437-16.945-4.437c-8.75,0-15.701,3.749-20.168,6.56
			c-0.592,0.363-1.328,0.555-2.229,0.555c-6.654,0-17.844-9.075-23.227-13.436c-10.529-8.539-25.244-10.28-30.295-3.414
			c-4.732,6.407-3.336,15.902,3.195,21.621c2.982,2.601,6.436,8.922,9.246,16.878c1.166,3.309-3.184,9.381-11.283,12.794
			c-9.506,4.017-30.045,6.923-45.279,6.158c-38.068-1.932-63.944-3.461-74.797-4.437c-6.579-0.593-13.349-2.161-20.091-4.667
			c-11.312-4.208-32.751-11.532-49.18-13.206l-20.751-2.104c-5.03-0.516-10.366-0.784-15.415-0.784
			c-6.866,0-19.144,0.498-24.317,3.815c-2.094,1.349-4.227,1.827-5.518,1.827c-0.612,0-0.985-0.125-0.87-0.019
			c-3.911-3.71-10.939-3.825-15.415-0.287c-8.128,6.436,3.337,23.543,5.718,26.918c5.087,7.172,4.246,18.58-1.826,24.93
			c-7.392,7.736-16.161,12.67-19.737,12.67c-0.01,0-0.02,0-0.02,0c-6.713,0-23.954,3.844-36.768,7.468
			C21.506,290.712,0,297.789,0,306.863c0,6.187,5.279,10.968,11.246,11.016c1.119,0.822,3.328,5.977,3.328,14.152
			c0,11.771,5.853,25.742,13.321,31.795c1.989,1.616,4.733,3.07,7.946,4.342l35.945-29.988c16.572-13.837,43.663-15.491,61.841-3.69
			l49.41,32.053l39.732-29.921c16.734-12.594,43.385-13.703,61.124-2.543l51.981,32.847c0.422,0.058,1.311,0.048,1.713-0.01
			l49.982-32.445c16.955-11.055,43.566-10.939,60.521,0.239l33.602,22.146c21.029-4.819,36.404-9.399,46.637-13.933l23.361-17.26
			c2.898-2.152,6.178-3.596,9.611-4.399c0.83-0.698,1.672-1.367,2.504-2.065c8.062-6.761,17.203-14.42,21.803-15.683
			c6.455-1.759,11.141-5.258,12.871-9.6C599.617,291.104,599.377,288.111,597.801,285.53z"/>
		<path d="M562.811,348.145l-56.514,41.759c-3.385,2.506-10.463,2.716-14.01,0.363l-49.514-32.646
			c-12.738-8.415-32.016-8.511-44.801-0.19l-50.711,32.904c-3.9,2.505-11.818,2.562-15.748,0.096l-52.69-33.287
			c-13.148-8.281-32.427-7.487-44.848,1.854l-40.938,30.83c-3.385,2.562-10.404,2.802-13.971,0.487l-50.691-32.876
			c-13.339-8.673-32.627-7.516-44.829,2.678l-49.065,40.946c-5.718,4.763-6.483,13.254-1.74,18.973
			c2.687,3.193,6.521,4.848,10.366,4.848c3.041,0,6.11-1.032,8.625-3.127l49.084-40.937c3.118-2.602,9.486-2.983,12.891-0.774
			l50.71,32.885c13.11,8.521,32.407,7.822,44.857-1.568l40.937-30.829c3.395-2.592,10.586-2.897,14.21-0.593l52.708,33.287
			c12.814,8.08,32.045,7.966,44.791-0.277l50.709-32.904c3.826-2.468,11.523-2.43,15.301,0.076l49.514,32.637
			c13.016,8.616,32.332,8.109,44.877-1.167l56.516-41.769c5.977-4.428,7.229-12.871,2.82-18.848
			C577.23,344.97,568.787,343.707,562.811,348.145z"/>
	</g>
</g>
<g>
</g>
<g>
</g>
<g>
</g>
<g>
</g>
<g>
</g>
<g>
</g>
<g>
</g>
<g>
</g>
<g>
</g>
<g>
</g>
<g>
</g>
<g>
</g>
<g>
</g>
<g>
</g>
<g>
</g>
</svg>
