<?xml version="1.0" encoding="iso-8859-1"?>
<!-- Generator: Adobe Illustrator 16.0.0, SVG Export Plug-In . SVG Version: 6.00 Build 0)  -->
<!DOCTYPE svg PUBLIC "-//W3C//DTD SVG 1.1//EN" "http://www.w3.org/Graphics/SVG/1.1/DTD/svg11.dtd">
<svg version="1.1" id="Capa_1" xmlns="http://www.w3.org/2000/svg" xmlns:xlink="http://www.w3.org/1999/xlink" x="0px" y="0px"
	 width="404.379px" height="404.379px" viewBox="0 0 404.379 404.379" style="enable-background:new 0 0 404.379 404.379;"
	 xml:space="preserve">
<g>
	<path d="M312.16,347.701c38.087-13.443,42.992-75.572,43.49-84.799c3.595-0.422,7.066-0.861,10.26-1.34
		c7.89-1.186,14.287-2.514,17.835-3.834c12.229-4.6,17.585-7.641,16.82-14.535c-0.775-6.885-7.65-9.965-9.181-13.77
		c-1.521-3.807,0-10.691-1.521-20.627c-1.521-9.964-0.774-77.255-35.189-133.091C320.259,19.871,294.622,0,225.418,0
		C133.657,0,87.757,25.991,58.687,97.117s-29.07,104.767-33.65,114.702c-4.59,9.936-16.82,18.352-19.125,25.283
		c-2.286,6.848-7.631,16.811,16.075,24.461c6.98,2.248,16.39,4.352,27.282,6.062c-1.301,15.875-1.999,51.236,14.946,70.285
		c6.082,6.838,14.038,10.805,23.141,11.99c11.456,14.812,29.347,17.242,39.713,16.18c14.497,10.988,33.02,18.896,47.047,23.859
		c-0.114,0.564-0.258,1.119-0.258,1.693c0,7.037,8.559,12.746,19.125,12.746h5.575c10.566,0,19.125-5.709,19.125-12.746
		c0-0.326-0.105-0.633-0.144-0.947c15.701-4.906,37.207-13.053,53.196-24.643C281.512,367.275,300.704,364.504,312.16,347.701z
		 M283.176,354.863c1.597-1.854,2.926-3.758,4.131-5.67c2.974,0.717,6.053,1.176,9.305,1.205c-4.849,3.461-10.107,5.135-14.65,5.834
		C282.382,355.783,282.784,355.322,283.176,354.863z M311.261,326.75c-3.949,2.688-8.425,4.438-13.674,4.553
		c-1.301,0.057-2.486-0.049-3.663-0.182c3.251-9.783,8.816-15.348,13.272-16.42c0.526-0.123,0.976-0.182,1.368-0.182
		c1.491,0,2.104,0.766,2.333,1.062C312.017,316.979,312.781,320.621,311.261,326.75z M299.613,265.359
		c10.251,0.631,23.553,0.268,36.701-0.66c-0.87,9.43-4.188,34.904-15.042,51.494c-0.611-2.992-1.759-5.145-2.858-6.541
		c-3.108-3.949-8.157-5.555-13.455-4.256c-6.655,1.607-15.176,8.396-19.88,22.053c-0.842-0.68-1.674-1.387-2.438-2.238
		c-12.298-13.799-11.332-46.664-9.726-60.492c5.824,0.047,11.179,0.133,15.778,0.248
		C292.987,265.053,296.697,265.207,299.613,265.359z M68.307,270.092c3.605,0.363,7.306,0.68,11.073,0.947
		c16.667,1.176,34.635,1.262,52.135-0.143c-1.798,14.057-6.847,39.455-20.062,52.393c-4.877-10.902-12.326-16.447-18.284-17.883
		c-5.326-1.299-10.337,0.307-13.455,4.256c-1.721,2.18-3.538,6.158-3.203,12.518C67.724,308.955,67.236,284.676,68.307,270.092z
		 M93.476,331.303c-1.951,0.086-3.691-0.115-5.355-0.459c-3.07-8.654-2.228-13.57-0.899-15.262c0.229-0.297,0.832-1.062,2.333-1.062
		c0.392,0,0.842,0.059,1.368,0.182c4.102,0.994,9.161,5.785,12.479,14.182C100.379,330.27,97.138,331.227,93.476,331.303z
		 M100.437,349.633c3.251-0.525,6.321-1.338,9.17-2.467c1.444,2.611,3.184,5.193,5.345,7.699c0.402,0.459,0.803,0.918,1.214,1.367
		C111.271,355.486,105.572,353.641,100.437,349.633z M122.191,348.629c-1.664-1.941-3.012-3.9-4.121-5.881
		c24.824-16.906,31.327-57.184,32.971-73.746c3.126-0.295,6.378-0.582,9.763-0.832c28.027-2.189,63.705-3.24,92.842-3.451
		c-1.396,13.941-3.404,52.852,14.679,73.191c2.888,3.25,6.292,5.709,9.936,7.707c-0.708,1.004-1.473,2.008-2.333,3.012
		c-14.296,16.639-44.954,27.98-64.193,33.795c-3.433-2.182-8.052-3.539-13.167-3.539h-5.575c-4.763,0-9.065,1.205-12.412,3.127
		C163.109,376.074,136.163,364.877,122.191,348.629z"/>
</g>
<g>
</g>
<g>
</g>
<g>
</g>
<g>
</g>
<g>
</g>
<g>
</g>
<g>
</g>
<g>
</g>
<g>
</g>
<g>
</g>
<g>
</g>
<g>
</g>
<g>
</g>
<g>
</g>
<g>
</g>
</svg>
