<?xml version="1.0" encoding="iso-8859-1"?>
<!-- Generator: Adobe Illustrator 16.0.0, SVG Export Plug-In . SVG Version: 6.00 Build 0)  -->
<!DOCTYPE svg PUBLIC "-//W3C//DTD SVG 1.1//EN" "http://www.w3.org/Graphics/SVG/1.1/DTD/svg11.dtd">
<svg version="1.1" id="Capa_1" xmlns="http://www.w3.org/2000/svg" xmlns:xlink="http://www.w3.org/1999/xlink" x="0px" y="0px"
	 width="565.353px" height="565.353px" viewBox="0 0 565.353 565.353" style="enable-background:new 0 0 565.353 565.353;"
	 xml:space="preserve">
<g>
	<g>
		<path d="M494.183,424.765c4.408-15.214-4.342-31.126-19.556-35.544l-9.82-2.85c-11.771-69.883-28.678-127.411-48.109-174.65
			c1.568-3.185,2.534-6.723,2.534-10.509c0-10.958-7.411-20.091-17.471-22.921C330.75,32.032,237.563,2.197,231.491,0.399
			c-5.04-1.511-10.385,1.396-11.886,6.455c-1.501,5.068,1.396,10.385,6.455,11.886c1.368,0.402,85.26,27.33,152.838,158.565h-65.81
			l-89.591-30.217c-5.938-1.989-12.106-1.454-17.423,0.937l-0.373-0.536l-95.032,57.452l94.43,160.038l0.603-0.401
			c3.615,4.963,8.74,8.874,15.089,10.72l158.67,46.053l6.12,36.51c2.353,14.019,14.497,23.954,28.258,23.944
			c1.577,0,3.175-0.124,4.781-0.392c15.625-2.62,26.162-17.414,23.542-33.039l-1.559-9.275l12.881,3.739
			c4.208,34.903,7.191,72.551,8.616,113.287c0.182,5.163,4.428,9.228,9.553,9.228c0.115,0,0.22,0,0.335-0.01
			c5.278-0.182,9.409-4.609,9.228-9.888c-1.387-39.665-4.207-76.5-8.166-110.781C482.842,442.389,491.18,435.111,494.183,424.765z
			 M260.819,327.17l15.893-10.787L367.25,348.6l1.664,9.944L260.819,327.17z M430.075,376.292l-9.017-53.808
			c-1.722-10.261-8.865-18.8-18.676-22.281l-118.9-42.295l-37.074-52.622l55.127,18.589c2.458,0.832,5.04,1.252,7.641,1.252h86.148
			c1.788,0,3.51-0.229,5.184-0.602c17.327,42.811,32.569,94.229,43.681,155.869L430.075,376.292z"/>
		<circle cx="127.403" cy="113.963" r="57.375"/>
	</g>
</g>
<g>
</g>
<g>
</g>
<g>
</g>
<g>
</g>
<g>
</g>
<g>
</g>
<g>
</g>
<g>
</g>
<g>
</g>
<g>
</g>
<g>
</g>
<g>
</g>
<g>
</g>
<g>
</g>
<g>
</g>
</svg>
