<?xml version="1.0" encoding="iso-8859-1"?>
<!-- Generator: Adobe Illustrator 16.0.0, SVG Export Plug-In . SVG Version: 6.00 Build 0)  -->
<!DOCTYPE svg PUBLIC "-//W3C//DTD SVG 1.1//EN" "http://www.w3.org/Graphics/SVG/1.1/DTD/svg11.dtd">
<svg version="1.1" id="Capa_1" xmlns="http://www.w3.org/2000/svg" xmlns:xlink="http://www.w3.org/1999/xlink" x="0px" y="0px"
	 width="437.867px" height="437.867px" viewBox="0 0 437.867 437.867" style="enable-background:new 0 0 437.867 437.867;"
	 xml:space="preserve">
<g>
	<g>
		<circle cx="218.274" cy="68.114" r="68.114"/>
		<path d="M106.096,144.508L14.449,293.396c-4.982,4.887-8.759,11.131-10.481,18.438c-4.867,20.549,7.861,41.166,28.43,46.014
			l355.477,78.986c2.964,0.697,5.909,1.033,8.826,1.033c17.327,0,33.038-11.857,37.198-29.463
			c4.867-20.549-7.86-41.166-28.43-46.014l-252.89-56.18l51.246-85.633l130.815,57.613c3.136,1.387,6.406,2.037,9.629,2.037
			c9.189,0,17.949-5.336,21.889-14.275c5.326-12.088-0.162-26.193-12.24-31.52l-137.155-60.406l-83.241-37.877
			C123.911,131.771,111.623,135.52,106.096,144.508z"/>
	</g>
</g>
<g>
</g>
<g>
</g>
<g>
</g>
<g>
</g>
<g>
</g>
<g>
</g>
<g>
</g>
<g>
</g>
<g>
</g>
<g>
</g>
<g>
</g>
<g>
</g>
<g>
</g>
<g>
</g>
<g>
</g>
</svg>
