<?xml version="1.0" encoding="iso-8859-1"?>
<!-- Generator: Adobe Illustrator 16.0.0, SVG Export Plug-In . SVG Version: 6.00 Build 0)  -->
<!DOCTYPE svg PUBLIC "-//W3C//DTD SVG 1.1//EN" "http://www.w3.org/Graphics/SVG/1.1/DTD/svg11.dtd">
<svg version="1.1" id="Capa_1" xmlns="http://www.w3.org/2000/svg" xmlns:xlink="http://www.w3.org/1999/xlink" x="0px" y="0px"
	 width="464.229px" height="464.229px" viewBox="0 0 464.229 464.229" style="enable-background:new 0 0 464.229 464.229;"
	 xml:space="preserve">
<g>
	<g>
		<circle cx="49.983" cy="86.818" r="49.983"/>
		<path d="M430.639,378.225c7.916,0,14.344-6.426,14.344-14.344V216.801c3.461-1.626,6.75-3.768,9.59-6.646
			c12.986-13.158,12.861-34.349-0.287-47.335l-98.684-97.47c-10.061-9.926-25.246-12.479-38.002-6.359l-68.113,32.666
			l-99.221-22.969c-18.006-4.16-35.983,7.047-40.153,25.063c-0.545,2.353-0.793,4.695-0.841,7.009
			c-2.305,6.292-2.066,13.483,1.444,19.804l64.633,116.442l-64.26,16.582v-33.957c0-7.918-6.426-14.344-14.344-14.344
			c-7.918,0-14.344,6.426-14.344,14.344v193.419c0,7.918,6.426,14.344,14.344,14.344c7.917,0,14.344-6.426,14.344-14.344V273.344
			l73.851-19.059l11.341,20.436c4.361,7.869,12.518,12.307,20.923,12.307c3.93,0,7.908-0.965,11.58-3.002
			c11.551-6.408,15.711-20.951,9.305-32.494l-5.317-9.572l163.624-42.228l10.854,10.72c2.705,2.678,5.814,4.657,9.055,6.226v147.214
			C416.295,371.799,422.721,378.225,430.639,378.225z M214.668,209.342l35.792,8.281l-27.291,7.038L214.668,209.342z
			 M296.84,205.651c0.182-0.574,0.42-1.119,0.555-1.712c2.982-12.861-5.031-25.704-17.902-28.678l-65.101-15.07l-5.278-9.18
			l36.719,8.501c7.422,1.693,15.166,0.851,22.023-2.429l57.461-27.569l55.213,54.535L296.84,205.651z"/>
	</g>
</g>
<g>
</g>
<g>
</g>
<g>
</g>
<g>
</g>
<g>
</g>
<g>
</g>
<g>
</g>
<g>
</g>
<g>
</g>
<g>
</g>
<g>
</g>
<g>
</g>
<g>
</g>
<g>
</g>
<g>
</g>
</svg>
