<?xml version="1.0" encoding="iso-8859-1"?>
<!-- Generator: Adobe Illustrator 16.0.0, SVG Export Plug-In . SVG Version: 6.00 Build 0)  -->
<!DOCTYPE svg PUBLIC "-//W3C//DTD SVG 1.1//EN" "http://www.w3.org/Graphics/SVG/1.1/DTD/svg11.dtd">
<svg version="1.1" id="Capa_1" xmlns="http://www.w3.org/2000/svg" xmlns:xlink="http://www.w3.org/1999/xlink" x="0px" y="0px"
	 width="450.229px" height="450.229px" viewBox="0 0 450.229 450.229" style="enable-background:new 0 0 450.229 450.229;"
	 xml:space="preserve">
<g>
	<g>
		<path d="M450.053,271.48c-8.214-123.863-98.962-209.639-141.592-243.414c-11.742-9.295-33.976-17.05-48.932-17.739
			c-76.471-3.48-123.06,8.062-148.151,17.901c-13.942,5.479-11.752,11.332,2.993,13.971c26.966,4.838,72.111,21.133,126.005,72.923
			c26.861,25.819,50.624,59.46,70.418,92.958v138.245c-2.811,1.664-4.781,4.59-4.781,8.1v54.869c0,6.675-5.431,12.115-12.105,12.115
			H94.166c-6.675,0-12.116-5.431-12.116-12.115v-54.869c0-3.5-1.97-6.436-4.781-8.1v-67.358h-9.562v67.358
			c-2.812,1.664-4.781,4.59-4.781,8.1v54.869c0,17.222,14.009,31.24,31.241,31.24h199.751c17.222,0,31.23-14.019,31.23-31.24
			v-54.869c0-3.5-1.97-6.436-4.781-8.1V224.805c20.254,36.48,35.582,71.202,44.743,93.578c5.661,13.876,22.108,24.872,36.414,20.416
			C455.81,321.913,450.053,271.48,450.053,271.48z"/>
		<path d="M35.232,271.776c13.75,5.451,39.933,12.977,58.073,0.048c4.542-3.232,7.421-11.484,7.717-17.04
			c1.654-30.591,9.409-123.643,43.958-184.518c0,0-64.958-40.861-113.545,27.215c-44.695,62.625-35.181,129.189-11.8,162.294
			C22.887,264.327,30.059,269.701,35.232,271.776z"/>
	</g>
</g>
<g>
</g>
<g>
</g>
<g>
</g>
<g>
</g>
<g>
</g>
<g>
</g>
<g>
</g>
<g>
</g>
<g>
</g>
<g>
</g>
<g>
</g>
<g>
</g>
<g>
</g>
<g>
</g>
<g>
</g>
</svg>
