<?xml version="1.0" encoding="iso-8859-1"?>
<!-- Generator: Adobe Illustrator 16.0.0, SVG Export Plug-In . SVG Version: 6.00 Build 0)  -->
<!DOCTYPE svg PUBLIC "-//W3C//DTD SVG 1.1//EN" "http://www.w3.org/Graphics/SVG/1.1/DTD/svg11.dtd">
<svg version="1.1" id="Capa_1" xmlns="http://www.w3.org/2000/svg" xmlns:xlink="http://www.w3.org/1999/xlink" x="0px" y="0px"
	 width="562.382px" height="562.381px" viewBox="0 0 562.382 562.381" style="enable-background:new 0 0 562.382 562.381;"
	 xml:space="preserve">
<g>
	<g>
		<path d="M538.476,264.066h-19.307c-1.597-5.011-3.49-10.107-5.891-15.366c-3.289-7.211-11.791-10.404-18.991-7.115
			c-7.21,3.29-10.395,11.781-7.114,18.991c0.545,1.186,0.984,2.333,1.473,3.49H350.41v-34.568c0-5.288-4.274-9.562-9.562-9.562
			h-207.19c-5.288,0-9.562,4.274-9.562,9.562v72.264c0,5.288,4.274,9.562,9.562,9.562h179.822c1.635,0.354,3.328,0.564,5.059,0.564
			h171.561c-3.395,5.212-7.621,8.291-10.05,9.764H133.657c-7.918,0-14.344,6.426-14.344,14.344c0,7.917,6.426,14.344,14.344,14.344
			h349.834c1.836,0,3.662-0.354,5.364-1.043c2.181-0.879,21.535-9.246,30.687-32.148c0.679-1.712,1.195-3.481,1.721-5.25h17.213
			c13.206,0,23.906-10.7,23.906-23.906C562.382,274.767,551.682,264.066,538.476,264.066z"/>
		<path d="M103.908,283.965c10.136-27.808-4.188-58.531-31.986-68.668c-27.779-10.126-58.522,4.16-68.668,31.978
			c-10.136,27.816,4.208,58.551,31.986,68.668C63.029,326.079,93.753,311.783,103.908,283.965z"/>
	</g>
</g>
<g>
</g>
<g>
</g>
<g>
</g>
<g>
</g>
<g>
</g>
<g>
</g>
<g>
</g>
<g>
</g>
<g>
</g>
<g>
</g>
<g>
</g>
<g>
</g>
<g>
</g>
<g>
</g>
<g>
</g>
</svg>
