<?xml version="1.0" encoding="iso-8859-1"?>
<!-- Generator: Adobe Illustrator 16.0.0, SVG Export Plug-In . SVG Version: 6.00 Build 0)  -->
<!DOCTYPE svg PUBLIC "-//W3C//DTD SVG 1.1//EN" "http://www.w3.org/Graphics/SVG/1.1/DTD/svg11.dtd">
<svg version="1.1" id="Capa_1" xmlns="http://www.w3.org/2000/svg" xmlns:xlink="http://www.w3.org/1999/xlink" x="0px" y="0px"
	 width="530.462px" height="530.462px" viewBox="0 0 530.462 530.462" style="enable-background:new 0 0 530.462 530.462;"
	 xml:space="preserve">
<g>
	<g>
		<circle cx="66.039" cy="373.646" r="66.039"/>
		<path d="M151.451,416.946l-58.685,52.613c-11.791,10.566-12.785,28.706-2.209,40.507c10.557,11.771,28.688,12.784,40.506,2.208
			l69.596-62.395c6.856-6.149,10.347-15.214,9.381-24.375l-3.204-30.447l15.587,17.911v83.882c0,15.845,12.842,28.688,28.688,28.688
			c15.846,0,28.688-12.843,28.688-28.688v-94.621c0-6.923-2.506-13.617-7.047-18.838l-40.498-46.531l28.821-28.372l5.823,20.646
			c0.822,2.926,1.999,5.737,3.481,8.387l68.133,120.927c7.028,12.47,20.005,19.479,33.363,19.479c6.359,0,12.805-1.588,18.742-4.935
			c18.408-10.375,24.911-33.698,14.555-52.106l-65.896-116.93l-23.896-84.666L514.73,74.092
			c17.069-12.441,20.837-36.366,8.396-53.436c-12.44-17.088-36.366-20.827-53.444-8.396L253.798,169.488
			c-0.86,0.621-1.53,1.396-2.324,2.075l-0.363-0.44l-104.489,118.25c-0.058,0.058-0.115,0.114-0.163,0.182l-0.019,0.02
			c-4.667,5.775-7.048,13.311-6.226,21.057L151.451,416.946z"/>
	</g>
</g>
<g>
</g>
<g>
</g>
<g>
</g>
<g>
</g>
<g>
</g>
<g>
</g>
<g>
</g>
<g>
</g>
<g>
</g>
<g>
</g>
<g>
</g>
<g>
</g>
<g>
</g>
<g>
</g>
<g>
</g>
</svg>
