<?xml version="1.0" encoding="iso-8859-1"?>
<!-- Generator: Adobe Illustrator 16.0.0, SVG Export Plug-In . SVG Version: 6.00 Build 0)  -->
<!DOCTYPE svg PUBLIC "-//W3C//DTD SVG 1.1//EN" "http://www.w3.org/Graphics/SVG/1.1/DTD/svg11.dtd">
<svg version="1.1" id="Capa_1" xmlns="http://www.w3.org/2000/svg" xmlns:xlink="http://www.w3.org/1999/xlink" x="0px" y="0px"
	 width="527.336px" height="527.336px" viewBox="0 0 527.336 527.336" style="enable-background:new 0 0 527.336 527.336;"
	 xml:space="preserve">
<g>
	<g>
		<path d="M25.246,297.901c6.283,8.492,19.689,15.367,29.94,15.367s18.561,0,18.561,0s2.802,0.02,7.88,0.067
			c-0.019,0.507-0.153,0.975-0.153,1.481c0,27.119,21.994,49.123,49.123,49.123c27.129,0,49.123-21.994,49.123-49.123
			c0-0.268-0.076-0.516-0.076-0.784c58.79,0.373,132.307,0.746,194.244,0.775l0,0c0,27.119,21.993,49.122,49.122,49.122
			s49.123-21.994,49.123-49.122c0-0.163-0.048-0.307-0.048-0.469c15.759-0.239,26.058-0.593,28.668-1.081
			c9.582-1.798,17.309-12.249,22.549-21.937c5.021-9.294,5.029-18.293,1.826-19.249c-0.976-0.287-2.075-1.443-3.337-3.031
			c-17.921,1.157-38.509-5.948-52.671-12.202c-9.667-4.265-8.539-8.549,2.027-8.549h30.887
			c-27.702-18.216-81.242-25.799-109.844-28.639c-10.519-1.042-26.422-5.929-35.688-10.997
			c-22.338-12.211-62.931-32.532-94.774-38.106c-33.229-5.814-89.639-3.299-119.015-1.406c-10.538,0.679-17.767,3.749-16.161,6.627
			s-5.613,6.177-15.989,8.186c-44.026,8.53-73.038,25.953-91.14,41.453c11.972,2.181,28.888,4.982,42.974,6.254
			c10.519,0.956,11.628,4.867,1.357,7.344c-12.412,2.993-31.432,4.466-56.811-1.549c-0.708,0.774-1.435,1.568-2.084,2.305
			c-6.933,7.966-6.072,22.366,0.21,30.858L25.246,297.901z M335.989,217.921c-51.58,5.059-109.07,0-109.07,0l-12.756-28.955
			C309.31,188.812,335.989,217.921,335.989,217.921z M197.916,189.119l9.275,27.846c0,0-87.105,4.408-118.345-5.805
			C88.846,211.17,125.977,186.795,197.916,189.119z"/>
		<path d="M370.338,117.84h145.828c5.288,0,9.562-4.274,9.562-9.562s-4.274-9.562-9.562-9.562H370.338
			c-5.288,0-9.562,4.274-9.562,9.562S365.05,117.84,370.338,117.84z"/>
		<path d="M310.572,151.404H456.4c5.288,0,9.562-4.274,9.562-9.562s-4.274-9.562-9.562-9.562H310.572
			c-5.288,0-9.562,4.274-9.562,9.562C301.01,147.12,305.284,151.404,310.572,151.404z"/>
		<path d="M353.604,385.494c0-5.288-4.274-9.562-9.562-9.562H198.212c-5.288,0-9.562,4.274-9.562,9.562s4.274,9.562,9.562,9.562
			h145.829C349.329,395.057,353.604,390.782,353.604,385.494z"/>
		<path d="M138.447,409.496c-5.288,0-9.562,4.274-9.562,9.562s4.274,9.562,9.562,9.562h145.829c5.288,0,9.562-4.274,9.562-9.562
			s-4.274-9.562-9.562-9.562H138.447z"/>
	</g>
</g>
<g>
</g>
<g>
</g>
<g>
</g>
<g>
</g>
<g>
</g>
<g>
</g>
<g>
</g>
<g>
</g>
<g>
</g>
<g>
</g>
<g>
</g>
<g>
</g>
<g>
</g>
<g>
</g>
<g>
</g>
</svg>
