<?xml version="1.0" encoding="iso-8859-1"?>
<!-- Generator: Adobe Illustrator 16.0.0, SVG Export Plug-In . SVG Version: 6.00 Build 0)  -->
<!DOCTYPE svg PUBLIC "-//W3C//DTD SVG 1.1//EN" "http://www.w3.org/Graphics/SVG/1.1/DTD/svg11.dtd">
<svg version="1.1" id="Capa_1" xmlns="http://www.w3.org/2000/svg" xmlns:xlink="http://www.w3.org/1999/xlink" x="0px" y="0px"
	 width="559.032px" height="559.032px" viewBox="0 0 559.032 559.032" style="enable-background:new 0 0 559.032 559.032;"
	 xml:space="preserve">
<g>
	<g>
		<path d="M3.059,324.315c3.375,0,6.569,4.332,7.134,9.678c0.564,5.346,6.713,9.677,13.741,9.677h12.728h6.952
			c10.213,17.634,29.242,29.529,51.083,29.529c21.85,0,40.879-11.896,51.092-29.529h205.775
			c10.213,17.634,29.242,29.529,51.093,29.529c21.506,0,40.268-11.532,50.604-28.706c8.482,1.854,15.453,6.684,19.623,10.423
			c2.562,2.295,6.32,4.035,11.81,4.035c8.769,0,25.475,0,39.062,0c11.6,0,19.881-3.873,18.475-8.654
			c-1.405-4.781,4.676-11.044,10.729-17.566c3.375-3.634,6.072-8.434,6.072-14.516c0-13.34-153.688-69.72-209.313-89.677
			c-10.931-3.921-27.464-1.587-37.543,4.169c-17.098,9.782-44.523,22.845-73.115,26.049c0.43-2.104,0.851-4.322,1.205-6.637
			c0.009-0.058-0.019-0.105-0.01-0.163c4.581-24.871-10.146-42.218-13.11-45.412c-0.392-0.966-1.167-1.902-2.467-2.715
			c-4.083-2.582-10.002-4.849-18.198-4.849c-14.583,0-24.776,11.197-26.89,22.845c-1.033,5.709,1.568,14.994,3.605,20.426
			c1.071,2.85,2.295,5.47,3.739,7.812c-11.494-7.038-15.214-18.762-15.883-29.128c-0.746-11.58-6.771-17.547-17.633-13.482
			l-37.007,13.808c-10.873,4.064-21.277,4.16-23.247,0.229c-1.97-3.939,0.995-7.133,6.617-7.133c5.623,0,10.643-3.194,11.198-7.134
			c0.564-3.931-8.262-8.645-19.718-10.52l-64.432-10.527c-11.446-1.875-16.4,4.131-11.054,13.406
			c5.345,9.275,14,17.03,19.345,17.308c5.346,0.277,14.688,5.298,20.875,11.198c6.177,5.909,1.358,12.239-7.506,19.736
			c-4.954,4.188-9.754,10.261-12.766,19.029c-3.768,10.969-9.075,20.685-16.39,20.685s-15.291,8.224-17.825,18.379
			C-0.996,316.082-0.317,324.315,3.059,324.315z M221.954,213.41c1.157-0.354,2.114-0.86,2.936-1.435
			c3.672,4.552,11.035,15.664,10.93,30.829c-1.454-0.984-3.079-1.75-4.934-1.979c-11.867-1.425-24.059-4.818-25.083-12.67
			C204.818,220.61,213.118,216.078,221.954,213.41z"/>
	</g>
</g>
<g>
</g>
<g>
</g>
<g>
</g>
<g>
</g>
<g>
</g>
<g>
</g>
<g>
</g>
<g>
</g>
<g>
</g>
<g>
</g>
<g>
</g>
<g>
</g>
<g>
</g>
<g>
</g>
<g>
</g>
</svg>
