<?xml version="1.0" encoding="iso-8859-1"?>
<!-- Generator: Adobe Illustrator 16.0.0, SVG Export Plug-In . SVG Version: 6.00 Build 0)  -->
<!DOCTYPE svg PUBLIC "-//W3C//DTD SVG 1.1//EN" "http://www.w3.org/Graphics/SVG/1.1/DTD/svg11.dtd">
<svg version="1.1" id="Capa_1" xmlns="http://www.w3.org/2000/svg" xmlns:xlink="http://www.w3.org/1999/xlink" x="0px" y="0px"
	 width="581.906px" height="581.906px" viewBox="0 0 581.906 581.906" style="enable-background:new 0 0 581.906 581.906;"
	 xml:space="preserve">
<g>
	<g>
		<path d="M484.531,189.787c-36.203,0-69.213,19.909-85.736,51.217l-56.506,97.815H165.116c-25.924,0-47.009-21.468-47.009-47.86
			c0-25.915,21.085-47,47.009-47c17.452,0,33.125,8.472,41.205,22.185c21.611,50.681,75.878,52.183,82.391,52.183
			c0.009,0,0.009,0,0.009,0c50.5,0,91.59-41.09,91.59-91.59s-41.08-91.59-91.991-91.59H114.731c-22.089,0-46.359,13.77-57.7,32.713
			l-40.812,68.181C6.818,251.752,0,274.128,0,289.246c0,15.577,7.679,38.098,18.246,53.531l50.06,73.229
			c12.173,17.824,36.682,30.753,58.274,30.753h166.817c22.242,0,46.436-13.98,57.527-33.22l17.262-29.864h116.346
			c53.693,0,97.375-43.299,97.375-96.514C581.916,233.468,538.225,189.787,484.531,189.787z M283.28,356.758h45.498v8.97H283.28
			V356.758L283.28,356.758z M192.292,356.758h45.489v8.97h-45.489V356.758z M148.219,354.472l-2.381,8.645
			c-15.462-4.265-29.424-13.77-39.312-26.765l7.143-5.432C122.372,342.356,134.64,350.733,148.219,354.472z M100.167,290.948
			l-8.97,0.383v-0.383c0-16.294,5.202-31.757,15.051-44.714l7.144,5.431C104.738,263.045,100.167,276.624,100.167,290.948z
			 M189.921,230.504c-13.12-5.001-28.142-5.967-41.912-2.228l-2.353-8.654c15.587-4.246,32.56-3.175,47.468,2.505L189.921,230.504z
			 M253.646,291.818c-14.63-7.392-25.168-18.8-31.308-33.899l-0.459-0.736l7.755-4.513l0.765,1.348
			c5.556,13.55,14.65,23.399,27.292,29.787L253.646,291.818z M350.943,187.329c7.469,11.781,11.418,25.408,11.418,39.407
			c0,2.314-0.115,4.59-0.314,6.847l-8.941-0.832c0.182-1.979,0.277-3.978,0.277-6.005c0-12.297-3.463-24.26-10.031-34.597
			L350.943,187.329z M342.566,276.968c-11.092,11.886-25.99,19.851-41.939,22.453l-1.436-8.854c14-2.276,27.072-9.276,36.816-19.718
			L342.566,276.968z M267.349,153.096h20.971c9.046,0,17.509,1.482,25.56,4.417l-3.068,8.425c-7.066-2.572-14.498-3.873-22.09-3.873
			h-21.372V153.096z M176.361,153.096h45.499v8.969h-45.499V153.096z M114.731,153.096h16.142v8.969h-16.142
			c-7.679,0-16.849,3.366-24.518,8.999l-5.307-7.229C94.047,157.112,105.197,153.096,114.731,153.096z M31.977,331.006
			c-7.994-12.46-14.028-30.418-14.028-41.76c0-1.233,0.067-2.553,0.201-3.949l8.941,0.813c-0.105,1.109-0.163,2.151-0.163,3.136
			c0,9.524,5.651,26.087,12.613,36.911L31.977,331.006z M34.177,240.975l23.361-39.043l7.698,4.609l-23.361,39.034L34.177,240.975z
			 M87.086,403.719l-3.71,2.516L57.71,368.701l7.401-5.068l25.427,37.188L87.086,403.719z M171.58,428.82h-45.001l-0.488-4.484
			l0.488-4.485h45.001V428.82z M262.577,428.82h-45.498v-8.97h45.498V428.82z M126.579,401.902c-6.598,0-17.509-5.757-21.229-11.207
			l-50.079-73.249c-6.254-9.142-10.414-23.026-10.414-28.19c0-6.206,4.399-21.047,9.859-30.17l40.813-68.171
			c3.165-5.297,13.034-10.892,19.201-10.892h173.99c25.762,0,46.723,20.961,46.723,46.722c0,25.762-20.961,46.723-47.009,46.723
			c-3.146,0-31.011-0.717-41.157-25.666l-1.157-2.419c-15.807-28.544-46.837-46.283-81.004-46.283
			c-50.652,0-91.867,41.214-91.867,91.867c0,51.131,41.214,92.728,91.867,92.728h151.259l-4.303,7.439
			c-3.021,5.24-12.623,10.786-18.676,10.786H126.579V401.902z M335.387,404.57c-5.098,8.845-14.852,16.705-26.078,21.047
			l-3.232-8.367c9.238-3.566,17.5-10.137,21.545-17.165l7.229-12.517l7.775,4.484L335.387,404.57z M518.383,215.29l-3.824,8.119
			c-12.947-6.111-27.645-8.09-41.721-5.738l-1.482-8.855C487.258,206.148,503.801,208.396,518.383,215.29z M414.334,249.973
			c3.797-7.182,8.77-13.837,14.707-19.642l6.264,6.426c-5.27,5.145-9.688,11.054-13.121,17.557l-11.168,19.354l-7.773-4.485
			L414.334,249.973z M365.422,352.588l-7.775-4.484l22.789-39.445l7.773,4.484L365.422,352.588z M419.766,365.728h-45.498v-8.97
			h45.498V365.728z M484.531,365.728h-19.287v-8.97h19.287c8.33,0,16.467-1.396,24.184-4.16l3.014,8.444
			C503.045,364.159,493.895,365.728,484.531,365.728z M484.531,338.809h-90.422h-0.01l43.949-76.108
			c9.143-17.298,26.957-28.047,46.482-28.047c28.957,0,52.518,23.553,52.518,52.508
			C537.049,316.117,513.984,338.809,484.531,338.809z M549.615,332.411l-7.316-5.192c8.311-11.704,12.699-25.561,12.699-40.066
			c0-12.393-3.26-24.576-9.428-35.238l7.764-4.494c6.961,12.02,10.643,25.761,10.643,39.732
			C563.967,303.532,559.004,319.187,549.615,332.411z"/>
	</g>
</g>
<g>
</g>
<g>
</g>
<g>
</g>
<g>
</g>
<g>
</g>
<g>
</g>
<g>
</g>
<g>
</g>
<g>
</g>
<g>
</g>
<g>
</g>
<g>
</g>
<g>
</g>
<g>
</g>
<g>
</g>
</svg>
