<?xml version="1.0" encoding="iso-8859-1"?>
<!-- Generator: Adobe Illustrator 16.0.0, SVG Export Plug-In . SVG Version: 6.00 Build 0)  -->
<!DOCTYPE svg PUBLIC "-//W3C//DTD SVG 1.1//EN" "http://www.w3.org/Graphics/SVG/1.1/DTD/svg11.dtd">
<svg version="1.1" id="Capa_1" xmlns="http://www.w3.org/2000/svg" xmlns:xlink="http://www.w3.org/1999/xlink" x="0px" y="0px"
	 width="510.551px" height="510.551px" viewBox="0 0 510.551 510.551" style="enable-background:new 0 0 510.551 510.551;"
	 xml:space="preserve">
<g>
	<g>
		<path d="M0,340.162c0,47.392,38.413,85.804,85.804,85.804c36.003,0,66.775-22.194,79.512-53.636
			c1.626,0.373,3.271,0.631,4.925,0.631h172.507c0.918,0,1.77-0.134,2.631-0.248c12.822,31.25,43.51,53.253,79.369,53.253
			c47.381,0,85.803-38.412,85.803-85.804s-38.422-85.805-85.803-85.805c-0.729,0-1.416,0.096-2.152,0.115
			c21.898-7.736,41.281-9.773,55.156-9.773c5.574,0,11.092,0.296,16.391,0.899c1.596,0.182,3.021,0.268,4.264,0.268
			c1.627,0,6.57,0,8.033-3.442c1.396-3.309-1.654-6.464-2.658-7.497c-5.174-5.355-16.4-11.771-25.551-14.602l-111.117-34.406
			c0.26-2.611-0.209-5.326-1.549-7.803l-1.959-3.662c3.738,2.037,7.85,3.509,12.287,4.198c0.393,0.058,0.766,0.086,1.139,0.086
			c4.121,0,7.457-3.509,7.457-7.822v-58.991c0-4.714-3.977-8.454-8.596-7.755c-17.461,2.735-30.246,16.964-31.566,34.349
			l-25.072-46.732c-2.381-4.437-7-7.201-12.049-7.201h-91.561c-7.554,0-13.674,6.12-13.674,13.665
			c0,7.544,6.12,13.674,13.674,13.674h83.395l35.209,65.608c-7.967,0.411-15.865,3.987-20.436,9.534l-43.375,52.594
			c-4.867,5.9-15.692,9.036-23.017,6.617c-37.428-12.364-131.666-43.012-198.327-60.521c-2.199-0.583-4.638-0.88-7.229-0.88
			c-9.046,0-18.197,3.423-23.333,8.73c-5.91,6.111-10.72,12.087-14.306,17.758c-2.505,3.968-2.897,8.386-1.109,12.431
			c2.094,4.752,6.799,8.186,12.613,9.208c18.924,3.356,50.452,10.156,76.873,21.698c-2.248-0.173-4.504-0.345-6.799-0.345
			C38.413,254.367,0,292.771,0,340.162z"/>
	</g>
</g>
<g>
</g>
<g>
</g>
<g>
</g>
<g>
</g>
<g>
</g>
<g>
</g>
<g>
</g>
<g>
</g>
<g>
</g>
<g>
</g>
<g>
</g>
<g>
</g>
<g>
</g>
<g>
</g>
<g>
</g>
</svg>
