<?xml version="1.0" encoding="iso-8859-1"?>
<!-- Generator: Adobe Illustrator 16.0.0, SVG Export Plug-In . SVG Version: 6.00 Build 0)  -->
<!DOCTYPE svg PUBLIC "-//W3C//DTD SVG 1.1//EN" "http://www.w3.org/Graphics/SVG/1.1/DTD/svg11.dtd">
<svg version="1.1" id="Capa_1" xmlns="http://www.w3.org/2000/svg" xmlns:xlink="http://www.w3.org/1999/xlink" x="0px" y="0px"
	 width="513.371px" height="513.371px" viewBox="0 0 513.371 513.371" style="enable-background:new 0 0 513.371 513.371;"
	 xml:space="preserve">
<g>
	<g>
		<path d="M6.263,486.178l60.578,22.28c25.59,9.409,49.132,4.925,54.784-10.423l6.598-17.949c1.826-4.953-0.708-10.451-5.671-12.278
			c-4.963-1.826-10.451,0.718-12.278,5.671l-6.598,17.948c-0.822,2.229-12.852,5.461-30.228-0.927l-60.578-22.281
			c-4.963-1.826-10.452,0.708-12.278,5.671C-1.234,478.863,1.3,484.361,6.263,486.178z"/>
		<path d="M318.928,154.311c16.284-15.577,16.926-41.329,1.549-57.719l-10.624,30.38c-16.896,5.527-25.111-8.415-25.111-8.415
			l12.308-34.291c-12.25-1.951-25.207,1.491-34.855,10.71c-16.391,15.683-16.964,41.663-1.301,58.054
			C276.547,169.391,302.538,169.974,318.928,154.311z"/>
		<path d="M77.485,466.231L187.635,360.9l133.989-128.129c0.469-0.372,0.966-0.669,1.405-1.09l79.952-76.452
			c8.406-8.052,8.712-21.382,0.67-29.797c-2.065-2.161-4.494-3.768-7.086-4.857c0-0.038,0.028-0.076,0.028-0.124
			c1.272-0.411,2.506-1.014,3.605-1.865c2.104-1.625,3.557-3.863,4.083-6.292c0.555-2.572,0.048-5.039-1.453-6.952
			c-0.239-0.315-0.546-0.583-0.852-0.851l12.269-11.552l96.275-79.646c2.61-2.16,3.548-4.694,2.305-6.301
			c-0.392-0.507-0.918-0.871-1.511-1.081c0.89-1.521,0.898-3.318-0.115-4.628c-1.396-1.798-4.6-1.674-7.066,0.248l-97.509,75.42
			c-0.842,0.65-1.521,1.052-1.846,1.262h-0.688c-1.31-0.009-3.155,1.187-4.456,2.19l-17.633,13.646
			c-2.085,1.597-3.931,4.762-4.294,7.354l-0.315,2.181c-0.258,1.864-1.271,4.829-2.181,6.474l-6.903,12.498
			c-0.804,1.511-2.009,3.787-3.061,4.532c-1.444,0.976-3.558,1.55-6.158,1.626c-2.419,0.086-5.861,1.186-7.812,3.099l-34.979,34.769
			c-3.672,3.653-3.845,9.734-0.44,13.637l-12.574,12.02l-16.142-16.878c-6.436-6.731-17.107-6.961-23.829-0.535L143.006,289.86
			c-6.731,6.436-6.971,17.107-0.535,23.83l10.193,10.662L42.543,429.682c-10.099,9.649-10.462,25.666-0.804,35.765
			C51.388,475.535,67.396,475.888,77.485,466.231z M393.926,112.083l5.298-4.982c0.201,0.172,0.421,0.373,0.583,0.593
			c0.784,1.014,1.053,2.343,0.728,3.787c-0.335,1.559-1.282,3.002-2.678,4.102c-0.966,0.728-2.047,1.101-3.137,1.301
			c-0.411-0.344-0.812-0.707-1.329-0.946L391.335,115C392.206,113.9,393.152,112.82,393.926,112.083z"/>
	</g>
</g>
<g>
</g>
<g>
</g>
<g>
</g>
<g>
</g>
<g>
</g>
<g>
</g>
<g>
</g>
<g>
</g>
<g>
</g>
<g>
</g>
<g>
</g>
<g>
</g>
<g>
</g>
<g>
</g>
<g>
</g>
</svg>
