<?xml version="1.0" encoding="iso-8859-1"?>
<!-- Generator: Adobe Illustrator 16.0.0, SVG Export Plug-In . SVG Version: 6.00 Build 0)  -->
<!DOCTYPE svg PUBLIC "-//W3C//DTD SVG 1.1//EN" "http://www.w3.org/Graphics/SVG/1.1/DTD/svg11.dtd">
<svg version="1.1" id="Capa_1" xmlns="http://www.w3.org/2000/svg" xmlns:xlink="http://www.w3.org/1999/xlink" x="0px" y="0px"
	 width="522.67px" height="522.671px" viewBox="0 0 522.67 522.671" style="enable-background:new 0 0 522.67 522.671;"
	 xml:space="preserve">
<g>
	<g>
		<path d="M492.795,395.292c-4.149-4.638-21.936-5.23-27.521-5.308c-0.928,0-1.846-0.736-2.056-1.645l-2.343-10.452
			c-0.201-0.908-1.081-1.874-1.97-2.161l-21.182-6.817c-0.88-0.277-2.353-0.641-3.279-0.594c-1.846,0.105-4.686,0.89-5.613,4.562
			c-1.396,5.604,2.237,7.287,4.484,7.287c1.798,0,12.613,0.898,16.83,1.253c0.928,0.076,1.654,0.898,1.616,1.826l-0.172,5.039
			c-0.029,0.928-0.804,1.684-1.731,1.712c-5.632,0.134-23.619,0.908-27.712,5.26h-1.176l-0.345,0.019
			c-1.128,0.153-27.606,4.103-28.219,24.471c-0.727,24.394,12.02,38.938,35.926,40.956c15.349,1.291,21.736,1.568,24.395,1.568
			c0.832,0,1.616,0,2.285-0.162h0.22c0.517,0.066,1.664,0.162,4.026,0.162c4.055,0,12.105-0.277,27.463-1.568
			c23.897-2.018,36.653-16.562,35.917-40.956c-0.621-20.378-27.76-24.317-28.917-24.471h-0.928V395.292z"/>
		<circle cx="430.621" cy="116.908" r="56.505"/>
		<path d="M28.68,407.981c3.223,0,6.493-0.555,9.696-1.702l83.672-30.036c4.342-1.559,8.243-4.141,11.379-7.525l47.516-51.428
			c0.918,0.364,1.789,0.804,2.764,1.062l70.619,19.24l-17.873,83.337c-3.328,15.491,6.541,30.743,22.032,34.062
			c2.027,0.431,4.045,0.641,6.043,0.641c13.234,0,25.13-9.218,28.027-22.682l23.562-109.883
			c3.194-14.898-5.813-29.683-20.511-33.688l-30.505-8.311l94.765-58.866l20.396,82.648c1.473,6.015,5.24,11.217,10.49,14.516
			l83.672,52.594c3.949,2.486,8.348,3.672,12.699,3.672c7.946,0,15.721-3.958,20.253-11.188c7.028-11.179,3.662-25.934-7.516-32.952
			l-75.496-47.459l-20.406-82.658c-1.291-5.221-4.236-9.543-8.1-12.708l-41.177-54.268c-2.811-7.334-9.132-13.148-17.384-14.87
			L234.513,98.013c-3.05-0.65-6.197-0.688-9.228-0.115l-90.041,16.601c-12.986,2.391-21.573,14.86-19.173,27.846
			c2.391,12.986,14.87,21.583,27.846,19.173l85.412-15.75l67.817,14.19l-106.459,67.75c-4.485,1.473-8.702,3.939-12.125,7.65
			l-82.496,89.275l-77.064,27.664C4.095,357.654-3.66,374.072,1.695,388.99C5.883,400.694,16.918,407.981,28.68,407.981z"/>
	</g>
</g>
<g>
</g>
<g>
</g>
<g>
</g>
<g>
</g>
<g>
</g>
<g>
</g>
<g>
</g>
<g>
</g>
<g>
</g>
<g>
</g>
<g>
</g>
<g>
</g>
<g>
</g>
<g>
</g>
<g>
</g>
</svg>
