<?xml version="1.0" encoding="iso-8859-1"?>
<!-- Generator: Adobe Illustrator 16.0.0, SVG Export Plug-In . SVG Version: 6.00 Build 0)  -->
<!DOCTYPE svg PUBLIC "-//W3C//DTD SVG 1.1//EN" "http://www.w3.org/Graphics/SVG/1.1/DTD/svg11.dtd">
<svg version="1.1" id="Capa_1" xmlns="http://www.w3.org/2000/svg" xmlns:xlink="http://www.w3.org/1999/xlink" x="0px" y="0px"
	 width="519.674px" height="519.674px" viewBox="0 0 519.674 519.674" style="enable-background:new 0 0 519.674 519.674;"
	 xml:space="preserve">
<g>
	<g>
		<circle cx="245.644" cy="59.412" r="59.412"/>
		<path d="M407.222,510.781l-0.028-2.267c-0.058-4.39-2.229-10.758-4.877-14.258l-6.465-8.539
			c-2.658-3.472-8.348-6.282-12.737-6.226l-22.893,0.191c-0.104-0.479-0.104-0.976-0.306-1.443L299.299,339
			c6.359-8.042,7.555-19.45,2.057-28.84l-58.666-100.369l15.874-42.256c3.778-10.002-0.995-21.889-10.643-26.517l-64.824-20.779
			c-8.778-6.101-19.259-3.05-23.38,6.809L87.241,310.686c-0.067,0.162-0.086,0.335-0.163,0.507c-0.392,0.956-0.889,1.836-1.205,2.85
			c-2.563,8.329-1.368,16.906,2.553,23.982L20.18,459.354c-8.339,14.832-3.079,33.622,11.752,41.961
			c4.772,2.668,9.955,3.959,15.061,3.959c10.777,0,21.238-5.671,26.89-15.712l70.438-125.278l25.819,7.966l-14.784,111.853
			c-2.238,16.858,9.62,32.34,26.488,34.559c1.367,0.201,2.725,0.268,4.074,0.268c15.214,0,28.448-11.265,30.485-26.756
			l18.207-137.661c1.97-14.898-7.085-29.042-21.458-33.479l-10.997-3.385l17.279-45.968l37.619,64.375
			c4.772,8.167,13.349,12.709,22.166,12.709c2.219,0,4.456-0.297,6.646-0.88l57.403,131.924l-25.876,0.22
			c-4.39,0.067-10.079,2.927-12.699,6.455l-6.55,8.74c-2.63,3.548-4.695,9.926-4.657,14.315l0.01,2.266
			c0.058,4.38,3.624,7.899,8.004,7.87l97.843-0.86C403.712,518.785,407.231,515.189,407.222,510.781z"/>
		<path d="M429.416,486.187c12.059,0.994,17.06,1.224,19.135,1.224c0.65,0,1.281,0,1.798-0.124h0.182
			c0.401,0.048,1.301,0.124,3.155,0.124c3.185,0,9.496-0.22,21.563-1.224c18.743-1.588,28.765-12.996,28.181-32.14
			c-0.497-15.988-21.793-19.097-22.701-19.202h-0.727c-3.261-3.652-17.213-4.111-21.592-4.179c-0.736,0-1.454-0.573-1.616-1.281
			l-1.836-8.195c-0.173-0.717-0.842-1.473-1.55-1.702l-16.619-5.354c-0.679-0.22-1.846-0.507-2.572-0.469
			c-1.454,0.086-3.682,0.708-4.398,3.596c-1.091,4.389,1.759,5.719,3.509,5.719c1.415,0,9.897,0.697,13.216,0.975
			c0.717,0.058,1.291,0.698,1.262,1.435l-0.134,3.949c-0.019,0.718-0.631,1.32-1.357,1.349c-4.418,0.105-18.542,0.707-21.755,4.121
			h-0.938l-0.268,0.029c-0.88,0.104-21.659,3.213-22.137,19.201C400.643,473.182,410.654,484.599,429.416,486.187z"/>
	</g>
</g>
<g>
</g>
<g>
</g>
<g>
</g>
<g>
</g>
<g>
</g>
<g>
</g>
<g>
</g>
<g>
</g>
<g>
</g>
<g>
</g>
<g>
</g>
<g>
</g>
<g>
</g>
<g>
</g>
<g>
</g>
</svg>
