<?xml version="1.0" encoding="iso-8859-1"?>
<!-- Generator: Adobe Illustrator 16.0.0, SVG Export Plug-In . SVG Version: 6.00 Build 0)  -->
<!DOCTYPE svg PUBLIC "-//W3C//DTD SVG 1.1//EN" "http://www.w3.org/Graphics/SVG/1.1/DTD/svg11.dtd">
<svg version="1.1" id="Capa_1" xmlns="http://www.w3.org/2000/svg" xmlns:xlink="http://www.w3.org/1999/xlink" x="0px" y="0px"
	 width="553.44px" height="553.441px" viewBox="0 0 553.44 553.441" style="enable-background:new 0 0 553.44 553.441;"
	 xml:space="preserve">
<g>
	<g>
		<path d="M403.72,245.757c0-0.871-0.144-1.693-0.259-2.525c1.846-6.167,0.603-13.091-4.016-18.254
			c-4.705-5.25-68.86-50.567-199.904-26.728c-8.339,1.521-14.373,8.243-15.472,16.218c-58.896-1.31-138.016-1.339-166.607,6.684
			C6.904,224.117,0,233.717,0,244.16c0,2.132,0.287,4.303,0.899,6.464c3.567,12.718,16.763,20.129,29.472,16.562
			c15.491-4.341,58.819-5.689,106.306-5.508v34.712c-47.746,0.957-91.016,0.249-106.306-4.045
			c-12.708-3.566-25.905,3.845-29.472,16.562C0.296,311.069,0,313.23,0,315.372c0,10.452,6.914,20.053,17.461,23.008
			c28.448,7.976,107.712,6.741,167.506,4.428c2.228,6.225,7.611,11.121,14.573,12.383c131.044,23.84,195.199-21.477,199.904-26.727
			c4.522-5.05,5.899-11.877,4.265-18.007v-64.7H403.72z M155.802,261.831c7.717,0.096,15.443,0.22,23.113,0.373v32.972
			c-7.679,0.287-15.405,0.535-23.113,0.755V261.831z"/>
		<path d="M513.392,275.85c0-17.241-2.285-29.146-3.863-35.286l-51.79-9.601c-2.937-0.555-5.346-2.458-6.675-5.059
			c-16.964,10.452-28.314,29.146-28.314,50.528c0,21.325,11.293,39.991,28.189,50.452c1.272-2.592,3.615-4.542,6.503-5.173
			l50.844-11.112C510.245,305.074,513.392,293.426,513.392,275.85z"/>
		<path d="M523.834,218.389c-4.542-2.687-11.973-6.828-16.772-9.037c-17.375-8.023-34.339,0.325-43.701,6.78
			c-4.351,2.993-3.251,6.751,1.941,7.717l38.689,7.172c5.192,0.966,10.854,5.775,11.992,10.939
			c1.615,7.277,3.385,18.829,3.385,34.444c0,15.616-2.305,26.986-4.398,34.11c-1.492,5.059-7.555,9.84-12.709,10.969l-37.026,8.08
			c-5.153,1.128-5.985,4.724-1.52,7.555c21.534,13.684,35.983,10.126,43.854,5.431c4.542-2.706,11.303-7.592,15.873-10.222
			c11.446-6.599,30.142-22.405,29.998-55.339C553.286,241.339,535.079,225.054,523.834,218.389z"/>
	</g>
</g>
<g>
</g>
<g>
</g>
<g>
</g>
<g>
</g>
<g>
</g>
<g>
</g>
<g>
</g>
<g>
</g>
<g>
</g>
<g>
</g>
<g>
</g>
<g>
</g>
<g>
</g>
<g>
</g>
<g>
</g>
</svg>
