<?xml version="1.0" encoding="iso-8859-1"?>
<!-- Generator: Adobe Illustrator 16.0.0, SVG Export Plug-In . SVG Version: 6.00 Build 0)  -->
<!DOCTYPE svg PUBLIC "-//W3C//DTD SVG 1.1//EN" "http://www.w3.org/Graphics/SVG/1.1/DTD/svg11.dtd">
<svg version="1.1" id="Capa_1" xmlns="http://www.w3.org/2000/svg" xmlns:xlink="http://www.w3.org/1999/xlink" x="0px" y="0px"
	 width="542.606px" height="542.606px" viewBox="0 0 542.606 542.606" style="enable-background:new 0 0 542.606 542.606;"
	 xml:space="preserve">
<g>
	<g>
		<path d="M199.589,368.49H56.152c-7.918,0-14.344,6.416-14.344,14.344s6.426,14.344,14.344,14.344h143.438
			c7.918,0,14.344-6.416,14.344-14.344S207.507,368.49,199.589,368.49z"/>
		<path d="M472.121,397.177c7.918,0,14.344-6.416,14.344-14.344s-6.426-14.344-14.344-14.344H328.683
			c-7.918,0-14.344,6.416-14.344,14.344s6.426,14.344,14.344,14.344H472.121z"/>
		<path d="M52.662,349.048h423.829c36.51,0,66.115-29.605,66.115-66.115v-24.795c0-36.509-29.605-66.115-66.115-66.115h-16.323
			v28.238c0,26.364-21.448,47.812-47.812,47.812H254.574c-26.364,0-47.812-21.448-47.812-47.812v-28.238h-33.287
			c-36.5,0-93.512,12.421-121.119,36.328c-16.897,14.65-34.396,33.832-47.181,57.749C-12.019,318.314,16.152,349.048,52.662,349.048
			z"/>
		<path d="M266.833,222.948l-41.702-4.896c10.452,27.387,41.004,41.358,68.583,31.155c27.73-10.271,41.884-41.081,31.633-68.803
			c-10.271-27.741-41.081-41.893-68.812-31.633c-16.333,6.044-27.75,19.278-32.465,34.741l47.229,5.154
			C271.298,188.676,282.964,206.29,266.833,222.948z"/>
		<path d="M384.49,222.948l-41.702-4.896c10.452,27.387,41.004,41.358,68.582,31.155c27.731-10.271,41.884-41.081,31.633-68.803
			c-10.27-27.741-41.08-41.893-68.812-31.633c-16.333,6.044-27.75,19.278-32.465,34.741l47.229,5.154
			C388.956,188.676,400.622,206.29,384.49,222.948z"/>
	</g>
</g>
<g>
</g>
<g>
</g>
<g>
</g>
<g>
</g>
<g>
</g>
<g>
</g>
<g>
</g>
<g>
</g>
<g>
</g>
<g>
</g>
<g>
</g>
<g>
</g>
<g>
</g>
<g>
</g>
<g>
</g>
</svg>
