<?xml version="1.0" encoding="iso-8859-1"?>
<!-- Generator: Adobe Illustrator 16.0.0, SVG Export Plug-In . SVG Version: 6.00 Build 0)  -->
<!DOCTYPE svg PUBLIC "-//W3C//DTD SVG 1.1//EN" "http://www.w3.org/Graphics/SVG/1.1/DTD/svg11.dtd">
<svg version="1.1" id="Capa_1" xmlns="http://www.w3.org/2000/svg" xmlns:xlink="http://www.w3.org/1999/xlink" x="0px" y="0px"
	 width="482.448px" height="482.447px" viewBox="0 0 482.448 482.447" style="enable-background:new 0 0 482.448 482.447;"
	 xml:space="preserve">
<g>
	<g>
		<path d="M355.271,235.229l-50.709,17.423l-2.697-8.138c0.928-2.037,1.713-4.15,2.189-6.407l18.246-85.412
			c0.965-4.495,0.947-9.132-0.086-13.607L296.251,24.634c-3.863-17.031-20.799-27.693-37.838-23.839
			c-5.489,1.243-10.203,3.94-14.105,7.459c-3.882-3.519-8.606-6.216-14.085-7.459c-17.031-3.873-33.985,6.79-37.848,23.839
			l-25.972,114.473c-1.014,4.475-1.042,9.113-0.086,13.607l18.254,85.412c0.048,0.201,0.134,0.373,0.172,0.574l-4.705,17.49
			l-51.953-20.607c-7.22-2.85-15.405-1.511-21.334,3.461c-5.938,4.991-8.654,12.833-7.076,20.425l24.27,116.979l-5.699,61.746
			c-0.373,3.996,0.956,7.965,3.662,10.939c2.707,2.963,6.531,4.646,10.548,4.646h16.935v19.154c0,5.26,4.255,9.514,9.505,9.514
			c5.259,0,9.524-4.254,9.524-9.514v-19.154h162.046v19.154c0,5.26,4.256,9.514,9.516,9.514c5.258,0,9.514-4.254,9.514-9.514
			v-19.154h16.018c0.086,0,0.152,0,0.191,0c7.889,0,14.277-6.387,14.277-14.268c0-1.816-0.336-3.557-0.967-5.154l-16.322-78.039
			l20.08-96.85c1.539-7.42-1.014-15.089-6.703-20.109C370.371,234.339,362.462,232.743,355.271,235.229z M244.318,81.598
			l14.688,64.709l-12.076,56.505h-5.222l-12.078-56.505L244.318,81.598z M177.036,300.35c12.221-25.6,38.298-43.357,68.497-43.357
			c28.037,0,52.518,15.32,65.666,37.982l22.768-7.822l-3.824,18.467h-25.352c-9.725-23.926-33.162-40.814-60.578-40.814
			c-27.416,0-50.853,16.889-60.568,40.814h-31.308l-3.404-16.41L177.036,300.35z M148.09,425.227l0.938-10.07
			c0.028,0,0.057,0.01,0.095,0.01c1.416,0,2.859-0.152,4.303-0.449c0.029-0.01,0.048-0.02,0.077-0.029l2.209,10.529h-7.622V425.227z
			 M308.167,425.227H175.143l-5.527-26.355c0.679-2.896,0.813-5.967,0.163-9.074l-11.552-55.654h20.77
			c2.046,34.273,30.409,61.459,65.197,61.459c34.788,0,63.159-27.178,65.206-61.459h14.812l-11.531,55.654
			c-0.775,3.711-0.432,7.363,0.658,10.729L308.167,425.227z M327.607,425.227l2.189-10.424c1.195,0.201,2.381,0.373,3.559,0.373
			c4.283,0,8.328-1.367,11.742-3.672l2.869,13.732h-20.359V425.227z"/>
	</g>
</g>
<g>
</g>
<g>
</g>
<g>
</g>
<g>
</g>
<g>
</g>
<g>
</g>
<g>
</g>
<g>
</g>
<g>
</g>
<g>
</g>
<g>
</g>
<g>
</g>
<g>
</g>
<g>
</g>
<g>
</g>
</svg>
