<?xml version="1.0" encoding="iso-8859-1"?>
<!-- Generator: Adobe Illustrator 16.0.0, SVG Export Plug-In . SVG Version: 6.00 Build 0)  -->
<!DOCTYPE svg PUBLIC "-//W3C//DTD SVG 1.1//EN" "http://www.w3.org/Graphics/SVG/1.1/DTD/svg11.dtd">
<svg version="1.1" id="Capa_1" xmlns="http://www.w3.org/2000/svg" xmlns:xlink="http://www.w3.org/1999/xlink" x="0px" y="0px"
	 width="515.139px" height="515.138px" viewBox="0 0 515.139 515.138" style="enable-background:new 0 0 515.139 515.138;"
	 xml:space="preserve">
<g>
	<g>
		<circle cx="465.069" cy="355.569" r="50.069"/>
		<path d="M399.136,307.593l-175.539-70.944c-4.963-1.808-10.452,0.746-12.259,5.708l-11.647,31.958L34.977,214.273
			c-12.402-4.523-26.134,1.865-30.648,14.268c-4.523,12.412,1.865,26.125,14.277,30.647l173.684,63.304c0.01,0,0.01,0.01,0.02,0.01
			l194.654,70.944c4.973,1.808,10.452-0.736,12.26-5.709l5.613-67.894C406.652,314.89,404.099,309.401,399.136,307.593z"/>
		<path d="M381.197,398.198L12.84,263.941c-4.954-1.808-10.452,0.745-12.259,5.708c-1.807,4.973,0.746,10.452,5.709,12.26
			l22.921,8.357c-0.048,0.487-0.229,0.938-0.201,1.443l0.908,14.956c0.727,12.097,11.542,24.949,25.149,29.912l255.692,93.196
			c4.552,1.654,9.467,2.447,14.334,2.447c9.515,0,18.79-3.021,24.585-8.577l11.064-10.596c0.468-0.449,0.717-1.032,1.08-1.549
			l12.823,4.676c1.081,0.393,2.189,0.584,3.271,0.584c3.901,0,7.573-2.41,8.979-6.283
			C388.713,405.495,386.16,400.015,381.197,398.198z M336.444,409.835c-3.137,2.983-12.163,4.514-19.144,1.97L61.608,318.61
			c-6.693-2.438-12.364-9.161-12.603-13.102l-0.498-8.214l293.684,107.043L336.444,409.835z"/>
		<path d="M204.186,109.774L66.906,60.565c-4.973-1.788-10.442,0.793-12.221,5.776c-1.789,4.982,0.793,10.452,5.775,12.24
			L197.74,127.78c4.973,1.798,10.442-0.803,12.221-5.776C211.74,117.022,209.167,111.553,204.186,109.774z"/>
		<path d="M99.62,118.103c-1.788,4.973,0.793,10.442,5.776,12.211l137.27,49.208c4.982,1.788,10.442-0.794,12.23-5.776
			s-0.794-10.452-5.776-12.23L111.84,112.308C106.868,110.539,101.408,113.121,99.62,118.103z"/>
		<path d="M168.604,416.453l-86.895-28.821c-5.021-1.673-10.423,1.043-12.087,6.062c-1.664,5.021,1.052,10.424,6.062,12.097
			l86.885,28.812c5.011,1.673,10.423-1.043,12.087-6.063C176.33,423.51,173.614,418.107,168.604,416.453z"/>
		<path d="M122.436,436.487l-86.895-28.812c-5.011-1.673-10.423,1.043-12.087,6.062c-1.664,5.021,1.052,10.424,6.072,12.087
			l86.895,28.822c5.021,1.673,10.423-1.043,12.087-6.063C130.162,443.563,127.446,438.16,122.436,436.487z"/>
	</g>
</g>
<g>
</g>
<g>
</g>
<g>
</g>
<g>
</g>
<g>
</g>
<g>
</g>
<g>
</g>
<g>
</g>
<g>
</g>
<g>
</g>
<g>
</g>
<g>
</g>
<g>
</g>
<g>
</g>
<g>
</g>
</svg>
