<?xml version="1.0" encoding="iso-8859-1"?>
<!-- Generator: Adobe Illustrator 16.0.0, SVG Export Plug-In . SVG Version: 6.00 Build 0)  -->
<!DOCTYPE svg PUBLIC "-//W3C//DTD SVG 1.1//EN" "http://www.w3.org/Graphics/SVG/1.1/DTD/svg11.dtd">
<svg version="1.1" id="Capa_1" xmlns="http://www.w3.org/2000/svg" xmlns:xlink="http://www.w3.org/1999/xlink" x="0px" y="0px"
	 width="568.863px" height="568.863px" viewBox="0 0 568.863 568.863" style="enable-background:new 0 0 568.863 568.863;"
	 xml:space="preserve">
<g>
	<g>
		<path d="M178.732,384.24c0-6.617-5.374-11.981-11.981-11.981H46.914c-6.617,0-11.991,5.364-11.991,11.981
			s5.374,11.982,11.991,11.982h119.837C173.368,396.222,178.732,390.857,178.732,384.24z"/>
		<path d="M394.443,396.222c6.607,0,11.981-5.365,11.981-11.982s-5.374-11.981-11.981-11.981H274.606
			c-6.608,0-11.982,5.364-11.982,11.981s5.374,11.982,11.982,11.982H394.443z"/>
		<path d="M398.096,356.011c30.505,0,55.233-24.729,55.233-55.232v-20.713c0-30.504-24.729-55.233-55.233-55.233H384.45v23.591
			c0,22.022-17.92,39.952-39.942,39.952H212.689c-22.032,0-39.952-17.921-39.952-39.952v-23.591h-27.808
			c-30.495,0-78.135,10.385-101.19,30.352c-14.124,12.239-28.735,28.267-39.417,48.242c-14.363,26.909,9.17,52.584,39.665,52.584
			H398.096L398.096,356.011z"/>
		<path d="M317.886,164.513h145.828c5.288,0,9.562-4.274,9.562-9.562s-4.274-9.562-9.562-9.562H317.886
			c-5.288,0-9.562,4.274-9.562,9.562S312.598,164.513,317.886,164.513z"/>
		<path d="M368.089,188.515c0,5.288,4.274,9.562,9.562,9.562h145.828c5.288,0,9.562-4.274,9.562-9.562
			c0-5.288-4.274-9.562-9.562-9.562H377.651C372.363,178.953,368.089,183.227,368.089,188.515z"/>
		<path d="M559.301,370.786h-91.542c-5.288,0-9.562,4.274-9.562,9.562s4.274,9.562,9.562,9.562h91.542
			c5.288,0,9.562-4.274,9.562-9.562S564.589,370.786,559.301,370.786z"/>
		<path d="M531.35,413.913c0-5.288-4.274-9.562-9.562-9.562h-91.542c-5.288,0-9.562,4.274-9.562,9.562s4.274,9.562,9.562,9.562
			h91.542C527.075,423.475,531.35,419.201,531.35,413.913z"/>
	</g>
</g>
<g>
</g>
<g>
</g>
<g>
</g>
<g>
</g>
<g>
</g>
<g>
</g>
<g>
</g>
<g>
</g>
<g>
</g>
<g>
</g>
<g>
</g>
<g>
</g>
<g>
</g>
<g>
</g>
<g>
</g>
</svg>
