<?xml version="1.0" encoding="iso-8859-1"?>
<!-- Generator: Adobe Illustrator 16.0.0, SVG Export Plug-In . SVG Version: 6.00 Build 0)  -->
<!DOCTYPE svg PUBLIC "-//W3C//DTD SVG 1.1//EN" "http://www.w3.org/Graphics/SVG/1.1/DTD/svg11.dtd">
<svg version="1.1" id="Capa_1" xmlns="http://www.w3.org/2000/svg" xmlns:xlink="http://www.w3.org/1999/xlink" x="0px" y="0px"
	 width="505.369px" height="505.369px" viewBox="0 0 505.369 505.369" style="enable-background:new 0 0 505.369 505.369;"
	 xml:space="preserve">
<g>
	<g>
		<path d="M422.05,256.418c22.224-8.816,33.125-34.023,24.261-56.352c-8.798-22.176-33.976-32.972-56.199-24.155
			c-22.318,8.864-33.134,33.938-24.337,56.104C374.64,254.343,399.741,265.263,422.05,256.418z"/>
		<path d="M485.459,294.907l-64.317,0.392l-69.165-55.94c0,0-6.465-6.646-19.881-6.33l-154.11-0.526L45.784,129.982
			c-7.64-5.843-18.149-7.765-27.827-3.921c-14.621,5.805-21.735,22.415-15.941,37.036c1.846,4.647,4.801,8.491,8.454,11.494
			L174.62,302.04l-62.51-0.124c-5.278-0.01-12.154,3.376-15.357,7.583l-0.296,0.373c-3.204,4.207-1.511,7.603,3.768,7.583
			l277.772-0.794c-0.087,0.029,16.523,12.135,16.523,12.135s7.469,7.076,21.363,7.058l35.639-0.268
			c-12.125,28.056-43.71,30.581-43.71,30.581l-342.309-1.444c-5.279-0.02-12.164,3.356-15.386,7.535l-1.128,1.482
			c-3.232,4.169-1.559,7.573,3.729,7.563l357.093-0.43c42.151-1.167,59.469-45.288,59.469-45.288
			c0.028,0.086,17.299-0.574,17.299-0.574c2.065-0.105,4.063-0.564,6.101-1.367c10.309-4.103,15.357-15.759,11.274-26.077
			C500.826,299.803,493.31,294.974,485.459,294.907z"/>
	</g>
</g>
<g>
</g>
<g>
</g>
<g>
</g>
<g>
</g>
<g>
</g>
<g>
</g>
<g>
</g>
<g>
</g>
<g>
</g>
<g>
</g>
<g>
</g>
<g>
</g>
<g>
</g>
<g>
</g>
<g>
</g>
</svg>
