<?xml version="1.0" encoding="iso-8859-1"?>
<!-- Generator: Adobe Illustrator 16.0.0, SVG Export Plug-In . SVG Version: 6.00 Build 0)  -->
<!DOCTYPE svg PUBLIC "-//W3C//DTD SVG 1.1//EN" "http://www.w3.org/Graphics/SVG/1.1/DTD/svg11.dtd">
<svg version="1.1" id="Capa_1" xmlns="http://www.w3.org/2000/svg" xmlns:xlink="http://www.w3.org/1999/xlink" x="0px" y="0px"
	 width="552.883px" height="552.883px" viewBox="0 0 552.883 552.883" style="enable-background:new 0 0 552.883 552.883;"
	 xml:space="preserve">
<g>
	<g>
		<circle cx="128.106" cy="418.606" r="48.386"/>
		<path d="M463.72,416.732l38.184-69.749c1.138-2.075,1.816-4.256,2.285-6.455c1.042-1.53,1.798-3.289,1.798-5.288v-55.051
			c0-5.288-3.223-12.383-7.191-15.874l-90.461-80.373c-3.969-3.49-12.021-1.884-15.022,2.458l-2.544,4.676
			c-1.53,1.262-2.936,2.706-4.055,4.466l-50.882,80.583l-58.771,44.083c-4.608,3.452-7.133,8.597-7.515,13.923l-16.505-12.269
			c-3.204-2.371-7.058-3.691-11.045-3.768l-68.697-1.31l17.7-55.95l56.763,11.198c1.559,0.296,3.108,0.449,4.647,0.449
			c10.356,0,19.794-6.76,22.883-17.021l22.509-74.913c7.641,16.677,24.385,28.295,43.911,28.295
			c26.708,0,48.396-21.64,48.396-48.386s-21.688-48.396-48.396-48.396c-9.419,0-18.149,2.802-25.58,7.459l3.185-10.595
			c3.797-12.651-3.375-25.981-16.017-29.778c-12.681-3.815-25.981,3.375-29.778,16.017l-37.771,125.747l-52.479-10.347
			l47.822-59.728c6.914-8.635,7-20.894,0.201-29.625L144.123,9.236c-8.1-10.433-23.122-12.307-33.545-4.188
			c-10.414,8.109-12.288,23.131-4.179,33.545l75.572,97.097l-60.674,75.764c-2.553,3.194-4.055,6.856-4.743,10.615l-15.243,39.713
			c-2.218,4.8-4.838,12.881-5.862,18.063l-1.941,15.396l-24.748-34.893l7.382-76.471c1.014-10.519-6.684-19.861-17.193-20.884
			c-10.49-0.938-19.861,6.684-20.875,17.203l-8.08,83.577c-0.44,4.58,0.784,9.151,3.433,12.909l48.903,68.935
			c2.132,3.013,5.011,5.106,8.176,6.445c1.272,0.861,2.735,1.502,4.533,1.521l2.362,0.029c0.182,0.009,0.363,0.066,0.545,0.066
			c0.115,0,0.229-0.048,0.344-0.058l45.728,0.574c0.957,0.162,1.913,0.335,2.917,0.354l88.205,1.684l56.658,42.094
			c0.469,0.354,1.022,0.479,1.511,0.784c3.566,3.241,8.156,4.982,12.843,4.982c3.71,0,7.448-1.071,10.748-3.328l72.56-49.448
			c3.873-2.629,6.637-6.588,7.774-11.14L410.4,287.82c2.171,2.361,3.49,4.197,3.318,5.087l13.684,38.91l-60.109,46.923
			c-4.456,3.471-7.536,8.425-8.692,13.951l-27.483,131.38c-2.696,12.929,5.585,25.589,18.514,28.295
			c1.654,0.345,3.299,0.517,4.925,0.517c11.073,0,21.009-7.755,23.37-19.02l25.676-122.83l15.232-11.896l-3.413,6.235
			c-3.949,7.22-3.911,15.96,0.104,23.141l62.663,112.111c4.38,7.831,12.518,12.239,20.895,12.239c3.949,0,7.956-0.975,11.647-3.031
			c11.522-6.444,15.644-21.009,9.208-32.531L463.72,416.732z M361.917,323.794l-55.434,37.781l-11.179-8.31
			c1.636-0.621,3.252-1.357,4.715-2.467l61.573-46.196c1.854-1.396,3.451-3.118,4.694-5.078l2.879-4.562L361.917,323.794z"/>
	</g>
</g>
<g>
</g>
<g>
</g>
<g>
</g>
<g>
</g>
<g>
</g>
<g>
</g>
<g>
</g>
<g>
</g>
<g>
</g>
<g>
</g>
<g>
</g>
<g>
</g>
<g>
</g>
<g>
</g>
<g>
</g>
</svg>
