<?xml version="1.0" encoding="iso-8859-1"?>
<!-- Generator: Adobe Illustrator 16.0.0, SVG Export Plug-In . SVG Version: 6.00 Build 0)  -->
<!DOCTYPE svg PUBLIC "-//W3C//DTD SVG 1.1//EN" "http://www.w3.org/Graphics/SVG/1.1/DTD/svg11.dtd">
<svg version="1.1" id="Capa_1" xmlns="http://www.w3.org/2000/svg" xmlns:xlink="http://www.w3.org/1999/xlink" x="0px" y="0px"
	 width="557.249px" height="557.249px" viewBox="0 0 557.249 557.249" style="enable-background:new 0 0 557.249 557.249;"
	 xml:space="preserve">
<g>
	<g>
		<path d="M124.005,296.294c-12.135,0.276-50.949,1.96-59.794,11.331h-2.534l-0.746,0.058c-2.429,0.335-59.536,8.845-60.865,52.785
			c-1.597,52.642,25.915,84.025,77.476,88.367c33.125,2.782,46.914,3.365,52.632,3.365c1.798,0,3.481,0,4.934-0.334h0.488
			c1.1,0.143,3.586,0.334,8.692,0.334c8.74,0,26.105-0.583,59.24-3.365c51.561-4.342,79.081-35.726,77.475-88.367
			c-1.339-43.949-59.899-52.441-62.385-52.785h-1.989c-8.941-10.012-47.325-11.294-59.383-11.437
			c-1.999-0.02-3.987-1.598-4.427-3.548l-5.059-22.539c-0.44-1.951-2.343-4.045-4.255-4.647l-45.689-14.707
			c-1.903-0.603-5.068-1.396-7.067-1.281c-3.987,0.229-10.117,1.932-12.096,9.849c-3.022,12.087,4.829,15.711,9.677,15.711
			c3.882,0,27.195,1.941,36.29,2.716c1.989,0.162,3.557,1.932,3.49,3.949l-0.363,10.882
			C127.678,294.601,126.004,296.236,124.005,296.294z M267.73,349.126c1.463,3.5,2.381,7.363,2.505,11.667
			c0.373,12.077-0.927,25.149-5.603,37.063c-29.653,4.246-86.216,11.514-125.211,11.523c-58.063,0.01-100.99-8.77-124.208-15.023
			c-3.643-10.958-4.714-22.653-4.389-33.563c0.105-3.396,0.774-6.475,1.712-9.362c23.705,5.681,73.65,15.74,125.68,14.43
			C189.432,364.561,241.768,354.701,267.73,349.126z M138.502,330.689c33.517-0.516,68.161-1.73,77.514-12.287h1.473
			c0.793,0.124,3.012,0.507,6.053,1.214c-8.233,15.252-42.314,17.155-85.221,17.815c-2.668,0.048-5.327,0.066-7.956,0.066h-0.01
			c-43.375,0-65.981-5.642-73.134-18.111c2.391-0.555,4.169-0.88,4.857-0.994h3.166C74.577,328.653,105.206,331.187,138.502,330.689
			z"/>
		<path d="M548.351,253.119l-4.963-3.547c-9.543-6.809-26.784-12.154-38.508-11.915l-28.688,0.564
			c-11.724,0.22-26.747,8.147-33.564,17.691l-39.054,54.717l0,0L47.515,56.457c-9.543-6.818-22.807-4.59-29.615,4.944
			c-6.818,9.543-4.609,22.797,4.944,29.615l356.06,254.162l-38.479,53.904c-6.809,9.553-9.524,26.363-6.054,37.57l8.664,27.98
			c3.462,11.217,14.019,25.8,23.562,32.627l4.964,3.538c9.543,6.809,22.797,4.59,29.614-4.943l152.12-213.12
			C560.112,273.19,557.894,259.927,548.351,253.119z"/>
	</g>
</g>
<g>
</g>
<g>
</g>
<g>
</g>
<g>
</g>
<g>
</g>
<g>
</g>
<g>
</g>
<g>
</g>
<g>
</g>
<g>
</g>
<g>
</g>
<g>
</g>
<g>
</g>
<g>
</g>
<g>
</g>
</svg>
