<?xml version="1.0" encoding="iso-8859-1"?>
<!-- Generator: Adobe Illustrator 16.0.0, SVG Export Plug-In . SVG Version: 6.00 Build 0)  -->
<!DOCTYPE svg PUBLIC "-//W3C//DTD SVG 1.1//EN" "http://www.w3.org/Graphics/SVG/1.1/DTD/svg11.dtd">
<svg version="1.1" id="Capa_1" xmlns="http://www.w3.org/2000/svg" xmlns:xlink="http://www.w3.org/1999/xlink" x="0px" y="0px"
	 width="521.815px" height="521.815px" viewBox="0 0 521.815 521.815" style="enable-background:new 0 0 521.815 521.815;"
	 xml:space="preserve">
<g>
	<g>
		<path d="M396.854,196.935H208.788c-5.279,0-9.562,4.274-9.562,9.562v34.013H23.906C10.7,240.511,0,251.212,0,264.417
			c0,13.206,10.7,23.906,23.906,23.906h184.881h35.056h172.135c5.288,0,9.562-4.274,9.562-9.562l-19.125-72.263
			C406.416,201.219,402.142,196.935,396.854,196.935z"/>
		<path d="M412.182,294.759H20.119c-5.278,0-9.562,4.274-9.562,9.562s4.284,9.562,9.562,9.562h24.394
			c0.125,0.469,0.105,0.957,0.306,1.416l5.977,13.751c4.829,11.111,19.393,19.497,33.87,19.497h272.148
			c14.297,0,29.118-8.204,34.464-19.086l6.771-13.751c0.286-0.593,0.324-1.215,0.487-1.827h13.646c5.278,0,9.562-4.274,9.562-9.562
			S417.46,294.759,412.182,294.759z M374.123,321.018c-1.912,3.883-9.888,8.405-17.309,8.405H84.666
			c-7.851,0-14.917-4.733-16.333-7.994l-3.28-7.545h312.588L374.123,321.018z"/>
		<circle cx="471.747" cy="223.337" r="50.069"/>
	</g>
</g>
<g>
</g>
<g>
</g>
<g>
</g>
<g>
</g>
<g>
</g>
<g>
</g>
<g>
</g>
<g>
</g>
<g>
</g>
<g>
</g>
<g>
</g>
<g>
</g>
<g>
</g>
<g>
</g>
<g>
</g>
</svg>
