<?xml version="1.0" encoding="iso-8859-1"?>
<!-- Generator: Adobe Illustrator 16.0.0, SVG Export Plug-In . SVG Version: 6.00 Build 0)  -->
<!DOCTYPE svg PUBLIC "-//W3C//DTD SVG 1.1//EN" "http://www.w3.org/Graphics/SVG/1.1/DTD/svg11.dtd">
<svg version="1.1" id="Capa_1" xmlns="http://www.w3.org/2000/svg" xmlns:xlink="http://www.w3.org/1999/xlink" x="0px" y="0px"
	 width="507.429px" height="507.429px" viewBox="0 0 507.429 507.429" style="enable-background:new 0 0 507.429 507.429;"
	 xml:space="preserve">
<g>
	<g>
		<path d="M222.57,426.138c-0.144,4.073,3.031,7.038,7.085,6.637l153.822-15.443c4.055-0.402,6.972-4.017,6.445-8.052
			c-5.881-46.034-42.257-297.012-147.683-407.573c-2.812-2.955-5.278-1.96-5.422,2.123L222.57,426.138z"/>
		<path d="M416.172,447.721c-75.199,14.353-173.684,9.094-244.714,1.893c4.466-3.184,8.071-7.669,10.165-13.167l-22.424,2.63
			c-8.673-8.961-2.4-18.428-2.4-18.428l25.398-2.772c-2.534-8.319-8.673-15.425-17.452-18.676
			c-14.908-5.527-31.479,2.094-36.997,17.002c-3.825,10.347-1.224,21.41,5.642,29.099c-16.629-2.075-30.246-4.035-39.627-5.46
			c-7.937-1.205-11.695,24.796-6.273,32.513c24.595,35.047,76.825,35.075,76.825,35.075s50.576,0,127.038,0
			c55.511,0,103.734-23.008,125.986-35.592C424.673,467.687,424.071,446.209,416.172,447.721z"/>
	</g>
</g>
<g>
</g>
<g>
</g>
<g>
</g>
<g>
</g>
<g>
</g>
<g>
</g>
<g>
</g>
<g>
</g>
<g>
</g>
<g>
</g>
<g>
</g>
<g>
</g>
<g>
</g>
<g>
</g>
<g>
</g>
</svg>
