<?xml version="1.0" encoding="iso-8859-1"?>
<!-- Generator: Adobe Illustrator 16.0.0, SVG Export Plug-In . SVG Version: 6.00 Build 0)  -->
<!DOCTYPE svg PUBLIC "-//W3C//DTD SVG 1.1//EN" "http://www.w3.org/Graphics/SVG/1.1/DTD/svg11.dtd">
<svg version="1.1" id="Capa_1" xmlns="http://www.w3.org/2000/svg" xmlns:xlink="http://www.w3.org/1999/xlink" x="0px" y="0px"
	 width="540.664px" height="540.664px" viewBox="0 0 540.664 540.664" style="enable-background:new 0 0 540.664 540.664;"
	 xml:space="preserve">
<g>
	<g>
		<path d="M268.993,64.025c-29.156,0-52.957,23.629-52.957,52.976c0,29.175,23.801,52.977,52.957,52.977
			c29.271,0,52.909-23.801,52.909-52.977C321.902,87.654,298.264,64.025,268.993,64.025z"/>
		<path d="M516.7,268.901h-8.97c-13.234,0-23.973,10.72-23.973,23.954v20.722h-60.493c-0.554-2.936-1.721-5.795-3.71-8.3
			L328.31,189.935c-0.134-0.163-0.297-0.287-0.431-0.45c-3.748-6.502-10.681-10.93-18.723-10.93h-80.373
			c-9.027,0-16.754,5.527-20.015,13.368c-0.277,0.354-0.593,0.65-0.841,1.023l-77.036,115.342c-1.109,1.664-1.836,3.462-2.372,5.288
			H56.907v-20.722c0-13.234-10.739-23.954-23.964-23.954h-8.979C10.729,268.901,0,279.621,0,292.855v63.122
			c0,13.234,10.739,23.964,23.964,23.964h8.979c13.234,0,23.964-10.729,23.964-23.964v-20.712h80.191
			c3.031,1.798,6.35,2.782,9.668,2.782c3.442,0,6.789-1.014,9.772-2.782h50.557v23.274l-56.964-8.052
			c-7.249-1.042-14.554,1.32-19.852,6.379c-5.298,5.049-7.985,12.24-7.306,19.526l10.06,107.253
			c1.233,13.139,12.909,22.73,26.039,21.573c13.148-1.233,22.807-12.891,21.573-26.039l-7.229-77.103l91.341,12.919
			c2.238,0.325,4.504,0.315,6.732-0.009l90.002-12.862l-7.229,77.064c-1.233,13.148,8.425,24.806,21.573,26.039
			c0.756,0.066,1.511,0.104,2.257,0.104c12.192,0,22.605-9.294,23.772-21.678l10.06-107.253c0.679-7.296-2.018-14.497-7.315-19.546
			c-5.298-5.039-12.574-7.421-19.87-6.35l-53.904,7.698v-22.931h67.941c1.884,0.593,3.815,1.004,5.785,1.004
			c2.057,0,4.112-0.345,6.102-1.004h73.086v20.712c0,13.234,10.738,23.964,23.973,23.964h8.97c13.234,0,23.974-10.729,23.974-23.964
			v-63.122C540.674,279.621,529.935,268.901,516.7,268.901z M173.359,313.577l33.746-50.519v50.519H173.359z M330.834,313.577
			v-58.79l46.512,58.79H330.834z"/>
		<path d="M186.593,82.624c1.587,0,3.194-0.392,4.676-1.233c4.599-2.592,6.234-8.415,3.643-13.015
			c-10.49-18.637-39.933-30.992-43.261-32.34c-4.896-1.989-10.461,0.373-12.441,5.269c-1.989,4.886,0.363,10.461,5.25,12.46
			c7.315,2.983,27.655,13.101,33.784,23.992C180.005,80.874,183.246,82.624,186.593,82.624z"/>
		<path d="M165.135,146.865c-1.673,0.421-41.147,10.72-45.689,49.706c-0.612,5.25,3.146,10.002,8.386,10.605
			c0.373,0.048,0.746,0.067,1.119,0.067c4.781,0,8.921-3.586,9.486-8.454c3.002-25.732,30.227-33.096,31.384-33.392
			c5.097-1.3,8.195-6.474,6.914-11.58C175.453,148.691,170.26,145.574,165.135,146.865z"/>
		<path d="M398.843,41.305c-1.979-4.896-7.545-7.258-12.45-5.269c-3.328,1.348-32.771,13.703-43.252,32.34
			c-2.591,4.6-0.956,10.433,3.653,13.024c1.482,0.832,3.089,1.224,4.676,1.224c3.347,0,6.589-1.76,8.349-4.877
			c6.119-10.892,26.459-21.009,33.774-23.992C398.479,51.766,400.831,46.191,398.843,41.305z"/>
		<path d="M377.805,165.407c1.157,0.296,28.382,7.66,31.375,33.382c0.573,4.877,4.695,8.463,9.485,8.463
			c0.364,0,0.736-0.019,1.109-0.067c5.25-0.603,9.008-5.364,8.396-10.595c-4.542-38.996-44.017-49.294-45.689-49.715
			c-5.078-1.281-10.261,1.817-11.562,6.923S372.718,164.087,377.805,165.407z"/>
	</g>
</g>
<g>
</g>
<g>
</g>
<g>
</g>
<g>
</g>
<g>
</g>
<g>
</g>
<g>
</g>
<g>
</g>
<g>
</g>
<g>
</g>
<g>
</g>
<g>
</g>
<g>
</g>
<g>
</g>
<g>
</g>
</svg>
