<?xml version="1.0" encoding="iso-8859-1"?>
<!-- Generator: Adobe Illustrator 16.0.0, SVG Export Plug-In . SVG Version: 6.00 Build 0)  -->
<!DOCTYPE svg PUBLIC "-//W3C//DTD SVG 1.1//EN" "http://www.w3.org/Graphics/SVG/1.1/DTD/svg11.dtd">
<svg version="1.1" id="Capa_1" xmlns="http://www.w3.org/2000/svg" xmlns:xlink="http://www.w3.org/1999/xlink" x="0px" y="0px"
	 width="486.896px" height="486.897px" viewBox="0 0 486.896 486.897" style="enable-background:new 0 0 486.896 486.897;"
	 xml:space="preserve">
<g>
	<g>
		<circle cx="179.115" cy="61.393" r="47.822"/>
		<path d="M9.562,401.263h77.093c5.279,0,9.562-4.284,9.562-9.562s-4.284-9.562-9.562-9.562H58.981l7.134-86.875
			c2.285,0.946,4.686,1.597,7.22,1.597c1.711,0,3.452-0.229,5.183-0.718l83.854-23.542l26.938-80.297l44.896,83.375
			c-56.132,21.966-118.938,41.702-151.499,51.026c-5.843,1.673-10.002,6.847-10.366,12.919c-0.373,6.072,3.136,11.714,8.73,14.085
			c36.777,15.539,62.5,18.8,77.59,18.8c9.094,0,14.181-1.166,15.529-1.529c0.545-0.144,1.081-0.325,1.606-0.536l140.474-55.998
			l34.816,44.514c-59.459,25.417-127.908,53.999-162.945,66.211c-55.883,19.498-78.986,4.265-80.315,3.337
			c-7.908-6.55-19.661-5.699-26.517,2.037c-7.009,7.908-6.283,19.995,1.625,26.995c2.515,2.228,19.278,15.787,54.382,15.787
			c16.792,0,37.791-3.107,63.428-12.039c70.82-24.7,266.45-110.935,274.74-114.587c9.668-4.266,14.048-15.559,9.773-25.217
			c-4.256-9.658-15.539-14.028-25.217-9.782c-0.459,0.201-11.389,5.021-28.688,12.565l-55.845-72.321
			c-0.086-0.115-0.22-0.182-0.315-0.297l-11.322-27.482c-1.864-4.542-5.929-7.803-10.758-8.664
			c-4.705-0.851-9.438,0.755-12.747,4.141l-54.869-84.102h37.628l21.727,41.463c3.423,6.521,10.069,10.251,16.954,10.251
			c2.993,0,6.024-0.708,8.864-2.19c9.362-4.906,12.967-16.457,8.062-25.819l-27.091-51.714c-3.299-6.302-9.83-10.251-16.935-10.251
			H267.77c-5.222,0-9.955,2.104-13.397,5.499l-76.577,40.631c-7.487,0.517-14.277,5.432-16.811,12.986l-28.448,84.819
			l-63.447,17.815l7.401-90.136c0.431-5.269-3.48-9.888-8.74-10.318c-5.259-0.468-9.878,3.481-10.318,8.74L39.79,382.138H9.562
			c-5.278,0-9.562,4.284-9.562,9.562S4.284,401.263,9.562,401.263z"/>
	</g>
</g>
<g>
</g>
<g>
</g>
<g>
</g>
<g>
</g>
<g>
</g>
<g>
</g>
<g>
</g>
<g>
</g>
<g>
</g>
<g>
</g>
<g>
</g>
<g>
</g>
<g>
</g>
<g>
</g>
<g>
</g>
</svg>
