<?xml version="1.0" encoding="iso-8859-1"?>
<!-- Generator: Adobe Illustrator 16.0.0, SVG Export Plug-In . SVG Version: 6.00 Build 0)  -->
<!DOCTYPE svg PUBLIC "-//W3C//DTD SVG 1.1//EN" "http://www.w3.org/Graphics/SVG/1.1/DTD/svg11.dtd">
<svg version="1.1" id="Capa_1" xmlns="http://www.w3.org/2000/svg" xmlns:xlink="http://www.w3.org/1999/xlink" x="0px" y="0px"
	 width="554.682px" height="554.683px" viewBox="0 0 554.682 554.683" style="enable-background:new 0 0 554.682 554.683;"
	 xml:space="preserve">
<g>
	<g>
		<path d="M13.501,426.001c3.041,0,6.11-1.032,8.616-3.127l49.094-40.937c3.108-2.601,9.477-2.974,12.891-0.774l50.709,32.885
			c13.11,8.521,32.398,7.822,44.848-1.567l40.938-30.83c3.414-2.591,10.585-2.897,14.219-0.593l52.708,33.287
			c12.805,8.08,32.054,7.966,44.791-0.277l50.7-32.904c3.825-2.468,11.523-2.429,15.31,0.076l49.506,32.637
			c13.023,8.616,32.34,8.109,44.886-1.166l56.505-41.77c5.986-4.428,7.239-12.871,2.821-18.848
			c-4.418-5.996-12.861-7.258-18.848-2.821l-56.505,41.76c-3.386,2.506-10.471,2.716-14.009,0.363l-49.515-32.646
			c-12.737-8.415-32.025-8.511-44.82-0.191l-50.71,32.905c-3.892,2.505-11.81,2.562-15.739,0.096l-52.699-33.287
			c-13.148-8.281-32.417-7.487-44.838,1.854l-40.928,30.83c-3.375,2.562-10.414,2.802-13.971,0.487l-50.7-32.876
			c-13.33-8.673-32.618-7.516-44.829,2.678L4.847,402.181c-5.718,4.763-6.483,13.254-1.73,18.973
			C5.813,424.356,9.638,426.001,13.501,426.001z"/>
		<path d="M179.841,247.603c-41.549,0-75.229,33.679-75.229,75.219c0,5.805,0.717,11.437,1.96,16.878l45.871,29.739
			c0,0,0.583,0.144,1.568,0.144c1.167,0,2.037-0.259,2.267-0.383l40.774-30.715c14.984-11.293,39.11-12.316,55.032-2.275
			l1.568,0.984c0.899-4.656,1.416-9.457,1.416-14.372C255.06,281.292,221.38,247.603,179.841,247.603z"/>
		<path d="M305.292,369.449c0.479,0.238,5.508,0.238,6.11-0.087l50.644-32.856c15.28-9.926,39.464-9.811,54.659,0.229l49.505,32.627
			c0.152,0,3.49,0.02,3.892-0.2l45.996-34.005c-20.426-13.999-130.844-50.06-199.054-71.584c-0.096-0.784-0.086-1.568-0.248-2.353
			l-22.721-109.663c-3.213-15.51-18.37-25.494-33.909-22.271c-15.52,3.213-25.484,18.389-22.271,33.909l18.417,88.94
			c-1.454,1.253-2.907,2.486-4.045,3.404c-2.668,2.161-5.346,4.36-7.87,6.656c14.927,15.874,24.136,37.179,24.136,60.636
			c0,7.487-0.995,14.726-2.754,21.688L305.292,369.449z"/>
	</g>
</g>
<g>
</g>
<g>
</g>
<g>
</g>
<g>
</g>
<g>
</g>
<g>
</g>
<g>
</g>
<g>
</g>
<g>
</g>
<g>
</g>
<g>
</g>
<g>
</g>
<g>
</g>
<g>
</g>
<g>
</g>
</svg>
