<?xml version="1.0" encoding="iso-8859-1"?>
<!-- Generator: Adobe Illustrator 16.0.0, SVG Export Plug-In . SVG Version: 6.00 Build 0)  -->
<!DOCTYPE svg PUBLIC "-//W3C//DTD SVG 1.1//EN" "http://www.w3.org/Graphics/SVG/1.1/DTD/svg11.dtd">
<svg version="1.1" id="Capa_1" xmlns="http://www.w3.org/2000/svg" xmlns:xlink="http://www.w3.org/1999/xlink" x="0px" y="0px"
	 width="507.863px" height="507.863px" viewBox="0 0 507.863 507.863" style="enable-background:new 0 0 507.863 507.863;"
	 xml:space="preserve">
<g>
	<g>
		<path d="M462.708,87.21c-9.15-1.817-19.135-4.647-27.463-8.252c-3.748-1.606-4.887-0.421-2.725,3.031l3.785,6.091l-28.18,5.986
			C381.456-7.593,286.194,1.989,285.19,2.104c-6.024,0.708-10.424,6.177-9.734,12.24c0.688,6.062,6.177,10.433,12.24,9.734
			c3.222-0.373,76.51-7.688,98.742,74.578l-52.957,11.246c-3.367-2.936-7.709-4.762-12.508-4.762H203.545
			c-2.458-2.458-6.187-4.083-9.428-4.083h-68.659c-5.278,0-9.409,4.274-9.237,9.553l2.812,83.509
			c-0.201,0.115-0.392,0.105-0.593,0.229c-46.168,30.609-76.634,83.05-76.634,142.568c0,94.42,76.557,170.947,170.949,170.947
			c67.903,0,126.483-39.617,154.081-96.963l14.295,24.002c7.277,11.914,23.803,16.781,36.434,9.285
			c12.623-7.488,16.324-23.342,9.285-36.424l-82.678-139.248c-4.809-8.109-13.281-12.719-22.051-12.986H206.185V143.39h114.807
			c10.559,0,19.125-8.568,19.125-19.125c0-0.229-0.057-0.459-0.066-0.688c13.215-2.802,31.643-6.713,49.4-10.49
			c12.115,73.803-49.074,109.204-51.732,110.676c-5.346,2.936-7.297,9.677-4.352,15.014c2.41,4.341,7.305,6.444,11.914,5.488
			c1.072-0.22,2.123-0.593,3.109-1.147c0.812-0.439,78.336-44.465,62.824-134.649c11.896-2.534,22.08-4.686,28.143-5.977
			l-0.994,7.076c-0.555,4.045,0.975,4.657,3.748,1.664c6.148-6.665,14.115-13.292,21.736-18.685
			C467.175,90.212,466.706,87.994,462.708,87.21z M315.856,325.287l27.512,46.188c-15.291,57.92-67.902,100.645-130.604,100.645
			c-74.654,0-135.175-60.512-135.175-135.193c0-38.969,16.553-74.043,42.926-98.714l1.54,45.699
			c2.094,24.213,22.405,41.482,46.407,41.367h147.396V325.287z"/>
		<circle cx="154.863" cy="45.479" r="45.479"/>
	</g>
</g>
<g>
</g>
<g>
</g>
<g>
</g>
<g>
</g>
<g>
</g>
<g>
</g>
<g>
</g>
<g>
</g>
<g>
</g>
<g>
</g>
<g>
</g>
<g>
</g>
<g>
</g>
<g>
</g>
<g>
</g>
</svg>
