<?xml version="1.0" encoding="iso-8859-1"?>
<!-- Generator: Adobe Illustrator 16.0.0, SVG Export Plug-In . SVG Version: 6.00 Build 0)  -->
<!DOCTYPE svg PUBLIC "-//W3C//DTD SVG 1.1//EN" "http://www.w3.org/Graphics/SVG/1.1/DTD/svg11.dtd">
<svg version="1.1" id="Capa_1" xmlns="http://www.w3.org/2000/svg" xmlns:xlink="http://www.w3.org/1999/xlink" x="0px" y="0px"
	 width="540.463px" height="540.463px" viewBox="0 0 540.463 540.463" style="enable-background:new 0 0 540.463 540.463;"
	 xml:space="preserve">
<g>
	<g>
		<path d="M59.85,273.555c-1.291,4.6-0.909,9.686,1.54,14.229c3.452,6.416,10.05,10.07,16.858,10.07c3.06,0,6.158-0.736,9.046-2.287
			l73.526-39.569c3.461-1.865,6.264-4.743,8.023-8.252l37.676-74.989l22.013,81.894c-0.918,4.303-0.985,8.845,0.239,13.387
			l18.178,67.616l-25.972,6.99l-3.098-80.363c-0.507-13.196-11.781-23.533-24.805-22.969c-13.196,0.507-23.476,11.618-22.969,24.805
			l9.763,253.359c0.498,12.881,11.093,22.988,23.868,22.988c0.315,0,0.622-0.01,0.937-0.02
			c13.196-0.506,23.476-11.617,22.969-24.805l-4.81-124.705c1.76-0.066,3.529-0.229,5.298-0.707l31.231-8.396l4.16,15.492
			c3.443,12.803,15.023,21.248,27.683,21.248c2.468,0,4.973-0.326,7.459-0.996c11.867-3.193,19.899-13.387,21.028-24.938
			c5.384,6.73,13.569,10.834,22.318,10.834c2.468,0,4.963-0.326,7.459-0.994c15.31-4.113,24.375-19.852,20.263-35.152l-3.796-14.143
			l43.93-11.811l58.016,109.672c4.284,8.109,12.575,12.729,21.152,12.729c3.768,0,7.603-0.898,11.16-2.783
			c11.676-6.178,16.132-20.645,9.954-32.311l-96.543-182.482c3.586-2.983,6.12-7.248,6.751-12.24l12.212-95.778
			c1.252-9.85-5.24-19.029-14.946-21.114l-128.75-27.722c-5.432-1.195-10.806,0.134-15.022,3.117L208.9,109.921
			c-7.621-0.717-15.233,3.184-18.867,10.423l-52.661,104.824l-32.713,17.604c1.138-5.689,1.157-11.685-0.449-17.671
			c-5.594-20.798-26.985-33.134-47.784-27.54c-20.808,5.594-33.134,26.995-27.55,47.793C32.941,260.473,45.382,271.01,59.85,273.555
			z M392.415,150.762l-6.034,47.268c-7.248-6.502-18.016-8.205-27.1-3.404c-11.676,6.177-16.132,20.646-9.955,32.312l37.619,71.088
			l-33.401,8.979l-18.542-68.965c-0.679-2.543-1.778-4.829-3.051-6.99l-26.632-99.039L392.415,150.762z"/>
		<circle cx="221.934" cy="45.804" r="45.804"/>
	</g>
</g>
<g>
</g>
<g>
</g>
<g>
</g>
<g>
</g>
<g>
</g>
<g>
</g>
<g>
</g>
<g>
</g>
<g>
</g>
<g>
</g>
<g>
</g>
<g>
</g>
<g>
</g>
<g>
</g>
<g>
</g>
</svg>
