<?xml version="1.0" encoding="iso-8859-1"?>
<!-- Generator: Adobe Illustrator 16.0.0, SVG Export Plug-In . SVG Version: 6.00 Build 0)  -->
<!DOCTYPE svg PUBLIC "-//W3C//DTD SVG 1.1//EN" "http://www.w3.org/Graphics/SVG/1.1/DTD/svg11.dtd">
<svg version="1.1" id="Capa_1" xmlns="http://www.w3.org/2000/svg" xmlns:xlink="http://www.w3.org/1999/xlink" x="0px" y="0px"
	 width="554.443px" height="554.443px" viewBox="0 0 554.443 554.443" style="enable-background:new 0 0 554.443 554.443;"
	 xml:space="preserve">
<g>
	<g>
		<circle cx="74.612" cy="285.931" r="45.805"/>
		<path d="M505.383,358.969c-4.427-6.731-11.934-10.776-19.985-10.776H62.917c-8.597,0-16.534,4.618-20.789,12.105L3.123,429.005
			c-6.521,11.484-2.496,26.077,8.989,32.599c3.729,2.113,7.774,3.117,11.781,3.117c8.319,0,16.409-4.352,20.808-12.106l32.13-56.601
			h395.678l38.039,57.93c7.258,11.045,22.08,14.096,33.105,6.856c11.035-7.248,14.114-22.07,6.866-33.105L505.383,358.969z"/>
		<path d="M321.047,331.754v-0.296h45.699c13.206,0,23.906-10.701,23.906-23.906c0-13.206-10.7-23.906-23.906-23.906h-45.699v-7.277
			c0-5.279-4.274-9.562-9.562-9.562h-71.222l17.28-82.649c0.382-1.836,0.401-3.643,0.258-5.422
			c11.647-3.156,21.382-10.633,27.415-21.095c6.044-10.49,7.641-22.692,4.504-34.377c-5.316-19.747-23.294-33.545-43.719-33.545
			c-3.969,0-7.927,0.526-11.781,1.559c-10.958,2.945-20.091,9.83-26.191,19.307c-10.892-8.214-25.207-11.666-39.407-7.851
			c-24.442,6.569-38.91,31.69-32.35,56.122c2.85,10.605,9.324,19.163,17.595,25.111c-0.956,1.836-1.702,3.806-2.027,5.967
			l-12.747,84.465c-0.258,1.702-0.201,3.376-0.02,5.011v52.326h181.975V331.754z M239.163,109.761
			c2.228-0.603,4.533-0.909,6.818-0.909c11.791,0,22.175,7.966,25.254,19.383c1.817,6.751,0.899,13.799-2.601,19.852
			c-3.49,6.053-9.132,10.395-15.883,12.202c-10.002,2.697-20.425-1.147-26.804-8.644c0.555-5.413,0.287-10.987-1.214-16.553
			c-0.841-3.118-1.999-6.063-3.404-8.836c0.526-1.463,1.147-2.907,1.941-4.293C226.77,115.909,232.412,111.568,239.163,109.761z
			 M219.082,171.4c0.679,0.507,1.425,0.918,2.132,1.377c-0.478,1.128-0.87,2.305-1.128,3.548l-18.915,90.471H178.9l10.739-71.154
			c0.201-1.358,0.249-2.697,0.172-4.017c0.861-0.182,1.721-0.191,2.572-0.421C203.935,188.116,213.144,180.771,219.082,171.4z"/>
	</g>
</g>
<g>
</g>
<g>
</g>
<g>
</g>
<g>
</g>
<g>
</g>
<g>
</g>
<g>
</g>
<g>
</g>
<g>
</g>
<g>
</g>
<g>
</g>
<g>
</g>
<g>
</g>
<g>
</g>
<g>
</g>
</svg>
