<?xml version="1.0" encoding="iso-8859-1"?>
<!-- Generator: Adobe Illustrator 16.0.0, SVG Export Plug-In . SVG Version: 6.00 Build 0)  -->
<!DOCTYPE svg PUBLIC "-//W3C//DTD SVG 1.1//EN" "http://www.w3.org/Graphics/SVG/1.1/DTD/svg11.dtd">
<svg version="1.1" id="Capa_1" xmlns="http://www.w3.org/2000/svg" xmlns:xlink="http://www.w3.org/1999/xlink" x="0px" y="0px"
	 width="535.19px" height="535.191px" viewBox="0 0 535.19 535.191" style="enable-background:new 0 0 535.19 535.191;"
	 xml:space="preserve">
<g>
	<g>
		<path d="M382.735,173.256c0-5.164-4.169-9.333-9.323-9.333s-9.314,4.169-9.314,9.333v69.146H224.61
			c-7.153,0-12.967,5.795-12.967,12.957v34.358c0,7.152,5.814,12.957,12.967,12.957h36.806v156.634c0,5.145,4.169,9.323,9.323,9.323
			h31.557c5.154,0,9.323-4.179,9.323-9.323V302.675h210.604c7.162,0,12.967-5.805,12.967-12.957V255.36
			c0-7.162-5.814-12.957-12.967-12.957H382.735V173.256z"/>
		<path d="M19.59,478.205h17.825c5.278,0,9.562-4.274,9.562-9.562s-4.284-9.562-9.562-9.562H19.59c-0.134,0-0.258,0-0.373-0.01
			c0.182-0.812,0.612-2.075,1.578-3.7l37.312-62.635c8.731,7.373,19.794,10.624,22.644,5.422c1.731-3.155,2.754-6.713,2.907-10.423
			l2.897-66.995l49.667,42.515v75.773c0,13.168,10.681,23.849,23.849,23.849c13.158,0,23.839-10.681,23.839-23.849v-86.731
			c0-6.962-3.031-13.579-8.329-18.121L113.14,280.71v-40.172l22.376-1.023c2.85-0.124,5.594-1.004,7.965-2.562l36.185-23.62
			l13.856,4.332c1.587,0.488,3.175,0.727,4.753,0.727c6.77,0,13.043-4.36,15.166-11.159c1.587-5.087,0.468-10.356-2.505-14.306
			l14.898-9.734c7.354-4.781,9.409-14.641,4.619-21.994c-2.611-4.016-6.742-6.388-11.131-7l0.947-2.132
			c0.325-0.708,0.239-1.492-0.115-2.152c0.488-2.19,1.654-6.588,3.834-11.513c1.272-2.812,2.706-5.432,4.265-7.746
			c0.545-0.631,5.46-6.273,16.955-15.386c5.087-4.025,8.883-7.354,11.896-10.538c0.383-0.086,0.717-0.296,0.88-0.679
			c0.048-0.105,0.067-0.22,0.086-0.344c3.768-4.16,6.264-8.176,8.568-13.33c2.869-6.426,3.232-13.77,0.975-19.641
			c-2.046-5.288-5.996-9.247-11.705-11.752c-5.403-2.448-11.111-2.649-16.514-0.593c-6.062,2.304-11.504,7.497-14.191,13.521
			c-4.217,9.467-5.164,16.782-4.179,32.56h-0.01c0,0.019,0,0.038,0,0.038c0.966,15.501-0.105,22.883-0.105,22.893
			c0,0.058-0.698,3.787-2.993,8.951c-1.568,3.5-3.519,6.837-5.775,9.936c-0.756,0.163-1.425,0.603-1.77,1.368l-4.81,10.796
			l-30.715,20.052l-45.021-14.076c-1.53-0.488-3.136-0.727-4.743-0.727H113.14c0-0.047-48.692-0.047-48.692-0.047
			c-13.168,0-23.849,10.671-23.849,23.858v100.052c-0.22,1.368-0.468,2.764-0.536,4.208l-2.629,61.047
			c-0.335,7.803,2.601,17.356,7.201,25.159L4.366,445.568c-5.001,8.405-5.747,16.974-2.027,23.514
			C5.628,474.886,11.921,478.205,19.59,478.205z M113.14,195.508h9.515l17.681,5.537l-10.585,6.904l-16.61,0.755V195.508
			L113.14,195.508z"/>
		<circle cx="76.869" cy="120.777" r="35.448"/>
	</g>
</g>
<g>
</g>
<g>
</g>
<g>
</g>
<g>
</g>
<g>
</g>
<g>
</g>
<g>
</g>
<g>
</g>
<g>
</g>
<g>
</g>
<g>
</g>
<g>
</g>
<g>
</g>
<g>
</g>
<g>
</g>
</svg>
