<?xml version="1.0" encoding="iso-8859-1"?>
<!-- Generator: Adobe Illustrator 16.0.0, SVG Export Plug-In . SVG Version: 6.00 Build 0)  -->
<!DOCTYPE svg PUBLIC "-//W3C//DTD SVG 1.1//EN" "http://www.w3.org/Graphics/SVG/1.1/DTD/svg11.dtd">
<svg version="1.1" id="Capa_1" xmlns="http://www.w3.org/2000/svg" xmlns:xlink="http://www.w3.org/1999/xlink" x="0px" y="0px"
	 width="504.822px" height="504.822px" viewBox="0 0 504.822 504.822" style="enable-background:new 0 0 504.822 504.822;"
	 xml:space="preserve">
<g>
	<g>
		<path d="M300.338,120.205c20.98,0,38.051-16.964,38.051-37.963c0-20.952-17.061-38.021-38.051-38.021
			c-20.961,0-38.029,17.088-38.029,38.021C262.338,103.232,279.377,120.205,300.338,120.205z"/>
		<path d="M286.139,202.95c4.332,6.856,10.299,9.601,15.836,9.486h73.439c22.777,0,22.777-29.73,0-29.73l-63.438,0.134
			l-41.721-65.445c0,0-8.846-14.708-25.667-14.708c0,0-13.961-1.807-23.868,9.467l-80.401,80.564
			c-5.173,5.604-8.186,13.091-8.186,21.267c0,11.905,6.646,22.395,16.4,27.817l81.874,45.527v9.123
			c0,12.076,9.792,21.984,21.889,21.984c12.145,0,21.936-9.869,21.936-21.984v-30.486c0,0,2.908-17.04-16.523-26.363l-47.229-24.881
			l50.958-50.452L286.139,202.95z"/>
		<path d="M401.223,460.601c57.156,0,103.6-46.377,103.6-103.656c0-57.328-46.453-103.648-103.6-103.648
			c-57.23,0-103.695,46.34-103.695,103.648C297.527,414.271,344.01,460.601,401.223,460.601z"/>
		<path d="M207.305,356.944c0-57.309-46.436-103.648-103.725-103.648C46.474,253.296,0,299.655,0,356.944
			c0,57.279,46.474,103.656,103.581,103.656C160.898,460.601,207.305,414.224,207.305,356.944z"/>
	</g>
</g>
<g>
</g>
<g>
</g>
<g>
</g>
<g>
</g>
<g>
</g>
<g>
</g>
<g>
</g>
<g>
</g>
<g>
</g>
<g>
</g>
<g>
</g>
<g>
</g>
<g>
</g>
<g>
</g>
<g>
</g>
</svg>
