<?xml version="1.0" encoding="iso-8859-1"?>
<!-- Generator: Adobe Illustrator 16.0.0, SVG Export Plug-In . SVG Version: 6.00 Build 0)  -->
<!DOCTYPE svg PUBLIC "-//W3C//DTD SVG 1.1//EN" "http://www.w3.org/Graphics/SVG/1.1/DTD/svg11.dtd">
<svg version="1.1" id="Capa_1" xmlns="http://www.w3.org/2000/svg" xmlns:xlink="http://www.w3.org/1999/xlink" x="0px" y="0px"
	 width="582.121px" height="582.12px" viewBox="0 0 582.121 582.12" style="enable-background:new 0 0 582.121 582.12;"
	 xml:space="preserve">
<g>
	<g>
		<circle cx="167.063" cy="119.725" r="45.479"/>
		<path d="M383.386,106.807c0.794-0.909,7.908-9.084,24.585-22.3c7.373-5.852,12.871-10.662,17.251-15.271
			c0.545-0.105,1.032-0.439,1.281-0.994c0.067-0.163,0.086-0.325,0.115-0.488c5.479-6.043,9.084-11.867,12.421-19.345
			c4.15-9.323,4.686-19.957,1.396-28.467c-2.955-7.66-8.673-13.397-16.944-17.06c-7.842-3.529-16.123-3.825-23.954-0.841
			c-8.778,3.347-16.668,10.854-20.56,19.593c-6.12,13.732-7.487,24.327-6.062,47.22h-0.01c0,0.01,0,0.048,0,0.048
			c1.387,22.443-0.163,33.163-0.163,33.191c0,0.057-1.013,5.46-4.341,12.948c-2.267,5.106-5.087,9.936-8.357,14.42
			c-1.1,0.22-2.085,0.89-2.563,1.989l-7.22,16.208c-3.193,0.268-6.368,1.262-9.199,3.213l-73.908,50.825l-48.769-15.051v-1.788
			c-0.125-5.279-6.771-9.562-12.059-9.562h-68.659c-5.278,0-9.409,4.274-9.237,9.562l2.812,83.509
			c-0.201,0.115-0.392,0.096-0.593,0.239c-46.168,30.61-76.634,83.041-76.634,142.568c0,94.42,76.558,170.948,170.949,170.948
			c67.894,0,126.483-39.617,154.08-96.964l14.296,24.002c7.277,11.915,23.802,16.782,36.424,9.285
			c12.623-7.487,16.323-23.342,9.285-36.424l-82.668-139.249c-4.81-8.108-13.282-12.718-22.051-12.985H218.366V226.682l46.33,14.296
			c1.846,0.574,3.749,0.851,5.642,0.851c3.825,0,7.612-1.147,10.834-3.366l81.54-56.074c8.701-5.986,10.91-17.892,4.934-26.593
			c-0.746-1.09-1.587-2.075-2.505-2.955l6.675-14.994c0.468-1.042,0.334-2.181-0.173-3.108c0.708-3.185,2.391-9.572,5.547-16.696
			C379.054,113.94,381.12,110.153,383.386,106.807z M328.048,399.534l27.511,46.187c-15.29,57.92-67.903,100.646-130.604,100.646
			c-74.654,0-135.175-60.512-135.175-135.194c0-38.968,16.543-74.043,42.926-98.714l1.54,45.699
			c2.094,24.212,22.405,41.481,46.397,41.367h147.406V399.534z"/>
		<path d="M501.014,47.156c-14.937,0-27.1,12.154-27.1,27.09c0,14.937,12.153,27.101,27.1,27.101
			c14.928,0,27.091-12.154,27.091-27.101C528.105,59.31,515.942,47.156,501.014,47.156z M487.77,94.146
			c-1.491-0.995-2.878-2.171-4.111-3.462c2.782-4.16,5.479-9.868,5.479-16.438c0-7.487-3.481-12.402-6.513-15.271
			c1.139-1.368,2.42-2.601,3.825-3.682c3.787,3.643,7.994,9.744,7.994,18.953C494.455,82.403,491.108,89.298,487.77,94.146z
			 M518.973,89.996c-1.195,1.368-2.534,2.582-3.997,3.644c-3.232-4.82-6.35-11.504-6.35-19.393c0-8.826,3.863-14.803,7.525-18.484
			c1.367,1.119,2.601,2.4,3.701,3.796c-2.869,2.936-5.91,7.688-5.91,14.688C513.933,80.462,516.353,85.903,518.973,89.996z"/>
	</g>
</g>
<g>
</g>
<g>
</g>
<g>
</g>
<g>
</g>
<g>
</g>
<g>
</g>
<g>
</g>
<g>
</g>
<g>
</g>
<g>
</g>
<g>
</g>
<g>
</g>
<g>
</g>
<g>
</g>
<g>
</g>
</svg>
