<?xml version="1.0" encoding="iso-8859-1"?>
<!-- Generator: Adobe Illustrator 16.0.0, SVG Export Plug-In . SVG Version: 6.00 Build 0)  -->
<!DOCTYPE svg PUBLIC "-//W3C//DTD SVG 1.1//EN" "http://www.w3.org/Graphics/SVG/1.1/DTD/svg11.dtd">
<svg version="1.1" id="Capa_1" xmlns="http://www.w3.org/2000/svg" xmlns:xlink="http://www.w3.org/1999/xlink" x="0px" y="0px"
	 width="498.264px" height="498.264px" viewBox="0 0 498.264 498.264" style="enable-background:new 0 0 498.264 498.264;"
	 xml:space="preserve">
<g>
	<g>
		<circle cx="420.971" cy="386.334" r="77.293"/>
		<circle cx="208.826" cy="89.218" r="54.583"/>
		<path d="M115.553,463.628c63.811,0,115.543-51.732,115.543-115.543c0-23.361-7-45.078-18.924-63.266l32.512-118.154
			c0-5.278-4.284-9.562-9.562-9.562h-66.928c-2.343-0.631-4.829-0.842-7.382-0.517l-38.04,4.781
			c-5.996,0.755-11.274,4.284-14.248,9.534l-35.276,62.156c-1.521,2.687-2.247,5.575-2.391,8.462
			C29.242,258.991,0,300.119,0,348.085C0.01,411.896,51.743,463.628,115.553,463.628z M137.059,198.125l8.425-1.062l-10.261,37.275
			c-5.785-0.995-11.704-1.597-17.748-1.702L137.059,198.125z"/>
	</g>
</g>
<g>
</g>
<g>
</g>
<g>
</g>
<g>
</g>
<g>
</g>
<g>
</g>
<g>
</g>
<g>
</g>
<g>
</g>
<g>
</g>
<g>
</g>
<g>
</g>
<g>
</g>
<g>
</g>
<g>
</g>
</svg>
