<?xml version="1.0" encoding="iso-8859-1"?>
<!-- Generator: Adobe Illustrator 16.0.0, SVG Export Plug-In . SVG Version: 6.00 Build 0)  -->
<!DOCTYPE svg PUBLIC "-//W3C//DTD SVG 1.1//EN" "http://www.w3.org/Graphics/SVG/1.1/DTD/svg11.dtd">
<svg version="1.1" id="Capa_1" xmlns="http://www.w3.org/2000/svg" xmlns:xlink="http://www.w3.org/1999/xlink" x="0px" y="0px"
	 width="580.579px" height="580.578px" viewBox="0 0 580.579 580.578" style="enable-background:new 0 0 580.579 580.578;"
	 xml:space="preserve">
<g>
	<g>
		<path d="M266.946,580.578c67.903,0,126.483-39.618,154.09-96.964l14.296,24.001c7.277,11.925,23.801,16.783,36.434,9.286
			c12.612-7.488,16.323-23.343,9.275-36.414l-82.678-139.249c-4.81-8.109-13.282-12.719-22.051-12.996H260.367V212.766
			l56.753-29.318c4.476-2.314,7.861-6.302,9.41-11.093l28.688-88.453c1.664-5.135,1.023-10.442-1.329-14.86
			c8.73-7.152,14.41-17.882,14.41-30.045C368.298,17.461,350.837,0,329.293,0c-14.354,0-26.756,7.832-33.526,19.374
			c-1.913-1.683-4.169-3.031-6.751-3.863c-10.041-3.232-20.827,2.238-24.088,12.288l-20.244,62.434
			c-8.329-10.595-21.114-17.528-35.62-17.528c-25.121,0-45.489,20.368-45.489,45.479c0,22.768,16.782,41.453,38.613,44.781
			l-7.631,10.796h-14.898c-5.278,0-9.419,4.274-9.237,9.562l2.802,83.509c-0.201,0.115-0.392,0.096-0.593,0.239
			c-46.168,30.609-76.625,83.04-76.625,142.567C96.006,504.049,172.554,580.578,266.946,580.578z M270.054,133.187
			c1.109-1.568,1.979-3.299,2.572-5.135l22.75-70.15c4.791,8.578,12.66,15.09,22.193,18.111l-24.996,77.064l-41.032,21.2
			c-1.09-0.306-2.18-0.516-3.223-0.516h-6.933L270.054,133.187z M174.706,310.905l1.54,45.699
			c2.094,24.222,22.405,41.492,46.397,41.367h147.396l27.512,46.197c-15.281,57.91-67.894,100.636-130.604,100.636
			c-74.654,0-135.176-60.512-135.176-135.186C131.78,370.662,148.323,335.586,174.706,310.905z"/>
	</g>
</g>
<g>
</g>
<g>
</g>
<g>
</g>
<g>
</g>
<g>
</g>
<g>
</g>
<g>
</g>
<g>
</g>
<g>
</g>
<g>
</g>
<g>
</g>
<g>
</g>
<g>
</g>
<g>
</g>
<g>
</g>
</svg>
