<?xml version="1.0" encoding="iso-8859-1"?>
<!-- Generator: Adobe Illustrator 16.0.0, SVG Export Plug-In . SVG Version: 6.00 Build 0)  -->
<!DOCTYPE svg PUBLIC "-//W3C//DTD SVG 1.1//EN" "http://www.w3.org/Graphics/SVG/1.1/DTD/svg11.dtd">
<svg version="1.1" id="Capa_1" xmlns="http://www.w3.org/2000/svg" xmlns:xlink="http://www.w3.org/1999/xlink" x="0px" y="0px"
	 width="507.873px" height="507.873px" viewBox="0 0 507.873 507.873" style="enable-background:new 0 0 507.873 507.873;"
	 xml:space="preserve">
<g>
	<g>
		<circle cx="126" cy="45.479" r="45.479"/>
		<path d="M183.882,507.873c67.903,0,126.483-39.617,154.081-96.963l14.296,24.002c7.276,11.924,23.801,16.781,36.433,9.285
			c12.623-7.488,16.323-23.342,9.285-36.414L315.3,268.535c-4.811-8.109-13.282-12.719-22.052-12.996H177.303V151.087
			l141.439-20.971c7.086-1.052,12.604-5.89,14.984-12.144l6.225,14.64l25.504-38.805l126.999-69.175
			c2.314-1.263,3.175-4.169,1.913-6.483c-1.272-2.324-4.179-3.175-6.493-1.913L362.768,84.379l-45.536-5.259l6.177,14.564
			c-3.146-1.358-6.665-1.941-10.279-1.416l-135.835,20.148v-1.798c-0.125-5.279-6.77-9.562-12.058-9.562H96.576
			c-5.278,0-9.409,4.274-9.237,9.562l2.812,83.509c-0.21,0.115-0.392,0.096-0.593,0.239
			c-46.168,30.609-76.634,83.041-76.634,142.568C12.933,431.355,89.491,507.873,183.882,507.873z M91.642,238.202l1.54,45.699
			c2.094,24.223,22.405,41.492,46.397,41.367h147.396l27.511,46.197c-15.29,57.91-67.894,100.637-130.604,100.637
			c-74.654,0-135.175-60.512-135.175-135.186C48.716,297.957,65.259,262.883,91.642,238.202z"/>
	</g>
</g>
<g>
</g>
<g>
</g>
<g>
</g>
<g>
</g>
<g>
</g>
<g>
</g>
<g>
</g>
<g>
</g>
<g>
</g>
<g>
</g>
<g>
</g>
<g>
</g>
<g>
</g>
<g>
</g>
<g>
</g>
</svg>
