<?xml version="1.0" encoding="iso-8859-1"?>
<!-- Generator: Adobe Illustrator 16.0.0, SVG Export Plug-In . SVG Version: 6.00 Build 0)  -->
<!DOCTYPE svg PUBLIC "-//W3C//DTD SVG 1.1//EN" "http://www.w3.org/Graphics/SVG/1.1/DTD/svg11.dtd">
<svg version="1.1" id="Capa_1" xmlns="http://www.w3.org/2000/svg" xmlns:xlink="http://www.w3.org/1999/xlink" x="0px" y="0px"
	 width="523.288px" height="523.288px" viewBox="0 0 523.288 523.288" style="enable-background:new 0 0 523.288 523.288;"
	 xml:space="preserve">
<g>
	<g>
		<circle cx="109.065" cy="46.579" r="46.579"/>
		<path d="M465.431,216.438c-11.149-4.705-23.103-10.911-32.741-17.671c-4.332-3.022-6.092-1.817-4.256,3.136l3.213,8.721
			l-37.37,0.21C387.038,74.73,263.48,61.946,262.189,61.831c-7.841-0.688-14.869,5.097-15.577,12.995
			c-0.708,7.88,5.116,14.87,12.996,15.578c4.207,0.373,99.22,10.28,105.924,120.602l-65.36,0.383
			c-5.813-7.995-16.18-11.896-26.201-8.865l-100.406,30.485c-3.251,0.995-6.244,2.658-8.807,4.906l-2.209,1.941V133.875
			c-4.379-10.232-15.692-17.404-27.53-17.404H73.312c-10.557,0-19.125,8.558-19.125,19.125v142.988l0.411,208.415
			c0.258,15.988,4.8,31.059,20.081,35.267c2.543,0.688,5.087,1.022,7.602,1.022c12.604,0,26.096-6.272,26.718-33.774V326.32
			c4.055,2.802,8.788,4.274,13.56,4.274c5.594,0,11.208-1.951,15.75-5.929l54.095-47.401l95.472-28.975
			c8.577-2.61,14.506-9.62,16.304-17.786c17.127-0.105,39.627-0.229,61.392-0.363c-3.94,96.935-90.949,125.881-94.707,127.066
			c-7.564,2.333-11.801,10.385-9.448,17.949c1.903,6.148,7.583,10.088,13.693,10.088c1.416,0,2.85-0.201,4.256-0.631
			c1.138-0.345,111.164-35.983,115.084-154.635c15.778-0.096,29.271-0.172,37.313-0.21l-3.117,8.74
			c-1.76,4.991,0.019,6.167,4.312,3.079c9.562-6.856,21.42-13.187,32.522-18.044C470.327,221.429,470.308,218.493,465.431,216.438z"
			/>
	</g>
</g>
<g>
</g>
<g>
</g>
<g>
</g>
<g>
</g>
<g>
</g>
<g>
</g>
<g>
</g>
<g>
</g>
<g>
</g>
<g>
</g>
<g>
</g>
<g>
</g>
<g>
</g>
<g>
</g>
<g>
</g>
</svg>
