<?xml version="1.0" encoding="iso-8859-1"?>
<!-- Generator: Adobe Illustrator 16.0.0, SVG Export Plug-In . SVG Version: 6.00 Build 0)  -->
<!DOCTYPE svg PUBLIC "-//W3C//DTD SVG 1.1//EN" "http://www.w3.org/Graphics/SVG/1.1/DTD/svg11.dtd">
<svg version="1.1" id="Capa_1" xmlns="http://www.w3.org/2000/svg" xmlns:xlink="http://www.w3.org/1999/xlink" x="0px" y="0px"
	 width="554.615px" height="554.615px" viewBox="0 0 554.615 554.615" style="enable-background:new 0 0 554.615 554.615;"
	 xml:space="preserve">
<g>
	<g>
		<circle cx="89.247" cy="384.771" r="89.246"/>
		<circle cx="248.835" cy="135.18" r="54.583"/>
		<circle cx="465.369" cy="384.771" r="89.246"/>
		<path d="M307.205,279.182h80.869c10.559,0,19.125-8.567,19.125-19.125s-8.566-19.125-19.125-19.125h-70.943l-21.182-30.122
			c-1.09-1.549-2.408-2.802-3.824-3.92c-1.75-2.266-4.361-3.815-7.439-3.815h-0.727c-2.4-0.469-4.887-0.478-7.326,0h-63.667
			c-5.278,0-9.562,4.284-9.562,9.562v165.182c-0.277,1.119-0.631,2.219-0.774,3.387c-1.96,15.73,9.189,30.064,24.91,32.023
			l89.248,11.15c1.213,0.152,2.408,0.221,3.596,0.221c14.258,0,26.611-10.615,28.428-25.131c1.961-15.73-9.189-30.064-24.91-32.025
			l-29.652-3.699v-89.707C297.748,277.289,302.338,279.182,307.205,279.182z"/>
	</g>
</g>
<g>
</g>
<g>
</g>
<g>
</g>
<g>
</g>
<g>
</g>
<g>
</g>
<g>
</g>
<g>
</g>
<g>
</g>
<g>
</g>
<g>
</g>
<g>
</g>
<g>
</g>
<g>
</g>
<g>
</g>
</svg>
