<?xml version="1.0" encoding="iso-8859-1"?>
<!-- Generator: Adobe Illustrator 16.0.0, SVG Export Plug-In . SVG Version: 6.00 Build 0)  -->
<!DOCTYPE svg PUBLIC "-//W3C//DTD SVG 1.1//EN" "http://www.w3.org/Graphics/SVG/1.1/DTD/svg11.dtd">
<svg version="1.1" id="Capa_1" xmlns="http://www.w3.org/2000/svg" xmlns:xlink="http://www.w3.org/1999/xlink" x="0px" y="0px"
	 width="540.453px" height="540.453px" viewBox="0 0 540.453 540.453" style="enable-background:new 0 0 540.453 540.453;"
	 xml:space="preserve">
<g>
	<g>
		<path d="M71.465,219.249c1.387,5.413,2.152,10.949,2.372,16.505c-0.736,0.851-1.081,1.979-0.784,3.146l5.47,21.545l-2.658,1.434
			c-9.304,5.002-12.785,16.6-7.793,25.895c3.452,6.426,10.05,10.07,16.868,10.07c3.05,0,6.158-0.727,9.037-2.275l73.526-39.57
			c3.462-1.865,6.264-4.743,8.033-8.252l37.667-74.989l22.022,81.903c-0.928,4.303-0.995,8.845,0.229,13.387l18.169,67.625
			l-25.972,6.973l-3.099-80.364c-0.507-13.206-11.733-23.61-24.814-22.969c-13.187,0.506-23.476,11.618-22.959,24.805l9.773,253.358
			c0.497,12.881,11.092,22.979,23.868,22.979c0.316,0,0.622-0.01,0.947-0.02c13.187-0.506,23.476-11.617,22.959-24.814
			l-4.81-124.695c1.759-0.076,3.528-0.229,5.297-0.707l31.231-8.396l4.169,15.502c3.443,12.814,15.033,21.258,27.694,21.258
			c2.467,0,4.963-0.326,7.458-0.996c11.877-3.193,19.909-13.396,21.028-24.947c5.384,6.732,13.569,10.844,22.319,10.844
			c2.467,0,4.972-0.326,7.458-0.994c15.31-4.121,24.375-19.852,20.264-35.152l-3.807-14.162l43.921-11.801l58.025,109.682
			c4.284,8.109,12.574,12.738,21.152,12.738c3.777,0,7.602-0.898,11.159-2.783c11.676-6.178,16.132-20.635,9.955-32.311
			l-96.544-182.501c3.586-2.983,6.12-7.249,6.752-12.24l12.211-95.778c1.253-9.849-5.24-19.029-14.956-21.114L295.554,89.343
			c-5.441-1.195-10.815,0.134-15.023,3.117l-64.958,17.461c-7.612-0.708-15.224,3.174-18.857,10.423l-52.642,104.833L92.79,252.775
			l-4.513-17.748c-0.268-1.1-1.081-1.922-2.056-2.333c-1.415-2.945-4.054-8.998-5.996-16.543c-1.071-4.37-1.798-8.616-2.084-12.651
			c0.048-1.205,0.583-12.029,5.489-32.732c2.161-9.151,3.5-16.342,4.093-22.663c0.354-0.42,0.536-0.994,0.373-1.578
			c-0.039-0.163-0.134-0.306-0.201-0.45c0.564-8.147-0.22-14.937-2.228-22.883c-2.515-9.897-8.683-18.57-16.533-23.218
			c-7.057-4.188-15.119-5.154-23.878-2.897c-8.338,2.094-15.013,6.98-19.326,14.172c-4.829,8.07-6.369,18.848-4.007,28.123
			c3.701,14.573,9.19,23.744,24.471,40.822v0.01c0,0.019,0.029,0.038,0.029,0.038c14.975,16.763,20.416,26.134,20.425,26.163
			C66.885,206.436,69.448,211.303,71.465,219.249z M399.105,150.763l-6.033,47.267c-7.249-6.493-18.016-8.205-27.101-3.404
			c-11.676,6.178-16.132,20.646-9.954,32.312l37.618,71.098l-33.401,8.969l-18.532-68.964c-0.679-2.544-1.788-4.829-3.051-7
			l-26.622-99.029L399.105,150.763z"/>
		<circle cx="228.625" cy="45.804" r="45.804"/>
	</g>
</g>
<g>
</g>
<g>
</g>
<g>
</g>
<g>
</g>
<g>
</g>
<g>
</g>
<g>
</g>
<g>
</g>
<g>
</g>
<g>
</g>
<g>
</g>
<g>
</g>
<g>
</g>
<g>
</g>
<g>
</g>
</svg>
