<?xml version="1.0" encoding="iso-8859-1"?>
<!-- Generator: Adobe Illustrator 16.0.0, SVG Export Plug-In . SVG Version: 6.00 Build 0)  -->
<!DOCTYPE svg PUBLIC "-//W3C//DTD SVG 1.1//EN" "http://www.w3.org/Graphics/SVG/1.1/DTD/svg11.dtd">
<svg version="1.1" id="Capa_1" xmlns="http://www.w3.org/2000/svg" xmlns:xlink="http://www.w3.org/1999/xlink" x="0px" y="0px"
	 width="504.832px" height="504.832px" viewBox="0 0 504.832 504.832" style="enable-background:new 0 0 504.832 504.832;"
	 xml:space="preserve">
<g>
	<g>
		<path d="M300.348,120.209c20.98,0,38.051-16.964,38.051-37.963c0-20.951-17.061-38.021-38.051-38.021
			c-20.961,0-38.029,17.088-38.029,38.021C262.348,103.236,279.377,120.209,300.348,120.209z"/>
		<path d="M220.731,112.167l-80.401,80.564c-5.173,5.604-8.186,13.091-8.186,21.267c0,11.905,6.646,22.396,16.4,27.817
			l81.874,45.527v85.622c0,12.078,9.792,21.984,21.889,21.984c12.145,0,21.936-9.868,21.936-21.984V265.971
			c0,0,2.908-17.041-16.523-26.364l-47.229-24.881l50.958-50.452l24.682,38.68c4.332,6.856,10.299,9.601,15.836,9.486h16.064
			c22.787,0,22.787-29.729,0-29.729l-6.062,0.134l-41.711-65.446c0,0-8.855-14.707-25.667-14.707
			C244.599,102.701,230.638,100.884,220.731,112.167z"/>
		<path d="M297.537,356.949c0,57.327,46.482,103.657,103.695,103.657c57.156,0,103.6-46.378,103.6-103.657
			c0-57.327-46.443-103.648-103.6-103.648C343.992,253.3,297.537,299.64,297.537,356.949z"/>
		<path d="M207.305,356.949c0-57.309-46.436-103.648-103.724-103.648C46.474,253.3,0,299.66,0,356.949
			c0,57.279,46.474,103.657,103.581,103.657C160.908,460.606,207.305,414.228,207.305,356.949z"/>
	</g>
</g>
<g>
</g>
<g>
</g>
<g>
</g>
<g>
</g>
<g>
</g>
<g>
</g>
<g>
</g>
<g>
</g>
<g>
</g>
<g>
</g>
<g>
</g>
<g>
</g>
<g>
</g>
<g>
</g>
<g>
</g>
</svg>
