<?xml version="1.0" encoding="iso-8859-1"?>
<!-- Generator: Adobe Illustrator 16.0.0, SVG Export Plug-In . SVG Version: 6.00 Build 0)  -->
<!DOCTYPE svg PUBLIC "-//W3C//DTD SVG 1.1//EN" "http://www.w3.org/Graphics/SVG/1.1/DTD/svg11.dtd">
<svg version="1.1" id="Capa_1" xmlns="http://www.w3.org/2000/svg" xmlns:xlink="http://www.w3.org/1999/xlink" x="0px" y="0px"
	 width="554.434px" height="554.434px" viewBox="0 0 554.434 554.434" style="enable-background:new 0 0 554.434 554.434;"
	 xml:space="preserve">
<g>
	<g>
		<circle cx="74.612" cy="280.215" r="45.804"/>
		<path d="M505.394,353.253c-4.428-6.732-11.935-10.786-19.986-10.786h-122.18c-0.335-5.585-0.373-11.083-0.096-16.247h107.023
			c7.918,0,14.344-6.416,14.344-14.344s-6.426-14.344-14.344-14.344h-71.068c0-3.213-1.453-6.359-4.398-8.157
			c-13.904-8.52-25.694-9.687-35.085-3.471c-4.16,2.754-7.277,6.818-9.601,11.628h-28.965v-26.889c0-5.279-4.274-9.562-9.562-9.562
			l-42.381-4.781c-23.4-2.639-59.862-2.639-81.435,0c-2.821,0.344-5.546,0.679-8.195,1.004l10.175-67.377
			c0.201-1.358,0.249-2.696,0.172-4.016c0.861-0.172,1.721-0.191,2.582-0.421c24.422-6.569,38.91-31.7,32.35-56.122
			c-6.579-24.432-31.699-38.91-56.132-32.35c-24.441,6.569-38.91,31.7-32.35,56.123c2.85,10.604,9.323,19.163,17.595,25.111
			c-0.956,1.836-1.702,3.806-2.027,5.967l-12.747,84.466c-0.258,1.702-0.21,3.365-0.019,5.001v42.772
			c0,5.279,4.255,9.113,9.505,8.549l35.429-3.768c24.824-2.639,67.779,2.143,93.215,4.781c21.201,2.2,37.342,0.746,42.18,0.201
			h24.509c-0.268,5.757-0.172,11.322,0.115,16.247h-281.1c-8.597,0-16.533,4.618-20.789,12.105L3.123,423.28
			c-6.522,11.484-2.496,26.077,8.989,32.599c3.729,2.113,7.774,3.117,11.781,3.117c8.319,0,16.409-4.351,20.808-12.106l32.13-56.609
			h395.678l38.03,57.93c7.258,11.044,22.079,14.085,33.105,6.855c11.035-7.248,14.114-22.069,6.865-33.104L505.394,353.253z"/>
	</g>
</g>
<g>
</g>
<g>
</g>
<g>
</g>
<g>
</g>
<g>
</g>
<g>
</g>
<g>
</g>
<g>
</g>
<g>
</g>
<g>
</g>
<g>
</g>
<g>
</g>
<g>
</g>
<g>
</g>
<g>
</g>
</svg>
