<?xml version="1.0" encoding="iso-8859-1"?>
<!-- Generator: Adobe Illustrator 16.0.0, SVG Export Plug-In . SVG Version: 6.00 Build 0)  -->
<!DOCTYPE svg PUBLIC "-//W3C//DTD SVG 1.1//EN" "http://www.w3.org/Graphics/SVG/1.1/DTD/svg11.dtd">
<svg version="1.1" id="Capa_1" xmlns="http://www.w3.org/2000/svg" xmlns:xlink="http://www.w3.org/1999/xlink" x="0px" y="0px"
	 width="566.573px" height="566.573px" viewBox="0 0 566.573 566.573" style="enable-background:new 0 0 566.573 566.573;"
	 xml:space="preserve">
<g>
	<g>
		<circle cx="284.266" cy="81.276" r="71.719"/>
		<path d="M402.754,199.631l40.812,248.959c0.774,4.686,4.819,8.014,9.429,8.014c0.517,0,1.033-0.038,1.559-0.124
			c5.212-0.852,8.75-5.767,7.89-10.978L420.76,191.226c5.231-5.03,8.109-12.288,7.249-19.89L413.77,46.364
			c-1.252-10.968-9.734-19.278-20.177-20.846l-2.868-17.5c-0.852-5.202-5.776-8.711-10.978-7.889
			c-5.212,0.851-8.75,5.776-7.89,10.978l3.185,19.412c-6.14,4.973-9.726,12.833-8.76,21.257l12.011,105.513l-24.26,7.812
			c-0.488-0.048-0.947-0.153-1.435-0.153H223.505c-1.97,0-3.834,0.382-5.632,0.937l-28.63-7.43L195.2,52.426
			c0.325-5.804-1.53-11.169-4.743-15.491l4.236-25.828c0.851-5.212-2.677-10.127-7.889-10.978
			c-5.231-0.86-10.127,2.678-10.978,7.889l-3.146,19.211l0,0c-13.187-0.774-24.47,9.352-25.207,22.52l-7.038,125.575
			c-0.344,6.091,1.692,11.81,5.307,16.294l-41.616,253.884c-0.851,5.212,2.678,10.127,7.889,10.979
			c0.526,0.086,1.042,0.124,1.559,0.124c4.6,0,8.654-3.328,9.429-8.014l40.564-247.42l40.851,10.614v87.038
			c0,0-2.151,21.104,4.781,43.959v154.463c0,1.722,0.306,3.366,0.727,4.953l-36.835,30.523c-8.138,6.742-9.266,18.791-2.524,26.929
			c3.749,4.561,9.199,6.923,14.698,6.923c4.303,0,8.625-1.444,12.192-4.398l83.672-69.328c8.138-6.742,9.266-18.791,2.524-26.929
			c-6.741-8.146-18.8-9.256-26.928-2.524l-9.314,7.717v-22.873h76.5v49.008c0,1.128,0.144,2.229,0.335,3.299l-38.833,32.178
			c-8.138,6.742-9.267,18.791-2.525,26.929c3.787,4.561,9.238,6.923,14.736,6.923c4.303,0,8.625-1.444,12.192-4.398l83.672-69.328
			c8.138-6.742,9.266-18.791,2.524-26.929c-6.742-8.146-18.8-9.256-26.929-2.524l-6.923,5.738v-29.529
			c0.765-1.75,1.195-3.682,1.195-5.709s-0.431-3.959-1.195-5.709v-57.643c0-4.418-1.559-8.435-4.073-11.676
			c9.581-18.513,12.498-38.862,13.32-50.48h0.315v-7.057c0.02-1.616,0-2.506,0-2.506v-89.208L402.754,199.631z M247.412,419.55
			v-29.262c11.236,5.537,25.312,8.941,43.031,8.941c13.196,0,24.203-2.515,33.469-6.685v27.005H247.412z"/>
	</g>
</g>
<g>
</g>
<g>
</g>
<g>
</g>
<g>
</g>
<g>
</g>
<g>
</g>
<g>
</g>
<g>
</g>
<g>
</g>
<g>
</g>
<g>
</g>
<g>
</g>
<g>
</g>
<g>
</g>
<g>
</g>
</svg>
