<?xml version="1.0" encoding="iso-8859-1"?>
<!-- Generator: Adobe Illustrator 16.0.0, SVG Export Plug-In . SVG Version: 6.00 Build 0)  -->
<!DOCTYPE svg PUBLIC "-//W3C//DTD SVG 1.1//EN" "http://www.w3.org/Graphics/SVG/1.1/DTD/svg11.dtd">
<svg version="1.1" id="Capa_1" xmlns="http://www.w3.org/2000/svg" xmlns:xlink="http://www.w3.org/1999/xlink" x="0px" y="0px"
	 width="366.206px" height="366.207px" viewBox="0 0 366.206 366.207" style="enable-background:new 0 0 366.206 366.207;"
	 xml:space="preserve">
<g>
	<g>
		<circle cx="320.076" cy="97.906" r="46.13"/>
		<path d="M0,293.976c0,11.303,12.843,20.453,28.688,20.453h235.189c15.846,0,28.688-9.15,28.688-20.453
			s-12.842-20.455-28.688-20.455h-22.634c1.396-1.654,2.333-3.729,2.333-6.062v-52.594c0-5.277,3.644-11.809,8.147-14.572
			l45.871-28.229c4.504-2.764,4.877-7.774,0.842-11.188l-47.555-40.238c-4.035-3.414-10.815-3.729-15.147-0.708l-63.198,44.045
			c-4.332,3.021-7.841,9.754-7.841,15.032v88.453c0,2.334,0.937,4.408,2.333,6.062H28.688C12.843,273.521,0,282.673,0,293.976z"/>
	</g>
</g>
<g>
</g>
<g>
</g>
<g>
</g>
<g>
</g>
<g>
</g>
<g>
</g>
<g>
</g>
<g>
</g>
<g>
</g>
<g>
</g>
<g>
</g>
<g>
</g>
<g>
</g>
<g>
</g>
<g>
</g>
</svg>
