<?xml version="1.0" encoding="iso-8859-1"?>
<!-- Generator: Adobe Illustrator 16.0.0, SVG Export Plug-In . SVG Version: 6.00 Build 0)  -->
<!DOCTYPE svg PUBLIC "-//W3C//DTD SVG 1.1//EN" "http://www.w3.org/Graphics/SVG/1.1/DTD/svg11.dtd">
<svg version="1.1" id="Capa_1" xmlns="http://www.w3.org/2000/svg" xmlns:xlink="http://www.w3.org/1999/xlink" x="0px" y="0px"
	 width="529.55px" height="529.55px" viewBox="0 0 529.55 529.55" style="enable-background:new 0 0 529.55 529.55;"
	 xml:space="preserve">
<g>
	<g>
		<circle cx="162.146" cy="51.167" r="46.579"/>
		<path d="M493.812,154.662c-11.15-4.705-23.104-10.911-32.742-17.671c-4.332-3.022-6.092-1.808-4.256,3.136l3.213,8.721
			l-37.37,0.22C415.408,12.955,291.851,0.17,290.569,0.056c-7.841-0.688-14.869,5.097-15.577,12.995
			c-0.707,7.88,5.116,14.87,12.995,15.578c4.208,0.382,99.221,10.28,105.924,120.602l-57.413,0.335
			c-5.249-6.713-13.34-11.112-22.52-11.112h-99.507c-4.379-10.232-14.535-17.404-26.373-17.404h-50.184L73.597,88.91
			c-14.181-7.076-31.403-1.348-38.479,12.833c-7.096,14.172-1.349,31.394,12.823,38.489L107.505,170v113.125L50.302,491.577
			c-4.188,15.281,4.8,31.06,20.082,35.267c2.543,0.688,5.087,1.023,7.602,1.023c12.604,0,24.145-8.367,27.655-21.104l51.781-188.658
			h8.932l9.725,44.714c3.022,11.839,13.015,19.985,24.461,21.324l25.111,137.566c0.832,4.542,4.791,7.841,9.41,7.841h33.469
			c5.288,0,9.562-4.274,9.562-9.562s-4.274-9.562-9.562-9.562h-25.494L219.195,379.84c10.184-6.474,15.625-18.877,12.479-31.202
			l-14.889-64.968v-87.851h97.193c15.319,0,27.731-12.039,28.534-27.176c15.425-0.086,33.67-0.201,51.428-0.297
			c-3.939,96.935-90.949,125.881-94.707,127.066c-7.564,2.334-11.8,10.385-9.448,17.949c1.903,6.148,7.583,10.088,13.694,10.088
			c1.415,0,2.85-0.2,4.255-0.631c1.138-0.344,111.164-35.983,115.085-154.635c15.777-0.096,29.28-0.172,37.312-0.22l-3.117,8.74
			c-1.76,4.982,0.019,6.167,4.312,3.079c9.562-6.856,21.42-13.187,32.522-18.044C498.697,159.644,498.679,156.718,493.812,154.662z"
			/>
	</g>
</g>
<g>
</g>
<g>
</g>
<g>
</g>
<g>
</g>
<g>
</g>
<g>
</g>
<g>
</g>
<g>
</g>
<g>
</g>
<g>
</g>
<g>
</g>
<g>
</g>
<g>
</g>
<g>
</g>
<g>
</g>
</svg>
