<?xml version="1.0" encoding="iso-8859-1"?>
<!-- Generator: Adobe Illustrator 16.0.0, SVG Export Plug-In . SVG Version: 6.00 Build 0)  -->
<!DOCTYPE svg PUBLIC "-//W3C//DTD SVG 1.1//EN" "http://www.w3.org/Graphics/SVG/1.1/DTD/svg11.dtd">
<svg version="1.1" id="Capa_1" xmlns="http://www.w3.org/2000/svg" xmlns:xlink="http://www.w3.org/1999/xlink" x="0px" y="0px"
	 width="581.578px" height="581.578px" viewBox="0 0 581.578 581.578" style="enable-background:new 0 0 581.578 581.578;"
	 xml:space="preserve">
<g>
	<g>
		<path d="M572.603,505.522l-100.76-80.611c-8.625-6.914-20.865-7-29.586-0.221l-58.943,45.729c-0.259-0.947-0.45-1.895-0.832-2.83
			l-36.338-89.734v-73.689c0-13.205-10.7-23.906-23.906-23.906s-23.906,10.701-23.906,23.906v78.346c0,3.07,0.593,6.129,1.76,8.969
			l21.869,54.02h-90.901l12.603-18.217c3.644-5.279,4.409-12.029,2.027-17.977l-11.676-29.215l8.1,7.785
			c3.72,3.557,8.491,5.336,13.253,5.336c5.021,0,10.041-1.971,13.789-5.873c7.325-7.621,7.077-19.717-0.545-27.041l-58.235-55.961
			c-3.137-3.012-7.229-4.877-11.561-5.26l-51.37-4.531l5.087-11.887c2.372-5.537,9.027-11.198,14.87-12.651l63.552-15.874
			l119.378-4.609c3.232-0.125,6.407-0.908,9.343-2.295l113.066-53.741c11.925-5.671,16.993-19.928,11.332-31.853
			c-5.671-11.915-19.899-16.993-31.853-11.332l-108.63,51.628l-80.938,3.127l58.025-24.614c8.147-3.461,13.723-11.14,14.478-19.966
			l8.97-104.241c1.119-13.148-8.616-24.738-21.773-25.867c-13.072-1.033-24.729,8.616-25.867,21.774l-7.726,89.897l-81.081,34.406
			l-87.22,20.464c-5.756,1.75-12.813,7.42-15.759,12.661l-49.706,80.774c-2.945,5.24-0.736,11.121,4.935,13.148l59.766,28.238
			c2.629,0.938,56.811,4.16,67.195,4.762c-4.695,5.25-6.369,12.844-3.586,19.824l23.065,57.652l-22.003,31.785
			c-0.574,0.832-1.004,1.711-1.415,2.592c-2.238,1.988-3.72,4.818-3.72,8.061v67.789c0,6.023,4.876,10.9,10.892,10.9h173.282
			c6.779,1.578,14.162,0.307,20.081-4.283l73.191-56.791l86.062,68.84c4.408,3.529,9.687,5.24,14.917,5.24
			c7.01,0,13.962-3.07,18.676-8.969C584.594,528.807,582.911,513.764,572.603,505.522z"/>
		<path d="M101.698,400.784c5.116-7.764,8.147-17.041,8.147-27.053c0-27.242-22.08-49.285-49.285-49.285
			c-15.338,0-28.859,7.154-37.896,18.131C30.906,345.981,84.409,369.028,101.698,400.784z"/>
		<path d="M105.092,439.331c-19.45,6.588-33.536,24.785-33.536,46.492c0,27.234,22.07,49.268,49.275,49.268
			c2.543,0,5.001-0.316,7.43-0.709c0,0.832,0.057,1.664,0.22,2.486c-2.381,2.238-9.361,3.156-14.104,2.908
			c-1.97-0.096-3.663,1.414-3.768,3.395c-0.105,1.941,1.425,3.643,3.395,3.758c2.209,0.115,11.246,0.305,17.203-3.242
			c2.084,3.424,4.561,6.006,5.125,6.57c1.415,1.395,3.672,1.357,5.068-0.049c0.966-0.975,1.243-2.361,0.87-3.576
			c-0.172-0.545-0.478-1.053-0.908-1.482c-2.611-2.562-7.593-9.275-5.489-12.469c0.191-0.297,0.287-0.623,0.382-0.947
			c-0.048,0.221-0.057,0.469-0.105,0.689c19.67-6.465,33.976-24.748,33.976-46.6c0-27.252-22.08-49.295-49.285-49.295
			c-2.955,0-5.814,0.373-8.625,0.871c6.187,11.514,30.39,59.613,24.193,93.396c0.029-1.186-0.478-2.361-1.549-3.078
			c-1.654-1.09-3.873-0.623-4.973,1.014c-0.182,0.277-0.287,0.564-0.43,0.842C135.482,496.944,109.146,446.78,105.092,439.331z"/>
		<path d="M18.791,348.526c0.163,0.189,0.373,0.305,0.564,0.459c-0.144-0.059-0.392-0.164-0.411-0.174
			c-0.201-0.076-0.335-0.219-0.507-0.334c-4.447,7.402-7.163,15.979-7.163,25.254c0,27.234,22.07,49.268,49.285,49.268
			c14.373,0,27.196-6.254,36.213-16.076c-13.33-29.146-64.088-52.248-75.458-57.115c0.88,0.066,1.789-0.182,2.534-0.785
			c1.53-1.262,1.75-3.52,0.498-5.049c-1.989-2.43-4.619-3.443-7.354-3.758c-1.434-2.936-0.239-9.869,1.396-14.324
			c0.679-1.855-0.268-3.922-2.133-4.6c-1.816-0.68-3.901,0.268-4.59,2.123c-0.765,2.074-3.624,10.652-1.999,17.393
			c-3.892,0.986-7.086,2.582-7.784,2.955c-1.75,0.938-2.391,3.109-1.454,4.85c0.641,1.203,1.884,1.893,3.165,1.893
			c0.574,0,1.147-0.143,1.683-0.42C8.482,348.344,16.372,345.581,18.791,348.526z"/>
	</g>
</g>
<g>
</g>
<g>
</g>
<g>
</g>
<g>
</g>
<g>
</g>
<g>
</g>
<g>
</g>
<g>
</g>
<g>
</g>
<g>
</g>
<g>
</g>
<g>
</g>
<g>
</g>
<g>
</g>
<g>
</g>
</svg>
