<?xml version="1.0" encoding="iso-8859-1"?>
<!-- Generator: Adobe Illustrator 16.0.0, SVG Export Plug-In . SVG Version: 6.00 Build 0)  -->
<!DOCTYPE svg PUBLIC "-//W3C//DTD SVG 1.1//EN" "http://www.w3.org/Graphics/SVG/1.1/DTD/svg11.dtd">
<svg version="1.1" id="Capa_1" xmlns="http://www.w3.org/2000/svg" xmlns:xlink="http://www.w3.org/1999/xlink" x="0px" y="0px"
	 width="582.12px" height="582.12px" viewBox="0 0 582.12 582.12" style="enable-background:new 0 0 582.12 582.12;"
	 xml:space="preserve">
<g>
	<g>
		<circle cx="209.835" cy="119.716" r="45.479"/>
		<path d="M96.778,411.171c0,94.42,76.557,170.949,170.949,170.949c67.904,0,126.483-39.617,154.081-96.964l14.296,24.002
			c7.277,11.915,23.801,16.782,36.424,9.285c12.622-7.487,16.323-23.342,9.285-36.424l-82.678-139.249
			c-4.81-8.109-13.282-12.718-22.051-12.985H261.138V226.682l46.33,14.296c1.846,0.574,3.749,0.851,5.642,0.851
			c3.825,0,7.612-1.147,10.835-3.366l81.539-56.074c8.702-5.986,10.911-17.892,4.935-26.594c-0.746-1.09-1.588-2.075-2.506-2.955
			l6.675-14.994c0.469-1.042,0.335-2.18-0.172-3.108c0.707-3.184,2.391-9.572,5.546-16.696c1.855-4.103,3.921-7.879,6.188-11.236
			c0.793-0.909,7.908-9.084,24.585-22.3c7.363-5.853,12.871-10.662,17.251-15.271c0.545-0.105,1.032-0.44,1.281-0.995
			c0.066-0.163,0.086-0.325,0.114-0.488c5.479-6.043,9.085-11.867,12.422-19.345c4.16-9.323,4.686-19.957,1.405-28.468
			c-2.954-7.659-8.673-13.397-16.954-17.059c-7.841-3.529-16.122-3.825-23.954-0.842c-8.778,3.347-16.667,10.854-20.56,19.594
			c-6.119,13.732-7.487,24.327-6.062,47.22l-0.009,0.009c0,0.01,0,0.048,0,0.048c1.377,22.443-0.163,33.163-0.173,33.191
			c0,0.058-1.004,5.46-4.341,12.948c-2.267,5.106-5.088,9.936-8.357,14.42c-1.101,0.22-2.085,0.889-2.563,1.979l-7.22,16.208
			c-3.193,0.268-6.368,1.263-9.199,3.213l-73.908,50.825l-48.769-15.052v-1.788c-0.125-5.278-6.771-9.562-12.059-9.562h-68.659
			c-5.278,0-9.41,4.274-9.237,9.562l2.812,83.509c-0.201,0.115-0.392,0.096-0.593,0.239
			C127.234,299.214,96.778,351.645,96.778,411.171z M175.477,312.458l1.54,45.698c2.094,24.213,22.405,41.482,46.407,41.368H370.82
			l27.512,46.187c-15.291,57.92-67.903,100.646-130.605,100.646c-74.654,0-135.175-60.512-135.175-135.194
			C132.551,372.204,149.094,337.129,175.477,312.458z"/>
	</g>
</g>
<g>
</g>
<g>
</g>
<g>
</g>
<g>
</g>
<g>
</g>
<g>
</g>
<g>
</g>
<g>
</g>
<g>
</g>
<g>
</g>
<g>
</g>
<g>
</g>
<g>
</g>
<g>
</g>
<g>
</g>
</svg>
