<?xml version="1.0" encoding="iso-8859-1"?>
<!-- Generator: Adobe Illustrator 16.0.0, SVG Export Plug-In . SVG Version: 6.00 Build 0)  -->
<!DOCTYPE svg PUBLIC "-//W3C//DTD SVG 1.1//EN" "http://www.w3.org/Graphics/SVG/1.1/DTD/svg11.dtd">
<svg version="1.1" id="Capa_1" xmlns="http://www.w3.org/2000/svg" xmlns:xlink="http://www.w3.org/1999/xlink" x="0px" y="0px"
	 width="500.332px" height="500.332px" viewBox="0 0 500.332 500.332" style="enable-background:new 0 0 500.332 500.332;"
	 xml:space="preserve">
<g>
	<g>
		<path d="M61.737,402.595l253.808,78.193c35.897,11.045,73.01,7.67,82.896-7.564c9.888-15.223-11.245-36.404-47.19-47.324
			l-47.765-14.496l-2.688-114.502c-0.019-0.689-0.124-1.377-0.2-2.066l22.481-111.67l60.875,21.315
			c5.154,1.807,10.786,1.788,15.94-0.057l84.562-30.199c12.44-4.446,18.914-18.121,14.478-30.552
			c-4.428-12.421-18.111-18.915-30.553-14.468l-76.605,27.358l-61.41-21.516c-1.597-0.555-3.213-0.918-4.81-1.128l-105.436-29.854
			c-3.06-1.301-6.397-2.018-9.926-1.913l-45.68,1.243L109.234,52.13c-9.677-8.989-24.796-8.415-33.785,1.262
			c-8.97,9.687-8.396,24.814,1.282,33.784l62.433,57.911c1.769,1.654,3.777,3.002,5.938,4.035c3.385,1.616,7.143,2.429,10.968,2.333
			l50.787-1.387l-13.263,79.866c-2.563-0.306-5.154-0.306-7.736,0.086l-54,8.3c-15.271,2.352-25.934,16.381-24.117,31.729
			l3.328,28.621c0.612,5.25,5.364,9.943,10.614,10.48l33.775,3.471c5.25,0.535,10.079-3.271,10.777-8.502l1.759-13.32l17.806-2.715
			l58.044,27.779l1.836,78l-177.146-53.76C32.6,329.185,1.933,334.28,0.087,351.474C-1.758,368.649,25.839,391.56,61.737,402.595z"
			/>
		<circle cx="286.532" cy="60.87" r="47.822"/>
	</g>
</g>
<g>
</g>
<g>
</g>
<g>
</g>
<g>
</g>
<g>
</g>
<g>
</g>
<g>
</g>
<g>
</g>
<g>
</g>
<g>
</g>
<g>
</g>
<g>
</g>
<g>
</g>
<g>
</g>
<g>
</g>
</svg>
