<?xml version="1.0" encoding="iso-8859-1"?>
<!-- Generator: Adobe Illustrator 16.0.0, SVG Export Plug-In . SVG Version: 6.00 Build 0)  -->
<!DOCTYPE svg PUBLIC "-//W3C//DTD SVG 1.1//EN" "http://www.w3.org/Graphics/SVG/1.1/DTD/svg11.dtd">
<svg version="1.1" id="Capa_1" xmlns="http://www.w3.org/2000/svg" xmlns:xlink="http://www.w3.org/1999/xlink" x="0px" y="0px"
	 width="575.209px" height="575.209px" viewBox="0 0 575.209 575.209" style="enable-background:new 0 0 575.209 575.209;"
	 xml:space="preserve">
<g>
	<g>
		<path d="M558.814,335.2c-5.814,0.211-176.687,0.077-235.592,0.02L219.967,180.556c10.404-12.785,12.011-31.279,2.372-45.709
			l-42.639-63.772c-11.876-17.93-35.802-22.702-53.588-10.672c-17.815,11.762-22.625,35.926-10.662,53.617l42.62,63.744
			c10.242,15.415,29.5,20.952,45.938,14.506l95.472,142.93h-19.173h-13.693h-95.061H13.015c-6.005,0-10.26,2.133-12.288,5.575
			c-3.959,6.713,9.075,16.533,19,20.119c16.725,6.054,40.201,14.038,47.65,14.038h258.628l94.123,140.923
			c3.538,5.326,10.099,7.152,14.603,4.131c4.532-3.013,5.326-9.764,1.788-15.08l-86.78-129.974h148.917
			c12.011,0,43.318-8.491,64.26-17.729C575.511,351.647,584.327,334.426,558.814,335.2z"/>
	</g>
</g>
<g>
</g>
<g>
</g>
<g>
</g>
<g>
</g>
<g>
</g>
<g>
</g>
<g>
</g>
<g>
</g>
<g>
</g>
<g>
</g>
<g>
</g>
<g>
</g>
<g>
</g>
<g>
</g>
<g>
</g>
</svg>
