<?xml version="1.0" encoding="iso-8859-1"?>
<!-- Generator: Adobe Illustrator 16.0.0, SVG Export Plug-In . SVG Version: 6.00 Build 0)  -->
<!DOCTYPE svg PUBLIC "-//W3C//DTD SVG 1.1//EN" "http://www.w3.org/Graphics/SVG/1.1/DTD/svg11.dtd">
<svg version="1.1" id="Capa_1" xmlns="http://www.w3.org/2000/svg" xmlns:xlink="http://www.w3.org/1999/xlink" x="0px" y="0px"
	 width="547.145px" height="547.145px" viewBox="0 0 547.145 547.145" style="enable-background:new 0 0 547.145 547.145;"
	 xml:space="preserve">
<g>
	<g>
		<path d="M31.89,456.563c2.343,9.486,10.825,16.104,20.569,16.104c1.74,0,3.471-0.219,5.164-0.631
			c5.499-1.377,10.156-4.811,13.053-9.668c2.352-3.91,3.299-8.357,2.897-12.803l5.326,19.65
			c2.496,9.236,10.939,15.682,20.473,15.682c1.903,0,3.787-0.248,5.575-0.756c11.293-3.059,17.997-14.734,14.937-26.047
			L90.451,349.493l27.779-7.115c-1.511,7.699-2.353,15.645-2.353,23.783c0,67.951,55.281,123.23,123.232,123.23
			c67.941,0,123.231-55.279,123.231-123.23s-55.28-123.233-123.231-123.233c-11.475,0-22.539,1.693-33.086,4.638v-34.846
			l27.234,12.421c2.189,1.004,4.628,1.54,7.057,1.54h86.081c1.578,0,3.069-0.287,4.523-0.688l6.646,22.558l37.399-44.752
			l168.434-68.133c3.06-1.234,4.552-4.743,3.309-7.812c-1.281-3.098-4.743-4.571-7.803-3.318l-165.919,67.09l-56.065-13.081
			l4.169,14.143h-77.073l-38.327-17.49c-0.879-0.411-1.798-0.669-2.706-0.908c-0.727-0.373-1.521-0.622-2.391-0.631l-67.961-0.765
			c-1.625-0.028-3.05,0.717-4.045,1.846c-0.268,0.096-0.545,0.134-0.812,0.239l-60.722,25.369
			c-6.349,2.658-10.461,8.817-10.461,15.702v79.207l-40.535,10.193C4.723,308.298-2.19,319.839,0.63,331.181L31.89,456.563z
			 M150.255,334.202l34.186-8.75c11.303-3.049,22.711-17.135,21.583-29.959v-17.758c10.318-3.873,21.429-6.09,33.086-6.09
			c52.125,0,94.544,42.409,94.544,94.543s-42.409,94.545-94.544,94.545c-52.125,0-94.544-42.42-94.544-94.545
			C144.565,354.944,146.64,344.204,150.255,334.202z M90.613,227.37l36.577-15.29v65.397l-36.577,9.209V227.37z"/>
		<path d="M179.363,158.635c27.349-7.363,43.596-35.506,36.223-62.874c-7.354-27.368-35.506-43.586-62.864-36.242
			c-27.377,7.363-43.595,35.505-36.223,62.873C123.824,149.761,151.976,165.979,179.363,158.635z"/>
	</g>
</g>
<g>
</g>
<g>
</g>
<g>
</g>
<g>
</g>
<g>
</g>
<g>
</g>
<g>
</g>
<g>
</g>
<g>
</g>
<g>
</g>
<g>
</g>
<g>
</g>
<g>
</g>
<g>
</g>
<g>
</g>
</svg>
