<?xml version="1.0" encoding="iso-8859-1"?>
<!-- Generator: Adobe Illustrator 16.0.0, SVG Export Plug-In . SVG Version: 6.00 Build 0)  -->
<!DOCTYPE svg PUBLIC "-//W3C//DTD SVG 1.1//EN" "http://www.w3.org/Graphics/SVG/1.1/DTD/svg11.dtd">
<svg version="1.1" id="Capa_1" xmlns="http://www.w3.org/2000/svg" xmlns:xlink="http://www.w3.org/1999/xlink" x="0px" y="0px"
	 width="544.164px" height="544.164px" viewBox="0 0 544.164 544.164" style="enable-background:new 0 0 544.164 544.164;"
	 xml:space="preserve">
<g>
	<g>
		<circle cx="70.552" cy="165.137" r="28.372"/>
		<path d="M202.85,393.203l8.912,14.984c4.542,7.411,14.86,10.461,22.73,5.785c7.879-4.676,10.184-14.555,5.785-22.721
			l-51.589-86.904c-3.003-5.059-8.291-7.946-13.761-8.099h-72.359v-64.356l28.908,8.931c1.157,0.354,2.343,0.517,3.528,0.517
			c2.391,0,4.743-0.708,6.761-2.084l50.882-34.989c5.432-3.749,6.809-11.179,3.07-16.601c-0.459-0.66-1.109-1.071-1.664-1.606
			l4.274-9.591c0.287-0.641,0.21-1.358-0.105-1.941c0.44-1.979,1.492-5.967,3.471-10.413c1.157-2.553,2.448-4.925,3.863-7
			c0.488-0.583,4.934-5.68,15.348-13.923c4.6-3.644,8.033-6.646,10.758-9.534c0.344-0.076,0.65-0.268,0.794-0.621
			c0.038-0.096,0.057-0.201,0.076-0.306c3.414-3.777,5.671-7.401,7.746-12.068c2.601-5.814,2.926-12.46,0.88-17.767
			c-1.846-4.781-5.422-8.358-10.586-10.634c-4.886-2.218-10.05-2.4-14.937-0.545c-5.479,2.094-10.404,6.79-12.842,12.23
			c-3.815,8.568-4.667,15.185-3.777,29.462h-0.009c0,0.019,0,0.039,0,0.039c0.87,14.019-0.096,20.693-0.096,20.703
			c0,0.048-0.631,3.414-2.706,8.109c-1.425,3.165-3.185,6.178-5.221,8.979c-0.688,0.153-1.291,0.555-1.606,1.243l-4.571,10.251
			c-1.97,0.182-3.93,0.669-5.67,1.864l-46.129,31.709l-30.438-9.39v-1.119c-0.067-3.271-4.217-5.948-7.516-5.948h-42.84
			c-3.299,0-5.881,2.658-5.766,5.948l1.75,52.125c-0.124,0.067-0.239,0.067-0.373,0.143C19.01,277.172,0,309.885,0,347.035
			c0,58.914,47.774,106.68,106.679,106.68C149.061,453.705,185.608,428.985,202.85,393.203z M22.329,347.025
			c0-24.317,10.327-46.196,26.785-61.592l0.966,28.516c1.31,15.118,13.98,25.895,28.945,25.818h91.991l17.165,28.831
			c-9.534,36.137-42.381,62.797-81.501,62.797C60.101,431.386,22.329,393.633,22.329,347.025z"/>
		<path d="M532.431,246.352H406.234v-62.558c0-4.667-3.768-8.443-8.425-8.443s-8.425,3.768-8.425,8.443v62.558H263.179
			c-6.474,0-11.733,5.25-11.733,11.733v31.079c0,6.474,5.26,11.733,11.733,11.733h33.296v141.696c0,4.657,3.777,8.435,8.435,8.435
			h28.554c4.656,0,8.434-3.768,8.434-8.435V300.887h190.533c6.474,0,11.733-5.26,11.733-11.733v-31.078
			C544.164,251.592,538.904,246.352,532.431,246.352z"/>
	</g>
</g>
<g>
</g>
<g>
</g>
<g>
</g>
<g>
</g>
<g>
</g>
<g>
</g>
<g>
</g>
<g>
</g>
<g>
</g>
<g>
</g>
<g>
</g>
<g>
</g>
<g>
</g>
<g>
</g>
<g>
</g>
</svg>
