<?xml version="1.0" encoding="iso-8859-1"?>
<!-- Generator: Adobe Illustrator 16.0.0, SVG Export Plug-In . SVG Version: 6.00 Build 0)  -->
<!DOCTYPE svg PUBLIC "-//W3C//DTD SVG 1.1//EN" "http://www.w3.org/Graphics/SVG/1.1/DTD/svg11.dtd">
<svg version="1.1" id="Capa_1" xmlns="http://www.w3.org/2000/svg" xmlns:xlink="http://www.w3.org/1999/xlink" x="0px" y="0px"
	 width="483.595px" height="483.595px" viewBox="0 0 483.595 483.595" style="enable-background:new 0 0 483.595 483.595;"
	 xml:space="preserve">
<g>
	<g>
		<path d="M87.257,32.837c-2.936,20.894,11.599,40.201,32.483,43.155c20.847,2.945,40.163-11.609,43.108-32.484
			c2.955-20.894-11.59-40.182-32.445-43.127C109.518-2.573,90.211,11.962,87.257,32.837z"/>
		<path d="M443.728,322.228l-71.757-14.105c-1.654-7.898-7.114-14.764-15.28-17.834c-2.009-0.736-4.064-1.214-6.12-1.453
			l-30.246-2.562L211.98,117.819l33.899,4.628l49.228,76.223c2.907,4.772,7.784,8.195,13.713,9.037
			c10.519,1.473,20.263-5.852,21.735-16.342c0.804-5.718-0.984-11.131-4.428-15.176l-53.101-81.931
			c-2.916-4.724-7.803-8.176-13.712-9.027l-91.82-12.947c-6.723-0.937-13.206,0.889-18.226,4.59l-66.804,50.251L40.792,71.852
			c-3.003-3.385-7.172-5.747-11.972-6.417c-10.873-1.53-20.914,6.063-22.453,16.917c-0.65,4.733,0.392,9.285,2.688,13.072
			l50.193,67.157C74.5,182.844,90.89,169.82,90.89,169.82l40.966-31.021l46.971,72.78l-58.656,44.141c0,0-12.202,8.511-8.932,29.405
			l10.729,46.416c0.689,10.939,8.664,20.272,19.689,22.529l29.969,95.463c2.094,6.646,1.444,11.771-0.124,13.913
			c-0.479,0.65-0.995,1.023-2.248,1.023h-39.206c-5.288,0-9.562,4.274-9.562,9.562s4.274,9.562,9.562,9.562h39.206
			c7.21,0,13.483-3.137,17.672-8.836c5.642-7.688,6.713-18.963,2.955-30.964l-29.357-93.502c5.527-3.786,9.553-9.706,10.576-16.849
			c0.287-2.133,0.306-4.246,0.105-6.302l-8.826-22.539l66.402-48.577l42.305,63.093c0,0,6.684,11.188,28.391,13.455l44.446,4.981
			c9.515,1.521,19.021-2.716,24.347-10.681l71.948,14.143c10.566,1.864,18.819,10.213,18.044,17.92l-4.714,35.42
			c-0.698,5.23,2.983,10.04,8.214,10.738c0.431,0.058,0.852,0.086,1.272,0.086c4.724,0,8.826-3.49,9.467-8.3l4.762-35.707
			C479.1,342.978,464.297,325.861,443.728,322.228z"/>
	</g>
</g>
<g>
</g>
<g>
</g>
<g>
</g>
<g>
</g>
<g>
</g>
<g>
</g>
<g>
</g>
<g>
</g>
<g>
</g>
<g>
</g>
<g>
</g>
<g>
</g>
<g>
</g>
<g>
</g>
<g>
</g>
</svg>
