<?xml version="1.0" encoding="iso-8859-1"?>
<!-- Generator: Adobe Illustrator 16.0.0, SVG Export Plug-In . SVG Version: 6.00 Build 0)  -->
<!DOCTYPE svg PUBLIC "-//W3C//DTD SVG 1.1//EN" "http://www.w3.org/Graphics/SVG/1.1/DTD/svg11.dtd">
<svg version="1.1" id="Capa_1" xmlns="http://www.w3.org/2000/svg" xmlns:xlink="http://www.w3.org/1999/xlink" x="0px" y="0px"
	 width="565.058px" height="565.058px" viewBox="0 0 565.058 565.058" style="enable-background:new 0 0 565.058 565.058;"
	 xml:space="preserve">
<g>
	<g>
		<circle cx="76.529" cy="141.43" r="30.782"/>
		<path d="M115.716,454.41c45.958,0,85.613-26.812,104.289-65.627l9.687,16.236c4.924,8.072,16.103,11.361,24.652,6.293
			c8.559-5.059,11.045-15.807,6.283-24.652l-55.96-94.258c-3.251-5.498-8.989-8.605-14.927-8.797H111.26v-70.696l95.73-14.2
			c4.82-0.717,8.53-4.035,10.117-8.291l4.236,9.983l17.25-26.258l43.94-23.935l43.94,23.935l17.25,26.258l4.198-9.907
			c1.626,4.217,5.355,7.497,10.155,8.205l95.73,14.201v70.695h-78.479c-5.938,0.191-11.686,3.299-14.937,8.797l-55.96,94.258
			c-4.762,8.846-2.267,19.584,6.282,24.652c8.55,5.078,19.728,1.789,24.652-6.291l9.688-16.238
			c18.675,38.814,58.341,65.627,104.288,65.627c63.887,0,115.716-51.799,115.716-115.715c0-40.287-20.626-75.783-51.877-96.496
			c-0.134-0.086-0.258-0.086-0.401-0.162l1.903-56.524c0.114-3.577-2.678-6.474-6.254-6.474h-46.455
			c-3.576,0-8.09,2.897-8.166,6.474v1.214l-91.943-13.626c-2.438-0.354-4.829,0.038-6.952,0.956l4.179-9.859l-30.819,3.557
			l-38.978-21.229l35.276-19.211c1.568-0.851,2.151-2.811,1.301-4.389c-0.87-1.578-2.831-2.151-4.39-1.291l-38.948,21.209
			l-38.948-21.209c-1.568-0.861-3.528-0.287-4.398,1.291c-0.851,1.568-0.268,3.538,1.3,4.389l35.286,19.221l-38.977,21.229
			l-30.82-3.558l4.188,9.888c-2.132-0.927-4.513-1.338-6.971-0.975l-91.943,13.626v-1.214c-0.086-3.577-4.59-6.474-8.166-6.474
			H56.629c-3.576,0-6.368,2.897-6.253,6.474l1.903,56.523c-0.144,0.077-0.268,0.067-0.402,0.163C20.626,262.921,0,298.417,0,338.705
			C0,402.611,51.829,454.41,115.716,454.41z M510.743,302.816l1.042-30.935c17.854,16.707,29.061,40.451,29.061,66.824
			c0,50.547-40.966,91.512-91.494,91.512c-42.438,0-78.059-28.926-88.396-68.123l18.618-31.27h99.766
			C495.586,330.902,509.327,319.207,510.743,302.816z M53.282,271.872l1.042,30.934c1.415,16.391,15.166,28.086,31.403,28h99.765
			l18.619,31.27c-10.337,39.195-45.958,68.123-88.396,68.123c-50.528,0-91.494-40.967-91.494-91.514
			C24.222,312.322,35.429,288.578,53.282,271.872z"/>
		<circle cx="488.538" cy="141.43" r="30.782"/>
	</g>
</g>
<g>
</g>
<g>
</g>
<g>
</g>
<g>
</g>
<g>
</g>
<g>
</g>
<g>
</g>
<g>
</g>
<g>
</g>
<g>
</g>
<g>
</g>
<g>
</g>
<g>
</g>
<g>
</g>
<g>
</g>
</svg>
