<?xml version="1.0" encoding="iso-8859-1"?>
<!-- Generator: Adobe Illustrator 16.0.0, SVG Export Plug-In . SVG Version: 6.00 Build 0)  -->
<!DOCTYPE svg PUBLIC "-//W3C//DTD SVG 1.1//EN" "http://www.w3.org/Graphics/SVG/1.1/DTD/svg11.dtd">
<svg version="1.1" id="Capa_1" xmlns="http://www.w3.org/2000/svg" xmlns:xlink="http://www.w3.org/1999/xlink" x="0px" y="0px"
	 width="554.647px" height="554.647px" viewBox="0 0 554.647 554.647" style="enable-background:new 0 0 554.647 554.647;"
	 xml:space="preserve">
<g>
	<g>
		<path d="M533.176,289.779l-56.515,41.759c-3.385,2.506-10.461,2.716-14.009,0.363l-49.515-32.646
			c-12.737-8.415-32.016-8.51-44.801-0.182l-50.71,32.905c-3.901,2.505-11.819,2.562-15.739,0.096l-52.69-33.278
			c-13.148-8.28-32.417-7.487-44.838,1.855l-40.928,30.829c-3.385,2.563-10.414,2.803-13.971,0.488l-50.7-32.876
			c-13.33-8.673-32.618-7.517-44.829,2.678L4.847,342.707c-5.718,4.763-6.483,13.254-1.73,18.973
			c2.677,3.193,6.512,4.848,10.366,4.848c3.041,0,6.11-1.032,8.616-3.127l49.094-40.937c3.108-2.611,9.477-2.983,12.89-0.775
			l50.71,32.896c13.11,8.521,32.398,7.822,44.848-1.568l40.937-30.829c3.404-2.592,10.586-2.897,14.22-0.593l52.7,33.277
			c12.813,8.08,32.053,7.965,44.781-0.277l50.71-32.905c3.824-2.467,11.522-2.429,15.3,0.077l49.515,32.637
			c13.015,8.615,32.33,8.109,44.877-1.167l56.514-41.769c5.977-4.428,7.229-12.871,2.821-18.848
			C547.596,286.595,539.153,285.342,533.176,289.779z"/>
		<path d="M179.822,188.12c-41.549,0-75.229,33.688-75.229,75.219c0,5.804,0.717,11.437,1.96,16.878l45.871,29.739
			c0,0,0.583,0.144,1.568,0.144c1.167,0,2.037-0.259,2.267-0.383l40.774-30.715c14.984-11.293,39.11-12.316,55.032-2.275
			l1.568,0.994c0.899-4.657,1.416-9.457,1.416-14.372C255.041,221.799,221.361,188.12,179.822,188.12z"/>
		<path d="M305.283,309.966c0.469,0.238,5.508,0.238,6.11-0.087l50.634-32.847c15.28-9.926,39.464-9.812,54.668,0.229l49.496,32.627
			c0.152,0,3.49,0.02,3.901-0.2l45.986-34.005c-24.7-16.944-181.248-66.191-235.247-82.897c-10.089-3.118-20.541-3.586-23.372-1.128
			c-1.817,1.578-3.768,3.242-5.192,4.398c-2.668,2.152-5.345,4.361-7.87,6.656c14.927,15.874,24.136,37.179,24.136,60.635
			c0,7.488-0.994,14.727-2.754,21.688L305.283,309.966z"/>
	</g>
</g>
<g>
</g>
<g>
</g>
<g>
</g>
<g>
</g>
<g>
</g>
<g>
</g>
<g>
</g>
<g>
</g>
<g>
</g>
<g>
</g>
<g>
</g>
<g>
</g>
<g>
</g>
<g>
</g>
<g>
</g>
</svg>
