<?xml version="1.0" encoding="iso-8859-1"?>
<!-- Generator: Adobe Illustrator 16.0.0, SVG Export Plug-In . SVG Version: 6.00 Build 0)  -->
<!DOCTYPE svg PUBLIC "-//W3C//DTD SVG 1.1//EN" "http://www.w3.org/Graphics/SVG/1.1/DTD/svg11.dtd">
<svg version="1.1" id="Capa_1" xmlns="http://www.w3.org/2000/svg" xmlns:xlink="http://www.w3.org/1999/xlink" x="0px" y="0px"
	 width="563.384px" height="563.385px" viewBox="0 0 563.384 563.385" style="enable-background:new 0 0 563.384 563.385;"
	 xml:space="preserve">
<g>
	<g>
		<circle cx="137.135" cy="251.016" r="57.021"/>
		<path d="M476.47,180.396l-93.607,24.576l-5.643-37.37c-0.955-6.321-3.701-12.24-7.928-17.06l-22.988-26.24l24.701-71.537
			c6.033-17.471-3.232-36.528-20.713-42.562c-7.545-2.582-15.328-2.19-22.289,0.335c-2.105-3.108-4.887-5.824-8.426-7.717
			c-11.637-6.215-26.135-1.817-32.35,9.821l-90.203,168.874c-1.913,3.576-2.706,7.411-2.716,11.197l-0.182,0.067l0.191,1.282
			c0.076,1.367,0.287,2.716,0.593,4.045l14.411,98.896v142.089H64.058c-10.557,0-19.125,8.568-19.125,19.125v86.044
			c0,10.557,8.568,19.125,19.125,19.125h167.344c10.557,0,19.125-8.568,19.125-19.125v-86.044c0-0.822-0.144-1.597-0.239-2.391
			c4.236-4.312,6.866-10.213,6.866-16.734V286.913l68.83-24.375c2.602,4.857,6.246,9.123,10.949,12.23
			c5.518,3.624,11.916,5.508,18.398,5.508c2.84,0,5.699-0.363,8.502-1.09l129.639-34.033c17.881-4.695,28.562-22.988,23.877-40.87
			C512.644,186.402,494.341,175.721,476.47,180.396z M275.275,136.533c0.908,6.292,3.547,12.326,7.889,17.27l5.164,5.891
			L257.03,170.69L275.275,136.533z"/>
	</g>
</g>
<g>
</g>
<g>
</g>
<g>
</g>
<g>
</g>
<g>
</g>
<g>
</g>
<g>
</g>
<g>
</g>
<g>
</g>
<g>
</g>
<g>
</g>
<g>
</g>
<g>
</g>
<g>
</g>
<g>
</g>
</svg>
