<?xml version="1.0" encoding="iso-8859-1"?>
<!-- Generator: Adobe Illustrator 16.0.0, SVG Export Plug-In . SVG Version: 6.00 Build 0)  -->
<!DOCTYPE svg PUBLIC "-//W3C//DTD SVG 1.1//EN" "http://www.w3.org/Graphics/SVG/1.1/DTD/svg11.dtd">
<svg version="1.1" id="Capa_1" xmlns="http://www.w3.org/2000/svg" xmlns:xlink="http://www.w3.org/1999/xlink" x="0px" y="0px"
	 width="498.617px" height="498.618px" viewBox="0 0 498.617 498.618" style="enable-background:new 0 0 498.617 498.618;"
	 xml:space="preserve">
<g>
	<g>
		<path d="M214.442,176.316l-1.062,0.296c-10.385,4.284-15.424,16.199-11.198,26.756c3.749,9.294,13.617,14.325,23.304,12.269
			l72.531-21.238c2.879-1.119,5.403-2.993,7.335-5.164l19.02-24.184l38.384,66.861l-60.281,26.794
			c-7.574,3.528-12.977,10.576-14.555,18.666l-13.302,84.283c-0.258,2.276-0.258,4.695,0.105,7.105
			c2.181,14.076,15.377,23.829,29.567,21.773c10.93-1.73,19.259-9.868,21.43-20.091l10.93-69.777l67.435-29.452l-0.296,71.422
			c0,1.119,0.105,2.391,0.229,3.52c0.277,2.524,1.118,4.838,2.037,6.971l43.901,94.009c5.059,9.295,15.539,14.927,26.593,13.168
			c14.19-2.19,23.935-15.319,21.765-29.539c-0.459-3.098-1.454-6.091-2.869-8.606l-39.904-85.985l1.874-115.535
			c0-2.524-0.248-5.001-0.583-7.506c-0.822-5.059-2.305-9.763-4.351-14.057L384.473,87.566c-6.321-8.462-18.81-10.958-27.894-5.575
			l-31.623,18.743l-47.479,56.973L214.442,176.316z"/>
		<path d="M367.92,42.164c0-21.43-17.423-38.853-38.871-38.853c-21.411,0-38.834,17.423-38.834,38.853
			c0,21.458,17.423,38.891,38.834,38.891C350.487,81.063,367.92,63.622,367.92,42.164z"/>
		<path d="M161.953,189.818c20.397-7.258,30.868-29.682,23.658-49.868c-7.344-20.32-29.663-30.963-50.021-23.61
			c-20.368,7.162-30.801,29.682-23.639,50.012C119.247,186.519,141.652,197.152,161.953,189.818z"/>
		<path d="M11.975,286.504C1.954,296.717-1.824,310.927,0.815,323.98c0.325,2.63,1.147,5.202,2.391,7.583
			c0.039,0.162,0.229,0.268,0.268,0.421c0.727,1.539,1.3,3.203,2.419,4.475l0.048,0.153c1.683,3.089,3.901,6.044,6.426,8.587
			c0.612,0.517,1.195,0.86,1.807,1.368l33.383,40.554l-32.083,70.974c-5.575,12.287-0.143,26.708,12.307,32.312
			c12.202,5.604,26.718,0.152,32.188-12.192l38.422-84.676c0.517-1.271,0.469-2.391,0.813-3.558
			c0.545-1.769,1.109-3.385,1.167-5.106c0.01-1.645-0.22-3.137-0.44-4.714c-0.22-1.502-0.306-3.127-0.812-4.542
			c-0.593-1.654-1.606-3.108-2.419-4.695l-0.048-0.163c15.166,6.226,29.529,12.25,36.462,15.109
			c4.427,18.904,21.152,90.738,21.181,90.9c3.261,12.929,16.065,20.895,29.214,17.911c13.101-3.223,21.324-16.266,18.35-29.405
			l-24.021-102.797c-1.798-7.726-7.076-14.085-14.544-17.106l-66-27.272l57.882-59.498l90.366,60.712
			c8.721,5.996,20.55,3.672,26.488-5.183c5.957-8.854,3.557-20.684-5.183-26.498c0,0-132.948-89.839-134.966-90.47
			c-15.405-7.239-20.98-8.759-33.669,4.16L11.975,286.504z"/>
	</g>
</g>
<g>
</g>
<g>
</g>
<g>
</g>
<g>
</g>
<g>
</g>
<g>
</g>
<g>
</g>
<g>
</g>
<g>
</g>
<g>
</g>
<g>
</g>
<g>
</g>
<g>
</g>
<g>
</g>
<g>
</g>
</svg>
