<?xml version="1.0" encoding="iso-8859-1"?>
<!-- Generator: Adobe Illustrator 16.0.0, SVG Export Plug-In . SVG Version: 6.00 Build 0)  -->
<!DOCTYPE svg PUBLIC "-//W3C//DTD SVG 1.1//EN" "http://www.w3.org/Graphics/SVG/1.1/DTD/svg11.dtd">
<svg version="1.1" id="Capa_1" xmlns="http://www.w3.org/2000/svg" xmlns:xlink="http://www.w3.org/1999/xlink" x="0px" y="0px"
	 width="490.968px" height="490.968px" viewBox="0 0 490.968 490.968" style="enable-background:new 0 0 490.968 490.968;"
	 xml:space="preserve">
<g>
	<g>
		<circle cx="205.254" cy="46.407" r="46.407"/>
		<path d="M262.782,143.438l49.782-28.2l84.59,29.931c2.63,0.937,5.336,1.377,7.975,1.377c9.84,0,19.068-6.139,22.529-15.94
			c4.409-12.451-2.113-26.106-14.563-30.504l-94.859-33.574c-6.522-2.314-13.732-1.692-19.757,1.741l-59.268,33.574
			c-1.693,0.966-3.175,2.142-4.533,3.404h-35.505h-33.44H38.235c-13.206,0-23.906,10.7-23.906,23.906
			c0,7.898,3.873,14.841,9.782,19.192c-4.667,0.803-8.989,2.18-12.412,4.562c-4.341,3.002-4.934,9.017-0.946,12.488
			c7.411,6.455,20.521,5.546,37.103,5.154c16.457-0.382,29.481,0.851,36.93-5.326c4.064-3.375,3.5-9.199-0.899-12.125
			c-0.029-0.019-0.057-0.028-0.086-0.048h81.951v105.369h0.908l6.598,63.438l-60.32,109.797
			c-7.631,13.885-2.553,31.327,11.332,38.958c4.38,2.4,9.113,3.548,13.78,3.548c10.136,0,19.947-5.375,25.168-14.89l64.633-117.666
			c2.812-5.116,3.988-10.978,3.385-16.782l-3.137-30.084l25.322,51.628l-65.628,100.206c-8.683,13.253-4.973,31.03,8.281,39.713
			c4.849,3.175,10.299,4.686,15.692,4.686c9.352,0,18.522-4.562,24.021-12.967l74.588-113.88c5.546-8.481,6.215-19.259,1.759-28.353
			L257.437,224.26c-0.134-0.277-0.334-0.497-0.478-0.765v-77.849C258.957,145.168,260.918,144.49,262.782,143.438z"/>
		<path d="M44.977,251.676c0.784,2.113,20.033,51.742,95.156,51.742c0.029,0,0.067,0,0.096,0c5.278,0,9.562-4.283,9.562-9.571
			c0-5.279-4.284-9.554-9.562-9.554l0,0c-0.038,0-0.048,0-0.077,0c-61.209,0-76.605-37.676-77.255-39.33
			c-1.865-4.915-7.344-7.411-12.269-5.575C45.666,241.224,43.141,246.731,44.977,251.676z"/>
		<path d="M111.589,267.636c1.224,0.525,2.486,0.765,3.739,0.765c3.72,0,7.258-2.189,8.807-5.823
			c2.065-4.858-0.201-10.471-5.059-12.527c-42.218-17.939-49.629-52.632-49.936-54.152c-0.994-5.173-5.977-8.587-11.159-7.583
			c-5.192,0.976-8.606,5.977-7.631,11.16C50.705,201.348,59.579,245.546,111.589,267.636z"/>
		<path d="M328.075,253.464h92.66c5.288,0,9.562-4.274,9.562-9.562s-4.274-9.562-9.562-9.562h-92.66
			c-5.288,0-9.562,4.274-9.562,9.562S322.787,253.464,328.075,253.464z"/>
		<path d="M351.981,285.737h121.348c5.288,0,9.562-4.274,9.562-9.562s-4.274-9.562-9.562-9.562H351.981
			c-5.288,0-9.562,4.274-9.562,9.562S346.693,285.737,351.981,285.737z"/>
	</g>
</g>
<g>
</g>
<g>
</g>
<g>
</g>
<g>
</g>
<g>
</g>
<g>
</g>
<g>
</g>
<g>
</g>
<g>
</g>
<g>
</g>
<g>
</g>
<g>
</g>
<g>
</g>
<g>
</g>
<g>
</g>
</svg>
