<?xml version="1.0" encoding="iso-8859-1"?>
<!-- Generator: Adobe Illustrator 16.0.0, SVG Export Plug-In . SVG Version: 6.00 Build 0)  -->
<!DOCTYPE svg PUBLIC "-//W3C//DTD SVG 1.1//EN" "http://www.w3.org/Graphics/SVG/1.1/DTD/svg11.dtd">
<svg version="1.1" id="Capa_1" xmlns="http://www.w3.org/2000/svg" xmlns:xlink="http://www.w3.org/1999/xlink" x="0px" y="0px"
	 width="521.785px" height="521.785px" viewBox="0 0 521.785 521.785" style="enable-background:new 0 0 521.785 521.785;"
	 xml:space="preserve">
<g>
	<g>
		<circle cx="352.854" cy="168.641" r="45.594"/>
		<path d="M128.853,356.286c9.887,0.622,19.048-5.192,22.701-14.392l22.711-57.146l44.771,51.141l-15.424,90.767
			c-6.082,11.093-2.027,25.025,9.065,31.107c11.092,6.081,25.016,2.018,31.107-9.075l23.132-104.814
			c4.618-8.434,3.48-18.867-2.85-26.105l-42.553-48.606l48.472-26.01l19.307,46.072c2.037,4.857,5.632,8.778,10.117,11.245
			c2.008,1.1,4.198,1.913,6.521,2.372l75.027,15.032c12.402,2.485,24.489-5.557,26.967-17.959
			c2.505-12.402-5.575-24.479-17.969-26.956l-63.103-12.642l-32.896-78.509c-0.104-0.239-0.248-0.42-0.354-0.65
			c-0.354-0.775-0.765-1.482-1.195-2.2c-0.354-0.593-0.698-1.195-1.1-1.75c-0.439-0.612-0.956-1.167-1.463-1.75
			c-0.497-0.564-0.994-1.128-1.54-1.626c-0.516-0.468-1.062-0.879-1.615-1.3c-0.65-0.507-1.32-0.995-2.027-1.425
			c-0.221-0.134-0.393-0.306-0.622-0.43l-81.31-45.613L165.85,55.182c-5.9-11.179-19.785-15.472-30.944-9.562
			c-11.188,5.91-15.472,19.756-9.572,30.954l40.047,75.85c2.056,3.901,5.202,7.114,9.046,9.275l43.041,24.146l-65.207,37.581
			l0.306,0.239c-0.258,0.21-0.555,0.344-0.813,0.573c-0.201,0.182-0.344,0.402-0.545,0.584c-0.583,0.545-1.109,1.138-1.635,1.759
			c-0.488,0.574-0.985,1.139-1.406,1.75c-0.392,0.545-0.727,1.139-1.062,1.731c-0.439,0.755-0.86,1.521-1.205,2.323
			c-0.096,0.22-0.239,0.411-0.335,0.641l-30.428,76.529l-90.825-5.623c-12.613-0.784-23.495,8.816-24.27,21.439
			c-0.574,9.16,4.322,17.384,11.857,21.516c2.869,1.577,6.11,2.562,9.591,2.772L128.853,356.286z"/>
		<path d="M458.548,347.575c-34.922,0-63.236,28.305-63.236,63.236c0,34.922,28.305,63.228,63.236,63.228
			c34.923,0,63.237-28.314,63.237-63.228C521.785,375.879,493.48,347.575,458.548,347.575z M420.202,386.857
			c0-4.083,3.3-7.382,7.373-7.382s7.383,3.299,7.383,7.382c0,4.073-3.31,7.373-7.383,7.373S420.202,390.93,420.202,386.857z
			 M438.868,412.312c-4.073,0-7.372-3.299-7.372-7.372c0-4.083,3.309-7.383,7.372-7.383c4.074,0,7.383,3.3,7.383,7.383
			C446.251,409.013,442.942,412.312,438.868,412.312z M451.176,394.23c-4.074,0-7.383-3.3-7.383-7.373
			c0-4.083,3.309-7.382,7.383-7.382c4.073,0,7.372,3.299,7.372,7.382C458.548,390.93,455.249,394.23,451.176,394.23z"/>
		<path d="M320.982,399.604c-0.402-2.602-2.85-4.408-5.451-3.997c-2.61,0.401-4.398,2.83-4.007,5.432
			c0.096,0.621,10.185,62.366,76.854,77.656c0.363,0.087,0.717,0.125,1.07,0.125c2.181,0,4.15-1.502,4.657-3.711
			c0.593-2.572-1.023-5.145-3.586-5.728c-2.792-0.641-5.354-1.444-7.927-2.247c-41.53-12.938-55.597-45.661-59.871-60.301
			C321.537,402.797,321.059,400.073,320.982,399.604z"/>
		<path d="M362.665,436.19c1.922,0,3.729-1.167,4.466-3.06c0.946-2.468-0.287-5.231-2.744-6.178
			c-1.865-0.717-3.605-1.654-5.25-2.726c-15.176-9.858-21.296-33.373-23.687-48.214c-1.205-7.497-1.473-12.766-1.473-12.938
			c-0.115-2.639-2.333-4.504-4.982-4.57c-2.639,0.114-4.686,2.343-4.57,4.981c0.105,2.42,2.907,59.46,36.528,72.389
			C361.508,436.084,362.091,436.19,362.665,436.19z"/>
	</g>
</g>
<g>
</g>
<g>
</g>
<g>
</g>
<g>
</g>
<g>
</g>
<g>
</g>
<g>
</g>
<g>
</g>
<g>
</g>
<g>
</g>
<g>
</g>
<g>
</g>
<g>
</g>
<g>
</g>
<g>
</g>
</svg>
