<?xml version="1.0" encoding="iso-8859-1"?>
<!-- Generator: Adobe Illustrator 16.0.0, SVG Export Plug-In . SVG Version: 6.00 Build 0)  -->
<!DOCTYPE svg PUBLIC "-//W3C//DTD SVG 1.1//EN" "http://www.w3.org/Graphics/SVG/1.1/DTD/svg11.dtd">
<svg version="1.1" id="Capa_1" xmlns="http://www.w3.org/2000/svg" xmlns:xlink="http://www.w3.org/1999/xlink" x="0px" y="0px"
	 width="558.248px" height="558.248px" viewBox="0 0 558.248 558.248" style="enable-background:new 0 0 558.248 558.248;"
	 xml:space="preserve">
<g>
	<path d="M541.878,372.266c-1.435-20.999-5.46-39.589-11.962-55.377l5.039-27.568c2.209-12.078-0.994-22.759-8.788-29.319
		c-7.793-6.56-18.886-7.889-30.39-3.653l-27.836,10.232c-25.8-4.293-70.687-3.949-108.649,36.51
		c-27.187,28.965-50.366,51.428-86.359,63.208c-1.473-3.624-4.188-6.98-7.42-8.529l-35.802-17.174
		c-4.762-2.286-8.864-8.406-9.17-13.685l-6.56-45.354l85.881,8.759c0.659,0.067,1.31,0.096,1.96,0.096
		c9.687,0,17.997-7.334,19.001-17.184c1.07-10.509-6.579-19.899-17.089-20.961l-76.834-7.832l-16.581-40.774
		c-3.5-8.606-12.556-13.263-21.353-11.551c-0.096,0.019-0.191-0.01-0.287,0.019l-51.236,14.64
		c-5.078,1.454-8.568,6.866-7.793,12.087l22.702,153.02C27.731,359.041,3.366,411.396,0.985,417.487
		C0.335,419.151,0,420.929,0,422.717v69.873c0,7.928,6.417,14.344,14.344,14.344s14.344-6.416,14.344-14.344v-66.096
		c5.413-7.688,32.092-36.146,124.81-25.656c26.106,2.965,48.616,3.759,68.573,2.821l-0.774,68.965
		c-0.182,15.845,11.609,28.688,26.316,28.688c14.717,0,26.632-12.843,26.612-28.688l-0.067-76.902
		c45.46-12.728,74.262-39.129,106.039-72.99c29.041-30.935,62.902-31.91,86.196-27.272c2.582,0.517,5.26,0.307,7.746-0.603
		l31.527-11.58c0.459-0.172,0.88-0.296,1.243-0.401c-0.028,0.383-0.086,0.804-0.172,1.291l-5.633,30.801
		c-0.803,3.146-0.535,6.512,0.842,9.524c6.436,14.104,10.299,31.69,11.466,52.249c0.104,1.836,0.563,3.644,1.357,5.317
		c0,0,6.244,13.205,11.351,23.476c2.897,5.853,3.52,10.232,3.672,11.695c-1.902,0.114-5.843-0.536-10.604-3.51l-1.778-1.119
		c-10.442-6.598-19.709-12.183-27.35-13.703c-4.934-0.975-10.317-1.195-15.529-1.396c-16.505-0.66-22.854-2.085-25.579-8.798
		c-2.362-5.871-8.311-9.467-14.631-8.902c-6.312,0.593-11.484,5.259-12.728,11.465c-0.315,1.56-7.574,38.537-1.492,70.084
		c1.502,7.774,9.008,12.852,16.802,11.37c7.774-1.502,12.871-9.018,11.369-16.802c-2.122-10.987-2.189-23.208-1.567-33.669
		c9.361,3.213,19.239,3.614,26.688,3.91c4.294,0.173,8.357,0.335,11.035,0.861c3.452,0.841,13.779,7.372,17.662,9.82l1.864,1.177
		c17.137,10.71,36.386,10.423,46.789-0.688c9.611-10.232,10.013-26.46,1.081-44.533
		C548.161,385.423,543.896,376.511,541.878,372.266z"/>
	<path d="M74.635,162.35c9.314,6.923,25.083,5.402,35.229-3.366l1.473-1.272c7.698,13.005,21.716,21.822,37.915,21.822
		c24.413,0,44.208-19.794,44.208-44.208c0-13.914-6.56-26.172-16.61-34.272l0.784-0.669c10.155-8.778,15.721-25.723,12.431-37.848
		c-3.28-12.135-14.172-14.851-24.317-6.072l-21.449,18.542l-30.218-6.455c-13.11-2.812-23.036,5.776-22.146,19.154l2.037,30.83
		L76.166,133.93C66,142.698,65.321,155.426,74.635,162.35z"/>
</g>
<g>
</g>
<g>
</g>
<g>
</g>
<g>
</g>
<g>
</g>
<g>
</g>
<g>
</g>
<g>
</g>
<g>
</g>
<g>
</g>
<g>
</g>
<g>
</g>
<g>
</g>
<g>
</g>
<g>
</g>
</svg>
