<?xml version="1.0" encoding="iso-8859-1"?>
<!-- Generator: Adobe Illustrator 16.0.0, SVG Export Plug-In . SVG Version: 6.00 Build 0)  -->
<!DOCTYPE svg PUBLIC "-//W3C//DTD SVG 1.1//EN" "http://www.w3.org/Graphics/SVG/1.1/DTD/svg11.dtd">
<svg version="1.1" id="Capa_1" xmlns="http://www.w3.org/2000/svg" xmlns:xlink="http://www.w3.org/1999/xlink" x="0px" y="0px"
	 width="518.508px" height="518.508px" viewBox="0 0 518.508 518.508" style="enable-background:new 0 0 518.508 518.508;"
	 xml:space="preserve">
<g>
	<g>
		<path d="M379.122,22.176L314.93,4.428C250.028-13.512,182.623,24.69,164.683,89.591l-12.899,46.646
			c-14.908,53.913,8.998,109.442,54.707,137.03l1.119,1.903c0.182,0.296,17.002,29.127,14.124,53.779
			c-10.968,2.974-20.196,11.389-23.447,23.142L166.854,465.78c-4.896,17.7,5.527,36.079,23.227,40.975l38.126,10.548
			c17.7,4.887,36.069-5.527,40.966-23.228l31.432-113.688c3.662-13.234-1.243-26.842-11.341-34.894
			c10.911-21.649,38.527-36.854,38.833-37.007l0.086-0.048c55.616,2.515,107.75-33.487,123.203-89.361l12.9-46.655
			C482.234,107.511,444.032,40.125,379.122,22.176z"/>
		<circle cx="99.993" cy="339.947" r="50.203"/>
	</g>
</g>
<g>
</g>
<g>
</g>
<g>
</g>
<g>
</g>
<g>
</g>
<g>
</g>
<g>
</g>
<g>
</g>
<g>
</g>
<g>
</g>
<g>
</g>
<g>
</g>
<g>
</g>
<g>
</g>
<g>
</g>
</svg>
