<?xml version="1.0" encoding="iso-8859-1"?>
<!-- Generator: Adobe Illustrator 16.0.0, SVG Export Plug-In . SVG Version: 6.00 Build 0)  -->
<!DOCTYPE svg PUBLIC "-//W3C//DTD SVG 1.1//EN" "http://www.w3.org/Graphics/SVG/1.1/DTD/svg11.dtd">
<svg version="1.1" id="Capa_1" xmlns="http://www.w3.org/2000/svg" xmlns:xlink="http://www.w3.org/1999/xlink" x="0px" y="0px"
	 width="551.832px" height="551.832px" viewBox="0 0 551.832 551.832" style="enable-background:new 0 0 551.832 551.832;"
	 xml:space="preserve">
<g>
	<path d="M21.516,448.818c0.583-0.238,58.656-24.699,58.752-84.973c0.019-7.449,2.008-12.346,6.101-14.955
		c9.562-6.092,29.108,0.641,35.831,3.748c1.004,0.479,2.065,0.498,3.069,0.258v13.502c0,5.107-0.449,13.426-1.004,18.543
		l-2.237,20.482c-0.479,4.379-3.194,11.342-5.805,14.898L36.634,528.406c-5.604,7.613-4.179,13.227-2.83,15.885
		c1.348,2.658,5.02,7.133,14.468,7.133h14.86c12.001,0,27.311-7.324,34.846-16.668l83.146-103.092
		c2.123-2.621,7.181-4.715,10.958-4.045c12.412,1.939,38.575,5.201,74.454,5.221c4.083,4.408,9.496,7.459,15.778,8.117
		c8.692,0.928,16.812-2.84,22.376-9.303c5.154-0.307,10.089-0.67,14.746-1.092l-8.846,90.854l-12.881-1.49
		c-15.711-1.809-28.764,2.352-29.146,9.322c-0.392,6.98,12.001,14.324,27.673,16.438l41.875,5.605
		c15.673,2.113,29.376-2.152,30.609-9.506c1.243-7.373-10.49-14.832-26.201-16.658l-12.929-1.492l9.275-95.289
		c25.628-3.539,41.798-8.531,51.398-12.662c3.089-1.348,7.497-0.688,9.419,1.426l61.727,67.855c1.998,2.189,2.18,6.195,0.382,8.568
		l-26.497,34.988c-5.719,7.545-4.361,13.129-3.031,15.787c1.319,2.66,4.953,7.125,14.42,7.125h16.046
		c11.934,0,27.454-7.029,35.333-16.008l32.914-37.543c5.04-5.746,5.184-14.859,0.335-20.76l-79.771-96.953
		c-2.419-2.955,0.469-7.115,1.071-7.918c2.945-3.922,4.484-8.254,4.58-12.891c0.077-3.596-0.994-7.746-2.036-11.752
		c-0.688-2.678-1.406-5.441-1.568-7.373c-0.822-10.051-0.134-20.225,0.698-27.521c7.506,5.748,17.709,6.148,25.933,6.484
		c3.52,0.143,6.848,0.268,9.42,0.783c3.395,0.65,11.217,5.584,15.414,8.234l1.473,0.928c10.146,6.357,22.1,6.684,27.933,0.486
		c5.384-5.746,5.307-15.836-0.211-27.004c-1.443-2.916-3.021-6.148-4.418-9.047c-2.094-4.34-3.958-12-4.484-16.609
		c-1.09-9.543-2.983-18.379-5.613-26.288c-1.396-4.198-2.41-11.484-1.597-15.931l2.716-14.841c1.1-5.977,0.028-11.274-2.993-14.898
		c-4.026-4.81-11.093-6.148-18.695-3.356l-15.041,5.527c-3.721,1.367-11.265,2.132-16.333,1.645
		c-2.744-0.258-5.633-0.411-8.635-0.411c-23.581,0-44.906,9.438-61.659,27.292c-14.555,15.51-27.817,28.582-43.596,38.317
		l3.146-32.34c0.382,0.019,0.774,0.124,1.157,0.124c8.864,0,16.811-6.187,18.704-15.204c2.17-10.337-4.456-20.474-14.794-22.644
		l-75.936-15.902l-14.975-47.009c-0.583-1.827-1.482-3.433-2.505-4.935l-0.058-1.434c-1.73-4.992-7.354-8.3-12.546-7.382
		l-2.974,0.517c-1.97-0.02-3.978,0.182-5.958,0.812c-0.316,0.096-0.583,0.268-0.899,0.392l-42.678,7.468
		c-5.202,0.918-9.237,5.929-9.008,11.208l5.986,141.057c-37.772,1.186-57.394,12.068-67.292,21.83
		c-0.115-0.066-0.191-0.172-0.315-0.219c-1.53-0.631-37.743-15.549-66.278-2.898c-13.015,5.775-22.28,16.266-27.559,31.232
		l-3.031,8.576c-17.738,50.156-26.641,75.314-21.028,98.256c0.334,1.348,1.233,2.496,2.477,3.117
		c0.679,0.344,1.425,0.525,2.171,0.525C20.321,449.172,20.933,449.047,21.516,448.818z M125.202,343.506l0.077-0.363v0.393
		C125.25,343.525,125.222,343.516,125.202,343.506z M338.178,238.051l-4.476,45.938c-9.543,3.577-20.225,6.11-32.493,7.536
		l-19.89-12.25c-4.494-2.764-7.937-9.305-7.679-14.574l-1.568-40.487L338.178,238.051z"/>
	<circle cx="233.44" cy="519.485" r="19.46"/>
	<path d="M273.459,41.857c-1.979-3.156-4.944-6.646-9.343-9.562c-7.87-5.221-17.681-38.049-54.028-31.413
		c-26.01,4.753-35.458,45.116-37.304,59.383c-0.564,4.37,2.333,7.373,6.302,7.765c-0.009,0.182-0.076,0.344-0.096,0.517
		c-1.903,24.336,16.304,45.604,40.641,47.506c24.337,1.894,45.613-16.294,47.507-40.631c0.622-7.947-1.071-15.472-4.246-22.195
		l4.896-0.889C272.972,51.391,276.271,46.323,273.459,41.857z"/>
</g>
<g>
</g>
<g>
</g>
<g>
</g>
<g>
</g>
<g>
</g>
<g>
</g>
<g>
</g>
<g>
</g>
<g>
</g>
<g>
</g>
<g>
</g>
<g>
</g>
<g>
</g>
<g>
</g>
<g>
</g>
</svg>
