<?xml version="1.0" encoding="iso-8859-1"?>
<!-- Generator: Adobe Illustrator 16.0.0, SVG Export Plug-In . SVG Version: 6.00 Build 0)  -->
<!DOCTYPE svg PUBLIC "-//W3C//DTD SVG 1.1//EN" "http://www.w3.org/Graphics/SVG/1.1/DTD/svg11.dtd">
<svg version="1.1" id="Capa_1" xmlns="http://www.w3.org/2000/svg" xmlns:xlink="http://www.w3.org/1999/xlink" x="0px" y="0px"
	 width="535.825px" height="535.824px" viewBox="0 0 535.825 535.824" style="enable-background:new 0 0 535.825 535.824;"
	 xml:space="preserve">
<g>
	<path d="M469.294,303.609c3.519,0.143,6.847,0.268,9.419,0.785c3.395,0.648,11.217,5.584,15.414,8.232l1.473,0.928
		c10.156,6.359,22.109,6.684,27.933,0.488c5.384-5.748,5.308-15.836-0.21-27.006c-1.444-2.916-3.022-6.148-4.418-9.045
		c-2.095-4.352-3.959-12.011-4.485-16.62c-1.09-9.534-2.983-18.379-5.613-26.278c-1.396-4.198-2.4-11.485-1.597-15.931l2.716-14.841
		c1.1-5.977,0.028-11.274-2.993-14.898c-4.017-4.81-11.093-6.149-18.694-3.356l-15.042,5.527c-3.72,1.368-11.246,2.132-16.333,1.645
		c-2.744-0.258-5.632-0.412-8.635-0.412c-23.581,0-44.905,9.438-61.659,27.292c-4.207,4.485-8.31,8.759-12.384,12.814
		c-1.979-2.486-4.532-4.571-7.679-5.853l-71.843-29.28l-4.437-34.54l104.25-75.668l7.659,9.524
		c9.927,12.345,22.539,18.073,28.162,12.775c5.623-5.297,2.333-19.737-7.354-32.283l-25.886-33.498
		c-9.687-12.546-22.835-18.637-29.376-13.626c-6.541,5.021-3.787,19.087,6.139,31.432l8.645,10.748l-95.529,69.338
		c-0.87-5.154-5.737-9.343-10.958-9.381l-3.137-0.029c-1.903-0.354-3.863-0.517-5.881-0.268c-0.334,0.039-0.631,0.163-0.956,0.22
		l-43.318-0.315c-5.288-0.039-10.155,4.179-10.882,9.409l-8.492,61.085l-44.255,32.121c-4.274,3.098-5.221,9.084-2.123,13.349
		c1.865,2.582,4.781,3.949,7.746,3.949c1.951,0,3.911-0.593,5.604-1.826l29.357-21.315l-6.12,44.044
		c-37.131,0.459-57.537,10.1-68.544,19.508c-9.237-3.355-39.072-12.564-63.399-1.797c-13.014,5.766-22.29,16.275-27.568,31.24
		l-2.983,8.482c-17.748,50.174-26.661,75.352-21.047,98.283c0.335,1.348,1.233,2.496,2.477,3.117
		c0.679,0.344,1.425,0.525,2.171,0.525c0.612,0,1.224-0.123,1.807-0.354c0.593-0.238,58.666-24.68,58.762-84.973
		c0.019-7.439,2.008-12.336,6.101-14.945c8.491-5.402,24.795-0.727,33.067,2.572v16.094c0,5.105-0.449,13.426-1.004,18.541
		l-2.238,20.482c-0.478,4.381-3.194,11.342-5.804,14.898L25.718,512.809c-5.604,7.611-4.179,13.225-2.83,15.883
		c1.348,2.658,5.02,7.133,14.468,7.133h14.86c12.001,0,27.311-7.324,34.846-16.666l83.146-103.094
		c2.123-2.619,7.172-4.715,10.958-4.045c8.826,1.387,24.709,3.404,45.977,4.484c-1.501,13.254,5.929,25.762,18.322,29.387
		c14.114,4.148,29.166-4.82,33.612-20.025l2.706-9.246c3.558-0.152,7.105-0.258,10.662-0.469
		c47.459-2.783,73.45-10.289,86.904-16.094c3.089-1.348,7.497-0.688,9.419,1.426l61.727,67.855c1.998,2.189,2.18,6.195,0.382,8.566
		l-26.497,34.99c-5.719,7.545-4.36,13.129-3.031,15.787c1.319,2.658,4.953,7.125,14.42,7.125h16.046
		c11.934,0,27.454-7.029,35.333-16.008l32.914-37.543c5.04-5.746,5.184-14.859,0.335-20.76l-79.771-96.955
		c-2.419-2.953,0.469-7.113,1.071-7.918c2.945-3.92,4.485-8.252,4.58-12.889c0.077-3.596-0.994-7.746-2.036-11.754
		c-0.688-2.676-1.406-5.439-1.568-7.371c-0.822-10.051-0.134-20.225,0.698-27.521C450.868,302.873,461.061,303.285,469.294,303.609z
		 M342.6,258.666c-18.809,11.514-41.3,18.237-73.889,18.551c-0.42-2.17-0.583-4.352-0.134-6.273l5.738-40.114L342.6,258.666z"/>
	<path d="M308.424,51.686c-1.387-3.452-3.672-7.42-7.469-11.083C294.147,34.052,290.389,0,253.44,0
		C227,0,210.457,38.011,206.077,51.714c-1.339,4.188,0.976,7.669,4.81,8.769c-0.048,0.172-0.144,0.325-0.191,0.497
		c-6.235,23.601,7.841,47.793,31.441,54.028c23.601,6.235,47.793-7.841,54.029-31.432c2.036-7.707,1.721-15.405-0.201-22.596h4.982
		C306.244,60.98,310.384,56.591,308.424,51.686z"/>
</g>
<g>
</g>
<g>
</g>
<g>
</g>
<g>
</g>
<g>
</g>
<g>
</g>
<g>
</g>
<g>
</g>
<g>
</g>
<g>
</g>
<g>
</g>
<g>
</g>
<g>
</g>
<g>
</g>
<g>
</g>
</svg>
