<?xml version="1.0" encoding="iso-8859-1"?>
<!-- Generator: Adobe Illustrator 16.0.0, SVG Export Plug-In . SVG Version: 6.00 Build 0)  -->
<!DOCTYPE svg PUBLIC "-//W3C//DTD SVG 1.1//EN" "http://www.w3.org/Graphics/SVG/1.1/DTD/svg11.dtd">
<svg version="1.1" id="Capa_1" xmlns="http://www.w3.org/2000/svg" xmlns:xlink="http://www.w3.org/1999/xlink" x="0px" y="0px"
	 width="527.36px" height="527.359px" viewBox="0 0 527.36 527.359" style="enable-background:new 0 0 527.36 527.359;"
	 xml:space="preserve">
<g>
	<g>
		<path d="M365.3,168.893C338.832,63.131,284.793,0,220.773,0c-20.263,0-41.511,6.139-63.18,18.245
			c-45.785,25.589-70.007,52.517-76.242,84.743c-8.214,42.524,14.927,92.689,79.885,173.12
			c29.022,35.945,172.526,126.789,195.448,141.182l55.959,100.137c5.154,9.229,16.592,12.633,25.561,7.623
			c8.97-5.012,12.049-16.545,6.904-25.762l-54.114-96.85C390.89,380.262,389.197,264.355,365.3,168.893z M343.288,174.41
			c0.765,3.06,1.453,6.197,2.171,9.314l-36.404,20.339l-27.282-56.266l44.686-24.968
			C335.044,143.925,340.476,163.184,343.288,174.41z M211.201,169.916l-39.206,21.917l-40.115-45.537l47.468-26.517L211.201,169.916
			z M192.583,112.378l43.442-24.279l25.914,53.464l-37.504,20.952L192.583,112.378z M219.329,182.72l33.517,52.766l-28.4,15.874
			l-42.209-47.908L219.329,182.72z M232.563,175.319l35.994-20.129l27.281,56.266l-29.749,16.62L232.563,175.319z M320.415,108.878
			l-45.24,25.293l-25.915-53.464l39.914-22.3C301.949,73.325,312.277,91.255,320.415,108.878z M278.358,47.105l-35.716,19.957
			L221.146,22.72C243.666,22.826,262.589,32.532,278.358,47.105z M168.667,38.068c13.731-7.679,27.052-12.489,39.761-14.411
			l-2.945,1.434l23.935,49.362l-44.953,25.121l-32.58-51.284C157.087,44.876,162.576,41.472,168.667,38.068z M103.642,107.301
			c3.471-17.968,15.175-34.32,35.869-50.242l31.709,49.917l-49.572,27.703l-18.829-21.372
			C103.001,111.269,103.259,109.261,103.642,107.301z M106.061,143.38c-0.459-1.635-0.803-3.223-1.167-4.81l3.223,3.663
			L106.061,143.38z M111.12,157.896l7.239-4.045l40.115,45.537l-18.542,10.366C126.754,190.208,117.259,173.119,111.12,157.896z
			 M178.889,261.85c-11.465-14.19-21.516-27.339-30.284-39.608l20.11-11.245l42.208,47.908l-22.653,12.651
			C184.349,267.932,181.146,264.652,178.889,261.85z M200.434,282.104l20.731-11.58l64.892,73.631
			C254.251,322.668,221.949,299.812,200.434,282.104z M319.707,359.473l-85.03-96.504l26.297-14.698l65.981,103.868
			C324.45,354.318,322.03,356.768,319.707,359.473z M339.453,343.6l-65.244-102.72l28.237-15.778l54.335,112.073
			C351.09,338.455,345.229,340.539,339.453,343.6z M315.671,217.7l33.162-18.532c8.281,40.507,13.054,83.319,15.778,119.483
			L315.671,217.7z M367.539,397.312c-0.048-0.039-0.115-0.076-0.173-0.105c0.259-0.182,0.564-0.297,0.842-0.449
			c0,0.123,0,0.277,0,0.4L367.539,397.312z"/>
	</g>
</g>
<g>
</g>
<g>
</g>
<g>
</g>
<g>
</g>
<g>
</g>
<g>
</g>
<g>
</g>
<g>
</g>
<g>
</g>
<g>
</g>
<g>
</g>
<g>
</g>
<g>
</g>
<g>
</g>
<g>
</g>
</svg>
