<?xml version="1.0" encoding="iso-8859-1"?>
<!-- Generator: Adobe Illustrator 16.0.0, SVG Export Plug-In . SVG Version: 6.00 Build 0)  -->
<!DOCTYPE svg PUBLIC "-//W3C//DTD SVG 1.1//EN" "http://www.w3.org/Graphics/SVG/1.1/DTD/svg11.dtd">
<svg version="1.1" id="Capa_1" xmlns="http://www.w3.org/2000/svg" xmlns:xlink="http://www.w3.org/1999/xlink" x="0px" y="0px"
	 width="541.534px" height="541.534px" viewBox="0 0 541.534 541.534" style="enable-background:new 0 0 541.534 541.534;"
	 xml:space="preserve">
<g>
	<g>
		<path d="M173.517,127.354c0,21.43,17.413,38.843,38.814,38.843c21.439,0,38.862-17.413,38.862-38.843
			c0-21.411-17.423-38.824-38.862-38.824C190.93,88.54,173.517,105.943,173.517,127.354z"/>
		<path d="M42.463,189.032l-0.679,1.664c-1.865,4.581-0.564,9.448,2.917,10.863c2.553,1.033,5.546-0.105,7.698-2.582l44.876,44.858
			c3.892,4.15,9.276,6.971,15.319,6.971c4.475,0,8.616-1.463,12.001-3.806l37.81-20.789v102.08L104.619,504.91
			c-4.265,15.357,4.896,31.146,20.368,35.285c15.357,4.112,31.154-5.049,35.266-20.425l50.5-152.427l51.427,152.8
			c4.103,15.462,19.929,24.518,35.267,20.387c15.338-4.141,24.509-19.947,20.358-35.295l-57.231-173.885V192.188
			c0-18.216-18.235-17.413-18.235-17.413h-58.513h-15.491c0,0-3.069-0.459-9.429,4.771l-43.079,25.14l-44.963-45.021
			c-0.191-0.229-0.43-0.401-0.641-0.622c8.597-7.028,38.786-32.483,59.326-59.469c24.088-31.652,29.759-61.439,15.167-79.675
			c-4.619-5.767-11.217-10.433-19.604-13.828c-17.729-7.22-30.916-7.975-41.52-2.41c-13.99,7.354-23.007,25.389-31.107,62.233
			c-3.49,15.874,2.716,73.478,4.179,86.445c-5.164-0.421-10.48,1.09-14.765,4.695c-8.826,7.334-9.313,20.607-1.989,29.433
			L42.463,189.032z"/>
		<path d="M497.16,14.65h-14.344c-5.278,0-9.562,4.274-9.562,9.562v507.759c0,5.288,4.284,9.562,9.562,9.562h14.344
			c5.278,0,9.562-4.274,9.562-9.562V24.213C506.722,18.925,502.438,14.65,497.16,14.65z"/>
	</g>
</g>
<g>
</g>
<g>
</g>
<g>
</g>
<g>
</g>
<g>
</g>
<g>
</g>
<g>
</g>
<g>
</g>
<g>
</g>
<g>
</g>
<g>
</g>
<g>
</g>
<g>
</g>
<g>
</g>
<g>
</g>
</svg>
