<?xml version="1.0" encoding="iso-8859-1"?>
<!-- Generator: Adobe Illustrator 16.0.0, SVG Export Plug-In . SVG Version: 6.00 Build 0)  -->
<!DOCTYPE svg PUBLIC "-//W3C//DTD SVG 1.1//EN" "http://www.w3.org/Graphics/SVG/1.1/DTD/svg11.dtd">
<svg version="1.1" id="Capa_1" xmlns="http://www.w3.org/2000/svg" xmlns:xlink="http://www.w3.org/1999/xlink" x="0px" y="0px"
	 width="526.758px" height="526.759px" viewBox="0 0 526.758 526.759" style="enable-background:new 0 0 526.758 526.759;"
	 xml:space="preserve">
<g>
	<path d="M353.501,114.931c-18.58-21.104-46.196-31.021-84.418-30.38h-1.263c-38.394-0.669-65.981,9.266-84.581,30.38
		c-29.94,33.985-36.949,97.595-22.051,200.182c16.763,115.429,13.062,190.552,11.456,211.646h37.609
		c0,0,40.268-196.251,53.321-287.668c13.063,91.417,52.938,287.668,52.938,287.668h47.593
		c-1.616-21.095-5.307-96.218,11.446-211.646C390.451,212.525,383.441,148.925,353.501,114.931z"/>
	<path d="M389.208,23.284c-3.624-10.088-5.948-15.979-5.948-15.979s-6.865-6.531-119.885-7.258
		C150.365-0.68,143.508,7.305,143.508,7.305s-3.375,8.53-8.319,22.625c20.358-8.195,58.168-15.338,128.271-14.65
		C332.818,16.016,369.566,19.344,389.208,23.284z"/>
	<path d="M416.633,526.759c0,0,13.053-223.456,14.506-309.06c0.966-57.021-20.588-131.408-35.104-174.745
		c-6.723-2.554-33.66-9.209-132.738-10.251C141.93,31.374,128.619,54.151,128.495,54.381c0,0,0.201-0.382,0.354-1.224l-1.396-0.258
		c-14.257,44.131-32.723,111.938-31.833,164.8c1.454,85.613,14.516,309.06,14.516,309.06h45.02
		c1.387-18.016,5.537-93.913-11.198-209.15c-15.893-109.5-7.812-175.559,26.221-214.191c21.869-24.824,54.726-37.074,97.796-36.271
		h0.946c42.869-0.765,75.783,11.456,97.652,36.271c34.023,38.632,42.104,104.69,26.211,214.191
		c-16.725,115.237-12.584,191.135-11.197,209.15H416.633z"/>
</g>
<g>
</g>
<g>
</g>
<g>
</g>
<g>
</g>
<g>
</g>
<g>
</g>
<g>
</g>
<g>
</g>
<g>
</g>
<g>
</g>
<g>
</g>
<g>
</g>
<g>
</g>
<g>
</g>
<g>
</g>
</svg>
