<?xml version="1.0" encoding="iso-8859-1"?>
<!-- Generator: Adobe Illustrator 16.0.0, SVG Export Plug-In . SVG Version: 6.00 Build 0)  -->
<!DOCTYPE svg PUBLIC "-//W3C//DTD SVG 1.1//EN" "http://www.w3.org/Graphics/SVG/1.1/DTD/svg11.dtd">
<svg version="1.1" id="Capa_1" xmlns="http://www.w3.org/2000/svg" xmlns:xlink="http://www.w3.org/1999/xlink" x="0px" y="0px"
	 width="589.91px" height="589.911px" viewBox="0 0 589.91 589.911" style="enable-background:new 0 0 589.91 589.911;"
	 xml:space="preserve">
<g>
	<g>
		<path d="M540.578,300.051c-2.258,0-18.742-0.172-24.977-4.8v7.086l3.49,1.884c0.295,0.172,0.41,0.555,0.248,0.851
			c-0.125,0.211-0.334,0.325-0.555,0.325c-0.105,0-0.211-0.02-0.297-0.076l-2.896-1.559v3.652l0.42-0.22
			c0.297-0.153,0.68-0.058,0.852,0.249c0.172,0.306,0.057,0.679-0.248,0.851l-1.014,0.555v2.018c0,3.596,11.178,6.512,24.977,6.512
			h24.355c13.799,0,24.977-2.916,24.977-6.512c0-0.134,0-0.306,0-0.479c-0.01,0.01-0.018,0.01-0.027,0.01
			c-0.221,0-0.441-0.114-0.555-0.325c-0.162-0.296-0.049-0.679,0.248-0.851l0.326-0.182c0-4.188,0-11.858,0-14.047
			c-6.236,4.886-22.721,5.049-24.979,5.049h-24.346V300.051z M524.082,308.304l-3.758,2.027c-0.096,0.057-0.201,0.076-0.297,0.076
			c-0.209,0-0.43-0.114-0.555-0.325c-0.162-0.296-0.047-0.679,0.26-0.851l3.748-2.027c0.287-0.153,0.67-0.058,0.852,0.248
			C524.494,307.759,524.379,308.132,524.082,308.304z M525.518,305.407c-0.105,0-0.211-0.02-0.297-0.077l-3.748-2.026
			c-0.307-0.173-0.422-0.555-0.258-0.852c0.182-0.306,0.562-0.401,0.85-0.249l3.758,2.027c0.297,0.173,0.412,0.555,0.25,0.852
			C525.947,305.292,525.736,305.407,525.518,305.407z M530.814,308.304l-3.758,2.027c-0.096,0.057-0.201,0.076-0.297,0.076
			c-0.211,0-0.43-0.114-0.555-0.325c-0.162-0.296-0.047-0.679,0.258-0.851l3.75-2.027c0.287-0.153,0.668-0.058,0.85,0.248
			C531.227,307.759,531.111,308.132,530.814,308.304z M532.287,305.407c-0.105,0-0.201-0.02-0.297-0.077l-3.748-2.026
			c-0.307-0.173-0.42-0.555-0.248-0.852c0.172-0.306,0.555-0.401,0.842-0.249l3.758,2.027c0.297,0.173,0.41,0.555,0.248,0.852
			C532.717,305.292,532.508,305.407,532.287,305.407z M537.584,308.304l-3.758,2.027c-0.086,0.057-0.182,0.076-0.287,0.076
			c-0.219,0-0.439-0.114-0.555-0.325c-0.172-0.296-0.057-0.679,0.25-0.851l3.748-2.027c0.287-0.153,0.68-0.058,0.852,0.248
			C537.996,307.759,537.881,308.132,537.584,308.304z M539.057,305.407c-0.104,0-0.199-0.02-0.295-0.077l-3.75-2.026
			c-0.305-0.173-0.42-0.555-0.248-0.852c0.162-0.306,0.555-0.401,0.852-0.249l3.748,2.027c0.297,0.173,0.412,0.555,0.248,0.852
			C539.488,305.292,539.287,305.407,539.057,305.407z M544.355,308.304l-3.748,2.027c-0.096,0.057-0.201,0.076-0.297,0.076
			c-0.221,0-0.439-0.114-0.555-0.325c-0.172-0.296-0.059-0.679,0.248-0.851l3.748-2.027c0.287-0.153,0.68-0.058,0.852,0.248
			C544.766,307.759,544.652,308.132,544.355,308.304z M545.828,305.407c-0.105,0-0.201-0.02-0.297-0.077l-3.748-2.026
			c-0.297-0.173-0.412-0.555-0.248-0.852c0.182-0.306,0.553-0.401,0.85-0.249l3.748,2.027c0.297,0.173,0.412,0.555,0.25,0.852
			C546.268,305.292,546.057,305.407,545.828,305.407z M551.125,308.304l-3.748,2.027c-0.096,0.057-0.201,0.076-0.297,0.076
			c-0.219,0-0.439-0.114-0.555-0.325c-0.162-0.296-0.047-0.679,0.25-0.851l3.748-2.027c0.287-0.153,0.678-0.058,0.85,0.248
			C551.537,307.759,551.422,308.132,551.125,308.304z M552.598,305.407c-0.105,0-0.201-0.02-0.297-0.077l-3.748-2.026
			c-0.297-0.173-0.41-0.555-0.248-0.852c0.172-0.306,0.564-0.401,0.852-0.249l3.748,2.027c0.307,0.173,0.42,0.555,0.248,0.852
			C553.037,305.292,552.828,305.407,552.598,305.407z M557.896,308.304l-3.75,2.027c-0.096,0.057-0.199,0.076-0.295,0.076
			c-0.221,0-0.432-0.114-0.555-0.325c-0.164-0.296-0.049-0.679,0.248-0.851l3.748-2.027c0.287-0.153,0.68-0.058,0.852,0.248
			C558.316,307.759,558.201,308.132,557.896,308.304z M560.076,305.407c-0.105,0-0.201-0.02-0.297-0.077l-3.748-2.026
			c-0.307-0.173-0.422-0.555-0.258-0.852c0.182-0.306,0.564-0.401,0.85-0.249l3.76,2.027c0.295,0.173,0.41,0.555,0.248,0.852
			C560.506,305.292,560.287,305.407,560.076,305.407z M565.363,308.304l-3.758,2.027c-0.096,0.057-0.201,0.076-0.297,0.076
			c-0.209,0-0.43-0.114-0.555-0.325c-0.162-0.296-0.047-0.679,0.26-0.851l3.748-2.027c0.287-0.153,0.67-0.058,0.852,0.248
			C565.775,307.759,565.67,308.132,565.363,308.304z M585.188,302.204l3.748,2.026c0.297,0.173,0.41,0.555,0.248,0.852
			c-0.115,0.21-0.324,0.325-0.555,0.325c-0.105,0-0.209-0.02-0.295-0.076l-3.75-2.027c-0.295-0.173-0.41-0.555-0.248-0.852
			C584.498,302.146,584.891,302.05,585.188,302.204z M582.816,309.222l3.748-2.027c0.287-0.153,0.678-0.058,0.852,0.249
			c0.162,0.306,0.047,0.679-0.25,0.851l-3.748,2.027c-0.096,0.058-0.191,0.076-0.297,0.076c-0.219,0-0.439-0.114-0.555-0.325
			C582.395,309.777,582.5,309.394,582.816,309.222z M578.416,302.204l3.75,2.026c0.295,0.173,0.41,0.555,0.248,0.852
			c-0.125,0.21-0.334,0.325-0.555,0.325c-0.105,0-0.211-0.02-0.297-0.076l-3.748-2.027c-0.307-0.173-0.42-0.555-0.248-0.852
			C577.729,302.146,578.111,302.05,578.416,302.204z M575.939,309.222l3.75-2.027c0.295-0.153,0.678-0.058,0.85,0.249
			c0.172,0.306,0.059,0.679-0.248,0.851l-3.748,2.027c-0.096,0.058-0.201,0.076-0.297,0.076c-0.211,0-0.43-0.114-0.555-0.325
			C575.529,309.777,575.645,309.394,575.939,309.222z M571.541,302.204l3.748,2.026c0.307,0.173,0.422,0.555,0.25,0.852
			c-0.115,0.21-0.326,0.325-0.555,0.325c-0.105,0-0.211-0.02-0.297-0.076l-3.748-2.027c-0.297-0.173-0.412-0.555-0.25-0.852
			C570.863,302.146,571.254,302.05,571.541,302.204z M568.473,309.222l3.748-2.027c0.287-0.153,0.678-0.058,0.852,0.249
			c0.162,0.306,0.047,0.679-0.25,0.851l-3.748,2.027c-0.096,0.058-0.201,0.076-0.297,0.076c-0.219,0-0.439-0.114-0.555-0.325
			C568.061,309.777,568.166,309.394,568.473,309.222z M568.08,305.082c-0.125,0.21-0.326,0.325-0.555,0.325
			c-0.105,0-0.201-0.02-0.297-0.077l-3.748-2.026c-0.307-0.173-0.422-0.555-0.248-0.852c0.172-0.306,0.562-0.401,0.85-0.249
			l3.75,2.027C568.117,304.393,568.232,304.776,568.08,305.082z"/>
		<path d="M552.752,268.61c-20.521,0-37.16,2.792-37.16,6.235v7.975l3.49,1.884c0.295,0.172,0.41,0.555,0.248,0.851
			c-0.125,0.21-0.334,0.325-0.555,0.325c-0.105,0-0.211-0.019-0.297-0.077l-2.896-1.559v3.653l0.42-0.22
			c0.297-0.153,0.68-0.058,0.852,0.249s0.057,0.679-0.248,0.851l-1.014,0.555v2.018c0,3.596,11.178,6.512,24.977,6.512h24.355
			c13.799,0,24.977-2.917,24.977-6.512c0-0.134,0-0.306,0-0.478c-0.008,0.01-0.018,0.01-0.027,0.01
			c-0.221,0-0.439-0.115-0.555-0.325c-0.162-0.296-0.049-0.679,0.248-0.851l0.326-0.172c0-4.905,0-14.678,0-14.678
			C589.91,271.402,573.271,268.61,552.752,268.61z M551.719,272.244c11.121,0,20.148,1.521,20.148,3.385s-9.018,3.385-20.148,3.385
			c-11.121,0-20.139-1.521-20.139-3.385C531.57,273.764,540.588,272.244,551.719,272.244z M524.082,288.787l-3.758,2.027
			c-0.096,0.058-0.201,0.077-0.297,0.077c-0.209,0-0.43-0.115-0.555-0.325c-0.162-0.296-0.047-0.679,0.26-0.851l3.748-2.027
			c0.287-0.153,0.67-0.057,0.852,0.249C524.494,288.242,524.379,288.615,524.082,288.787z M525.518,285.89
			c-0.105,0-0.211-0.019-0.297-0.077l-3.748-2.027c-0.307-0.172-0.422-0.555-0.258-0.851c0.182-0.306,0.562-0.401,0.85-0.249
			l3.758,2.027c0.297,0.172,0.412,0.555,0.25,0.851C525.947,285.775,525.736,285.89,525.518,285.89z M530.814,288.787l-3.758,2.027
			c-0.096,0.058-0.201,0.077-0.297,0.077c-0.211,0-0.43-0.115-0.555-0.325c-0.162-0.296-0.047-0.679,0.258-0.851l3.75-2.027
			c0.287-0.153,0.668-0.057,0.85,0.249C531.227,288.242,531.111,288.615,530.814,288.787z M532.287,285.89
			c-0.105,0-0.201-0.019-0.297-0.077l-3.748-2.027c-0.307-0.172-0.42-0.555-0.248-0.851c0.172-0.306,0.555-0.401,0.842-0.249
			l3.758,2.027c0.297,0.172,0.41,0.555,0.248,0.851C532.717,285.775,532.508,285.89,532.287,285.89z M537.584,288.787l-3.758,2.027
			c-0.086,0.058-0.182,0.077-0.287,0.077c-0.219,0-0.439-0.115-0.555-0.325c-0.172-0.296-0.057-0.679,0.25-0.851l3.748-2.027
			c0.287-0.153,0.68-0.057,0.852,0.249C537.996,288.242,537.881,288.615,537.584,288.787z M539.057,285.89
			c-0.104,0-0.199-0.019-0.295-0.077l-3.75-2.027c-0.305-0.172-0.42-0.555-0.248-0.851c0.162-0.306,0.555-0.401,0.852-0.249
			l3.748,2.027c0.297,0.172,0.412,0.555,0.248,0.851C539.488,285.775,539.287,285.89,539.057,285.89z M544.355,288.787l-3.748,2.027
			c-0.096,0.058-0.201,0.077-0.297,0.077c-0.221,0-0.439-0.115-0.555-0.325c-0.172-0.296-0.059-0.679,0.248-0.851l3.748-2.027
			c0.287-0.153,0.68-0.057,0.852,0.249C544.766,288.242,544.652,288.615,544.355,288.787z M545.828,285.89
			c-0.105,0-0.201-0.019-0.297-0.077l-3.748-2.027c-0.297-0.172-0.412-0.555-0.248-0.851c0.182-0.306,0.553-0.401,0.85-0.249
			l3.748,2.027c0.297,0.172,0.412,0.555,0.25,0.851C546.268,285.775,546.057,285.89,545.828,285.89z M551.125,288.787l-3.748,2.027
			c-0.096,0.058-0.201,0.077-0.297,0.077c-0.219,0-0.439-0.115-0.555-0.325c-0.162-0.296-0.047-0.679,0.25-0.851l3.748-2.027
			c0.287-0.153,0.678-0.057,0.85,0.249C551.537,288.242,551.422,288.615,551.125,288.787z M552.598,285.89
			c-0.105,0-0.201-0.019-0.297-0.077l-3.748-2.027c-0.297-0.172-0.41-0.555-0.248-0.851c0.172-0.306,0.564-0.401,0.852-0.249
			l3.748,2.027c0.307,0.172,0.42,0.555,0.248,0.851C553.037,285.775,552.828,285.89,552.598,285.89z M557.896,288.787l-3.75,2.027
			c-0.096,0.058-0.199,0.077-0.295,0.077c-0.221,0-0.432-0.115-0.555-0.325c-0.164-0.296-0.049-0.679,0.248-0.851l3.748-2.027
			c0.287-0.153,0.68-0.057,0.852,0.249C558.316,288.242,558.201,288.615,557.896,288.787z M560.076,285.89
			c-0.105,0-0.201-0.019-0.297-0.077l-3.748-2.027c-0.307-0.172-0.422-0.555-0.258-0.851c0.182-0.306,0.564-0.401,0.85-0.249
			l3.76,2.027c0.295,0.172,0.41,0.555,0.248,0.851C560.506,285.775,560.287,285.89,560.076,285.89z M565.363,288.787l-3.758,2.027
			c-0.096,0.058-0.201,0.077-0.297,0.077c-0.209,0-0.43-0.115-0.555-0.325c-0.162-0.296-0.047-0.679,0.26-0.851l3.748-2.027
			c0.287-0.153,0.67-0.057,0.852,0.249C565.775,288.242,565.67,288.615,565.363,288.787z M567.525,285.89
			c-0.105,0-0.201-0.019-0.297-0.077l-3.748-2.027c-0.307-0.172-0.422-0.555-0.248-0.851c0.172-0.306,0.562-0.401,0.85-0.249
			l3.748,2.027c0.297,0.172,0.412,0.555,0.25,0.851C567.955,285.775,567.744,285.89,567.525,285.89z M572.822,288.787l-3.748,2.027
			c-0.096,0.058-0.201,0.077-0.297,0.077c-0.219,0-0.439-0.115-0.555-0.325c-0.172-0.296-0.057-0.679,0.25-0.851l3.748-2.027
			c0.287-0.153,0.678-0.057,0.852,0.249C573.234,288.242,573.119,288.615,572.822,288.787z M574.984,285.89
			c-0.105,0-0.211-0.019-0.297-0.077l-3.748-2.027c-0.297-0.172-0.412-0.555-0.25-0.851c0.174-0.306,0.564-0.401,0.852-0.249
			l3.748,2.027c0.307,0.172,0.422,0.555,0.25,0.851C575.424,285.775,575.213,285.89,574.984,285.89z M580.281,288.787l-3.748,2.027
			c-0.096,0.058-0.201,0.077-0.297,0.077c-0.211,0-0.43-0.115-0.555-0.325c-0.162-0.296-0.047-0.679,0.248-0.851l3.75-2.027
			c0.295-0.153,0.678-0.057,0.85,0.249C580.703,288.242,580.588,288.615,580.281,288.787z M581.859,285.89
			c-0.105,0-0.211-0.019-0.297-0.077l-3.748-2.027c-0.307-0.172-0.42-0.555-0.248-0.851c0.172-0.306,0.555-0.401,0.85-0.249
			l3.75,2.027c0.295,0.172,0.41,0.555,0.248,0.851C582.289,285.775,582.07,285.89,581.859,285.89z M587.156,288.787l-3.748,2.027
			c-0.096,0.058-0.191,0.077-0.297,0.077c-0.219,0-0.439-0.115-0.555-0.325c-0.172-0.296-0.057-0.679,0.25-0.851l3.748-2.027
			c0.287-0.153,0.678-0.057,0.852,0.249C587.568,288.242,587.453,288.615,587.156,288.787z M588.629,285.89
			c-0.105,0-0.209-0.019-0.295-0.077l-3.75-2.027c-0.295-0.172-0.41-0.555-0.248-0.851c0.162-0.306,0.555-0.401,0.852-0.249
			l3.748,2.027c0.297,0.172,0.41,0.555,0.248,0.851C589.07,285.775,588.85,285.89,588.629,285.89z"/>
		<path d="M175.835,436.079c-2.257,0-18.743-0.173-24.977-4.801v7.086l3.49,1.884c0.296,0.172,0.411,0.555,0.249,0.851
			c-0.125,0.211-0.335,0.325-0.555,0.325c-0.105,0-0.201-0.019-0.296-0.076l-2.897-1.559v3.652l0.421-0.22
			c0.296-0.152,0.679-0.058,0.851,0.249c0.172,0.306,0.057,0.679-0.249,0.851l-1.014,0.555v2.018c0,3.596,11.178,6.513,24.977,6.513
			h24.355c13.799,0,24.978-2.917,24.978-6.513c0-0.134,0-0.306,0-0.478c-0.01,0.01-0.019,0.01-0.029,0.01
			c-0.22,0-0.44-0.115-0.555-0.325c-0.163-0.297-0.048-0.68,0.249-0.852l0.325-0.182c0-4.188,0-11.857,0-14.047
			c-6.235,4.886-22.72,5.049-24.977,5.049h-24.346V436.079z M159.34,444.321l-3.758,2.027c-0.096,0.058-0.201,0.076-0.296,0.076
			c-0.22,0-0.43-0.114-0.555-0.324c-0.163-0.297-0.048-0.68,0.258-0.852l3.749-2.027c0.287-0.153,0.669-0.058,0.851,0.249
			C159.751,443.786,159.646,444.159,159.34,444.321z M160.784,441.433c-0.105,0-0.201-0.02-0.296-0.076l-3.749-2.027
			c-0.306-0.163-0.421-0.555-0.258-0.852c0.172-0.306,0.564-0.401,0.851-0.248l3.749,2.027c0.296,0.172,0.411,0.555,0.249,0.851
			C161.214,441.319,160.995,441.433,160.784,441.433z M166.072,444.321l-3.758,2.027c-0.096,0.058-0.201,0.076-0.296,0.076
			c-0.22,0-0.43-0.114-0.555-0.324c-0.163-0.297-0.048-0.68,0.258-0.852l3.749-2.027c0.287-0.153,0.669-0.058,0.851,0.249
			C166.493,443.786,166.378,444.159,166.072,444.321z M167.554,441.433c-0.105,0-0.201-0.02-0.296-0.076l-3.749-2.027
			c-0.306-0.163-0.42-0.555-0.249-0.852c0.172-0.306,0.555-0.401,0.841-0.248l3.749,2.027c0.296,0.172,0.411,0.555,0.249,0.851
			C167.985,441.319,167.765,441.433,167.554,441.433z M172.842,444.321l-3.758,2.027c-0.086,0.058-0.191,0.076-0.287,0.076
			c-0.22,0-0.44-0.114-0.555-0.324c-0.163-0.297-0.057-0.68,0.249-0.852l3.749-2.027c0.287-0.153,0.679-0.058,0.851,0.249
			C173.253,443.786,173.148,444.159,172.842,444.321z M174.325,441.433c-0.105,0-0.201-0.02-0.296-0.076l-3.749-2.027
			c-0.306-0.163-0.421-0.555-0.249-0.852c0.172-0.306,0.555-0.401,0.852-0.248l3.748,2.027c0.297,0.172,0.412,0.555,0.249,0.851
			C174.755,441.319,174.544,441.433,174.325,441.433z M179.622,444.321l-3.749,2.027c-0.096,0.058-0.201,0.076-0.296,0.076
			c-0.22,0-0.44-0.114-0.555-0.324c-0.163-0.297-0.057-0.68,0.249-0.852l3.749-2.027c0.287-0.153,0.679-0.058,0.851,0.249
			C180.024,443.786,179.918,444.159,179.622,444.321z M181.095,441.433c-0.105,0-0.201-0.02-0.296-0.076l-3.749-2.027
			c-0.296-0.163-0.411-0.555-0.249-0.852c0.172-0.306,0.555-0.401,0.851-0.248l3.749,2.027c0.296,0.172,0.411,0.555,0.249,0.851
			C181.535,441.319,181.315,441.433,181.095,441.433z M186.393,444.321l-3.749,2.027c-0.096,0.058-0.201,0.076-0.296,0.076
			c-0.229,0-0.44-0.114-0.555-0.324c-0.163-0.297-0.048-0.68,0.249-0.852l3.749-2.027c0.287-0.153,0.679-0.058,0.851,0.249
			C186.794,443.786,186.689,444.159,186.393,444.321z M187.865,441.433c-0.105,0-0.21-0.02-0.296-0.076l-3.749-2.027
			c-0.296-0.163-0.411-0.555-0.249-0.852c0.172-0.306,0.564-0.401,0.851-0.248l3.749,2.027c0.306,0.172,0.421,0.555,0.249,0.851
			C188.305,441.319,188.085,441.433,187.865,441.433z M193.163,444.321l-3.749,2.027c-0.096,0.058-0.201,0.076-0.296,0.076
			c-0.21,0-0.43-0.114-0.555-0.324c-0.163-0.297-0.048-0.68,0.249-0.852l3.749-2.027c0.287-0.153,0.679-0.058,0.851,0.249
			C193.574,443.786,193.469,444.159,193.163,444.321z M195.333,441.433c-0.105,0-0.21-0.02-0.296-0.076l-3.749-2.027
			c-0.306-0.163-0.421-0.555-0.258-0.852c0.182-0.306,0.564-0.401,0.851-0.248l3.758,2.027c0.297,0.172,0.412,0.555,0.249,0.851
			C195.764,441.319,195.553,441.433,195.333,441.433z M200.631,444.321l-3.758,2.027c-0.096,0.058-0.201,0.076-0.296,0.076
			c-0.21,0-0.431-0.114-0.555-0.324c-0.163-0.297-0.048-0.68,0.258-0.852l3.749-2.027c0.287-0.153,0.669-0.058,0.851,0.249
			C201.042,443.786,200.927,444.159,200.631,444.321z M220.444,438.23l3.749,2.027c0.296,0.172,0.411,0.555,0.249,0.851
			c-0.115,0.211-0.325,0.325-0.554,0.325c-0.105,0-0.201-0.02-0.297-0.076l-3.748-2.027c-0.297-0.163-0.412-0.555-0.249-0.852
			C219.766,438.172,220.158,438.077,220.444,438.23z M218.073,445.249l3.748-2.027c0.287-0.153,0.679-0.058,0.851,0.249
			c0.163,0.306,0.048,0.679-0.249,0.851l-3.749,2.027c-0.096,0.058-0.201,0.076-0.296,0.076c-0.22,0-0.44-0.114-0.555-0.324
			C217.652,445.803,217.767,445.412,218.073,445.249z M213.674,438.23l3.749,2.027c0.296,0.172,0.411,0.555,0.249,0.851
			c-0.125,0.211-0.334,0.325-0.555,0.325c-0.105,0-0.201-0.02-0.296-0.076l-3.749-2.027c-0.306-0.163-0.421-0.555-0.249-0.852
			C212.995,438.172,213.378,438.077,213.674,438.23z M211.198,445.249l3.749-2.027c0.296-0.153,0.679-0.058,0.851,0.249
			c0.172,0.306,0.057,0.679-0.249,0.851l-3.749,2.027c-0.095,0.058-0.201,0.076-0.296,0.076c-0.22,0-0.43-0.114-0.555-0.324
			C210.787,445.803,210.901,445.412,211.198,445.249z M206.799,438.23l3.749,2.027c0.306,0.172,0.421,0.555,0.249,0.851
			c-0.115,0.211-0.325,0.325-0.555,0.325c-0.105,0-0.201-0.02-0.296-0.076l-3.749-2.027c-0.296-0.163-0.411-0.555-0.249-0.852
			C206.12,438.172,206.512,438.077,206.799,438.23z M203.739,445.249l3.749-2.027c0.287-0.153,0.679-0.058,0.851,0.249
			c0.163,0.306,0.048,0.679-0.249,0.851l-3.749,2.027c-0.096,0.058-0.191,0.076-0.296,0.076c-0.22,0-0.44-0.114-0.555-0.324
			C203.318,445.803,203.433,445.412,203.739,445.249z M203.337,441.098c-0.125,0.211-0.325,0.325-0.555,0.325
			c-0.105,0-0.21-0.019-0.296-0.076l-3.749-2.027c-0.306-0.162-0.421-0.555-0.249-0.851c0.172-0.307,0.564-0.402,0.851-0.249
			l3.749,2.027C203.385,440.419,203.5,440.802,203.337,441.098z"/>
		<path d="M188.008,404.636c-20.521,0-37.16,2.793-37.16,6.235v7.975l3.49,1.884c0.296,0.173,0.411,0.555,0.249,0.852
			c-0.124,0.21-0.334,0.325-0.555,0.325c-0.105,0-0.201-0.02-0.296-0.077l-2.897-1.559v3.653l0.421-0.22
			c0.296-0.153,0.679-0.058,0.851,0.248c0.172,0.307,0.058,0.68-0.249,0.852l-1.014,0.555v2.018c0,3.596,11.179,6.512,24.977,6.512
			h24.356c13.799,0,24.977-2.916,24.977-6.512c0-0.134,0-0.307,0-0.479c0,0.01-0.009,0.01-0.019,0.01
			c-0.22,0-0.44-0.115-0.555-0.325c-0.163-0.296-0.048-0.679,0.249-0.851l0.325-0.182c0-4.906,0-14.679,0-14.679
			C225.168,407.429,208.53,404.636,188.008,404.636z M186.976,408.27c11.122,0,20.148,1.521,20.148,3.386
			c0,1.864-9.018,3.385-20.148,3.385c-11.121,0-20.138-1.521-20.138-3.385C166.837,409.791,175.854,408.27,186.976,408.27z
			 M159.34,424.804l-3.758,2.027c-0.096,0.057-0.201,0.076-0.296,0.076c-0.22,0-0.43-0.115-0.555-0.325
			c-0.163-0.296-0.048-0.679,0.258-0.851l3.749-2.027c0.287-0.153,0.669-0.058,0.851,0.248
			C159.751,424.268,159.646,424.641,159.34,424.804z M160.784,421.907c-0.105,0-0.201-0.02-0.296-0.077l-3.749-2.026
			c-0.306-0.173-0.421-0.555-0.258-0.852c0.172-0.306,0.564-0.401,0.851-0.249l3.749,2.027c0.296,0.173,0.411,0.555,0.249,0.852
			C161.214,421.801,160.995,421.907,160.784,421.907z M166.072,424.804l-3.758,2.027c-0.096,0.057-0.201,0.076-0.296,0.076
			c-0.22,0-0.43-0.115-0.555-0.325c-0.163-0.296-0.048-0.679,0.258-0.851l3.749-2.027c0.287-0.153,0.669-0.058,0.851,0.248
			C166.493,424.268,166.378,424.641,166.072,424.804z M167.554,421.907c-0.105,0-0.201-0.02-0.296-0.077l-3.749-2.026
			c-0.306-0.173-0.42-0.555-0.249-0.852c0.172-0.306,0.555-0.401,0.841-0.249l3.749,2.027c0.296,0.173,0.411,0.555,0.249,0.852
			C167.985,421.801,167.765,421.907,167.554,421.907z M172.842,424.804l-3.758,2.027c-0.086,0.057-0.191,0.076-0.287,0.076
			c-0.22,0-0.44-0.115-0.555-0.325c-0.163-0.296-0.057-0.679,0.249-0.851l3.749-2.027c0.287-0.153,0.679-0.058,0.851,0.248
			C173.253,424.268,173.148,424.641,172.842,424.804z M174.325,421.907c-0.105,0-0.201-0.02-0.296-0.077l-3.749-2.026
			c-0.306-0.163-0.421-0.546-0.249-0.842c0.172-0.307,0.555-0.401,0.852-0.249l3.748,2.027c0.297,0.172,0.412,0.555,0.249,0.852
			C174.755,421.801,174.544,421.907,174.325,421.907z M179.622,424.804l-3.749,2.027c-0.096,0.057-0.201,0.076-0.296,0.076
			c-0.22,0-0.44-0.115-0.555-0.325c-0.163-0.296-0.057-0.679,0.249-0.851l3.749-2.027c0.287-0.153,0.679-0.058,0.851,0.248
			C180.024,424.268,179.918,424.641,179.622,424.804z M181.095,421.907c-0.105,0-0.201-0.02-0.296-0.077l-3.749-2.026
			c-0.296-0.173-0.411-0.555-0.249-0.852c0.172-0.306,0.555-0.401,0.851-0.249l3.749,2.027c0.296,0.173,0.411,0.555,0.249,0.852
			C181.535,421.801,181.315,421.907,181.095,421.907z M186.393,424.804l-3.749,2.027c-0.096,0.057-0.201,0.076-0.296,0.076
			c-0.229,0-0.44-0.115-0.555-0.325c-0.163-0.296-0.048-0.679,0.249-0.851l3.749-2.027c0.287-0.153,0.679-0.058,0.851,0.248
			C186.794,424.268,186.689,424.641,186.393,424.804z M187.865,421.907c-0.105,0-0.21-0.02-0.296-0.077l-3.749-2.026
			c-0.296-0.173-0.411-0.555-0.249-0.852c0.172-0.306,0.564-0.401,0.851-0.249l3.749,2.027c0.306,0.173,0.421,0.555,0.249,0.852
			C188.305,421.801,188.085,421.907,187.865,421.907z M193.163,424.804l-3.749,2.027c-0.096,0.057-0.201,0.076-0.296,0.076
			c-0.21,0-0.43-0.115-0.555-0.325c-0.163-0.296-0.048-0.679,0.249-0.851l3.749-2.027c0.287-0.153,0.679-0.058,0.851,0.248
			C193.574,424.268,193.469,424.641,193.163,424.804z M195.333,421.907c-0.105,0-0.21-0.02-0.296-0.077l-3.749-2.026
			c-0.306-0.173-0.421-0.555-0.258-0.852c0.182-0.306,0.564-0.401,0.851-0.249l3.758,2.027c0.297,0.173,0.412,0.555,0.249,0.852
			C195.764,421.801,195.553,421.907,195.333,421.907z M200.631,424.804l-3.758,2.027c-0.096,0.057-0.201,0.076-0.296,0.076
			c-0.21,0-0.431-0.115-0.555-0.325c-0.163-0.296-0.048-0.679,0.258-0.851l3.749-2.027c0.287-0.153,0.669-0.058,0.851,0.248
			C201.042,424.268,200.927,424.641,200.631,424.804z M202.783,421.907c-0.105,0-0.21-0.02-0.296-0.077l-3.749-2.026
			c-0.306-0.173-0.421-0.555-0.249-0.852c0.172-0.306,0.564-0.401,0.851-0.249l3.748,2.027c0.297,0.173,0.412,0.555,0.249,0.852
			C203.213,421.801,203.012,421.907,202.783,421.907z M208.08,424.804l-3.749,2.027c-0.096,0.057-0.191,0.076-0.296,0.076
			c-0.22,0-0.44-0.115-0.555-0.325c-0.172-0.296-0.057-0.679,0.249-0.851l3.749-2.027c0.287-0.153,0.679-0.058,0.851,0.248
			C208.491,424.268,208.376,424.641,208.08,424.804z M210.251,421.907c-0.105,0-0.201-0.02-0.296-0.077l-3.749-2.026
			c-0.296-0.173-0.411-0.555-0.249-0.852c0.172-0.306,0.564-0.401,0.851-0.249l3.749,2.027c0.306,0.173,0.42,0.555,0.249,0.852
			C210.681,421.801,210.471,421.907,210.251,421.907z M215.539,424.804l-3.749,2.027c-0.096,0.057-0.201,0.076-0.296,0.076
			c-0.22,0-0.431-0.115-0.555-0.325c-0.163-0.296-0.048-0.679,0.249-0.851l3.749-2.027c0.296-0.153,0.679-0.058,0.851,0.248
			C215.959,424.268,215.854,424.641,215.539,424.804z M217.117,421.907c-0.105,0-0.201-0.02-0.296-0.077l-3.749-2.026
			c-0.306-0.173-0.421-0.555-0.249-0.852c0.163-0.306,0.555-0.401,0.851-0.249l3.749,2.027c0.296,0.173,0.411,0.555,0.249,0.852
			C217.547,421.801,217.337,421.907,217.117,421.907z M222.415,424.804l-3.749,2.027c-0.096,0.057-0.201,0.076-0.296,0.076
			c-0.22,0-0.44-0.115-0.555-0.325c-0.172-0.296-0.058-0.679,0.249-0.851l3.749-2.027c0.287-0.153,0.679-0.058,0.851,0.248
			C222.826,424.268,222.711,424.641,222.415,424.804z M223.887,421.907c-0.105,0-0.201-0.02-0.297-0.077l-3.748-2.026
			c-0.297-0.173-0.412-0.555-0.249-0.852c0.172-0.306,0.564-0.401,0.851-0.249l3.749,2.027c0.296,0.173,0.411,0.555,0.249,0.852
			C224.327,421.801,224.117,421.907,223.887,421.907z"/>
		<path d="M506.736,310.867v-2.018c0-0.239,0.01-0.497,0.029-0.736c-0.02-0.22-0.029-0.459-0.029-0.688v-3.653
			c0-0.238,0.01-0.478,0.029-0.707c-0.02-0.239-0.029-0.479-0.029-0.718v-7.085c0-0.793,0.143-1.559,0.324-2.305
			c-0.076-0.554-0.324-1.013-0.324-1.597v-2.018c0-0.239,0.01-0.498,0.029-0.736c-0.02-0.22-0.029-0.459-0.029-0.688v-3.653
			c0-0.239,0.01-0.479,0.029-0.708c-0.02-0.239-0.029-0.478-0.029-0.717v-7.976c0-4.417,0.076-12.947,30.016-15.223
			c-9.877-56.037-58.789-98.762-117.607-98.762H172.402v13.445c0,0.22-0.009,0.45-0.028,0.669c0.019,0.22,0.028,0.45,0.028,0.669
			c0,14.458-21.649,16.543-34.54,16.543h-24.355c-12.9,0-34.54-2.094-34.54-16.074v-2.018c0-0.239,0.01-0.497,0.029-0.736
			c-0.019-0.22-0.029-0.459-0.029-0.688v-3.653c0-0.239,0.01-0.478,0.029-0.708c-0.01-0.077,0-0.153-0.01-0.229
			C33,184.756,0,228.744,0,280.401v25.178C0,371.493,53.626,425.11,119.531,425.11h22.233v-0.315c0-0.239,0.01-0.497,0.029-0.736
			c-0.019-0.22-0.029-0.459-0.029-0.688v-3.653c0-0.238,0.01-0.478,0.029-0.707c-0.019-0.239-0.029-0.479-0.029-0.718v-7.975
			c0-5.126,0-15.798,46.723-15.798c46.722,0,46.722,10.672,46.722,15.798v14.679c0,0.038-0.01,0.086-0.01,0.124h183.953
			c58.648,0,107.455-42.486,117.523-98.274C523.814,326.31,506.736,323.298,506.736,310.867z M490.863,305.579
			c0,39.551-32.17,71.719-71.719,71.719H119.522c-39.551,0-71.719-32.168-71.719-71.719V280.41c0-39.55,32.168-71.719,71.719-71.719
			h299.623c39.549,0,71.719,32.168,71.719,71.719V305.579z"/>
		<path d="M88.75,176.733v2.018c0,3.595,11.179,6.512,24.978,6.512h24.355c13.799,0,24.978-2.917,24.978-6.512
			c0-0.134,0-0.306,0-0.479c-0.01,0.01-0.019,0.01-0.029,0.01c-0.22,0-0.44-0.115-0.555-0.325c-0.163-0.296-0.048-0.679,0.249-0.851
			l0.325-0.182c0-4.188,0-11.857,0-14.047c-6.235,4.887-22.72,5.049-24.977,5.049h-24.346c-2.257,0-18.743-0.172-24.978-4.8v7.086
			l3.491,1.884c0.296,0.172,0.411,0.555,0.249,0.851c-0.125,0.21-0.335,0.325-0.555,0.325c-0.105,0-0.21-0.019-0.296-0.077
			l-2.897-1.559v3.653l0.421-0.22c0.296-0.153,0.679-0.058,0.851,0.249c0.172,0.306,0.057,0.679-0.249,0.851L88.75,176.733z
			 M158.336,170.087l3.749,2.027c0.296,0.172,0.411,0.555,0.249,0.851c-0.115,0.21-0.325,0.325-0.554,0.325
			c-0.105,0-0.201-0.019-0.297-0.077l-3.749-2.027c-0.296-0.172-0.411-0.555-0.249-0.851
			C157.657,170.03,158.049,169.935,158.336,170.087z M155.964,177.106l3.749-2.027c0.287-0.153,0.679-0.057,0.851,0.249
			c0.163,0.306,0.048,0.679-0.249,0.852l-3.749,2.027c-0.096,0.058-0.201,0.077-0.296,0.077c-0.22,0-0.44-0.115-0.555-0.325
			C155.544,177.661,155.659,177.269,155.964,177.106z M151.566,170.087l3.749,2.027c0.296,0.172,0.411,0.555,0.249,0.851
			c-0.125,0.21-0.335,0.325-0.555,0.325c-0.105,0-0.201-0.019-0.296-0.077l-3.749-2.027c-0.306-0.172-0.421-0.555-0.249-0.851
			C150.887,170.03,151.27,169.935,151.566,170.087z M149.089,177.106l3.748-2.027c0.297-0.153,0.679-0.057,0.851,0.249
			c0.172,0.306,0.058,0.679-0.249,0.852l-3.749,2.027c-0.095,0.058-0.201,0.077-0.296,0.077c-0.21,0-0.43-0.115-0.555-0.325
			C148.678,177.661,148.792,177.269,149.089,177.106z M144.69,170.087l3.749,2.027c0.306,0.172,0.421,0.555,0.249,0.851
			c-0.115,0.21-0.325,0.325-0.555,0.325c-0.105,0-0.21-0.019-0.296-0.077l-3.749-2.027c-0.296-0.172-0.411-0.555-0.249-0.851
			C144.011,170.03,144.403,169.935,144.69,170.087z M141.63,177.106l3.749-2.027c0.287-0.153,0.679-0.057,0.851,0.249
			c0.163,0.306,0.048,0.679-0.249,0.852l-3.749,2.027c-0.096,0.058-0.201,0.077-0.296,0.077c-0.22,0-0.44-0.115-0.555-0.325
			C141.209,177.661,141.324,177.269,141.63,177.106z M137.231,170.087l3.749,2.027c0.296,0.172,0.411,0.555,0.249,0.851
			c-0.125,0.21-0.325,0.325-0.555,0.325c-0.105,0-0.201-0.019-0.296-0.077l-3.749-2.027c-0.306-0.172-0.421-0.555-0.249-0.851
			C136.553,170.03,136.945,169.935,137.231,170.087z M134.181,177.106l3.749-2.027c0.287-0.153,0.669-0.057,0.851,0.249
			c0.163,0.306,0.048,0.679-0.249,0.852l-3.758,2.027c-0.096,0.058-0.201,0.077-0.296,0.077c-0.21,0-0.43-0.115-0.555-0.325
			C133.76,177.661,133.866,177.269,134.181,177.106z M129.773,170.087l3.758,2.027c0.296,0.172,0.411,0.555,0.249,0.851
			c-0.125,0.21-0.335,0.325-0.555,0.325c-0.105,0-0.201-0.019-0.296-0.077l-3.749-2.027c-0.306-0.172-0.421-0.555-0.258-0.851
			C129.094,170.03,129.477,169.935,129.773,170.087z M126.703,177.106l3.749-2.027c0.287-0.153,0.679-0.057,0.851,0.249
			c0.172,0.306,0.058,0.679-0.249,0.852l-3.749,2.027c-0.096,0.058-0.201,0.077-0.296,0.077c-0.22,0-0.43-0.115-0.555-0.325
			C126.292,177.661,126.407,177.269,126.703,177.106z M122.305,170.087l3.749,2.027c0.306,0.172,0.42,0.555,0.249,0.851
			c-0.115,0.21-0.325,0.325-0.555,0.325c-0.105,0-0.201-0.019-0.296-0.077l-3.749-2.027c-0.296-0.172-0.411-0.555-0.249-0.851
			C121.625,170.03,122.018,169.935,122.305,170.087z M119.933,177.106l3.749-2.027c0.287-0.153,0.679-0.057,0.851,0.249
			c0.163,0.306,0.048,0.679-0.249,0.852l-3.749,2.027c-0.096,0.058-0.201,0.077-0.296,0.077c-0.22,0-0.44-0.115-0.555-0.325
			C119.522,177.661,119.637,177.269,119.933,177.106z M115.534,170.087l3.749,2.027c0.296,0.172,0.411,0.555,0.249,0.851
			c-0.115,0.21-0.325,0.325-0.554,0.325c-0.105,0-0.201-0.019-0.297-0.077l-3.748-2.027c-0.297-0.172-0.412-0.555-0.249-0.851
			C114.865,170.03,115.238,169.935,115.534,170.087z M113.163,177.106l3.749-2.027c0.287-0.153,0.679-0.057,0.851,0.249
			c0.163,0.306,0.048,0.679-0.249,0.852l-3.749,2.027c-0.096,0.058-0.201,0.077-0.296,0.077c-0.22,0-0.44-0.115-0.555-0.325
			C112.742,177.661,112.857,177.269,113.163,177.106z M108.764,170.087l3.749,2.027c0.296,0.172,0.411,0.555,0.249,0.851
			c-0.125,0.21-0.325,0.325-0.555,0.325c-0.105,0-0.201-0.019-0.296-0.077l-3.749-2.027c-0.306-0.172-0.421-0.555-0.249-0.851
			C108.085,170.03,108.468,169.935,108.764,170.087z M106.393,177.106l3.749-2.027c0.287-0.153,0.679-0.057,0.851,0.249
			c0.163,0.306,0.048,0.679-0.249,0.852l-3.758,2.027c-0.086,0.058-0.191,0.077-0.287,0.077c-0.22,0-0.44-0.115-0.555-0.325
			C105.972,177.661,106.086,177.269,106.393,177.106z M101.984,170.087l3.758,2.027c0.296,0.172,0.411,0.555,0.249,0.851
			c-0.124,0.21-0.334,0.325-0.554,0.325c-0.105,0-0.201-0.019-0.296-0.077l-3.749-2.027c-0.306-0.172-0.421-0.555-0.249-0.851
			C101.315,170.03,101.697,169.935,101.984,170.087z M99.623,177.106l3.748-2.027c0.287-0.153,0.669-0.057,0.851,0.249
			c0.163,0.306,0.048,0.679-0.249,0.852l-3.758,2.027c-0.096,0.058-0.201,0.077-0.296,0.077c-0.21,0-0.431-0.115-0.555-0.325
			C99.202,177.661,99.316,177.269,99.623,177.106z M95.214,170.087l3.758,2.027c0.296,0.172,0.411,0.555,0.249,0.851
			c-0.125,0.21-0.334,0.325-0.555,0.325c-0.105,0-0.21-0.019-0.296-0.077l-3.749-2.027c-0.306-0.172-0.421-0.555-0.258-0.851
			C94.544,170.03,94.927,169.935,95.214,170.087z M92.89,177.106l3.749-2.027c0.287-0.153,0.669-0.057,0.851,0.249
			c0.163,0.306,0.048,0.679-0.249,0.852l-3.758,2.027c-0.096,0.058-0.201,0.077-0.296,0.077c-0.21,0-0.431-0.115-0.555-0.325
			C92.47,177.661,92.584,177.269,92.89,177.106z"/>
		<path d="M88.75,157.216v2.018c0,3.595,11.179,6.512,24.978,6.512h24.355c13.799,0,24.978-2.917,24.978-6.512
			c0-0.134,0-0.306,0-0.478c-0.01,0.009-0.019,0.009-0.029,0.009c-0.22,0-0.44-0.115-0.555-0.325
			c-0.163-0.296-0.048-0.679,0.249-0.851l0.325-0.172c0-4.906,0-14.679,0-14.679c0-3.442-16.639-6.234-37.16-6.234
			c-20.521,0-37.16,2.792-37.16,6.234v7.975l3.49,1.884c0.297,0.172,0.412,0.555,0.249,0.851c-0.125,0.22-0.335,0.325-0.555,0.325
			c-0.105,0-0.21-0.019-0.296-0.076l-2.897-1.559v3.653l0.42-0.22c0.297-0.153,0.679-0.058,0.851,0.249
			c0.172,0.306,0.058,0.679-0.249,0.851L88.75,157.216z M110.734,156.662l-3.758,2.027c-0.086,0.058-0.191,0.077-0.287,0.077
			c-0.22,0-0.44-0.115-0.555-0.325c-0.172-0.296-0.057-0.679,0.249-0.851l3.749-2.027c0.287-0.153,0.679-0.057,0.851,0.249
			C111.145,156.126,111.04,156.5,110.734,156.662z M112.216,153.765c-0.105,0-0.201-0.019-0.296-0.077l-3.749-2.027
			c-0.306-0.172-0.421-0.555-0.249-0.851c0.163-0.306,0.555-0.401,0.851-0.249l3.749,2.027c0.296,0.172,0.411,0.555,0.249,0.851
			C112.646,153.659,112.436,153.765,112.216,153.765z M117.504,156.662l-3.749,2.027c-0.096,0.058-0.201,0.077-0.296,0.077
			c-0.22,0-0.44-0.115-0.555-0.325c-0.172-0.296-0.058-0.679,0.249-0.851l3.749-2.027c0.287-0.153,0.679-0.057,0.851,0.249
			C117.916,156.126,117.81,156.5,117.504,156.662z M118.986,153.765c-0.105,0-0.201-0.019-0.296-0.077l-3.749-2.027
			c-0.296-0.172-0.411-0.555-0.249-0.851c0.182-0.306,0.555-0.401,0.851-0.249l3.749,2.027c0.296,0.172,0.411,0.555,0.249,0.851
			C119.426,153.659,119.207,153.765,118.986,153.765z M124.274,156.662l-3.749,2.027c-0.096,0.058-0.201,0.077-0.296,0.077
			c-0.22,0-0.44-0.115-0.555-0.325c-0.163-0.296-0.048-0.679,0.249-0.851l3.749-2.027c0.287-0.153,0.679-0.057,0.851,0.249
			C124.686,156.126,124.581,156.5,124.274,156.662z M125.757,153.765c-0.105,0-0.201-0.019-0.297-0.077l-3.748-2.027
			c-0.297-0.172-0.412-0.555-0.249-0.851c0.172-0.306,0.564-0.401,0.851-0.249l3.749,2.027c0.306,0.172,0.421,0.555,0.249,0.851
			C126.196,153.659,125.977,153.765,125.757,153.765z M131.045,156.662l-3.749,2.027c-0.096,0.058-0.201,0.077-0.297,0.077
			c-0.22,0-0.43-0.115-0.554-0.325c-0.163-0.296-0.048-0.679,0.249-0.851l3.749-2.027c0.287-0.153,0.679-0.057,0.851,0.249
			C131.465,156.126,131.36,156.5,131.045,156.662z M133.225,153.765c-0.105,0-0.201-0.019-0.296-0.077l-3.749-2.027
			c-0.306-0.172-0.421-0.555-0.258-0.851c0.172-0.306,0.555-0.401,0.851-0.249l3.758,2.027c0.296,0.172,0.411,0.555,0.249,0.851
			C133.655,153.659,133.436,153.765,133.225,153.765z M138.522,156.662l-3.758,2.027c-0.096,0.058-0.201,0.077-0.296,0.077
			c-0.21,0-0.431-0.115-0.555-0.325c-0.163-0.296-0.048-0.679,0.258-0.851l3.748-2.027c0.287-0.153,0.669-0.057,0.851,0.249
			C138.934,156.126,138.819,156.5,138.522,156.662z M140.674,153.765c-0.105,0-0.201-0.019-0.296-0.077l-3.749-2.027
			c-0.306-0.172-0.421-0.555-0.249-0.851c0.172-0.306,0.564-0.401,0.851-0.249l3.749,2.027c0.296,0.172,0.411,0.555,0.249,0.851
			C141.104,153.659,140.904,153.765,140.674,153.765z M145.972,156.662l-3.749,2.027c-0.096,0.058-0.201,0.077-0.296,0.077
			c-0.22,0-0.44-0.115-0.555-0.325c-0.172-0.296-0.057-0.679,0.249-0.851l3.749-2.027c0.287-0.153,0.679-0.057,0.851,0.249
			C146.383,156.126,146.268,156.5,145.972,156.662z M158.336,150.571l3.749,2.027c0.296,0.172,0.411,0.555,0.249,0.851
			c-0.115,0.22-0.325,0.325-0.554,0.325c-0.105,0-0.201-0.019-0.297-0.076l-3.749-2.027c-0.296-0.172-0.411-0.555-0.249-0.851
			C157.657,150.513,158.049,150.417,158.336,150.571z M155.964,157.589l3.749-2.027c0.287-0.153,0.679-0.057,0.851,0.249
			c0.163,0.306,0.048,0.679-0.249,0.851l-3.749,2.027c-0.096,0.058-0.201,0.077-0.296,0.077c-0.22,0-0.44-0.115-0.555-0.325
			C155.544,158.144,155.659,157.752,155.964,157.589z M151.566,150.571l3.749,2.027c0.296,0.172,0.411,0.555,0.249,0.851
			c-0.125,0.22-0.335,0.325-0.555,0.325c-0.105,0-0.201-0.019-0.296-0.076l-3.749-2.027c-0.306-0.172-0.421-0.555-0.249-0.851
			C150.887,150.513,151.27,150.417,151.566,150.571z M149.089,157.589l3.748-2.027c0.297-0.153,0.679-0.057,0.851,0.249
			c0.172,0.306,0.058,0.679-0.249,0.851l-3.749,2.027c-0.095,0.058-0.201,0.077-0.296,0.077c-0.21,0-0.43-0.115-0.555-0.325
			C148.678,158.144,148.792,157.752,149.089,157.589z M148.688,153.439c-0.115,0.22-0.325,0.325-0.555,0.325
			c-0.105,0-0.21-0.019-0.296-0.077l-3.749-2.027c-0.296-0.172-0.411-0.555-0.249-0.851c0.172-0.306,0.564-0.401,0.851-0.249
			l3.749,2.027C148.745,152.76,148.86,153.143,148.688,153.439z M124.867,140.128c11.121,0,20.139,1.521,20.139,3.385
			s-9.017,3.395-20.139,3.395c-11.121,0-20.139-1.521-20.139-3.395C104.719,141.649,113.746,140.128,124.867,140.128z
			 M101.984,150.571l3.758,2.027c0.296,0.172,0.411,0.555,0.249,0.851c-0.124,0.22-0.334,0.325-0.554,0.325
			c-0.105,0-0.201-0.019-0.296-0.076l-3.749-2.027c-0.306-0.172-0.421-0.555-0.249-0.851
			C101.315,150.513,101.697,150.417,101.984,150.571z M99.623,157.589l3.748-2.027c0.287-0.153,0.669-0.057,0.851,0.249
			c0.163,0.306,0.048,0.679-0.249,0.851l-3.758,2.027c-0.096,0.058-0.201,0.077-0.296,0.077c-0.21,0-0.431-0.115-0.555-0.325
			C99.202,158.144,99.316,157.752,99.623,157.589z M95.214,150.571l3.758,2.027c0.296,0.172,0.411,0.555,0.249,0.851
			c-0.125,0.22-0.334,0.325-0.555,0.325c-0.105,0-0.21-0.019-0.296-0.076l-3.749-2.027c-0.306-0.172-0.421-0.555-0.258-0.851
			C94.544,150.513,94.927,150.417,95.214,150.571z M92.89,157.589l3.749-2.027c0.287-0.153,0.669-0.057,0.851,0.249
			c0.163,0.306,0.048,0.679-0.249,0.851l-3.758,2.027c-0.096,0.058-0.201,0.077-0.296,0.077c-0.21,0-0.431-0.115-0.555-0.325
			C92.47,158.144,92.584,157.752,92.89,157.589z"/>
	</g>
</g>
<g>
</g>
<g>
</g>
<g>
</g>
<g>
</g>
<g>
</g>
<g>
</g>
<g>
</g>
<g>
</g>
<g>
</g>
<g>
</g>
<g>
</g>
<g>
</g>
<g>
</g>
<g>
</g>
<g>
</g>
</svg>
