<?xml version="1.0" encoding="iso-8859-1"?>
<!-- Generator: Adobe Illustrator 16.0.0, SVG Export Plug-In . SVG Version: 6.00 Build 0)  -->
<!DOCTYPE svg PUBLIC "-//W3C//DTD SVG 1.1//EN" "http://www.w3.org/Graphics/SVG/1.1/DTD/svg11.dtd">
<svg version="1.1" id="Capa_1" xmlns="http://www.w3.org/2000/svg" xmlns:xlink="http://www.w3.org/1999/xlink" x="0px" y="0px"
	 width="473.086px" height="473.086px" viewBox="0 0 473.086 473.086" style="enable-background:new 0 0 473.086 473.086;"
	 xml:space="preserve">
<g>
	<g>
		<path d="M292.102,262.807l75.555-125.786c5.441-9.056,3.012-21.563-5.402-27.932L327.99,83.175
			c-8.424-6.369-17.748-15.032-22.281-17.299c-2.668-1.339-5.66-2.084-8.854-2.084h-102.08c-7.459,0-14.306,4.102-17.825,10.672
			l-51.035,95.348c-5.269,9.84-1.568,22.099,8.281,27.368c3.041,1.625,6.302,2.4,9.524,2.4c7.22,0,14.2-3.873,17.844-10.682
			l45.326-84.666H277.1l-71.978,103.064c-0.039,0.239-0.201,0.382-0.325,0.574l-58.8,93.311H30.338c-14.363,0-26,11.647-26,26.01
			c0,14.354,11.638,26.001,26,26.001h130.002c8.931,0,17.231-4.581,21.994-12.145l48.893-77.591l49.323,79.168l-49.256,92.212
			c-6.761,12.66-1.979,28.419,10.681,35.18c3.901,2.095,8.091,3.07,12.23,3.07c9.286,0,18.274-4.982,22.96-13.751l56.332-105.446
			c4.381-8.204,4.045-18.111-0.859-26L292.102,262.807z"/>
		<circle cx="377.506" cy="47.669" r="47.669"/>
		<path d="M442.998,192.885c6.676-13.942,9.773-29.166,11.055-40.516c1.07-9.515-6.799-17.854-16.352-17.27
			c-19.537,1.186-50.576,6.837-65.742,29.596c-12.805,19.221-16.955,38.202-18.131,51.303c-0.842,9.534,7.832,17.862,17.395,17.327
			c12.498-0.688,29.625-3.204,44.131-10.662l18.045,20.33c3.986,4.513,9.553,6.809,15.137,6.809c4.771,0,9.562-1.693,13.416-5.098
			c8.348-7.41,9.113-20.196,1.703-28.553L442.998,192.885z"/>
	</g>
</g>
<g>
</g>
<g>
</g>
<g>
</g>
<g>
</g>
<g>
</g>
<g>
</g>
<g>
</g>
<g>
</g>
<g>
</g>
<g>
</g>
<g>
</g>
<g>
</g>
<g>
</g>
<g>
</g>
<g>
</g>
</svg>
