<?xml version="1.0" encoding="iso-8859-1"?>
<!-- Generator: Adobe Illustrator 16.0.0, SVG Export Plug-In . SVG Version: 6.00 Build 0)  -->
<!DOCTYPE svg PUBLIC "-//W3C//DTD SVG 1.1//EN" "http://www.w3.org/Graphics/SVG/1.1/DTD/svg11.dtd">
<svg version="1.1" id="Capa_1" xmlns="http://www.w3.org/2000/svg" xmlns:xlink="http://www.w3.org/1999/xlink" x="0px" y="0px"
	 width="566.481px" height="566.481px" viewBox="0 0 566.481 566.481" style="enable-background:new 0 0 566.481 566.481;"
	 xml:space="preserve">
<g>
	<g>
		<path d="M159.024,493.291c3.261,4.887,9.046,7.688,15.883,7.688H353.01c6.32,0,9.781-1.759,11.762-3.796
			c0.182,0.191,0.354,0.383,0.535,0.574c1.875,1.932,4.371,2.906,6.857,2.906c2.398,0,4.799-0.898,6.664-2.696
			c3.787-3.682,3.873-9.744,0.201-13.521c-75.822-78.087-64.451-185.685-64.328-186.756c0.604-5.24-3.154-9.983-8.395-10.595
			c-5.213-0.66-9.984,3.137-10.596,8.377c-0.191,1.615-1.711,15.729-0.412,36.959c-3.547-0.909-7.43-0.899-11.398,0.487
			c-36.452,12.891-60.406,27.101-71.173,42.229c-3.347,4.714-6.015,11.131-8.578,17.327c-2.41,5.813-4.896,11.819-7.688,15.691
			c-10.375,14.344-18.609,28.066-25.111,40.268v-0.038h-15.664l-4.867,17.854c-1.167,4.255-5.02,7.048-9.218,7.048
			c-0.832,0-1.673-0.105-2.524-0.335c-5.097-1.396-8.1-6.646-6.713-11.743l3.5-12.832h-9.61l-4.867,17.853
			c-1.167,4.256-5.011,7.048-9.218,7.048c-0.832,0-1.673-0.105-2.524-0.335c-5.097-1.396-8.1-6.646-6.713-11.742l3.5-12.833H19.125
			C8.568,448.376,0,455.691,0,464.708v16.333h156.653C155.888,485.488,156.682,489.781,159.024,493.291z"/>
		<path d="M558.135,154.424c-34.607-20.196-45.441-59.393-48.492-75.305c-1.051-5.489-4.111-9.753-8.596-12.01
			c-4.504-2.238-9.744-2.142-14.793,0.315c-26.02,12.67-55.1,13.225-55.396,13.234c-1.777,0.02-3.346,0.66-4.752,1.53
			c-6.561-2.515-15.166-3.911-26.699-4.341l-1.863-0.039c-23.621,0-42.41,16.591-51.514,26.479
			c-1.779,1.932-3.328,2.917-4.084,3.251c-4.188-2.429-10.527-0.182-15.73,6.436c-4.064,5.164-6.607,13.971-5.918,20.483
			c4.016,38.183,14.172,128.807,21.783,145.57c4.809,10.585,1.883,22.959-1.426,31.47c-0.783,2.008-4.676,12.384-4.752,19.881
			c-0.736,69.242,38.977,123.796,56.084,144.049c3.949,4.667,12.182,9.496,19.125,9.496l0.631-0.01
			c8.166-0.345,14.344-3.155,18.352-8.348c6.76-8.779,4.197-20.933,4.139-21.152c-0.094-0.603-9.342-61.573-0.592-120.488
			c6.34-42.725,39.406-66.947,53.578-77.332c2.793-2.046,4.312-4.915,4.285-8.09c-0.01-0.995-0.172-1.979-0.459-2.955
			c16.59-28.946,53.129-55.979,68.189-66.316c4.781-3.28,7.42-8.062,7.238-13.11C566.281,162.046,563.25,157.408,558.135,154.424z
			 M354.779,181.926l40.363,6.043l4.121,17.614l-42.189-7.229L354.779,181.926z M411.111,480.143v-0.067l0,0V480.143z
			 M370.623,285.804l-2.418-16.428l43.031,6.11l4.34,17.633L370.623,285.804z M364.762,242.944l-2.879-16.447l53.082,6.34
			l5.184,17.681L364.762,242.944z M477.15,232.827c-4.676-3.662-9.525-7.611-13.379-10.834c-5.814-4.848-14.371-5.211-18.617-0.708
			c-0.709,0.746-3.758,2.735-6.494,0.334c-10.117-8.816-21.248-31.518-21.707-51.255c-0.305-13.148,7.68-22.166,15.406-30.887
			c5.947-6.713,11.561-13.053,12.078-20.665c0.553-8.195-0.135-14.554-1.875-19.833c11.627-1.262,30.467-4.523,48.979-12.9
			c4.17,19.269,16.707,58.379,52.012,81.798C526.281,180.167,494.764,205.039,477.15,232.827z"/>
	</g>
</g>
<g>
</g>
<g>
</g>
<g>
</g>
<g>
</g>
<g>
</g>
<g>
</g>
<g>
</g>
<g>
</g>
<g>
</g>
<g>
</g>
<g>
</g>
<g>
</g>
<g>
</g>
<g>
</g>
<g>
</g>
</svg>
