<?xml version="1.0" encoding="iso-8859-1"?>
<!-- Generator: Adobe Illustrator 16.0.0, SVG Export Plug-In . SVG Version: 6.00 Build 0)  -->
<!DOCTYPE svg PUBLIC "-//W3C//DTD SVG 1.1//EN" "http://www.w3.org/Graphics/SVG/1.1/DTD/svg11.dtd">
<svg version="1.1" id="Capa_1" xmlns="http://www.w3.org/2000/svg" xmlns:xlink="http://www.w3.org/1999/xlink" x="0px" y="0px"
	 width="558.354px" height="558.353px" viewBox="0 0 558.354 558.353" style="enable-background:new 0 0 558.354 558.353;"
	 xml:space="preserve">
<g>
	<g>
		<path d="M165.269,317.36c-2.286,0-3.882,0.153-4.714,0.383v15.146c0.995,0.22,2.132,0.307,3.873,0.307
			c6.158,0,9.983-3.118,9.983-8.301C174.41,320.171,171.13,317.36,165.269,317.36z"/>
		<path d="M266.746,335.166c0,10.136,4.724,17.222,12.489,17.222c7.842,0,12.346-7.468,12.346-17.433
			c0-9.304-4.342-17.222-12.346-17.222C271.317,317.733,266.746,325.192,266.746,335.166z"/>
		<path d="M533.836,279.177h-62.635c-13.549,0-24.518,10.978-24.518,24.518c0-13.54-10.979-24.518-24.518-24.518h-62.635
			c-13.551,0-24.52,10.978-24.52,24.518c0-13.54-10.977-24.518-24.518-24.518h0.01c13.551,0,24.518-10.978,24.518-24.518v-62.644
			c0-13.541-10.967-24.518-24.518-24.518c13.551,0,24.518-10.978,24.518-24.519V80.334c0-13.541-10.967-24.519-24.518-24.519H247.87
			c-13.55,0-24.528,10.978-24.528,24.519v62.644c0,13.541,10.978,24.519,24.528,24.519c-13.55,0-24.528,10.978-24.528,24.518v62.644
			c0,13.541,10.978,24.518,24.528,24.518h-0.01c-13.541,0-24.518,10.978-24.518,24.518c0-13.54-10.968-24.518-24.519-24.518h-62.634
			c-13.541,0-24.518,10.978-24.518,24.518c0-13.54-10.968-24.518-24.519-24.518H24.518C10.968,279.177,0,290.155,0,303.695v62.645
			c0,13.54,10.968,24.518,24.518,24.518h62.634c13.55,0,24.519-10.978,24.519-24.518c0,13.54,10.978,24.518,24.518,24.518h62.634
			c13.55,0,24.519-10.978,24.519-24.518c0,13.54,10.978,24.518,24.518,24.518c-13.55,0-24.518,10.979-24.518,24.519v62.644
			c0,13.541,10.968,24.519,24.518,24.519h62.634c13.551,0,24.518-10.978,24.518-24.519v-62.644c0-13.54-10.967-24.519-24.518-24.519
			c13.541,0,24.518-10.978,24.518-24.518c0,13.54,10.969,24.518,24.52,24.518h62.635c13.539,0,24.518-10.978,24.518-24.518
			c0,13.54,10.969,24.518,24.518,24.518h62.635c13.551,0,24.518-10.978,24.518-24.518v-62.645
			C558.354,290.155,547.387,279.177,533.836,279.177z M52.326,361.357c-5.871,0-11.657-1.597-14.535-3.194l2.362-9.515
			c3.031,1.598,7.917,3.194,12.871,3.194c5.326,0,8.147-2.209,8.147-5.556c0-3.204-2.448-5.03-8.616-7.153
			c-8.53-3.06-14.162-7.765-14.162-15.242c0-8.75,7.392-15.377,19.412-15.377c5.862,0,10.05,1.139,13.101,2.592l-2.591,9.285
			c-1.979-0.985-5.718-2.429-10.662-2.429c-5.021,0-7.468,2.362-7.468,4.953c0,3.271,2.83,4.724,9.524,7.229
			c9.065,3.356,13.254,8.08,13.254,15.319C72.962,354.051,66.421,361.357,52.326,361.357z M91.991,379.526h-3.758v-13.148h-0.048
			l-3.165,1.501l-0.641-2.916l4.418-2.037h3.194V379.526z M181.181,336.686c-3.949,3.672-9.821,5.412-16.667,5.412
			c-1.53,0-2.897-0.076-3.959-0.306v18.437H149.06v-50.644c3.577-0.603,8.587-1.071,15.683-1.071c7.162,0,12.259,1.377,15.692,4.122
			c3.356,2.591,5.489,6.865,5.489,11.876C185.914,329.533,184.308,333.875,181.181,336.686z M202.859,379.803
			c-2.152,0-3.959-0.564-4.935-1.147l0.794-2.936c0.688,0.382,2.266,1.014,3.854,1.014c2.018,0,3.031-0.976,3.031-2.19
			c0-1.664-1.635-2.4-3.347-2.4h-1.587v-2.782h1.53c1.31,0,2.945-0.517,2.945-1.912c0-0.995-0.793-1.741-2.458-1.741
			c-1.358,0-2.783,0.594-3.442,0.995l-0.794-2.802c1.004-0.641,2.974-1.253,5.135-1.253c3.519,0,5.489,1.855,5.489,4.141
			c0,1.76-1.004,3.165-3.041,3.844v0.058c1.999,0.354,3.605,1.864,3.605,4.064C209.648,377.652,207.076,379.803,202.859,379.803z
			 M303.83,334.563c0,16.916-10.127,27.033-25.208,27.033c-15.157,0-24.136-11.494-24.136-26.191
			c0-15.377,9.878-26.891,24.968-26.891C295.232,308.514,303.83,320.325,303.83,334.563z M319.693,379.526h-3.758v-13.148h-0.049
			l-3.164,1.501l-0.641-2.916l4.418-2.037h3.193V379.526L319.693,379.526z M398.346,360.229c-0.766-1.53-2.066-5.643-3.51-11.953
			c-1.436-6.483-3.652-8.157-8.443-8.233h-3.434v20.187h-11.494v-50.644c3.729-0.603,9.219-1.071,15.453-1.071
			c7.621,0,12.947,1.147,16.6,4.045c3.127,2.438,4.801,6.092,4.801,10.815c0,6.474-4.637,10.959-9.055,12.565v0.22
			c3.576,1.435,5.555,4.801,6.846,9.515c1.598,5.862,3.127,12.575,4.121,14.555H398.346L398.346,360.229z M430.57,379.803
			c-2.15,0-3.959-0.564-4.934-1.147l0.793-2.936c0.689,0.382,2.268,1.014,3.854,1.014c2.018,0,3.031-0.976,3.031-2.19
			c0-1.664-1.635-2.4-3.346-2.4h-1.588v-2.782h1.529c1.311,0,2.945-0.517,2.945-1.912c0-0.995-0.793-1.741-2.457-1.741
			c-1.357,0-2.783,0.594-3.443,0.995l-0.793-2.802c0.994-0.641,2.975-1.253,5.135-1.253c3.52,0,5.49,1.855,5.49,4.141
			c0,1.76-0.996,3.165-3.041,3.844v0.058c1.998,0.354,3.604,1.864,3.604,4.064C437.359,377.652,434.777,379.803,430.57,379.803z
			 M527.754,318.268h-14.018v41.578h-11.572v-41.578h-13.855v-9.763h39.445V318.268z M547.998,379.526h-3.758v-13.148h-0.049
			l-3.164,1.501l-0.641-2.916l4.418-2.037h3.193V379.526L547.998,379.526z"/>
		<path d="M388.209,317.198c-2.82,0-4.418,0.162-5.26,0.382v14.096h4.57c5.785,0,9.219-2.897,9.219-7.383
			C396.738,319.636,393.545,317.198,388.209,317.198z"/>
	</g>
</g>
<g>
</g>
<g>
</g>
<g>
</g>
<g>
</g>
<g>
</g>
<g>
</g>
<g>
</g>
<g>
</g>
<g>
</g>
<g>
</g>
<g>
</g>
<g>
</g>
<g>
</g>
<g>
</g>
<g>
</g>
</svg>
