<?xml version="1.0" encoding="iso-8859-1"?>
<!-- Generator: Adobe Illustrator 16.0.0, SVG Export Plug-In . SVG Version: 6.00 Build 0)  -->
<!DOCTYPE svg PUBLIC "-//W3C//DTD SVG 1.1//EN" "http://www.w3.org/Graphics/SVG/1.1/DTD/svg11.dtd">
<svg version="1.1" id="Capa_1" xmlns="http://www.w3.org/2000/svg" xmlns:xlink="http://www.w3.org/1999/xlink" x="0px" y="0px"
	 width="559.53px" height="559.53px" viewBox="0 0 559.53 559.53" style="enable-background:new 0 0 559.53 559.53;"
	 xml:space="preserve">
<g>
	<g>
		<path d="M279.775,82.88c9.409,0,17.069-7.659,17.069-17.079c0-9.419-7.66-17.079-17.069-17.079c-9.41,0-17.069,7.66-17.069,17.079
			C262.706,75.221,270.365,82.88,279.775,82.88z M279.775,59.491c3.49,0,6.32,2.821,6.32,6.321c0,3.49-2.83,6.321-6.32,6.321
			s-6.321-2.831-6.321-6.321C273.454,62.312,276.285,59.491,279.775,59.491z"/>
		<path d="M279.775,97.435c17.442,0,31.633-14.181,31.633-31.623c0-17.433-14.182-31.624-31.633-31.624
			c-17.442,0-31.623,14.191-31.623,31.624C248.152,83.244,262.333,97.435,279.775,97.435z M279.775,41.14
			c13.607,0,24.671,11.064,24.671,24.671c0,13.598-11.063,24.671-24.671,24.671s-24.671-11.074-24.671-24.671
			C255.104,52.204,266.167,41.14,279.775,41.14z"/>
		<path d="M279.775,311.691c-25.465,0-46.187,20.723-46.187,46.197c0,25.465,20.722,46.188,46.187,46.188
			s46.187-20.723,46.187-46.188C325.961,332.414,305.24,311.691,279.775,311.691z M279.775,374.977
			c-9.438,0-17.098-7.66-17.098-17.098c0-9.447,7.66-17.107,17.098-17.107c9.438,0,17.098,7.66,17.098,17.107
			C296.873,367.316,289.213,374.977,279.775,374.977z"/>
		<path d="M433.119,461.977l-7.803-88.711c-2.027-23.037-1.357-60.311,1.492-83.262l4.829-39.015
			c2.85-22.95-12.374-48.243-33.957-56.514l-40.43-15.453c-21.593-8.252-39.11-22.5-39.11-31.805
			c0-9.323,8.769-33.507,12.823-55.979c2.026-11.198,3.461-24.891,3.461-41.138c0-19.278-6.789-31.317-15.596-38.833
			c-17.566-15.023-60.56-15.023-78.126,0c-8.807,7.516-15.597,19.555-15.597,38.833c0,16.247,1.435,29.931,3.462,41.138
			c4.054,22.472,12.804,46.655,12.804,55.979c0,9.314-17.5,23.553-39.092,31.805l-40.43,15.453
			c-21.583,8.262-36.815,33.564-33.957,56.514l4.829,39.015c2.859,22.951,3.51,60.225,1.492,83.262l-7.803,88.711
			c-2.027,23.035,9.381,55.539,29.328,67.244c25.542,14.992,66.373,30.904,124.035,30.293
			c57.662,0.611,98.494-15.301,124.016-30.285C423.739,517.516,435.146,485.012,433.119,461.977z M240.549,65.812
			c0-21.621,17.605-39.216,39.226-39.216C301.396,26.596,319,44.19,319,65.812c0,21.621-17.604,39.216-39.226,39.216
			C258.154,105.018,240.549,87.432,240.549,65.812z M279.775,463.938c-58.484,0-106.067-47.584-106.067-106.059
			c0-58.484,47.583-106.067,106.067-106.067s106.067,47.583,106.067,106.067S338.259,463.938,279.775,463.938z"/>
		<path d="M279.775,272.342c-47.172,0-85.537,38.375-85.537,85.537s38.375,85.537,85.537,85.537
			c47.172,0,85.536-38.375,85.536-85.537C365.311,310.707,326.947,272.342,279.775,272.342z M279.775,424.596
			c-36.787,0-66.718-29.93-66.718-66.717s29.931-66.717,66.718-66.717s66.718,29.93,66.718,66.717S316.562,424.596,279.775,424.596z
			"/>
	</g>
</g>
<g>
</g>
<g>
</g>
<g>
</g>
<g>
</g>
<g>
</g>
<g>
</g>
<g>
</g>
<g>
</g>
<g>
</g>
<g>
</g>
<g>
</g>
<g>
</g>
<g>
</g>
<g>
</g>
<g>
</g>
</svg>
