<?xml version="1.0" encoding="iso-8859-1"?>
<!-- Generator: Adobe Illustrator 16.0.0, SVG Export Plug-In . SVG Version: 6.00 Build 0)  -->
<!DOCTYPE svg PUBLIC "-//W3C//DTD SVG 1.1//EN" "http://www.w3.org/Graphics/SVG/1.1/DTD/svg11.dtd">
<svg version="1.1" id="Capa_1" xmlns="http://www.w3.org/2000/svg" xmlns:xlink="http://www.w3.org/1999/xlink" x="0px" y="0px"
	 width="544.426px" height="544.426px" viewBox="0 0 544.426 544.426" style="enable-background:new 0 0 544.426 544.426;"
	 xml:space="preserve">
<g>
	<path d="M465.868,114.008c-2.592-5.718-8.31-9.037-14.22-8.836c-17.03-26.163-41.463-41.816-58.924-50.241
		c-7.535-3.634-15.75-12.192-17.968-18.666L364.506,6.143c-1.616-4.734-6.742-7.277-11.476-5.652
		c-4.733,1.606-7.258,6.751-5.651,11.485l5.546,16.294v293.32l-5.546,16.294c-1.606,4.733,0.918,9.869,5.651,11.485
		c0.966,0.334,1.941,0.487,2.917,0.487c3.758,0,7.276-2.372,8.559-6.14l10.251-30.121c2.209-6.475,10.433-15.023,17.968-18.666
		c21.927-10.576,54.869-32.437,70.284-72.331c3.586-1.712,6.493-4.8,7.832-8.874c4.465-13.569,6.731-28.209,6.731-43.48
		C477.582,150.04,473.633,131.115,465.868,114.008z M384.845,278.636c-9.429,4.552-20.76,14.688-25.896,26.01V45.206
		c5.136,11.322,16.467,21.458,25.896,26.01c15.683,7.564,37.801,21.745,52.661,45.632c-0.727,3.118-0.526,6.474,0.898,9.61
		c5.986,13.177,9.008,27.903,9.008,43.777c0,12.068-1.759,23.524-5.221,34.052c-1.684,5.106-0.459,10.433,2.716,14.296
		C431.099,251.364,403.444,269.656,384.845,278.636z"/>
	<g>
		<circle cx="196.923" cy="67.725" r="46.589"/>
		<path d="M348.756,155.012h-99.507c-4.379-10.232-14.535-17.404-26.373-17.404h-50.184l-64.317-32.139
			c-14.181-7.076-31.403-1.349-38.479,12.833c-7.096,14.172-1.349,31.394,12.823,38.489l59.565,29.768v113.124L85.08,508.126
			c-4.188,15.281,4.8,31.06,20.082,35.267c2.543,0.688,5.087,1.033,7.602,1.033c12.604,0,24.145-8.367,27.655-21.104l51.781-188.659
			h8.932l47.975,188.152c3.309,12.977,14.975,21.611,27.778,21.611c2.344,0,4.734-0.277,7.105-0.899
			c15.348-3.901,24.623-19.536,20.712-34.884l-53.138-208.405v-87.851h97.193c15.845,0,28.688-12.833,28.688-28.688
			C377.443,167.854,364.601,155.012,348.756,155.012z"/>
	</g>
</g>
<g>
</g>
<g>
</g>
<g>
</g>
<g>
</g>
<g>
</g>
<g>
</g>
<g>
</g>
<g>
</g>
<g>
</g>
<g>
</g>
<g>
</g>
<g>
</g>
<g>
</g>
<g>
</g>
<g>
</g>
</svg>
