<?xml version="1.0" encoding="iso-8859-1"?>
<!-- Generator: Adobe Illustrator 16.0.0, SVG Export Plug-In . SVG Version: 6.00 Build 0)  -->
<!DOCTYPE svg PUBLIC "-//W3C//DTD SVG 1.1//EN" "http://www.w3.org/Graphics/SVG/1.1/DTD/svg11.dtd">
<svg version="1.1" id="Capa_1" xmlns="http://www.w3.org/2000/svg" xmlns:xlink="http://www.w3.org/1999/xlink" x="0px" y="0px"
	 width="569.007px" height="569.007px" viewBox="0 0 569.007 569.007" style="enable-background:new 0 0 569.007 569.007;"
	 xml:space="preserve">
<g>
	<g>
		<path d="M391.186,50.873c1.415,0,2.361-0.937,2.361-2.161c0-1.521-1.128-2.429-2.706-2.85c-1.348,0.373-2.113,1.339-2.113,2.582
			C388.7,49.706,389.666,50.873,391.186,50.873z"/>
		<path d="M391.444,42.85c0.938-0.268,1.77-1.128,1.77-2.189c0-1.09-0.622-2.161-2.113-2.161c-1.387,0-2.075,0.937-2.075,2.008
			C389.034,41.674,390.057,42.419,391.444,42.85z"/>
		<path d="M427.638,50.29c1.062,0,1.884-0.698,2.151-1.616c0.115-0.325,0.144-0.755,0.144-1.1v-1.922
			c0-0.239-0.028-0.507-0.086-0.746c-0.297-1.071-1.071-1.788-2.19-1.788c-1.491,0-2.658,1.338-2.658,3.71
			C424.989,48.769,425.955,50.29,427.638,50.29z"/>
		<circle cx="207.28" cy="118.173" r="57.26"/>
		<path d="M148.48,568.998c9.323,0,18.58-3.883,25.168-11.476l92.996-107.1c5.269-6.062,8.156-13.818,8.156-21.841v-18.045
			l18.14,29.854l41.3,107.263c5.097,13.234,17.71,21.353,31.098,21.353c3.978,0,8.032-0.717,11.963-2.228
			c17.174-6.607,25.723-25.896,19.115-43.061l-42.381-110.055c-0.698-1.846-1.578-3.634-2.602-5.326l-47.773-78.642V202.878
			L384.98,91.991c1.3-1.778,2.333-3.672,3.175-5.604c6.072,3.003,12.823,4.839,20.052,4.839c25.197,0,45.623-20.426,45.623-45.613
			C453.83,20.416,433.404,0,408.207,0c-25.188,0-45.612,20.416-45.612,45.613c0,0.01,0,0.019,0,0.029
			c-9.343-0.354-18.705,3.777-24.652,11.886l-90.624,123.585c-1.176,1.606-2.161,3.29-2.964,5.03h-10.863
			c-13.799,0-24.987,11.188-24.987,24.987v101.143c-0.115,1.109-0.335,2.189-0.335,3.337v100.54l-84.829,97.7
			c-12.068,13.904-10.586,34.941,3.318,47C132.96,566.311,140.744,568.998,148.48,568.998z M426.816,40.048
			c1.778,0,2.897,0.784,3.566,1.875h0.058l0.134-1.578h3.519c-0.057,0.851-0.104,1.951-0.104,3.892v7.268
			c0,2.505-0.507,4.561-1.999,5.871c-1.415,1.234-3.366,1.597-5.288,1.597c-1.74,0-3.519-0.344-4.705-0.995l0.804-3.098
			c0.832,0.478,2.237,0.985,3.787,0.985c1.922,0,3.385-1.004,3.385-3.433v-0.823h-0.048c-0.784,1.062-2.037,1.673-3.528,1.673
			c-3.223,0-5.527-2.61-5.527-6.349C420.868,42.716,423.574,40.048,426.816,40.048z M405.711,35.41h4.035v7.946h0.058
			c0.392-0.688,0.822-1.339,1.252-1.97l4.055-5.977h5.011l-5.947,7.65l6.244,10.328h-4.715l-4.437-7.765l-1.53,1.893v5.872h-4.035
			V35.41H405.711z M385.18,40.641c0-2.945,2.64-4.886,6.11-4.886c4.055,0,5.738,2.353,5.738,4.447c0,1.501-0.804,2.964-2.534,3.815
			v0.086c1.711,0.641,3.203,2.084,3.203,4.293c0,3.146-2.63,5.288-6.675,5.288c-4.398,0-6.426-2.486-6.426-4.829
			c0-2.084,1.205-3.519,3.089-4.341v-0.058C386.002,43.567,385.18,42.161,385.18,40.641z"/>
	</g>
</g>
<g>
</g>
<g>
</g>
<g>
</g>
<g>
</g>
<g>
</g>
<g>
</g>
<g>
</g>
<g>
</g>
<g>
</g>
<g>
</g>
<g>
</g>
<g>
</g>
<g>
</g>
<g>
</g>
<g>
</g>
</svg>
