<?xml version="1.0" encoding="iso-8859-1"?>
<!-- Generator: Adobe Illustrator 16.0.0, SVG Export Plug-In . SVG Version: 6.00 Build 0)  -->
<!DOCTYPE svg PUBLIC "-//W3C//DTD SVG 1.1//EN" "http://www.w3.org/Graphics/SVG/1.1/DTD/svg11.dtd">
<svg version="1.1" id="Capa_1" xmlns="http://www.w3.org/2000/svg" xmlns:xlink="http://www.w3.org/1999/xlink" x="0px" y="0px"
	 width="540.682px" height="540.683px" viewBox="0 0 540.682 540.683" style="enable-background:new 0 0 540.682 540.683;"
	 xml:space="preserve">
<g>
	<g>
		<path d="M110.442,123.987c1.406,0,2.362-0.937,2.362-2.161c0-1.521-1.138-2.429-2.716-2.85c-1.339,0.373-2.113,1.339-2.113,2.582
			C107.965,122.821,108.922,123.987,110.442,123.987z"/>
		<path d="M110.71,115.964c0.937-0.268,1.76-1.128,1.76-2.199c0-1.09-0.612-2.161-2.104-2.161c-1.387,0-2.075,0.937-2.075,2.008
			C108.281,114.788,109.323,115.524,110.71,115.964z"/>
		<path d="M146.885,123.404c1.071,0,1.894-0.698,2.161-1.616c0.115-0.325,0.134-0.755,0.134-1.1v-1.922
			c0-0.239-0.019-0.507-0.076-0.746c-0.296-1.071-1.071-1.788-2.19-1.788c-1.492,0-2.658,1.338-2.658,3.71
			C144.255,121.884,145.211,123.404,146.885,123.404z"/>
		<path d="M119.096,163.49c-1.482,6.139-1.138,12.756,1.625,18.972L149.371,247c3.854,8.683,11.628,14.994,20.913,16.993
			c2.075,0.439,4.16,0.66,6.245,0.66c7.229,0,14.296-2.639,19.794-7.564l51.599-46.11l20.502,75.688l-11.227,99.985l-92.747,96.553
			c-12.986,13.521-12.565,35.018,0.966,48.013c6.588,6.321,15.061,9.467,23.524,9.467c8.922,0,17.834-3.49,24.499-10.433
			l100.713-104.853c5.172-5.384,8.424-12.316,9.256-19.728l10.002-89.074l57.5,55.538V487.41c0,18.752,15.205,33.956,33.957,33.956
			c18.762,0,33.965-15.204,33.965-33.956V357.724c0-9.209-3.738-18.025-10.365-24.423l-81.406-78.642
			c-0.668-0.641-1.434-1.109-2.141-1.683l-33.479-98.197c0.41-0.277,0.85-0.488,1.252-0.784l75.525-56.715
			c13.119-9.859,15.758-28.487,5.908-41.606c-9.84-13.129-28.467-15.769-41.605-5.919l-72.695,54.592l-69.184,42.869l0.048,0.182
			c-1.492,0.918-2.945,1.922-4.303,3.136l-39.264,35.075l-12.106-27.263c-2.41-5.422-6.263-9.725-10.873-12.747
			c5.546-7.555,8.932-16.792,8.932-26.89c0-25.197-20.426-45.613-45.613-45.613S81.85,93.512,81.85,118.709
			C81.86,141.037,97.916,159.541,119.096,163.49z M146.072,113.153c1.778,0,2.907,0.774,3.567,1.874h0.057l0.125-1.578h3.528
			c-0.057,0.851-0.105,1.951-0.105,3.892v7.268c0,2.505-0.507,4.562-1.999,5.872c-1.416,1.233-3.366,1.606-5.288,1.606
			c-1.741,0-3.519-0.344-4.695-0.995l0.803-3.098c0.822,0.478,2.238,0.975,3.787,0.975c1.922,0,3.385-1.004,3.385-3.433v-0.823
			h-0.048c-0.774,1.062-2.027,1.674-3.519,1.674c-3.223,0-5.527-2.611-5.527-6.35C140.134,115.831,142.831,113.153,146.072,113.153z
			 M124.968,108.525h4.026v7.946h0.048c0.401-0.688,0.832-1.339,1.262-1.97l4.054-5.977h5.011l-5.948,7.65l6.244,10.328h-4.724
			l-4.427-7.765l-1.521,1.894v5.872h-4.026V108.525z M104.437,113.755c0-2.945,2.639-4.886,6.11-4.886
			c4.055,0,5.728,2.353,5.728,4.446c0,1.501-0.794,2.965-2.534,3.815v0.086c1.712,0.641,3.204,2.084,3.204,4.293
			c0,3.146-2.639,5.288-6.675,5.288c-4.398,0-6.426-2.486-6.426-4.829c0-2.084,1.195-3.519,3.088-4.341v-0.058
			C105.269,116.682,104.437,115.276,104.437,113.755z"/>
		<circle cx="237.709" cy="58.37" r="58.37"/>
	</g>
</g>
<g>
</g>
<g>
</g>
<g>
</g>
<g>
</g>
<g>
</g>
<g>
</g>
<g>
</g>
<g>
</g>
<g>
</g>
<g>
</g>
<g>
</g>
<g>
</g>
<g>
</g>
<g>
</g>
<g>
</g>
</svg>
