<?xml version="1.0" encoding="iso-8859-1"?>
<!-- Generator: Adobe Illustrator 16.0.0, SVG Export Plug-In . SVG Version: 6.00 Build 0)  -->
<!DOCTYPE svg PUBLIC "-//W3C//DTD SVG 1.1//EN" "http://www.w3.org/Graphics/SVG/1.1/DTD/svg11.dtd">
<svg version="1.1" id="Capa_1" xmlns="http://www.w3.org/2000/svg" xmlns:xlink="http://www.w3.org/1999/xlink" x="0px" y="0px"
	 width="511.947px" height="511.947px" viewBox="0 0 511.947 511.947" style="enable-background:new 0 0 511.947 511.947;"
	 xml:space="preserve">
<g>
	<g>
		<path d="M486.908,486.846c-173.34-40.277-323.098-217.986-353.411-255.949c-0.325-0.402-0.755-0.555-1.281-0.488
			c-0.794,0.096-5.632,0.488-10.92,0.488H95.305c1.004-1.282,1.874-2.687,2.467-4.303c0.392-1.023,0.641-2.094,0.784-3.137
			c0.268-1.769,1.597-4.246,3.385-5.518c3.328-2.352,8.491-5.977,11.819-8.338c1.797-1.252,4.924-1.673,6.971-0.918
			c12.546,4.609,52.393,19.24,52.393,19.24l41.387,14.898c2.056,0.727,4.188,3.05,4.743,5.192l3.71,13.922
			c0.545,2.133-0.019,4.896-0.966,6.418c-0.555,0.908-1.033,1.873-1.406,2.906c-3.002,8.252,1.253,17.375,9.505,20.377
			c8.252,3.004,17.375-1.271,20.368-9.504c1.941-5.316,0.803-10.969-2.429-15.139c-1.367-1.73-3.031-4.551-3.299-6.73l-0.268-2.201
			c1.979,1.006,4.169,1.693,6.512,1.904c3.098,0.287,6.043-0.307,8.711-1.445c34.904,8.674,52.861-4.044,52.9-18.875
			c0.029-10.289-21.697-16.447-39.742-19.775l3.787-41.252c0.641-6.923-2.725-13.569-8.645-17.174l-33.593-20.32l15.654-33.842
			c3.902,2.219,7.727,4.619,10.356,6.579l63.974,47.459c6.885,5.097,16.619,3.672,21.717-3.223
			c5.125-6.895,3.699-16.629-3.195-21.726l-63.973-47.439c-7.201-5.346-18.857-12.04-27.138-15.568l-21.765-9.256
			c-7.746-3.299-20.205-7.574-28.85-9.84l-74.836-17.194c-8.367-1.903-16.696,3.318-18.618,11.667
			c-1.281,5.613,0.641,11.208,4.562,14.851c1.932,1.807,4.341,3.136,7.105,3.768L189.687,83.5l-11.676,34.004l-30.552-6.952
			c-6.34-1.425-12.948,0.641-17.337,5.413l-35.056,38.059c-14.583-7.564-30.696-13.531-36.385-6.713
			c-9.582,11.523-3.911,33.144,29.242,48.96c1.979,0.957,3.557,1.692,3.5,1.721c-0.067,0.038-1.425,1.281-3.031,2.783l-2.037,1.894
			c-1.606,1.492-4.705,2.582-6.856,3.031c-5.154,1.109-9.648,4.714-11.59,10.05c-1.932,5.316-0.812,10.987,2.429,15.156H32.689
			c-5.278,0-9.562,4.274-9.562,9.562v261.917c0,5.289,4.284,9.562,9.562,9.562h91.246h9.562h343.848
			c5.279,0,10.328-4.207,10.91-9.467C489.012,495.615,489.375,487.42,486.908,486.846z M242.95,279.139
			c-1.444,3.939-5.814,6.006-9.782,4.553c-3.949-1.436-5.986-5.805-4.552-9.783c1.425-3.939,5.814-5.986,9.763-4.533
			C242.329,270.811,244.375,275.189,242.95,279.139z M149.668,148.2l42.333,9.629l47.535,28.754l-2.362,25.647l-51.532-18.743
			l-58.178-21.152L149.668,148.2z M76.142,218.475c1.444-3.949,5.824-5.986,9.763-4.552c3.969,1.425,5.996,5.805,4.552,9.763
			c-1.434,3.959-5.804,5.996-9.753,4.571C76.744,226.813,74.708,222.453,76.142,218.475z"/>
		<circle cx="245.838" cy="28.812" r="28.812"/>
	</g>
</g>
<g>
</g>
<g>
</g>
<g>
</g>
<g>
</g>
<g>
</g>
<g>
</g>
<g>
</g>
<g>
</g>
<g>
</g>
<g>
</g>
<g>
</g>
<g>
</g>
<g>
</g>
<g>
</g>
<g>
</g>
</svg>
