<?xml version="1.0" encoding="iso-8859-1"?>
<!-- Generator: Adobe Illustrator 16.0.0, SVG Export Plug-In . SVG Version: 6.00 Build 0)  -->
<!DOCTYPE svg PUBLIC "-//W3C//DTD SVG 1.1//EN" "http://www.w3.org/Graphics/SVG/1.1/DTD/svg11.dtd">
<svg version="1.1" id="Capa_1" xmlns="http://www.w3.org/2000/svg" xmlns:xlink="http://www.w3.org/1999/xlink" x="0px" y="0px"
	 width="579.314px" height="579.315px" viewBox="0 0 579.314 579.315" style="enable-background:new 0 0 579.314 579.315;"
	 xml:space="preserve">
<g>
	<g>
		<path d="M104.545,293.042c-0.096,0.115-1.913,3.577-4.036,7.756l-2.687,5.259c-2.132,4.16-7.535,8.606-11.494,11.083
			c-9.524,5.948-15.883,16.429-15.883,28.487c0,18.666,15.138,33.803,33.813,33.803c18.676,0,33.813-15.137,33.813-33.803
			c0-2.343-0.249-4.638-0.717-6.856c-0.775-3.729,0.086-9.668,2.754-13.493c4.963-7.114,12.623-18.13,17.576-25.245
			c2.668-3.834,8.606-6.951,13.273-6.933c28.41,0.077,118.699,0.354,118.699,0.354l93.56-0.287
			c4.657-0.01,10.604,3.089,13.282,6.933l17.528,25.188c2.658,3.835,3.528,9.773,2.754,13.502c-0.459,2.209-0.698,4.504-0.698,6.847
			c0,18.666,15.138,33.804,33.804,33.804c18.675,0,33.812-15.138,33.812-33.804c0-12.067-6.368-22.538-15.874-28.486
			c-3.968-2.477-9.371-6.933-11.493-11.083l-2.688-5.25c-2.133-4.159-0.058-7.449,4.619-7.497
			c96.695-0.918,130.643-44.829,118.785-77.791c-10.758-29.874-106.622-9.075-135.501-2.065c-4.532,1.109-11.972,2.065-16.639,2.065
			H289.656H154.423c-4.667,0-12.106-0.966-16.648-2.065c-28.869-7-124.752-27.798-135.5,2.065
			c-10.796,29.988,16.247,69.108,94.038,76.625C100.968,292.593,104.65,292.909,104.545,293.042z M450.249,328.921
			c8.96,0,16.208,7.268,16.208,16.199c0,8.95-7.258,16.208-16.208,16.208c-8.941,0-16.199-7.258-16.199-16.208
			C434.05,336.189,441.299,328.921,450.249,328.921z M121.317,345.121c0,8.95-7.258,16.208-16.199,16.208
			c-8.951,0-16.208-7.258-16.208-16.208c0-8.941,7.258-16.199,16.208-16.199C114.06,328.921,121.317,336.189,121.317,345.121z"/>
	</g>
</g>
<g>
</g>
<g>
</g>
<g>
</g>
<g>
</g>
<g>
</g>
<g>
</g>
<g>
</g>
<g>
</g>
<g>
</g>
<g>
</g>
<g>
</g>
<g>
</g>
<g>
</g>
<g>
</g>
<g>
</g>
</svg>
