<?xml version="1.0" encoding="iso-8859-1"?>
<!-- Generator: Adobe Illustrator 16.0.0, SVG Export Plug-In . SVG Version: 6.00 Build 0)  -->
<!DOCTYPE svg PUBLIC "-//W3C//DTD SVG 1.1//EN" "http://www.w3.org/Graphics/SVG/1.1/DTD/svg11.dtd">
<svg version="1.1" id="Capa_1" xmlns="http://www.w3.org/2000/svg" xmlns:xlink="http://www.w3.org/1999/xlink" x="0px" y="0px"
	 width="518.912px" height="518.912px" viewBox="0 0 518.912 518.912" style="enable-background:new 0 0 518.912 518.912;"
	 xml:space="preserve">
<g>
	<g>
		<path d="M414.649,349.525c-3.691-4.494-11.389-8.118-17.203-8.118h-66.307c0.315-0.947,0.603-1.913,0.603-2.975
			c0-3.414-1.807-6.388-4.494-8.08c-1.128-0.698-2.658-1.96-3.261-3.137l-0.766-1.482c-0.602-1.186-0.019-2.113,1.311-2.132
			c27.396-0.249,37.017-12.699,33.67-22.052c-3.051-8.462-30.218-2.562-38.403-0.583c-1.291,0.315-3.385,0.583-4.714,0.583h-38.327
			H263.16l28.133-50.03c0,0,8.539-14.248-4.657-26.928l-37.695-37.255l37.026-64.872h77.619c7.362,0,13.282-5.929,13.282-13.263
			c0-7.363-5.92-13.369-13.282-13.369H160.124c-7.439,0-13.33,6.005-13.33,13.282c0,7.344,5.891,13.35,13.33,13.35l67.225-0.067
			l-25.35,44.771c0,0-11.686,17.92,2.993,35.343l-60.387,101.897c-1.205,2.257-1.865,4.819-1.865,7.555
			c0,8.932,7.258,16.208,16.266,16.208c6.464,0,12.001-3.758,14.631-9.142l54.343-93.396l26.297,26.134l-24.145,42.438
			c-0.889,1.692-1.387,3.596-1.635,5.604c-11.045-2.323-30.609-5.354-33.163,1.76c-3.051,8.511,4.609,19.594,26.641,21.717
			c1.329,0.124,2.362,0.21,2.343,0.258c-0.038,0.02-0.555,1.014-1.147,2.199l-0.765,1.482c-0.603,1.176-2.132,2.438-3.261,3.137
			c-2.697,1.692-4.504,4.656-4.504,8.08c0,1.052,0.287,2.018,0.603,2.974h-87.535c-5.805,0-13.607,3.548-17.423,7.928L2.075,473.58
			c-3.825,4.369-2.209,7.927,3.605,7.927h507.454c5.813,0,7.525-3.624,3.824-8.118L414.649,349.525z M322.265,333.709
			c2.544,0,4.6,2.056,4.6,4.6c0,1.205-0.487,2.285-1.252,3.107h-6.675c-0.766-0.822-1.253-1.902-1.253-3.107
			C317.685,335.755,319.741,333.709,322.265,333.709z M303.274,323.572c1.33-0.009,3.013,0.88,3.768,1.961l4.973,7.134
			c0.756,1.09,0.995,2.772,0.784,3.824c-0.134,0.622-0.191,1.282-0.191,1.941c0,1.052,0.287,2.018,0.603,2.975h-79.99
			c0.315-0.947,0.602-1.913,0.602-2.975c0-0.659-0.067-1.319-0.191-1.941c-0.22-1.052,0.028-2.734,0.774-3.824
			c1.406-2.018,3.576-5.136,4.982-7.153c0.755-1.08,2.438-1.96,3.758-1.96c8.061,0.019,33.641,0.105,33.641,0.105L303.274,323.572z
			 M219.88,338.299c0-2.544,2.046-4.6,4.581-4.6c2.534,0,4.59,2.056,4.59,4.6c0,1.205-0.488,2.285-1.253,3.107h-6.674
			C220.368,340.584,219.88,339.504,219.88,338.299z"/>
		<path d="M251.34,62.755c0,14.038,11.389,25.417,25.407,25.417s25.427-11.38,25.427-25.417c0-14.028-11.408-25.35-25.427-25.35
			C262.749,37.396,251.34,48.728,251.34,62.755z"/>
	</g>
</g>
<g>
</g>
<g>
</g>
<g>
</g>
<g>
</g>
<g>
</g>
<g>
</g>
<g>
</g>
<g>
</g>
<g>
</g>
<g>
</g>
<g>
</g>
<g>
</g>
<g>
</g>
<g>
</g>
<g>
</g>
</svg>
