<?xml version="1.0" encoding="iso-8859-1"?>
<!-- Generator: Adobe Illustrator 16.0.0, SVG Export Plug-In . SVG Version: 6.00 Build 0)  -->
<!DOCTYPE svg PUBLIC "-//W3C//DTD SVG 1.1//EN" "http://www.w3.org/Graphics/SVG/1.1/DTD/svg11.dtd">
<svg version="1.1" id="Capa_1" xmlns="http://www.w3.org/2000/svg" xmlns:xlink="http://www.w3.org/1999/xlink" x="0px" y="0px"
	 width="477.283px" height="477.283px" viewBox="0 0 477.283 477.283" style="enable-background:new 0 0 477.283 477.283;"
	 xml:space="preserve">
<g>
	<g>
		<path d="M391.416,177.422c1.281,0.593,2.64,0.88,3.997,0.88c1.875,0,3.739-0.555,5.346-1.635c2.764-1.855,4.36-5.021,4.208-8.358
			c-0.135-2.983,0.793-3.557,1.357-3.882c1.147-0.698,2.744-0.918,3.051-0.937c5.23-0.038,9.457-4.274,9.485-9.515
			c0.01-1.597,0.029-4.925,4.523-5.25c5.001-0.153,9.046-4.121,9.285-9.113c0.066-1.406,0.258-5.699,5.192-6.149
			c4.695-0.22,8.539-3.815,9.056-8.501c0.124-1.081,0.363-3.347,8.95-6.359c8.186-2.888,10.127-8.348,10.548-11.351
			c0.994-7.124-4.188-12.116-6.685-14.066c-2.275-2.209-12.632-12.192-21.438-19.584c-2.688-2.238-6.359-5.317-11.801-5.317
			c-2.189,0-4.341,0.526-6.33,1.53c-9.228,4.59-8.568,13.636-8.348,16.601c0.028,0.373,0.066,0.746,0.057,1.128
			c-0.038,1.53-0.152,5.613-8.529,10.27c-15.845,8.817-22.31,18.905-27.598,32.312c-1.463,3.729-4.562,7.182-6.827,8.817
			c-4.695,3.395-9.696,3.949-9.678,3.949c-4.341,0.335-7.908,3.557-8.673,7.851c-0.766,4.284,1.453,8.558,5.412,10.366l4.446,2.046
			L122.787,416.896l-9.496-8.894c-1.846-1.73-4.322-2.754-6.847-2.582c-2.534,0.076-4.935,1.167-6.665,3.013l-5.202,5.556
			c-3.615,3.854-3.414,9.906,0.44,13.512l8.281,7.755L89.93,449.533c-7.449,7.946-8.357,18.359-2.094,24.25
			c2.419,2.257,5.671,3.5,9.161,3.5l0,0c5.145,0,10.557-2.62,14.86-7.21l13.369-14.277l8.291,7.766
			c1.846,1.73,4.188,2.591,6.541,2.591c2.553,0,5.097-1.014,6.971-3.021l5.202-5.547c1.74-1.845,2.668-4.312,2.582-6.847
			c-0.086-2.543-1.167-4.943-3.022-6.665l-9.505-8.902l243.709-260.234L391.416,177.422z"/>
		<path d="M318.493,109.117c1.281,0.593,2.639,0.88,3.997,0.88c1.874,0,3.738-0.555,5.345-1.635c2.764-1.855,4.36-5.02,4.218-8.357
			c-0.087-1.827-0.211-4.6,4.408-4.819c5.221-0.048,9.447-4.275,9.477-9.505c0.009-1.597,0.028-4.934,4.532-5.259
			c5.001-0.153,9.046-4.122,9.285-9.113c0.067-1.406,0.258-5.699,5.183-6.148c4.695-0.22,8.54-3.825,9.056-8.501
			c0.125-1.081,0.363-3.347,8.97-6.359c8.186-2.888,10.127-8.348,10.538-11.341c0.994-7.124-4.188-12.116-6.685-14.066
			c-2.295-2.228-12.66-12.202-21.458-19.575C362.672,3.079,358.99,0,353.549,0c-2.189,0-4.322,0.516-6.33,1.52
			c-9.237,4.59-8.559,13.636-8.339,16.601c0.028,0.382,0.067,0.746,0.058,1.128c-0.038,1.53-0.153,5.613-8.53,10.28
			c-15.845,8.797-22.309,18.876-27.606,32.292c-1.463,3.729-4.562,7.182-6.828,8.826c-4.704,3.404-9.696,3.959-9.677,3.959
			c-4.342,0.344-7.898,3.567-8.664,7.851c-0.765,4.284,1.463,8.559,5.413,10.366l4.427,2.037L49.863,348.591l-9.496-8.893
			c-1.845-1.731-4.303-2.773-6.847-2.572c-2.534,0.076-4.934,1.166-6.665,3.012l-5.202,5.556c-3.614,3.854-3.414,9.907,0.44,13.512
			l8.271,7.756l-13.368,14.276c-4.141,4.408-6.417,9.802-6.244,14.803c0.124,3.701,1.597,7.048,4.131,9.41
			c2.429,2.275,5.699,3.538,9.199,3.538c5.154,0,10.566-2.62,14.851-7.211l13.368-14.267l8.281,7.755
			c1.769,1.664,4.112,2.592,6.541,2.592c0.105,0,0.21,0,0.316-0.01c2.534-0.076,4.934-1.167,6.665-3.013l5.202-5.556
			c3.605-3.854,3.404-9.906-0.439-13.512l-9.496-8.893L313.08,106.641L318.493,109.117z"/>
	</g>
</g>
<g>
</g>
<g>
</g>
<g>
</g>
<g>
</g>
<g>
</g>
<g>
</g>
<g>
</g>
<g>
</g>
<g>
</g>
<g>
</g>
<g>
</g>
<g>
</g>
<g>
</g>
<g>
</g>
<g>
</g>
</svg>
