<?xml version="1.0" encoding="iso-8859-1"?>
<!-- Generator: Adobe Illustrator 16.0.0, SVG Export Plug-In . SVG Version: 6.00 Build 0)  -->
<!DOCTYPE svg PUBLIC "-//W3C//DTD SVG 1.1//EN" "http://www.w3.org/Graphics/SVG/1.1/DTD/svg11.dtd">
<svg version="1.1" id="Capa_1" xmlns="http://www.w3.org/2000/svg" xmlns:xlink="http://www.w3.org/1999/xlink" x="0px" y="0px"
	 width="566.09px" height="566.09px" viewBox="0 0 566.09 566.09" style="enable-background:new 0 0 566.09 566.09;"
	 xml:space="preserve">
<g>
	<g>
		<path d="M546.965,77.451H19.125C8.568,77.451,0,86.019,0,96.576v372.938c0,10.566,8.568,19.125,19.125,19.125
			s19.125-8.559,19.125-19.125v-54.832l24.862-6.541v73.574c0,2.641,2.142,4.781,4.781,4.781s4.781-2.141,4.781-4.781v-76.088
			l24.863-6.541v70.428c0,10.566,8.568,19.125,19.125,19.125c10.557,0,19.125-8.559,19.125-19.125v-75.621h70.925v80
			c0,2.641,2.142,4.781,4.781,4.781s4.781-2.141,4.781-4.781v-80h55.769v75.621c0,2.639,2.142,4.781,4.781,4.781
			c2.64,0,4.781-2.143,4.781-4.781v-75.621h66.947v80c0,2.641,2.143,4.781,4.781,4.781s4.781-2.141,4.781-4.781v-80h62.635v75.621
			c0,10.566,8.568,19.125,19.125,19.125S459,480.08,459,469.514v-72.828l30.59,8.004v77.025c0,2.641,2.143,4.781,4.781,4.781
			c2.641,0,4.781-2.141,4.781-4.781v-74.52l28.688,7.516v54.803c0,10.566,8.568,19.125,19.125,19.125s19.125-8.559,19.125-19.125
			V96.576C566.09,86.019,557.521,77.451,546.965,77.451z M63.103,398.254l-24.863,6.541v-75.363h24.863V398.254z M63.103,319.869
			H38.24v-82.352l24.863,8.798V319.869z M63.103,236.169l-24.863-8.797v-79.866l24.863,19.029V236.169z M59.632,115.701h75.936
			l17.901,18.637H85.575c-0.449,0-0.861,0.144-1.272,0.258L59.632,115.701z M97.528,389.207l-24.862,6.541v-66.316h24.862V389.207z
			 M97.528,319.869H72.666V249.7l24.862,8.798V319.869z M97.528,248.352l-24.862-8.788V173.86l24.862,19.029V248.352z
			 M206.703,384.33h-70.925v-54.898h70.925V384.33z M206.703,319.869h-70.925v-54.897h70.925V319.869z M206.703,255.409h-70.925
			v-54.898h70.925V255.409z M206.703,190.948h-70.925v-7.506c0-5.948-2.773-11.561-7.497-15.186l-31.814-24.355h66.201
			l44.045,45.843v1.205H206.703z M272.043,384.33h-55.778v-54.898h55.778V384.33z M272.043,319.869h-55.778v-54.897h55.778V319.869z
			 M272.043,255.409h-55.778v-54.898h55.778V255.409z M272.043,190.948h-55.778v-3.127c0-1.233-0.479-2.419-1.339-3.309
			l-39.015-40.602h96.132V190.948z M272.043,134.338H166.722l-17.901-18.637h123.222V134.338z M281.606,115.701h134.392
			l-17.902,18.637h-116.49V115.701z M348.553,384.33h-66.947v-54.898h66.947V384.33z M348.553,319.869h-66.947v-54.897h66.947
			V319.869z M348.553,255.409h-66.947v-54.898h66.947V255.409z M349.893,184.503c-0.861,0.889-1.34,2.075-1.34,3.309v3.127h-66.947
			v-47.048h107.3L349.893,184.503z M420.75,384.33h-62.635v-54.898h62.635V384.33z M420.75,319.869h-62.635v-54.897h62.635V319.869z
			 M420.75,255.409h-62.635v-54.898h62.635V255.409z M428.246,168.256c-4.723,3.615-7.496,9.228-7.496,15.186v7.506h-62.635v-1.205
			l44.035-45.843h57.91L428.246,168.256z M489.59,394.811L459,386.807v-57.365h30.59V394.811z M489.59,319.869H459v-57.604
			l30.59-8.845V319.869z M489.59,243.456L459,252.301V192.88l30.59-23.418V243.456z M472.559,134.338H411.35l17.9-18.637h67.646
			L472.559,134.338z M527.84,404.824l-28.688-7.508v-67.885h28.688V404.824z M527.84,319.869h-28.688v-69.222l28.688-8.3V319.869z
			 M527.84,232.402l-28.688,8.3v-78.556l28.688-21.955V232.402z"/>
	</g>
</g>
<g>
</g>
<g>
</g>
<g>
</g>
<g>
</g>
<g>
</g>
<g>
</g>
<g>
</g>
<g>
</g>
<g>
</g>
<g>
</g>
<g>
</g>
<g>
</g>
<g>
</g>
<g>
</g>
<g>
</g>
</svg>
