<?xml version="1.0" encoding="iso-8859-1"?>
<!-- Generator: Adobe Illustrator 16.0.0, SVG Export Plug-In . SVG Version: 6.00 Build 0)  -->
<!DOCTYPE svg PUBLIC "-//W3C//DTD SVG 1.1//EN" "http://www.w3.org/Graphics/SVG/1.1/DTD/svg11.dtd">
<svg version="1.1" id="Capa_1" xmlns="http://www.w3.org/2000/svg" xmlns:xlink="http://www.w3.org/1999/xlink" x="0px" y="0px"
	 width="538.207px" height="538.207px" viewBox="0 0 538.207 538.207" style="enable-background:new 0 0 538.207 538.207;"
	 xml:space="preserve">
<g>
	<g>
		<path d="M16.4,328.932c1.368,3.452,4.762,6.426,8.492,8.023c-2.878,1.52-4.896,4.398-4.896,7.946v11.131
			c0,5.278,4.274,9.687,9.553,9.83c1.769,0.048,3.758,0.105,5.929,0.162c5.278,0.153,9.562,1.702,9.562,3.472v3.203
			c0,5.278,4.274,9.562,9.562,9.562s9.562-4.284,9.562-9.562c0,0,0-1.319,0-2.936c0-1.626,4.274-2.821,9.553-2.678
			c2.438,0.067,4.906,0.134,7.402,0.201c5.278,0.144,9.562,1.415,9.562,2.83v2.572c0,5.278,4.274,9.562,9.562,9.562
			c5.288,0,9.562-4.284,9.562-9.562c0,0,0-1.032,0-2.323c0-1.281,4.284-2.199,9.562-2.065c11.838,0.315,23.15,0.611,32.837,0.851
			c40.44,1.033,90.624,4.131,143.275,5.595c5.278,0.152,9.553,1.874,9.553,3.872v3.625c0,5.278,4.274,9.562,9.562,9.562
			s9.562-4.284,9.562-9.562c0,0,0-1.56,0-3.481s4.274-3.413,9.562-3.356c2.917,0.029,5.833,0.048,8.76,0.058
			c5.288,0.02,9.572,1.521,9.572,3.385v3.386c0,5.278,4.273,9.562,9.562,9.562c5.287,0,9.562-4.284,9.562-9.562c0,0,0-1.568,0-3.51
			s4.283-3.586,9.562-3.72c17.527-0.469,34.884-1.349,51.848-2.754c5.269-0.431,9.515,0.507,9.515,2.171v3.021
			c0,5.278,4.274,9.562,9.562,9.562s9.562-4.284,9.562-9.562c0,0,0-1.826,0-4.093c0-2.257,4.245-4.619,9.477-5.364
			c7.114-1.014,14.114-2.151,20.961-3.424c5.192-0.966,9.39,0.401,9.39,3.165v5.021c0,5.278,4.274,9.562,9.562,9.562
			s9.562-4.284,9.562-9.562c0,0,0-3.28,0-7.325s4.036-8.348,8.979-9.715c4.963-1.367,8.922-6.206,8.922-10.576
			c0-3.041-2.027-4.915-4.935-5.394c3.003-2.189,5.098-5.613,5.059-8.988c-0.048-4.198-0.096-8.405-0.096-8.635
			c0-26.632-30.322-33.909-75.82-44.849l-6.024-1.453c-7.277-1.75-20.617-4.705-40.564-10.604
			c-5.059-1.501-10.777,1.186-12.785,6.062l-6.416,15.548c-1.473,3.653-5.671,5.384-9.305,3.883
			c-3.672-1.482-5.402-5.671-3.901-9.323l5.938-14.506c1.998-4.886-0.44-10.184-5.413-11.934c-0.86-0.297-1.721-0.603-2.572-0.909
			c-4.981-1.759-10.834,0.679-13.081,5.46l-7.401,15.73c-1.674,3.586-5.919,5.116-9.515,3.442c-3.567-1.664-5.116-5.91-3.424-9.486
			l6.818-14.63c2.219-4.791,0.02-10.175-4.905-12.097c-0.096-0.039-0.201-0.077-0.287-0.115c-4.925-1.922-10.978,0.191-13.56,4.8
			l-9.046,16.18c-2.095,3.375-6.483,4.437-9.85,2.381c-3.376-2.056-4.418-6.474-2.371-9.821l8.013-14.42
			c2.563-4.609,0.718-10.098-4.035-12.393c-0.469-0.22-0.928-0.44-1.387-0.669c-4.743-2.324-10.901-0.717-13.789,3.71l-10.93,16.715
			c-2.276,3.223-6.761,3.978-9.974,1.692c-3.213-2.295-3.979-6.742-1.684-9.964l9.927-15.262c2.888-4.428,1.481-10.117-2.993-12.9
			c-0.345-0.22-0.68-0.421-1.023-0.641c-4.476-2.802-10.624-1.903-13.885,2.256l-12.422,15.816
			c-2.477,3.079-6.971,3.586-10.06,1.119c-3.07-2.458-3.586-6.971-1.1-10.041l12.211-15.567c3.261-4.15,5.068-8.205,4.074-9.065
			c-0.602-0.526-1.205-1.052-1.797-1.578c-2.945-2.668-5.805-5.202-8.606-7.66c-7.688-5.747-22.883-9.62-40.966,0.593
			c-17.279,9.754-56.228,21.592-89.39,11.523c-22.931-7.143-40.191-20.253-48.932-37.801c-4.494-9.046-8.051-14.449-15.07-14.889
			c-9.046-0.593-14.917,3.854-34.262,27.071c-3.921,4.724-7.612,9.697-11.198,15.73c-2.687,4.542-1.253,11.16,2.974,14.315
			c48.692,36.251,124.093,57.662,215.481,75.075c77.265,14.727,116.146,53.598,129.849,70.514c1.521,1.884,3.777,3.634,6.244,5.03
			c-2.858-0.229-5.192-0.545-5.957-0.774c-0.736-0.22-1.511-0.354-2.323-0.354c-0.775,0-1.512,0.115-2.219,0.316
			c-1.195,0.334-6.369,0.727-11.657,0.555c-14.372-0.469-28.649-1.234-42.888-2.047c0.593-1.301,0.277-3.051-1.291-5.011
			c-33.794-42.132-95.739-55.653-167.439-75.361C73.593,254.307,33.651,229.941,13.56,215.215c-4.265-3.089-8.664-2.592-9.677,1.424
			c-1.014,4.017,1.329,10.461,5.269,13.971c38.977,34.846,115.84,61.362,167.478,74.271c39.14,9.792,62.635,28.496,73.545,39.312
			c1.692,1.674,4.083,3.299,6.627,4.647c-2.075-0.144-4.188-0.268-6.254-0.411l-41.186-2.764
			c-7.985-0.497-15.788-0.976-23.486-1.435c0.641-1.3,0.306-3.069-1.377-4.981c-16.782-18.981-48.376-31.958-89.467-47.612
			c-32.876-12.517-65.828-32.952-87.085-51.14c-4.017-3.433-7.497-2.677-7.736,1.941c-0.134,2.677-0.21,5.46-0.21,8.367
			c0,3.691,0.105,7.554,0.335,11.609C1.76,288.138,10.777,314.626,16.4,328.932z"/>
	</g>
</g>
<g>
</g>
<g>
</g>
<g>
</g>
<g>
</g>
<g>
</g>
<g>
</g>
<g>
</g>
<g>
</g>
<g>
</g>
<g>
</g>
<g>
</g>
<g>
</g>
<g>
</g>
<g>
</g>
<g>
</g>
</svg>
