<?xml version="1.0" encoding="iso-8859-1"?>
<!-- Generator: Adobe Illustrator 16.0.0, SVG Export Plug-In . SVG Version: 6.00 Build 0)  -->
<!DOCTYPE svg PUBLIC "-//W3C//DTD SVG 1.1//EN" "http://www.w3.org/Graphics/SVG/1.1/DTD/svg11.dtd">
<svg version="1.1" id="Capa_1" xmlns="http://www.w3.org/2000/svg" xmlns:xlink="http://www.w3.org/1999/xlink" x="0px" y="0px"
	 width="548.82px" height="548.82px" viewBox="0 0 548.82 548.82" style="enable-background:new 0 0 548.82 548.82;"
	 xml:space="preserve">
<g>
	<g>
		<path d="M274.405,0C123.098,0,0,123.098,0,274.406C0,425.723,123.098,548.82,274.405,548.82
			c151.317,0,274.415-123.107,274.415-274.415C548.82,123.098,425.723,0,274.405,0z M228.754,345.857
			c-1.702-5.25-28.945-88.903-33.191-101.889c-0.048-0.153-0.076-0.306-0.134-0.421c-0.153-0.478-0.277-0.86-0.334-1.071
			c4.074-2.888,60.808-42.945,80.554-56.926c3.472-2.467,5.814-4.112,6.513-4.609c0.697,0.497,3.05,2.151,6.521,4.609
			c19.746,13.98,76.462,54.038,80.573,56.926c-0.066,0.21-0.201,0.593-0.344,1.071c-0.058,0.115-0.096,0.268-0.144,0.421
			c-4.246,12.976-31.489,96.639-33.191,101.889c-0.402,0-1.187,0-2.286,0c-2.945,0-8.252,0-14.975,0
			C289.094,345.857,233.182,345.857,228.754,345.857z M239.579,354.559l-48.778,68.717l-6.656-10.566l39.407-58.15H239.579z
			 M275.658,174.898V95.3l6.512,2.543l6.521-2.543v79.598l-6.521-4.609L275.658,174.898z M339.459,354.559l41.186,58.045
			l-0.43,0.105l-7.994,11.264l-48.798-69.414H339.459L339.459,354.559z M374.143,255.567l5.021-15.376l66.603-20.148l8.425,10.26
			L374.143,255.567z M452.89,118.489l-1.291,18.742c-24.25-30.705-56.523-54.736-93.684-68.878l17.519-6.818
			C405.135,74.941,431.488,94.439,452.89,118.489z M204.179,38.967c22.261-6.655,45.823-10.28,70.227-10.28
			c31.116,0,60.885,5.872,88.31,16.476c2.554,4.609,4.581,8.291,5.451,9.869c-0.822,0.316-2.295,0.88-4.246,1.654
			c-4.274,1.664-10.939,4.246-18.646,7.258c-19.097,7.439-44.695,17.413-56.591,22.022c-3.653,1.434-6.024,2.362-6.521,2.553
			c-0.459-0.191-2.841-1.119-6.513-2.553c-12.125-4.724-38.393-14.966-57.595-22.415c-8.08-3.136-14.851-5.794-18.857-7.373
			c-1.453-0.526-2.543-0.966-3.165-1.205C197.169,52.756,200.315,46.56,204.179,38.967z M187.549,61.019l17.614,6.866
			c-36.491,13.617-68.372,36.787-92.613,66.488l-1.291-18.427C132.536,92.737,158.47,73.976,187.549,61.019z M118.336,219.412
			l66.842,20.779l5.001,15.376l-79.197-26.048L118.336,219.412z M51.322,288.893c-3.356-3.232-12.689-12.24-22.453-21.678
			c1.482-51.293,18.733-98.685,47.105-137.5c12.651-2.18,23.963-4.121,27.215-4.705c0,0.057,0,0.115,0,0.144
			c0.172,2.419,0.698,9.935,1.377,19.651c1.664,23.982,4.303,61.41,4.925,70.466c0.096,1.062,0.124,1.769,0.153,1.999
			c-0.421,0.526-3.261,4.074-7.458,9.352c-9.754,12.221-26.871,33.698-38.451,48.271c-5.862,7.345-10.327,12.949-11.733,14.699
			C51.857,289.428,51.532,289.133,51.322,288.893z M52.728,302.328l0.172,0.191l11.456-14.42
			c2.821,37.207,15.042,71.824,34.292,101.447l-17.308-3.643C66.364,360.258,56.83,333.004,52.728,302.328z M205.039,510.102
			c-48.08-14.172-90.079-42.658-121.013-80.555c2.018-12.641,4.006-25.023,4.944-30.896c0.172-1.1,0.315-1.998,0.392-2.582
			c2.113,0.564,8.482,2.297,16.935,4.582c23.438,6.35,62.893,17.029,70.916,19.201c0.736,0.201,1.186,0.334,1.358,0.373
			c0.373,0.564,2.639,4.111,5.977,9.4c7.631,12.096,21.066,33.305,31.049,49.121c4.379,6.943,8.119,12.834,10.395,16.447
			c0.937,1.465,1.635,2.572,2.018,3.176C225.226,499.822,215.788,504.633,205.039,510.102z M280.946,501.869
			c-14.717,0-29.061-1.443-43.021-4.084l-9.792-15.49c16.906,4.254,34.625,6.512,52.813,6.512c19.269,0,37.963-2.543,55.749-7.287
			l-9.954,15.75C311.938,500.271,296.609,501.869,280.946,501.869z M353.603,506.965c-8.253-4.111-14.984-7.457-17.241-8.586
			c0.439-0.727,1.291-2.047,2.429-3.836c2.429-3.861,6.216-9.867,10.643-16.857c14.325-22.701,35.161-55.635,36.3-57.441
			c2.18-0.584,43.347-11.744,69.242-18.762c9.381-2.545,16.734-4.533,19.498-5.279c0.2-0.057,0.42-0.125,0.554-0.143
			c0.393,2.209,1.492,8.271,2.879,15.93C448.166,455.834,404.628,489.543,353.603,506.965z M481.051,385.398l-18.331,4.963
			c20.062-30.543,32.608-66.471,35.037-105.055l11.724,14.697C505.665,330.748,495.777,359.637,481.051,385.398z M520.133,274.406
			c0,2.61-0.114,5.202-0.2,7.793c-3.653,3.529-6.436,6.205-7.65,7.383c-0.344-0.432-0.908-1.168-1.616-2.057
			c-2.486-3.107-7.009-8.787-12.47-15.616c-11.455-14.411-26.966-33.88-36.06-45.297c-4.179-5.279-7.02-8.826-7.439-9.352
			c0-0.229,0.057-0.938,0.114-1.999c0.612-8.673,3.031-43.337,4.733-67.311c0.593-8.587,1.1-15.807,1.396-19.918
			c0.066-1.33,0.162-2.391,0.22-3.022c1.549,0.268,4.953,0.87,9.429,1.645C501.678,167.812,520.133,218.991,520.133,274.406z"/>
	</g>
</g>
<g>
</g>
<g>
</g>
<g>
</g>
<g>
</g>
<g>
</g>
<g>
</g>
<g>
</g>
<g>
</g>
<g>
</g>
<g>
</g>
<g>
</g>
<g>
</g>
<g>
</g>
<g>
</g>
<g>
</g>
</svg>
