<?xml version="1.0" encoding="iso-8859-1"?>
<!-- Generator: Adobe Illustrator 16.0.0, SVG Export Plug-In . SVG Version: 6.00 Build 0)  -->
<!DOCTYPE svg PUBLIC "-//W3C//DTD SVG 1.1//EN" "http://www.w3.org/Graphics/SVG/1.1/DTD/svg11.dtd">
<svg version="1.1" id="Capa_1" xmlns="http://www.w3.org/2000/svg" xmlns:xlink="http://www.w3.org/1999/xlink" x="0px" y="0px"
	 width="541.275px" height="541.275px" viewBox="0 0 541.275 541.275" style="enable-background:new 0 0 541.275 541.275;"
	 xml:space="preserve">
<g>
	<g>
		<path d="M204.737,126.636c2.419,5.412,4.647,10.939,6.875,16.438l2.295,5.661c0.287,0.708,0.555,1.482,0.822,2.305
			c0.402,1.214,1.253,3.758,1.894,4.284c1.654,0.038,2.61-0.096,3.509-0.239c0.765-0.115,1.482-0.22,2.123-0.268
			c6.732-0.421,13.483-0.641,20.167-0.641h8.931c15.128,0,29.958,0.095,45,1.252l3.644,0.287c5.059,0.392,10.175,0.793,15.214,1.472
			c1.1,0.144,2.314,0.431,3.538,0.736c1.319,0.335,2.678,0.669,3.662,0.669l0.393-0.019c-0.354-0.029,0.076-0.966,0.344-1.53
			c0.766-1.645,1.406-2.964,2.047-4.274c1.186-2.41,2.371-4.81,3.375-7.363l1.654-4.188c4.801-12.173,9.764-24.757,14.144-37.351
			c0.401-1.157,1.023-2.591,1.721-4.15c0.985-2.219,3.3-7.42,2.859-8.941c-0.928-3.156-8.386-7.306-12.393-9.543
			c-1.167-0.65-2.219-1.234-3.099-1.769c-14.773-9.18-30.763-14.889-44.466-19.259c-1.281-0.421-2.572-0.871-3.872-1.33
			c-5.164-1.797-10.442-3.691-15.319-3.251c-24.997,2.295-49.276,9.496-66.603,19.756c-4.332,2.534-8.549,5.04-12.68,8.023
			c-1.014,0.708-2.888,2.018-3.08,2.668c-0.258,1.301,1.635,5.26,2.438,6.952c0.479,0.985,0.909,1.903,1.234,2.696
			c2.888,7.067,6.062,14.114,9.237,21.152L204.737,126.636z"/>
		<path d="M173.363,291.762c8.052,16.16,16.878,30.924,26.985,45.145l2.821,3.996c3.366,4.82,6.837,9.803,10.787,13.646
			c2.046,2.037,4.141,4.102,5.929,4.877c3.309,1.377,8.252,1.502,13.043,1.615c2.84,0.076,5.594,0.164,8.032,0.469
			c15.071,1.789,30.122,2.697,44.733,2.697c11.398,0,22.491-0.564,32.952-1.664c5.862-0.594,9.276-6.283,12.891-12.307
			c0.736-1.225,1.473-2.449,2.219-3.615l2.113-3.299c11.063-17.309,21.516-33.65,30.438-51.58
			c2.572-5.049,4.829-10.299,7.306-16.123l0.478-1.07c0.65-1.463,1.396-3.117,1.139-3.893c-2.478-7.783-7.603-15.529-12.565-23.016
			c-1.482-2.238-2.926-4.418-4.274-6.56c-4.36-6.847-8.521-13.856-12.671-20.846c-3.471-5.862-6.942-11.724-10.547-17.509
			c-1.415-2.267-2.888-4.533-4.351-6.799c-1.875-2.917-3.749-5.823-5.537-8.73l-0.479-0.813c-1.338-2.275-3.002-5.106-4.666-6.005
			c-0.88-0.459-2.515-0.65-4.093-0.832c-0.842-0.096-1.664-0.201-2.429-0.335c-5.843-0.985-11.905-1.664-18.504-2.094l-7.783-0.564
			c-11.781-0.851-23.954-1.73-35.878-1.73c-6.407,0-12.173,0.249-17.643,0.765c-1.616,0.134-3.519,0.144-5.575,0.163
			c-4.303,0.01-10.203,0.038-12.479,1.693c-2.764,2.018-5.317,6.741-7.574,10.911c-1.243,2.305-2.448,4.513-3.662,6.33
			c-7.22,10.834-14.076,22.205-20.693,33.192c-3.223,5.345-6.445,10.69-9.735,16.007c-1.778,2.831-3.309,5.766-4.848,8.702
			c-1.233,2.352-2.477,4.714-3.815,7l-0.755,1.233c-0.928,1.501-2.199,3.567-2.104,4.695c0.42,6.339,4.762,14.621,8.252,21.267
			C171.718,288.529,172.598,290.203,173.363,291.762z"/>
		<path d="M189.141,380.674c2.773-3.328,5.556-6.656,8.214-10.07l0.603-0.783c0.153-0.201,0.363-0.459,0.545-0.699
			c-0.373-0.41-0.975-0.994-1.386-1.377c-0.622-0.582-1.224-1.166-1.722-1.73c-3.146-3.5-6.091-7.354-8.606-10.682
			c-8.999-11.455-17.012-23.561-24.432-36.949c-6.321-11.244-11.791-22.51-16.228-33.469c-0.306-0.736-0.622-1.711-0.957-2.781
			c-0.411-1.301-1.262-4.027-1.951-4.592l-11.427,1.023c-15.176,1.072-30.868,2.189-46.101,4.754l-14.86,2.582
			c-0.536,0.066-1.415,0.189-1.692,0.314c-0.067,0.326-0.21,2.602-0.287,3.816c-0.057,0.928-0.115,1.807-0.22,2.572
			c-0.564,4.188-0.918,8.367-1.272,12.525c-0.296,3.434-0.583,6.857-0.985,10.289c-1.367,12.127-0.067,24.193,1.645,37.592
			c1.167,9.381,2.782,19.01,6.732,26.01c3.107,5.527,9.075,11.055,13.885,15.5c9.294,8.426,20.1,17.814,32.417,23.982
			c1.941,0.986,3.835,1.98,5.728,2.994c5.135,2.725,9.983,5.297,15.224,7.123c0.727,0.24,1.53,0.594,2.372,0.938
			c1.214,0.518,2.725,1.166,3.509,1.166v4.381l0.038-4.381c1.741-0.209,5.661-5.775,7.144-7.879c0.908-1.271,1.721-2.42,2.41-3.27
			l7.774-9.631c7.669-9.514,15.376-19.076,23.198-28.447L189.141,380.674z"/>
		<path d="M437.144,286.846c-9.113-1.176-18.532-2.4-27.751-3.146c-1.511-0.113-3.213-0.381-5.001-0.648
			c-2.515-0.393-5.116-0.795-7.344-0.795c-1.129,0-2.047,0.105-2.744,0.316c0.2,0.02-0.191,1.127-0.431,1.777
			c-0.182,0.545-0.373,1.062-0.574,1.531c-1.864,4.418-3.939,8.768-6.015,13.119l-1.616,3.385
			c-7.104,15.205-16.284,29.52-25.158,43.377l-5.737,8.998c-2.678,4.359-5.633,9.064-8.874,13.521
			c-0.354,0.496-0.823,1.051-1.32,1.625c-0.478,0.555-1.281,1.492-1.425,1.893c0.163,0.623,2.085,2.898,3.013,3.998
			c0.679,0.803,1.31,1.568,1.798,2.238c3.452,4.828,7.009,9.543,10.566,14.266l10.193,13.666
			c5.116,6.932,10.404,14.113,16.122,20.539l1.329,1.559c3.032,3.596,3.959,4.447,6.302,3.846
			c22.415-6.072,43.759-19.852,57.72-30.342l3.155-2.324c5.078-3.691,11.398-8.281,13.579-12.871
			c2.285-4.887,3.251-11.734,4.111-17.787l0.431-3.012c2.878-18.332,3.232-35.562,1.071-52.699l-0.517-4.197
			c-0.469-3.883-0.938-7.803-1.597-11.656l-0.163-1.168c-0.2-1.443-0.469-3.432-1.052-4.188c-1.396-1.627-9.782-2.295-12.938-2.545
			c-1.291-0.104-2.458-0.199-3.386-0.305C447.653,288.213,442.403,287.535,437.144,286.846z"/>
		<path d="M371.65,444.102l-0.727-0.832c-3.203-3.52-6.187-6.838-9.056-10.586c-5.68-7.191-11.245-14.582-16.811-21.994
			c-3.548-4.713-7.086-9.428-10.662-14.094c-1.147-1.502-2.257-3.318-3.395-5.203c-1.894-3.127-4.045-6.664-6.245-7.984
			c-0.048,0-1.884-0.039-3.184,0.115c-0.698,0.066-1.358,0.133-1.961,0.162c-3.825,0.125-7.573,0.373-11.331,0.611
			c-2.802,0.182-5.604,0.363-8.405,0.498c-18.217,0.707-36.395,0.066-59.288-1.807l-3.251-0.25
			c-4.428-0.334-8.932-0.678-13.321-1.309l-1.367-0.23c-1.32-0.229-2.85-0.525-4.255-0.525c-0.88,0-1.224,0.143-1.253,0.162
			c-1.797,0.736-4.112,4.035-5.642,6.215l-1.377,1.932c-2.792,3.596-5.661,7.049-8.53,10.5c-2.85,3.424-5.699,6.857-8.415,10.365
			c-2.983,3.902-6.206,7.65-9.429,11.4c-3.987,4.637-8.109,9.428-11.628,14.438c-0.574,0.814-1.377,1.77-2.257,2.793
			c-1.004,1.166-3.089,3.586-3.242,4.553c-0.077,1.443,2.668,5.172,3.844,6.75l1.023,1.406c6.417,9.141,12.068,16.629,18.791,23.504
			l1.54,1.568c6.35,6.512,12.919,13.225,20.512,17.262c4.628,2.494,10.041,3.672,15.769,4.924c2.371,0.516,4.733,1.033,7.009,1.635
			c13.148,3.375,27.186,5.012,42.887,5.012c4.38,0,8.77-0.135,13.188-0.354c9.772-0.547,22.3-1.742,32.417-6.102
			c3.107-1.348,6.272-4.293,9.323-7.143l2.113-1.941c10.04-8.789,18.331-18.857,27.09-29.52l0.985-1.195
			c3.051-3.625,5.775-7.201,8.128-10.682l0.909-1.195c0.334-0.43,0.908-1.158,1.022-1.453
			C373.018,445.631,372.128,444.637,371.65,444.102z"/>
		<path d="M270.862,0C130.676,0,15.667,112.178,6.937,253.396c-1.31,11.657-1.377,22.281-0.172,32.168v0.01
			c7.612,142.309,123.146,255.701,264.088,255.701c145.856,0,264.517-121.414,264.517-270.647C535.379,121.405,416.718,0,270.862,0z
			 M465.305,269.232c3.424,0.793,6.895,1.645,9.467,1.272c0.229-0.191,1.043-1.511,1.482-2.219l1.311-2.018
			c3.165-4.743,6.148-9.208,8.759-14.057c5.374-10.156,10.834-21.535,14.334-35.716c3.3,14.746,5.288,29.998,5.814,45.632
			c-1.511,2.477-3.041,4.935-4.571,7.344c-1.435,2.266-2.859,4.523-4.245,6.789c-0.823,1.35-1.923,2.754-3.051,4.189
			c-1.511,1.902-3.213,4.064-3.653,5.68c-0.238,0.938,0.221,2.916,0.574,4.494c0.182,0.803,0.354,1.588,0.487,2.334
			c0.555,3.424,0.928,6.818,1.301,10.213l0.593,5.24c1.549,12.908,1.377,25.732,1.043,37.438
			c-10.061,31.469-26.24,60.1-47.115,84.426l-0.994,0.641c-10.548,6.848-22.52,12.9-36.672,18.543
			c-2.133,0.859-4.733,1.539-7.401,2.209c-3.49,0.879-7.096,1.797-9.199,3.223c-1.052,0.697-2.075,2.305-3.069,3.854
			c-0.536,0.822-1.053,1.635-1.598,2.371c-2.477,3.424-5.145,6.723-7.803,10.012l-2.553,3.176
			c-5.413,6.73-11.332,13.33-17.462,19.812c-27.817,11.877-58.302,18.455-90.25,18.455c-32.809,0-64.068-6.932-92.488-19.402
			c-2.323-2.305-4.638-4.607-6.952-7.113c-6.942-7.363-12.728-15.281-17.949-22.73c-0.842-1.186-1.683-2.582-2.553-4.006
			c-1.568-2.602-3.194-5.309-4.925-6.646c-0.727-0.584-2.084-0.832-3.528-1.109c-0.995-0.191-1.989-0.393-2.917-0.66
			c-4.724-1.396-9.294-3.355-13.512-5.26c-13.856-6.254-25.522-14.152-36.07-21.754c-1.167-0.842-2.352-1.789-3.528-2.697
			c-18.083-23.266-32.121-49.982-40.899-79.062c-0.851-14.869-0.287-29.146,0.593-42.486c0.191-2.734,0.736-5.709,1.31-8.76
			c0.87-4.617,1.76-9.398,1.109-13.014c-0.258-1.492-1.759-3.557-3.089-5.375c-0.889-1.214-1.74-2.399-2.419-3.547
			c-2.859-5.03-5.154-10.155-7.382-15.099l-0.039-0.086c0.985-14.563,3.204-28.783,6.598-42.534
			c0.622,1.673,1.263,3.299,1.846,4.762l3.328,8.549c3.204,8.367,6.235,16.266,10.06,24.193l0.927,1.875
			c2.037,4.14,3.969,8.042,6.35,11.666c0.564,0.88,1.358,2.142,1.76,2.362l0.66-0.019c2.553,0,5.546-0.669,8.444-1.31
			c2.113-0.468,4.198-0.928,6.187-1.195l7.277-0.947c10.433-1.377,21.229-2.792,32.015-3.385c1.033-0.048,2.113-0.058,3.242-0.058
			l5.192,0.029c4.915,0,10.347-0.268,13.369-2.228c0.555-0.363,1.348-2.123,1.826-3.185c0.45-1.004,0.899-1.979,1.396-2.821
			c2.515-4.293,4.839-8.711,7.172-13.129c1.253-2.372,2.505-4.743,3.777-7.085c6.856-12.546,14.898-25.58,23.906-38.748
			c1.444-2.132,3.041-4.332,4.676-6.588c4.341-5.996,8.826-12.183,11.246-18.236c0.612-1.53-1.827-6.464-3.003-8.835
			c-0.803-1.626-1.54-3.137-2.008-4.409c-3.185-8.692-7.153-17.308-10.987-25.656c-2.984-6.493-5.977-12.995-8.673-19.622
			l-5.355-13.569c-0.125-0.306-0.354-0.832-0.545-1.195c-0.507-0.019-0.966-0.029-1.444-0.029c-7.803,0-16.639,2.276-24.422,4.284
			c-15.08,3.863-30.629,8.319-45.422,15.482c-1.109,0.526-2.305,1.023-3.481,1.52c11.667-14.009,24.834-26.65,39.283-37.638
			c4.409-1.147,8.855-2.142,13.35-2.726l4.876-0.669c5.087-0.698,10.156-1.396,15.252-1.97c0.793-0.095,1.692-0.134,2.629-0.134
			l2.467,0.019c0.555,0,2.008,0,2.726-0.296c2.314-0.918,4.896-3.194,7.392-5.403c2.008-1.778,4.093-3.614,6.311-5.02
			c9.18-5.786,19.556-10.557,33.66-15.482c11.351-3.939,21.602-6.78,31.355-8.673c1.377-0.258,3.213-0.373,5.183-0.459
			c1.912-0.095,5.823-0.277,6.904-0.918c-0.392,0.086-0.105-0.841-0.277-2.515c-0.01-0.966-0.01-1.932-0.067-2.917
			c2.763-0.096,5.527-0.21,8.31-0.21c4.446,0,8.864,0.153,13.252,0.401l0.173,2.544c0.028,0.736,0,1.405-0.029,2.104
			c-0.028,0.717-0.076,1.922,0.058,2.305c0.603,0.382,3.442,0.975,5.518,1.406c1.626,0.344,3.194,0.679,4.485,1.109
			c8.691,2.878,18.016,6.082,27.329,9.964c11.198,4.657,21.946,10.605,31.938,17.681c1.731,1.243,3.481,2.926,5.279,4.657
			c2.419,2.343,5.145,4.992,7.296,5.68c1.425,0.469,4.398,0.201,6.942-0.096c1.769-0.201,3.49-0.392,4.991-0.392h5.948
			c8.319,0,17.165,0.077,25.856,1.071c0.966,0.115,1.827,0.249,2.783,0.373c10.413,8.071,20.139,17.041,29.108,26.737
			c-2.438-0.574-4.963-1.052-7.469-1.501l-3.768-0.688c-13.005-2.506-28.334-5.059-43.309-5.059c-3.414,0-6.809,0.134-10.155,0.43
			c-0.708,0.067-1.539,0.096-2.419,0.134c-1.463,0.058-4.514,0.172-5.24,0.755c-0.22,0.335-0.65,1.979-0.88,2.869
			c-0.172,0.641-0.335,1.262-0.507,1.807c-0.65,2.018-1.358,4.006-2.056,5.996c-0.947,2.668-1.894,5.346-2.688,8.061
			c-2.419,8.338-5.843,16.371-9.142,24.146c-1.817,4.274-3.634,8.549-5.288,12.88c-1.224,3.194-2.754,6.178-4.284,9.19
			c-0.774,1.521-1.559,3.041-2.285,4.6l-0.564,1.233c-0.287,0.612-0.727,1.54-0.755,1.884c1.521,4.341,5.077,9.189,8.52,13.875
			c1.836,2.515,3.634,4.972,5.126,7.344c6.272,10.05,12.383,20.187,18.513,30.342l9.505,15.711
			c3.472,5.613,6.493,10.968,9.229,16.342l0.755,1.616c0.67,1.454,1.913,4.179,2.821,4.743c0.841,0.536,3.442,0.555,4.695,0.555
			l1.176,0.009c3.758,0.144,8.062,0.545,13.216,1.234c13.015,1.75,26.134,3.232,39.225,4.724l4.725,0.545
			C460.505,268.142,462.876,268.677,465.305,269.232z"/>
	</g>
</g>
<g>
</g>
<g>
</g>
<g>
</g>
<g>
</g>
<g>
</g>
<g>
</g>
<g>
</g>
<g>
</g>
<g>
</g>
<g>
</g>
<g>
</g>
<g>
</g>
<g>
</g>
<g>
</g>
<g>
</g>
</svg>
