<?xml version="1.0" encoding="iso-8859-1"?>
<!-- Generator: Adobe Illustrator 16.0.0, SVG Export Plug-In . SVG Version: 6.00 Build 0)  -->
<!DOCTYPE svg PUBLIC "-//W3C//DTD SVG 1.1//EN" "http://www.w3.org/Graphics/SVG/1.1/DTD/svg11.dtd">
<svg version="1.1" id="Capa_1" xmlns="http://www.w3.org/2000/svg" xmlns:xlink="http://www.w3.org/1999/xlink" x="0px" y="0px"
	 width="532.044px" height="532.044px" viewBox="0 0 532.044 532.044" style="enable-background:new 0 0 532.044 532.044;"
	 xml:space="preserve">
<g>
	<g>
		<circle cx="319.593" cy="392.037" r="25.083"/>
		<path d="M14.262,83.082h504.422c10.557,0,15.988-7.966,12.106-17.786l-9.869-25.025c-3.882-9.82-15.587-17.786-26.144-17.786
			H33.205c-10.557,0-21.688,8.167-24.834,18.255L0.836,64.817C-2.3,74.906,3.705,83.082,14.262,83.082z"/>
		<path d="M520.921,466.748c-3.882-9.82-15.587-17.786-26.144-17.786H33.205c-10.557,0-21.688,8.167-24.834,18.255l-7.535,24.088
			c-3.146,10.089,2.859,18.255,13.416,18.255h504.432c10.557,0,15.988-7.965,12.106-17.786L520.921,466.748z"/>
		<circle cx="201.304" cy="145.124" r="26.039"/>
		<path d="M417.292,327.471c7.822,0.134,14.946-5.221,16.726-13.158c2.036-9.094-3.538-17.968-12.613-20.005
			c-1.425-0.296-2.859-0.439-4.265-0.392l-60.34,0.162l-89.218-103.437l23.323-0.115l40.516,46.789c2.41,2.945,6.044,4.8,10.117,4.8
			c7.248,0,13.13-5.89,13.13-13.11c0-3.921-1.731-7.411-4.447-9.831l-43.652-50.27c-2.41-2.917-6.062-4.781-10.127-4.781h-63.237
			c-4.628,0-8.826,1.855-11.876,4.839l-40.325,40.306l-33.402-33.354c-2.362-1.999-5.393-3.194-8.692-3.194
			c-7.487,0-13.55,6.082-13.55,13.55c0,3.27,1.138,6.235,3.05,8.578l40.306,40.574c12.221,12.221,22.051,1.864,22.051,1.864
			l24.719-24.853l38.642,44.676l-35.391,35.401c0,0-7.44,6.913-3.232,20.712l19.871,88.453c1.578,7.669,8.357,13.436,16.505,13.436
			c9.294,0,16.839-7.535,16.839-16.84c0-1.463-0.182-2.888-0.525-4.255l-16.314-72.513l40.22-39.13l34.587,38.575
			c0,0,5.585,6.923,20.464,6.397L417.292,327.471z"/>
	</g>
</g>
<g>
</g>
<g>
</g>
<g>
</g>
<g>
</g>
<g>
</g>
<g>
</g>
<g>
</g>
<g>
</g>
<g>
</g>
<g>
</g>
<g>
</g>
<g>
</g>
<g>
</g>
<g>
</g>
<g>
</g>
</svg>
