<?xml version="1.0" encoding="iso-8859-1"?>
<!-- Generator: Adobe Illustrator 16.0.0, SVG Export Plug-In . SVG Version: 6.00 Build 0)  -->
<!DOCTYPE svg PUBLIC "-//W3C//DTD SVG 1.1//EN" "http://www.w3.org/Graphics/SVG/1.1/DTD/svg11.dtd">
<svg version="1.1" id="Capa_1" xmlns="http://www.w3.org/2000/svg" xmlns:xlink="http://www.w3.org/1999/xlink" x="0px" y="0px"
	 width="584.967px" height="584.967px" viewBox="0 0 584.967 584.967" style="enable-background:new 0 0 584.967 584.967;"
	 xml:space="preserve">
<g>
	<g>
		<circle cx="295.516" cy="51.255" r="51.255"/>
		<path d="M230.528,497.844c0.344-1.664,0.516-3.387,0.516-5.137V410.23H179.79v82.477c0,2.668,0.526,5.203,1.281,7.631
			c-11.743,8.387-19.459,22.053-19.459,37.582c0,25.531,20.703,46.244,46.244,46.244s46.235-20.713,46.235-46.244
			C254.09,520.658,244.528,505.789,230.528,497.844z"/>
		<path d="M311.857,559.34c0,14.143,11.475,25.627,25.627,25.627s25.627-11.475,25.627-25.627V410.23h-51.254V559.34z"/>
		<polygon points="232.861,198.805 195.453,181.697 189.304,192.761 226.713,209.859 		"/>
		<polygon points="412.656,200.688 406.947,188.946 369.643,205.996 375.352,217.738 		"/>
		<path d="M402.844,377.355c11.332,0,20.512-9.17,20.512-20.512V227.425c0-3.099-0.707-6.158-2.064-8.96l-4.562-9.38l-37.303,17.05
			l2.916,6.005v124.705C382.332,368.186,391.523,377.355,402.844,377.355z"/>
		<path d="M336.969,343.342l-6.531,9.688v0.113h9.629v-9.629c0-2.027,0.115-4.035,0.221-6.158h-0.221
			C338.986,339.594,338.059,341.391,336.969,343.342z"/>
		<path d="M363.111,305.379H234.411l-17.815,21.275v-98.588l5.565-10.002l-37.409-17.117l-6.579,11.819
			c-1.702,3.051-2.591,6.483-2.591,9.974v109.366c0,10.939,8.587,19.775,19.374,20.387l-9.199,10.979
			c-3.863,4.619-5.977,10.451-5.977,16.477v11.656h51.255v-2.342l38.125-45.527h42.687v47.869h51.256v-86.225H363.111z
			 M350.959,358.211h-4.582v8.971h-6.311v-8.971h-16.055v-4.359l14.477-22.053h7.889v21.334h4.582V358.211z"/>
		<path d="M363.111,192.551l2.459,5.059l37.303-17.06l-24.518-50.5c-3.041-6.264-8.855-10.242-15.244-11.274v-0.593H242.653v0.421
			c-7.191,0.019-14.171,3.72-17.92,10.442l-24.738,44.485l37.409,17.098l5.25-9.438v105.551h120.458V192.551z M309.523,184.222
			h-21.104c-15.443,0-27.961-3.653-27.961-8.157c0-4.514,12.518-8.167,27.961-8.167h21.104c15.443,0,27.961,3.653,27.961,8.167
			C337.484,180.569,324.967,184.222,309.523,184.222z"/>
	</g>
</g>
<g>
</g>
<g>
</g>
<g>
</g>
<g>
</g>
<g>
</g>
<g>
</g>
<g>
</g>
<g>
</g>
<g>
</g>
<g>
</g>
<g>
</g>
<g>
</g>
<g>
</g>
<g>
</g>
<g>
</g>
</svg>
