<?xml version="1.0" encoding="iso-8859-1"?>
<!-- Generator: Adobe Illustrator 16.0.0, SVG Export Plug-In . SVG Version: 6.00 Build 0)  -->
<!DOCTYPE svg PUBLIC "-//W3C//DTD SVG 1.1//EN" "http://www.w3.org/Graphics/SVG/1.1/DTD/svg11.dtd">
<svg version="1.1" id="Capa_1" xmlns="http://www.w3.org/2000/svg" xmlns:xlink="http://www.w3.org/1999/xlink" x="0px" y="0px"
	 width="556.557px" height="556.557px" viewBox="0 0 556.557 556.557" style="enable-background:new 0 0 556.557 556.557;"
	 xml:space="preserve">
<g>
	<g>
		<path d="M310.57,278.278c0-19.01-12.984-34.874-30.494-39.655v79.321C297.586,313.153,310.57,297.289,310.57,278.278z"/>
		<rect y="196.586" width="52.059" height="163.385"/>
		<rect x="506.287" y="196.586" width="50.27" height="163.385"/>
		<path d="M228.037,278.278c0,19.011,12.977,34.875,30.495,39.656v-79.312C241.023,243.404,228.037,259.268,228.037,278.278z"/>
		<path d="M524.246,123.749h-244.17v92.708c29.51,5.125,52.039,30.877,52.039,61.821c0,30.945-22.529,56.696-52.039,61.822v92.708
			h244.17c17.842,0,32.311-14.458,32.311-32.321v-18.972H495.52c-5.947,0-10.768-4.819-10.768-10.768v-32.436
			c-28.535-5.116-50.27-30.064-50.27-60.034c0-29.978,21.734-54.917,50.27-60.033v-32.436c0-5.948,4.82-10.768,10.768-10.768h61.037
			V156.07C556.557,138.207,542.088,123.749,524.246,123.749z"/>
		<path d="M484.742,316.098v-75.64c-16.533,4.724-28.725,19.785-28.725,37.819C456.018,296.313,468.219,311.375,484.742,316.098z"/>
		<path d="M0,156.07v18.972h62.835c5.948,0,10.768,4.82,10.768,10.768v32.436c28.534,5.116,50.27,30.055,50.27,60.033
			c0,29.979-21.736,54.918-50.27,60.034v32.436c0,5.948-4.82,10.768-10.768,10.768H0v18.972c0,17.863,14.468,32.321,32.312,32.321
			h226.21V340.1c-29.51-5.126-52.039-30.877-52.039-61.822c0-30.944,22.52-56.695,52.039-61.821v-92.708H32.321
			C14.478,123.749,0,138.207,0,156.07z"/>
		<path d="M73.612,240.458v75.64c16.534-4.724,28.726-19.785,28.726-37.82C102.338,260.244,90.136,245.183,73.612,240.458z"/>
	</g>
</g>
<g>
</g>
<g>
</g>
<g>
</g>
<g>
</g>
<g>
</g>
<g>
</g>
<g>
</g>
<g>
</g>
<g>
</g>
<g>
</g>
<g>
</g>
<g>
</g>
<g>
</g>
<g>
</g>
<g>
</g>
</svg>
