<?xml version="1.0" encoding="iso-8859-1"?>
<!-- Generator: Adobe Illustrator 16.0.0, SVG Export Plug-In . SVG Version: 6.00 Build 0)  -->
<!DOCTYPE svg PUBLIC "-//W3C//DTD SVG 1.1//EN" "http://www.w3.org/Graphics/SVG/1.1/DTD/svg11.dtd">
<svg version="1.1" id="Capa_1" xmlns="http://www.w3.org/2000/svg" xmlns:xlink="http://www.w3.org/1999/xlink" x="0px" y="0px"
	 width="495.911px" height="495.91px" viewBox="0 0 495.911 495.91" style="enable-background:new 0 0 495.911 495.91;"
	 xml:space="preserve">
<g>
	<g>
		<circle cx="216.483" cy="56.725" r="56.725"/>
		<path d="M457.266,167.085l-37.531-6.971c-2.305-0.412-4.867-0.105-7.393,0.535c-0.211-0.163-0.383-0.354-0.602-0.497
			l-72.074-47.42c-4.895-3.213-10.854-4.437-16.609-3.366l-92.938,17.06c-1.195,0.201-2.362,0.545-3.509,0.937l-80.899,28.764
			l-65.35-4.389c-6.101-7.258-15.128-11.972-25.35-11.972c-18.37,0-33.258,14.898-33.258,33.268
			c0,18.369,14.889,33.268,33.258,33.268c8.826,0,16.801-3.509,22.749-9.113l69.596,4.686c3.117,0.21,6.225-0.22,9.151-1.272
			l35.238-12.527l27.951,100.444l-30.801,84.838L73.801,431.26c-16.839,8.473-23.629,28.992-15.156,45.832
			c8.482,16.85,28.984,23.658,45.833,15.156l127.344-64.049c7.86-3.969,13.895-10.787,16.83-19.096l34.644-97.797l80.967,74.367
			l28.094,86.617c4.676,14.439,18.064,23.611,32.465,23.611c3.49,0,7.039-0.545,10.539-1.674
			c17.93-5.814,27.75-25.064,21.936-43.012l-30.857-95.148c-1.809-5.584-5.049-10.613-9.371-14.582l-84.83-77.916l-31.27-103.876
			l21.314-3.911l64.434,42.391c0.477,0.306,1.014,0.421,1.5,0.698c0.078,0.22,0.086,0.506,0.182,0.736l17.883,43.433
			c2.391,5.804,9.477,10.079,15.404,7.965c3.816-1.338,8.043-3.375,11.619-6.416c4.781-4.074,11.379-11.188,16.496-14.832
			c4.379-3.118,9.16-7.373,11.895-12.479c2.955-5.546,6.293-14.114,9.352-19.603c2.516-4.533,4.246-10.72,2.229-18.255
			C471.639,173.358,463.454,168.233,457.266,167.085z M434.756,227.473c-0.697,1.138-1.787,1.941-3.078,2.267
			c-0.393,0.134-0.891,0.153-1.215,0.153c-2.314,0-4.312-1.568-4.857-3.806c-1.76-7.019-12.576-17.117-18.973-21.832
			c-2.229-1.654-2.697-4.81-1.053-7c1.588-2.152,4.869-2.639,7-1.062c1.99,1.463,19.566,14.698,22.76,27.482
			C435.647,224.977,435.446,226.316,434.756,227.473z M452.858,211.81l-0.602,0.038c-2.535,0-4.676-1.894-4.973-4.418
			c-1.77-15.128-25.531-22.261-25.771-22.329c-2.678-0.765-4.217-3.547-3.451-6.196c0.727-2.63,3.652-4.255,6.234-3.423
			c1.166,0.325,30.361,8.673,32.953,30.772C457.553,209.007,455.584,211.494,452.858,211.81z"/>
	</g>
</g>
<g>
</g>
<g>
</g>
<g>
</g>
<g>
</g>
<g>
</g>
<g>
</g>
<g>
</g>
<g>
</g>
<g>
</g>
<g>
</g>
<g>
</g>
<g>
</g>
<g>
</g>
<g>
</g>
<g>
</g>
</svg>
