<?xml version="1.0" encoding="iso-8859-1"?>
<!-- Generator: Adobe Illustrator 16.0.0, SVG Export Plug-In . SVG Version: 6.00 Build 0)  -->
<!DOCTYPE svg PUBLIC "-//W3C//DTD SVG 1.1//EN" "http://www.w3.org/Graphics/SVG/1.1/DTD/svg11.dtd">
<svg version="1.1" id="Capa_1" xmlns="http://www.w3.org/2000/svg" xmlns:xlink="http://www.w3.org/1999/xlink" x="0px" y="0px"
	 width="485.438px" height="485.438px" viewBox="0 0 485.438 485.438" style="enable-background:new 0 0 485.438 485.438;"
	 xml:space="preserve">
<g>
	<g>
		<path d="M336.867,185.357c29.969,0,54.258-24.375,54.258-54.334c0-29.988-24.289-54.286-54.258-54.286
			c-29.979,0-54.344,24.298-54.344,54.286C282.523,160.992,306.889,185.357,336.867,185.357z"/>
		<path d="M462.23,210.249c-1.07-6.656-4.801-12.584-10.328-16.457l-55.844-39.015c-9.161,23.485-31.958,40.191-58.628,40.191
			c-34.769,0-63.055-28.286-63.055-63.046c0-18.79,8.329-35.649,21.43-47.2L180.969,4.492c-11.274-7.879-26.803-5.125-34.683,6.168
			c-7.879,11.274-5.125,26.803,6.158,34.683l115.792,80.898L157.694,299.266l-49.648-9.85c-9.993-1.951-19.785,2.362-25.274,10.231
			l-16.486-5.632c-5.211-1.798-10.872,1.004-12.642,6.206c-1.778,5.211,1.004,10.872,6.216,12.642l19.096,6.521
			c2.133,9.275,9.458,16.926,19.393,18.896l30.542,6.053L99.64,390.11c-5.336,8.338-4.992,18.618-0.105,26.507l-13.952,18.197
			c-3.356,4.37-2.524,10.624,1.846,13.971c1.817,1.387,3.939,2.057,6.053,2.057c2.993,0,5.948-1.349,7.908-3.902l14.679-19.144
			c1.511,0.277,3.012,0.631,4.533,0.631c8.214,0,16.266-4.063,21.009-11.504l39.732-62.185L242.8,366.92
			c1.617,0.315,3.242,0.479,4.848,0.479c8.645,0,16.83-4.514,21.382-12.126l96.275-161.204l49.429,34.53l20.043,124.093
			c1.979,12.23,12.546,20.941,24.557,20.941c1.318,0,2.658-0.096,3.996-0.315c13.58-2.189,22.807-14.975,20.617-28.554
			L462.23,210.249z"/>
		<path d="M96.924,129.885c-4.456-2.812-10.366-1.473-13.187,2.983L2.647,261.36c-2.821,4.476-1.482,10.376,2.983,13.196
			c1.587,0.995,3.347,1.473,5.097,1.473c3.174,0,6.273-1.578,8.099-4.456l81.09-128.491
			C102.719,138.606,101.39,132.706,96.924,129.885z"/>
		<path d="M87.381,61.542L6.3,190.043c-2.821,4.466-1.482,10.366,2.983,13.187c1.587,0.995,3.347,1.473,5.097,1.473
			c3.174,0,6.273-1.578,8.099-4.466l81.081-128.5c2.821-4.466,1.482-10.366-2.983-13.187C96.121,55.747,90.211,57.086,87.381,61.542
			z"/>
		<path d="M384.947,339.294c-4.446-2.812-10.366-1.463-13.187,2.983l-81.09,128.491c-2.821,4.476-1.482,10.375,2.983,13.196
			c1.577,0.995,3.347,1.473,5.097,1.473c3.175,0,6.272-1.578,8.1-4.456l81.09-128.491
			C390.752,348.015,389.413,342.116,384.947,339.294z"/>
		<path d="M388.6,267.967c-4.446-2.811-10.365-1.481-13.187,2.984l-81.08,128.5c-2.821,4.466-1.482,10.366,2.983,13.188
			c1.578,0.994,3.347,1.473,5.097,1.473c3.175,0,6.273-1.578,8.1-4.466l81.08-128.501
			C394.414,276.689,393.065,270.789,388.6,267.967z"/>
	</g>
</g>
<g>
</g>
<g>
</g>
<g>
</g>
<g>
</g>
<g>
</g>
<g>
</g>
<g>
</g>
<g>
</g>
<g>
</g>
<g>
</g>
<g>
</g>
<g>
</g>
<g>
</g>
<g>
</g>
<g>
</g>
</svg>
