<?xml version="1.0" encoding="iso-8859-1"?>
<!-- Generator: Adobe Illustrator 16.0.0, SVG Export Plug-In . SVG Version: 6.00 Build 0)  -->
<!DOCTYPE svg PUBLIC "-//W3C//DTD SVG 1.1//EN" "http://www.w3.org/Graphics/SVG/1.1/DTD/svg11.dtd">
<svg version="1.1" id="Capa_1" xmlns="http://www.w3.org/2000/svg" xmlns:xlink="http://www.w3.org/1999/xlink" x="0px" y="0px"
	 width="587.425px" height="587.425px" viewBox="0 0 587.425 587.425" style="enable-background:new 0 0 587.425 587.425;"
	 xml:space="preserve">
<g>
	<g>
		<circle cx="249.083" cy="136.376" r="38.068"/>
		<path d="M585.75,400.559c-2.276-3.672-6.579-5.775-11.8-5.775H443.097c0.43-0.679,0.976-1.263,1.329-2.008
			c4.504-9.562,0.392-20.952-9.161-25.446l-68.735-32.35l8.453-68.238c0.029-0.21-0.009-0.401,0.01-0.603
			c0.076-0.727,0.076-1.443,0.058-2.18c-0.01-0.574-0.02-1.139-0.086-1.702c-0.067-0.612-0.201-1.225-0.325-1.836
			c-0.144-0.66-0.287-1.311-0.497-1.941c-0.077-0.22-0.096-0.44-0.173-0.65c-0.095-0.268-0.248-0.487-0.363-0.746l0.325-0.058
			l-32.646-53.693l41.205-0.402c3.682-0.038,7.277-1.138,10.347-3.165l59.766-39.445c8.816-5.824,11.245-17.681,5.422-26.498
			c-5.795-8.807-17.69-11.246-26.498-5.432l-55.061,36.337l-77.839,0.746c-0.21,0-0.411,0.057-0.621,0.067
			c-0.688,0.028-1.367,0.124-2.056,0.229c-0.584,0.086-1.147,0.163-1.712,0.296c-0.612,0.153-1.195,0.363-1.788,0.574
			c-0.602,0.21-1.205,0.42-1.769,0.688c-0.516,0.239-1.004,0.545-1.501,0.832c-0.603,0.354-1.195,0.708-1.76,1.128
			c-0.172,0.124-0.354,0.201-0.526,0.334l-55.606,44.265l-51.265-16.084c-10.06-3.165-20.827,2.429-23.973,12.527
			c-3.165,10.079,2.448,20.808,12.527,23.973l60.961,19.125c1.875,0.593,3.806,0.879,5.728,0.879c4.265,0,8.482-1.434,11.915-4.159
			l32.627-25.972l25.044,38.498l-50.671,18.504c-7.545,2.754-12.575,9.936-12.575,17.968v95.625H116.7
			c-46.818,0-81.989-18.092-98.8-28.879c-5.843-3.768-12.221-3.442-15.548,0.536c-1.435,1.711-2.974,4.81-2.094,9.878
			c10.012,57.91,107.243,66.555,164.312,66.555c20.023,0,33.526-1.062,33.708-1.09h274.042c5.25,0,11.647,4.36,14.238,9.716
			c15.903,32.732,39.905,37.628,52.795,37.628h0.028c2.859,0,8.817,0,10.021-4.849c1.234-4.963-4.398-7.946-7.43-9.553
			c-9.792-5.163-12.977-16.371-13.933-24.853c-0.258-2.305,0.804-4.026,1.74-5.078c1.692-1.884,4.246-3.012,6.838-3.012h18.599
			c9.189,0,19.612-6.436,23.705-14.659l6.713-13.416C587.987,409.021,588.017,404.24,585.75,400.559z M279.884,312.536l53.301-19.46
			l-6.312,50.949c-1.014,8.205,3.356,16.142,10.834,19.66l66.087,31.098H279.884V312.536z"/>
	</g>
</g>
<g>
</g>
<g>
</g>
<g>
</g>
<g>
</g>
<g>
</g>
<g>
</g>
<g>
</g>
<g>
</g>
<g>
</g>
<g>
</g>
<g>
</g>
<g>
</g>
<g>
</g>
<g>
</g>
<g>
</g>
</svg>
