<?xml version="1.0" encoding="iso-8859-1"?>
<!-- Generator: Adobe Illustrator 16.0.0, SVG Export Plug-In . SVG Version: 6.00 Build 0)  -->
<!DOCTYPE svg PUBLIC "-//W3C//DTD SVG 1.1//EN" "http://www.w3.org/Graphics/SVG/1.1/DTD/svg11.dtd">
<svg version="1.1" id="Capa_1" xmlns="http://www.w3.org/2000/svg" xmlns:xlink="http://www.w3.org/1999/xlink" x="0px" y="0px"
	 width="568.326px" height="568.326px" viewBox="0 0 568.326 568.326" style="enable-background:new 0 0 568.326 568.326;"
	 xml:space="preserve">
<g>
	<g>
		<path d="M12.832,355.709c16.648,4.953,46.722,10.863,95.481,10.863h0.019c58.332,0,127.927-8.473,206.846-25.188
			c56.056-11.877,99.604-23.036,133.493-33.163c7.755,10.175,23.466,26.612,46.378,30.456c10.413,1.75,17.317-8.242,15.97-18.713
			c-1.263-9.726-2.286-21.745-1.741-32.484c25.829-10.347,40.096-18.762,47.89-24.633c8.893-6.684,12.23-17.671,10.863-24.595
			l-2.554-13.034c-1.349-6.933-8.597-15.835-19.354-18.685c-12.059-3.185-29.127-4.781-50.738-4.781
			c-48.215,0-116.51,7.937-202.983,23.581C106.525,258.975,30.943,307.208,7.075,326.381c-5.431,4.36-7.975,10.557-6.789,16.571
			C1.472,348.958,6.157,353.73,12.832,355.709z"/>
	</g>
</g>
<g>
</g>
<g>
</g>
<g>
</g>
<g>
</g>
<g>
</g>
<g>
</g>
<g>
</g>
<g>
</g>
<g>
</g>
<g>
</g>
<g>
</g>
<g>
</g>
<g>
</g>
<g>
</g>
<g>
</g>
</svg>
