<?xml version="1.0" encoding="iso-8859-1"?>
<!-- Generator: Adobe Illustrator 16.0.0, SVG Export Plug-In . SVG Version: 6.00 Build 0)  -->
<!DOCTYPE svg PUBLIC "-//W3C//DTD SVG 1.1//EN" "http://www.w3.org/Graphics/SVG/1.1/DTD/svg11.dtd">
<svg version="1.1" id="Capa_1" xmlns="http://www.w3.org/2000/svg" xmlns:xlink="http://www.w3.org/1999/xlink" x="0px" y="0px"
	 width="462.171px" height="462.172px" viewBox="0 0 462.171 462.172" style="enable-background:new 0 0 462.171 462.172;"
	 xml:space="preserve">
<g>
	<g>
		<path d="M123.468,454.6c0.708,4.839,5.202,8.186,10.041,7.478c0.287-0.048,7.21-1.09,18.111-2.82l-2.458-17.566l-1.062-7.583
			l-2.448-17.566c-11.016,1.778-18.102,2.85-18.398,2.906c-4.37,0.66-7.525,4.438-7.525,8.75c0,0.421,0.019,0.852,0.105,1.281
			L123.468,454.6z"/>
		<path d="M165.562,431.286l-2.544-17.528c-3.48,0.574-6.77,1.109-9.878,1.606l2.448,17.548l1.061,7.592l2.467,17.557
			c3.146-0.507,6.521-1.042,10.079-1.615l-2.553-17.566L165.562,431.286z"/>
		<path d="M209.75,431.602l2.525,17.566c32.646-5.728,74.319-15.884,89.916-20.693c42.83-13.196,55.529-50.968,56.036-52.574
			c0,0,45.891-146.593,51.236-165.594c5.354-19.02,16.533-60.779,16.533-60.779c0.765-2.486,2.037-8.95,3.49-18.532
			c2.62-17.328,0.946-27.875-0.746-43.06L418.26,7.668c-0.325-2.333-1.559-4.447-3.423-5.872c-1.884-1.415-4.256-2.037-6.589-1.712
			l-25.58,3.586c-4.829,0.679-8.194,5.135-7.544,9.974l11.762,86.866c3.509,23.399-1.167,39.024-1.167,39.024l-0.162,0.612
			l-5.776,21.573c-0.439,0.669-62.356,200.353-62.51,200.821c-0.373,1.023-6.914,18.331-27.77,24.767
			c-13.454,4.141-52.508,13.771-83.395,19.173l2.543,17.528L209.75,431.602z"/>
		<path d="M200.723,400.695v-18.656c8.817-4.628,15.491-12.775,18.159-22.558c1.377-5.097-1.587-9.448-5.078-9.448
			s-6.149,4.456-8.252,9.305c-3.615,8.348-11.934,14.2-21.583,14.2s-17.968-5.853-21.583-14.2c-2.104-4.849-4.762-9.305-8.252-9.305
			c-3.5,0-6.474,4.352-5.087,9.448c2.658,9.782,9.343,17.93,18.159,22.558v23.515v1.988l33.526-5.106v-1.74H200.723z"/>
		<path d="M31.687,249.341c2.458,37.81,15.644,63.724,48.759,66.392c28.362,2.286,57.442-4.063,72.235-30.819
			c2.85-5.154,5.737-13.254,8.1-20.033c0,0,5.145-18.848,20.158-18.848c15.003,0,19.421,18.848,19.421,18.848
			c2.353,6.779,5.25,14.879,8.1,20.033c14.783,26.756,43.872,33.105,72.235,30.819c33.114-2.668,46.301-28.582,48.759-66.392h0.851
			c-0.43-44.398-21.544-61.707-49.198-68.965c-27.923-7.344-100.129-7.114-100.129-7.114s-72.197-0.22-100.119,7.114
			c-25.867,6.79-46.015,22.386-48.845,60.722h-0.688c0.067,2.726,0.191,5.394,0.354,8.014c0,0.086-0.009,0.152-0.009,0.229H31.687z"
			/>
	</g>
</g>
<g>
</g>
<g>
</g>
<g>
</g>
<g>
</g>
<g>
</g>
<g>
</g>
<g>
</g>
<g>
</g>
<g>
</g>
<g>
</g>
<g>
</g>
<g>
</g>
<g>
</g>
<g>
</g>
<g>
</g>
</svg>
