<?xml version="1.0" encoding="iso-8859-1"?>
<!-- Generator: Adobe Illustrator 16.0.0, SVG Export Plug-In . SVG Version: 6.00 Build 0)  -->
<!DOCTYPE svg PUBLIC "-//W3C//DTD SVG 1.1//EN" "http://www.w3.org/Graphics/SVG/1.1/DTD/svg11.dtd">
<svg version="1.1" id="Capa_1" xmlns="http://www.w3.org/2000/svg" xmlns:xlink="http://www.w3.org/1999/xlink" x="0px" y="0px"
	 width="554.682px" height="554.682px" viewBox="0 0 554.682 554.682" style="enable-background:new 0 0 554.682 554.682;"
	 xml:space="preserve">
<g>
	<g>
		<path d="M71.221,396.757c3.107-2.6,9.476-2.982,12.89-0.773l50.71,32.885c13.11,8.521,32.398,7.822,44.848-1.568l40.937-30.828
			c3.404-2.592,10.585-2.898,14.219-0.594l52.708,33.277c12.804,8.08,32.053,7.965,44.781-0.277l50.7-32.904
			c3.825-2.467,11.522-2.43,15.31,0.076l49.505,32.637c13.024,8.615,32.34,8.109,44.887-1.166l56.504-41.77
			c5.986-4.428,7.239-12.871,2.821-18.848c-4.418-5.996-12.861-7.258-18.848-2.82l-56.505,41.76
			c-3.385,2.504-10.471,2.715-14.009,0.363l-49.515-32.646c-12.737-8.416-32.025-8.512-44.819-0.191l-50.71,32.904
			c-3.893,2.506-11.81,2.562-15.74,0.096l-52.698-33.277c-13.148-8.281-32.417-7.488-44.838,1.855l-40.928,30.828
			c-3.385,2.562-10.414,2.803-13.971,0.488l-50.701-32.885c-13.33-8.674-32.618-7.518-44.829,2.678L4.848,416.991
			c-5.718,4.764-6.483,13.254-1.731,18.973c2.678,3.193,6.512,4.848,10.366,4.848c3.041,0,6.11-1.033,8.616-3.127L71.221,396.757z"
			/>
		<path d="M193.363,280.507v27.09h41.759c10.557,0,16.41-6.062,16.41-13.54c0-7.487-5.843-13.55-16.41-13.55H193.363z"/>
		<path d="M157.981,129.438c-2.744,38.145-9.065,125.422-13.101,145.465c-0.229,1.176-5.67,29.194-4.647,56.639l1.607,43.49
			l14.181,9.199l31.642-23.83V129.496c0-10.567-6.35-15.625-14.171-15.625C165.67,113.87,158.737,118.91,157.981,129.438z"/>
		<path d="M114.071,307.597h18.484c1.023-10.777,2.419-23.523,3.185-27.912l-57.528-1.463l-1.128-0.01
			c-13.417,0-23.534,10.031-23.534,17.977c0,13.589,4.351,19.23,9.85,26.373c1.071,1.396,2.209,2.859,3.375,4.496l13.167,18.293
			c10.509-0.297,21.076,2.18,29.644,7.744l22.931,14.881l-1.052-28.42c-0.058-1.551-0.096-3.109-0.115-4.658
			c-4.934-4.914-11.542-11.006-20.368-18.58c-4.217-3.613-4.829-5.938-4.562-6.654C106.679,308.945,108.62,307.597,114.071,307.597z
			"/>
		<path d="M546.467,294.057c0-7.487-5.842-13.55-16.409-13.55h-41.759v27.09h41.759
			C540.615,307.597,546.467,301.534,546.467,294.057z"/>
		<path d="M452.917,129.438c-2.744,38.145-9.065,125.422-13.101,145.465c-0.229,1.176-5.67,29.194-4.647,56.639l1.606,43.49
			l14.182,9.199l31.643-23.83V129.496c0-10.567-6.35-15.625-14.172-15.625S453.673,118.91,452.917,129.438z"/>
		<path d="M409.006,307.597h18.484c1.023-10.777,2.41-23.523,3.185-27.912l-57.528-1.463l-1.138-0.01
			c-13.416,0-23.533,10.031-23.533,17.977c0,13.589,4.351,19.23,9.85,26.373c1.071,1.396,2.209,2.859,3.375,4.496l13.178,18.293
			c10.509-0.297,21.075,2.18,29.644,7.744l22.931,14.881l-1.052-28.42c-0.058-1.551-0.096-3.109-0.114-4.658
			c-4.935-4.914-11.542-11.006-20.368-18.58c-4.218-3.613-4.829-5.938-4.562-6.654C401.614,308.945,403.556,307.597,409.006,307.597
			z"/>
	</g>
</g>
<g>
</g>
<g>
</g>
<g>
</g>
<g>
</g>
<g>
</g>
<g>
</g>
<g>
</g>
<g>
</g>
<g>
</g>
<g>
</g>
<g>
</g>
<g>
</g>
<g>
</g>
<g>
</g>
<g>
</g>
</svg>
