<?xml version="1.0" encoding="iso-8859-1"?>
<!-- Generator: Adobe Illustrator 16.0.0, SVG Export Plug-In . SVG Version: 6.00 Build 0)  -->
<!DOCTYPE svg PUBLIC "-//W3C//DTD SVG 1.1//EN" "http://www.w3.org/Graphics/SVG/1.1/DTD/svg11.dtd">
<svg version="1.1" id="Capa_1" xmlns="http://www.w3.org/2000/svg" xmlns:xlink="http://www.w3.org/1999/xlink" x="0px" y="0px"
	 width="554.684px" height="554.684px" viewBox="0 0 554.684 554.684" style="enable-background:new 0 0 554.684 554.684;"
	 xml:space="preserve">
<g>
	<g>
		<circle cx="153.516" cy="195.406" r="44.618"/>
		<circle cx="434.5" cy="215.134" r="44.628"/>
		<path d="M196.03,336.003c8.1-6.1,18.513-9.428,29.099-10.068l6.751-35.707c1.97-10.375-4.858-20.416-15.224-22.405
			l-111.527-21.449c-10.375-1.989-17.165-12.02-15.166-22.396l11.532-69.213c1.999-10.375-4.934-18.78-15.501-18.78h-0.21
			c-10.557,0-20.779,8.405-22.835,18.761L45.44,252.962c-1.989,10.375,4.819,20.254,15.204,22.186c0,0,3.509,0.669,7.832,1.501
			c4.322,0.842,7.019,5.719,6.015,10.911l-7.631,39.713c13.655-2.916,28.592-0.822,40.019,6.59l49.419,32.053l15.769-11.877
			c0,0,12.25-48.215,15.271-47.621c3.021,0.574-1.989,37.629-1.989,37.629L196.03,336.003z"/>
		<path d="M470.952,363.753l36.902-27.271l5.02-26.535c1.951-10.377-4.867-20.416-15.242-22.406l-111.518-21.448
			c-10.366-1.989-17.165-12.02-15.166-22.395l15.356-90.892c1.961-10.375-5.011-18.791-15.577-18.791h-0.354
			c-10.557,0-20.741,8.406-22.739,18.781l-21.22,119.885c-1.998,10.366,4.829,20.254,15.214,22.186l15.663,3.012l-8.128,42.209
			l12.986-8.426c16.954-11.053,43.557-10.939,60.512,0.24l34.109,22.49c0,0,8.443-29.854,11.465-29.262
			c3.022,0.574-1.405,35.908-1.405,35.908L470.952,363.753z"/>
		<path d="M13.501,420.669c3.041,0,6.11-1.031,8.616-3.127l49.094-40.936c3.108-2.602,9.477-2.975,12.891-0.775l50.71,32.885
			c13.11,8.521,32.397,7.822,44.857-1.568l40.937-30.828c3.414-2.592,10.586-2.898,14.22-0.594l52.698,33.287
			c12.813,8.08,32.054,7.967,44.791-0.277l50.71-32.904c3.825-2.467,11.522-2.428,15.3,0.076l49.515,32.637
			c13.015,8.617,32.331,8.109,44.877-1.166l56.515-41.77c5.977-4.428,7.229-12.871,2.82-18.848
			c-4.428-5.996-12.871-7.258-18.848-2.82l-56.515,41.76c-3.375,2.506-10.461,2.715-14.009,0.363l-49.515-32.646
			c-12.737-8.416-32.015-8.512-44.8-0.191l-50.71,32.904c-3.902,2.506-11.819,2.562-15.75,0.096l-52.698-33.287
			c-13.148-8.281-32.417-7.488-44.848,1.855l-40.928,30.83c-3.385,2.562-10.413,2.801-13.971,0.486l-50.7-32.875
			c-13.34-8.674-32.618-7.516-44.829,2.678L4.847,396.849c-5.718,4.764-6.483,13.254-1.73,18.973
			C5.823,419.015,9.648,420.669,13.501,420.669z"/>
	</g>
</g>
<g>
</g>
<g>
</g>
<g>
</g>
<g>
</g>
<g>
</g>
<g>
</g>
<g>
</g>
<g>
</g>
<g>
</g>
<g>
</g>
<g>
</g>
<g>
</g>
<g>
</g>
<g>
</g>
<g>
</g>
</svg>
