<?xml version="1.0" encoding="iso-8859-1"?>
<!-- Generator: Adobe Illustrator 16.0.0, SVG Export Plug-In . SVG Version: 6.00 Build 0)  -->
<!DOCTYPE svg PUBLIC "-//W3C//DTD SVG 1.1//EN" "http://www.w3.org/Graphics/SVG/1.1/DTD/svg11.dtd">
<svg version="1.1" id="Capa_1" xmlns="http://www.w3.org/2000/svg" xmlns:xlink="http://www.w3.org/1999/xlink" x="0px" y="0px"
	 width="544.817px" height="544.817px" viewBox="0 0 544.817 544.817" style="enable-background:new 0 0 544.817 544.817;"
	 xml:space="preserve">
<g>
	<g>
		<path d="M470.563,237.64c2.151-31.365-2.448-54.392-2.448-54.392C439.226,36.895,338.189,7.136,293.695,1.169
			c-11.705-1.559-30.906-1.559-42.611,0c-44.494,5.977-145.503,35.745-174.391,182.08c0,0-4.609,23.017-2.448,54.392
			c0.823,11.771-8.329,22.567-15.396,32.024c-4.246,5.69-7.42,14.334-6.799,27.455c1.042,21.841,6.216,38.9,13.206,50.413
			c6.12,10.099,15.578,24.566,17.576,36.214c1.884,11.006,4.953,24.422,9.753,35.391c4.743,10.815,18.437,20.071,26.584,19.957
			c8.147-0.125,18.484,6.043,24.365,16.275c10.557,18.407,30.103,48.443,61.104,82.074c8.004,8.674,22.548,9.793,32.092,2.841
			l2.811-2.037c9.544-6.952,11.131-19.909,4.17-29.434c-17.614-24.088-47.708-70.763-56.543-119.091
			c-4.915-26.852-7.545-44.476-8.941-56.018c-1.416-11.724,8.147-19.564,19.823-17.854c19.556,2.869,49.295,6.417,74.359,5.891
			c25.072,0.526,54.812-3.021,74.367-5.891c11.676-1.711,21.238,6.14,19.823,17.854c-1.396,11.542-4.035,29.176-8.95,56.018
			c-8.836,48.328-38.93,95.003-56.543,119.091c-6.972,9.524-5.374,22.491,4.159,29.434l2.812,2.037
			c9.543,6.952,24.098,5.833,32.092-2.841c31.011-33.621,50.547-63.657,61.114-82.074c5.881-10.223,16.208-16.4,24.365-16.275
			c8.166,0.114,21.841-9.133,26.583-19.947c4.801-10.979,7.86-24.404,9.764-35.42c1.989-11.638,11.446-26.096,17.566-36.194
			c6.99-11.513,12.154-28.572,13.206-50.413c0.621-13.12-2.554-21.765-6.799-27.455C478.891,260.208,469.741,249.412,470.563,237.64
			z M141.325,217.731c-3.777,18.991-15.912,32.589-27.148,30.361s-17.279-19.421-13.512-38.422
			c3.768-18.991,15.912-32.589,27.148-30.361S145.093,198.74,141.325,217.731z M141.717,121.264c0,0,43.021-74.903,130.682-74.903
			c87.659,0,132.288,74.903,132.288,74.903S270.811,90.98,141.717,121.264z M433.814,248.092
			c-11.236,2.228-23.371-11.37-27.148-30.361c-3.758-18.991,2.276-36.194,13.513-38.422c11.235-2.228,23.37,11.36,27.147,30.361
			C451.083,228.661,445.05,245.864,433.814,248.092z"/>
	</g>
</g>
<g>
</g>
<g>
</g>
<g>
</g>
<g>
</g>
<g>
</g>
<g>
</g>
<g>
</g>
<g>
</g>
<g>
</g>
<g>
</g>
<g>
</g>
<g>
</g>
<g>
</g>
<g>
</g>
<g>
</g>
</svg>
