<?xml version="1.0" encoding="iso-8859-1"?>
<!-- Generator: Adobe Illustrator 16.0.0, SVG Export Plug-In . SVG Version: 6.00 Build 0)  -->
<!DOCTYPE svg PUBLIC "-//W3C//DTD SVG 1.1//EN" "http://www.w3.org/Graphics/SVG/1.1/DTD/svg11.dtd">
<svg version="1.1" id="Capa_1" xmlns="http://www.w3.org/2000/svg" xmlns:xlink="http://www.w3.org/1999/xlink" x="0px" y="0px"
	 width="497.003px" height="497.003px" viewBox="0 0 497.003 497.003" style="enable-background:new 0 0 497.003 497.003;"
	 xml:space="preserve">
<g>
	<g>
		<path d="M281.476,363.193l0.325,3.012c8.616-7.258,11.705-18.025,12.26-20.225l0.038-2.831
			c-5.308-6.139-10.194-12.642-14.621-19.479C280.185,343.083,280.357,347.348,281.476,363.193z"/>
		<path d="M202.958,345.99c0.555,2.189,3.625,12.976,12.269,20.225l0.344-3.194c0.803-11.006,1.54-27.186,2.075-40.669
			c-4.446,6.818-9.371,13.34-14.726,19.498L202.958,345.99z"/>
		<path d="M267.457,364.359c-1.205-16.974-1.348-20.923-2.132-42.859l-0.431-11.8c-10.528,4.37-22.281,4.542-32.704,0.497
			c-0.89,24.423-1.76,42.562-2.611,54.019l-0.641,6.102c-0.995,8.28-2.228,18.483,2.467,23.771
			c2.974,3.356,8.883,5.126,17.117,5.126c8.205,0,14.124-1.77,17.088-5.116c4.695-5.298,3.472-15.472,2.486-23.667L267.457,364.359z
			"/>
		<path d="M486.486,331.513c-0.746-0.086-75.821-7.985-116.777-22.511c-43.433-15.386-47.306-51.943-45.823-82.065l0.2-3.834
			c1.588-31.48,3.586-70.648-17.002-100.397c-20.903-30.179-58.13-28.735-58.742-28.707c-0.363-0.029-37.609-1.473-58.513,28.707
			c-20.569,29.749-18.589,68.907-16.992,100.368l0.182,3.863c1.492,30.122-2.372,66.68-45.814,82.065
			c-40.966,14.535-116.022,22.434-116.978,22.52c-2.18,0.02-8.673,0.794-9.983,3.787c-0.88,1.999,0.65,5.374,4.332,9.505
			c15.348,17.271,52.106,54.048,52.603,54.545c0.191,0.21,4.676,5.25,14.038,3.155l2.438-0.497
			c69.577-13.885,121.673-50.872,147.186-104.279c-7.86-6.799-13.971-16.16-18.762-25.81h36.854v25.274h19.125v-25.274h36.901
			c-5.26,10.07-11.704,19.03-19.374,25.523c39.437,85.097,130.261,102.156,148.181,104.709c11.973,1.712,16.247-3.203,16.572-3.576
			c0.354-0.354,35.859-36.185,52.01-53.799c3.701-4.035,5.27-7.354,4.438-9.343C495.514,332.421,488.896,331.579,486.486,331.513z
			 M295.112,135.614h-37.046v-21.152c8.54,1.434,21.334,5.364,32.542,16.189C292.205,132.201,293.688,133.884,295.112,135.614z
			 M312.688,196.308c0.01,0.45,0.182,7.143-0.918,17.423h-53.703v-19.938h54.555C312.631,194.653,312.688,195.447,312.688,196.308z
			 M258.066,174.677V154.74h47.976c2.333,6.062,4.093,12.68,5.183,19.938H258.066z M238.942,174.677h-53.139
			c1.09-7.258,2.85-13.875,5.173-19.938h47.956v19.938H238.942z M248.504,113.659c0.182-0.009,0.755-0.019,1.606,0H248.504h-1.597
			C247.749,113.64,248.323,113.649,248.504,113.659z M238.942,114.462v21.152h-37.026c1.425-1.73,2.907-3.414,4.504-4.953
			C217.608,119.827,230.402,115.896,238.942,114.462z M184.34,196.394c-0.009-0.889,0.058-1.721,0.067-2.591h54.535v19.938h-52.938
			v4.437C184.206,205.334,184.321,196.853,184.34,196.394z M194.189,252.803c-1.989-5.91-3.529-11.37-4.571-15.644
			c-0.364-1.482-0.631-2.869-0.947-4.293h50.27v19.938H194.189z M258.066,252.803v-19.938h50.596
			c-0.354,1.635-0.67,3.232-1.081,4.934c-1.224,5.001-2.734,10.031-4.456,15.003H258.066z"/>
	</g>
</g>
<g>
</g>
<g>
</g>
<g>
</g>
<g>
</g>
<g>
</g>
<g>
</g>
<g>
</g>
<g>
</g>
<g>
</g>
<g>
</g>
<g>
</g>
<g>
</g>
<g>
</g>
<g>
</g>
<g>
</g>
</svg>
