<?xml version="1.0" encoding="iso-8859-1"?>
<!-- Generator: Adobe Illustrator 16.0.0, SVG Export Plug-In . SVG Version: 6.00 Build 0)  -->
<!DOCTYPE svg PUBLIC "-//W3C//DTD SVG 1.1//EN" "http://www.w3.org/Graphics/SVG/1.1/DTD/svg11.dtd">
<svg version="1.1" id="Capa_1" xmlns="http://www.w3.org/2000/svg" xmlns:xlink="http://www.w3.org/1999/xlink" x="0px" y="0px"
	 width="534.812px" height="534.812px" viewBox="0 0 534.812 534.812" style="enable-background:new 0 0 534.812 534.812;"
	 xml:space="preserve">
<g>
	<g>
		<path d="M442.723,534.802c11.284,0,22.415-5.23,29.539-15.08c11.762-16.285,8.109-39.034-8.186-50.824L263.082,310.58v-76.375
			l94.545,46.245c3.519,1.702,7.372,2.581,11.293,2.581h51.398c14.362,0,26-11.646,26-26c0-14.363-11.638-26-26-26h-45.46
			L105.932,101.381c-7.067-3.395-15.281-3.433-22.376-0.086c-7.095,3.337-12.297,9.706-14.162,17.327l-12.986,53.015
			c-3.414,13.942,5.116,28.018,19.068,31.441c13.942,3.385,28.018-5.135,31.432-19.077l5.355-21.841l30.925,14.917v166.101
			c-0.498,2.41-0.774,4.896-0.774,7.449v147.779c0,20.101,16.294,36.404,36.395,36.404c20.11,0,36.404-16.295,36.404-36.404V387.022
			h39.025l167.201,140.885C427.874,532.564,435.341,534.802,442.723,534.802z"/>
		<circle cx="248.939" cy="70.122" r="70.122"/>
	</g>
</g>
<g>
</g>
<g>
</g>
<g>
</g>
<g>
</g>
<g>
</g>
<g>
</g>
<g>
</g>
<g>
</g>
<g>
</g>
<g>
</g>
<g>
</g>
<g>
</g>
<g>
</g>
<g>
</g>
<g>
</g>
</svg>
