<?xml version="1.0" encoding="iso-8859-1"?>
<!-- Generator: Adobe Illustrator 16.0.0, SVG Export Plug-In . SVG Version: 6.00 Build 0)  -->
<!DOCTYPE svg PUBLIC "-//W3C//DTD SVG 1.1//EN" "http://www.w3.org/Graphics/SVG/1.1/DTD/svg11.dtd">
<svg version="1.1" id="Capa_1" xmlns="http://www.w3.org/2000/svg" xmlns:xlink="http://www.w3.org/1999/xlink" x="0px" y="0px"
	 width="550.93px" height="550.93px" viewBox="0 0 550.93 550.93" style="enable-background:new 0 0 550.93 550.93;"
	 xml:space="preserve">
<g>
	<g>
		<path d="M160.252,70.129c0,35.506,28.783,64.289,64.289,64.289c5.967,0,11.704-0.88,17.184-2.391
			c-16.294-15.96-32.254-37.552-33.115-61.554c-0.966-26.603,10.844-49.189,21.879-64.336c-1.971-0.172-3.949-0.296-5.958-0.296
			C189.035,5.841,160.252,34.624,160.252,70.129z"/>
		<path d="M285.693,89.589c-2.037,0.182-4.045,0.325-5.968,0.411c1.243,1.702,2.592,3.356,4.055,4.953
			C284.498,93.213,285.109,91.406,285.693,89.589z"/>
		<path d="M269.552,56.58c5.202,0.449,11.121,0.468,17.671,0.048c-1.243-5.786-3.231-11.284-5.929-16.371
			c-1.443,0.076-3.079,0.315-4.456,0.315c-1.759,0-3.404-0.086-5.029-0.191C270.527,45.497,269.695,50.966,269.552,56.58z"/>
		<path d="M288.82,70.129c0-2.17-0.259-4.265-0.479-6.378c-3.414,0.229-6.713,0.392-9.782,0.392c-3.117,0-6.015-0.144-8.808-0.354
			c0.182,1.951,0.469,3.911,0.87,5.872c0.957,4.667,2.602,9.065,4.753,13.263c3.806-0.048,7.812-0.229,12.173-0.679
			C288.304,78.306,288.82,74.28,288.82,70.129z"/>
		<path d="M232.631,41.863c1.712,1.846,4.781,4.552,9.562,7.182c1.109-5.862,2.735-11.351,4.58-16.275
			c-2.916-1.865-5.24-3.835-7.057-5.699C237.077,31.574,234.639,36.527,232.631,41.863z"/>
		<path d="M274.16,110.809c0.708-0.861,1.425-1.702,2.085-2.592c-0.89,0.019-1.836,0.077-2.696,0.077
			c-1.014,0-1.922-0.067-2.907-0.086C271.77,109.097,272.937,109.967,274.16,110.809z"/>
		<path d="M274.858,30.417c-0.334,0.937-0.669,1.874-0.994,2.859c1.052,0.048,2.142,0.067,3.261,0.067
			C276.408,32.329,275.624,31.382,274.858,30.417z"/>
		<path d="M263.575,71.057c-0.555-2.706-0.852-5.403-1.042-8.08c-5.499-0.813-10.309-1.979-14.421-3.395
			c-0.325,5.125-0.124,10.395,0.957,15.654c0.344,1.692,0.803,3.337,1.31,4.973c4.771,1.262,10.385,2.17,16.936,2.553
			C265.679,79.013,264.407,75.131,263.575,71.057z"/>
		<path d="M261.787,17.966c-1.636,2.782-3.758,6.693-5.871,11.503c2.983,1.281,6.483,2.343,10.576,3.031
			c0.908-2.869,1.884-5.594,2.916-8.147C267.037,22.04,264.503,19.917,261.787,17.966z"/>
		<path d="M271.12,90.105c-6.503-0.134-12.288-0.717-17.347-1.683c2.19,4.265,4.963,8.291,8.387,12.049
			c5.145,0.564,10.882,0.813,17.423,0.517C276.303,97.564,273.472,93.94,271.12,90.105z"/>
		<path d="M243.676,20.787c1.377,1.597,3.299,3.414,5.871,5.192c2.229-4.954,4.446-8.979,6.168-11.867
			c-1.674-0.927-3.299-1.913-5.059-2.697C248.438,14.103,246.047,17.287,243.676,20.787z"/>
		<path d="M260.506,123.412c3.155-2.132,6.033-4.619,8.749-7.268c-3.854-2.744-7.306-5.68-10.385-8.778
			c-6.789-0.898-12.469-2.4-17.25-4.179C247.28,110.703,253.965,117.579,260.506,123.412z"/>
		<path d="M227.773,68.064c2.305,2.448,6.789,6.273,14.487,9.458c-0.067-0.296-0.173-0.593-0.229-0.89
			c-1.387-6.789-1.53-13.521-0.928-19.966c-4.791-2.333-8.357-4.867-10.911-7.124C228.624,55.413,227.716,61.6,227.773,68.064z"/>
		<path d="M229.083,78.63c1.081,4.313,2.745,8.549,4.887,12.661c4.007,2.658,9.706,5.441,17.614,7.373
			c-2.754-3.94-4.973-8.109-6.665-12.498C238.091,84.033,232.898,81.308,229.083,78.63z"/>
		<path d="M248.954,52.124c3.768,1.425,8.195,2.687,13.436,3.557c0.172-5.632,0.976-11.064,2.189-16.189
			c-4.322-0.774-8.08-1.941-11.331-3.337C251.469,41.031,249.91,46.415,248.954,52.124z"/>
		<path d="M535.312,28.408l-111.317,91.398c-12.833-6.541-30.398-8.989-51.188,1.855c-13.426,6.981-21.478,16.543-23.936,28.43
			c-1.252,6.072-0.707,11.915,0.555,17.26l-47.038,31.661l-21.343-35.563c-4.322-7.191-12.106-11.599-20.502-11.599h-83.452
			c-2.945,0-5.862,0.545-8.606,1.606l-61.602,23.763l12.556-104.231c1.578-13.11-7.765-25.016-20.875-26.593
			c-13.177-1.53-25.016,7.765-26.593,20.884L54.663,210.985c-1.004,8.329,2.429,16.572,9.056,21.726
			c6.627,5.145,15.462,6.474,23.285,3.423l69.013-26.631l-34.282,116.375l0.488-0.018L4.881,500.394
			c-8.836,13.148-5.346,30.973,7.803,39.809c4.915,3.309,10.471,4.887,15.979,4.887c9.228,0,18.303-4.445,23.839-12.68
			L175.495,349.47h44.026l51.838,53.357l-43.652,94.201c-6.665,14.383-0.411,31.432,13.962,38.088
			c14.382,6.674,31.432,0.41,38.087-13.961l51.943-112.102c5.001-10.787,2.83-23.533-5.45-32.064l-69.128-71.154l13.779-66.382
			l3.452,5.757c3.376,5.623,8.912,9.61,15.301,11.025c1.721,0.383,3.461,0.574,5.192,0.574c4.714,0,9.371-1.396,13.349-4.074
			l90.041-60.607c10.633-7.163,13.598-21.353,7.019-32.188l19.546-16.046c1.587,1.664,2.61,3.031,2.974,3.567
			c2.936,4.341,8.855,5.508,13.234,2.591c4.39-2.936,5.575-8.874,2.63-13.263c-1.08-1.616-2.429-3.347-4.007-5.078l107.808-88.52
			c4.083-3.347,4.667-9.371,1.32-13.454C545.43,25.664,539.415,25.052,535.312,28.408z M388.738,148.752
			c-5.805-0.956-11.943,0.172-17.193,3.701l-4.063,2.735c0.057-0.43,0.038-0.87,0.134-1.301c1.252-5.938,5.967-11.073,14.028-15.271
			c9.964-5.192,18.341-5.948,25.149-4.686L388.738,148.752z"/>
	</g>
</g>
<g>
</g>
<g>
</g>
<g>
</g>
<g>
</g>
<g>
</g>
<g>
</g>
<g>
</g>
<g>
</g>
<g>
</g>
<g>
</g>
<g>
</g>
<g>
</g>
<g>
</g>
<g>
</g>
<g>
</g>
</svg>
