<?xml version="1.0" encoding="iso-8859-1"?>
<!-- Generator: Adobe Illustrator 16.0.0, SVG Export Plug-In . SVG Version: 6.00 Build 0)  -->
<!DOCTYPE svg PUBLIC "-//W3C//DTD SVG 1.1//EN" "http://www.w3.org/Graphics/SVG/1.1/DTD/svg11.dtd">
<svg version="1.1" id="Capa_1" xmlns="http://www.w3.org/2000/svg" xmlns:xlink="http://www.w3.org/1999/xlink" x="0px" y="0px"
	 width="505.679px" height="505.679px" viewBox="0 0 505.679 505.679" style="enable-background:new 0 0 505.679 505.679;"
	 xml:space="preserve">
<g>
	<g>
		<path d="M381.356,353.626c-2.533-2.783-6.129-3.987-9.61-3.644c-8.501-6.312-25.044-19.488-41.635-37.733
			c-9.706-10.662-18.131-21.64-25.063-32.618c-1.683-3.471-16.476-34.922-33.842-100.941c-18.723-71.202-33.526-102.108-66-137.806
			C183.193,16.682,152.612,1.438,123.389,0.1C97.083-1.086,72.871,8.295,51.451,27.917C30.968,46.401,19.436,70.355,18.106,97.169
			c-1.492,30.141,10.404,62.96,31.05,85.642c32.464,35.707,61.831,53.368,130.949,78.729c67.741,24.882,97.299,43.232,97.385,43.271
			c0.144,0.096,14.735,10.021,32.445,29.49c11.981,13.168,22.462,27.598,31.441,42.859c-0.86,3.566,0,7.478,2.658,10.395
			l98.207,107.97c10.614,11.686,27.636,13.56,37.915,4.198c10.29-9.352,10.013-26.469-0.603-38.145L381.356,353.626z
			 M254.615,183.06c0.488,1.894,0.976,3.634,1.463,5.47c-3.088,4.915-10.853,16.046-24.709,29.185l-29.797-32.761l37.476-34.091
			l9.61,10.566C250.618,168.199,252.588,175.352,254.615,183.06z M126.468,102.381L99.512,72.736l37.476-34.08L163.944,68.3
			L126.468,102.381z M171.661,76.753l27.598,30.352l-37.466,34.09l-27.617-30.351L171.661,76.753z M118.015,110.068l-31.547,28.697
			l-26.947-29.644l31.537-28.688L118.015,110.068z M125.704,118.551l27.607,30.342l-31.537,28.688l-27.607-30.352L125.704,118.551z
			 M161.018,157.365l24.384,26.822l-31.527,28.678l-24.394-26.812L161.018,157.365z M169.48,149.667l37.476-34.09l24.394,26.812
			l-37.476,34.091L169.48,149.667z M240.147,134.396l-0.335,0.287l-24.394-26.813l9.878-8.988
			C230.633,109.304,235.462,120.874,240.147,134.396z M219.626,88.582L207.73,99.397l-27.616-30.342l15.022-13.675
			C204.747,66.225,212.684,76.82,219.626,88.582z M152.737,24.341c12.402,5.126,24.241,12.909,34.482,22.787l-14.803,13.474
			l-26.957-29.644L152.737,24.341z M140.392,20.076l-2.64,2.41l-3.366-3.711C136.375,19.158,138.383,19.56,140.392,20.076z
			 M117.566,17.293l11.733,12.9L91.823,64.265L67.152,37.146C82.615,24.312,99.531,17.638,117.566,17.293z M58.699,44.881
			l24.643,27.091l-31.537,28.688L37.107,84.508C40.282,69.591,47.501,56.337,58.699,44.881z M35.28,99.512l8.052,8.854l-7.22,6.57
			C35.414,109.763,35.118,104.599,35.28,99.512z M57.131,165.455c-8.473-10.939-14.832-23.868-18.446-37.39l12.355-11.236
			l26.966,29.645L57.131,165.455z M64.57,174.156l21.133-19.221l27.607,30.352l-18.016,16.381
			C84.231,193.654,74.439,184.742,64.57,174.156z M138.957,226.435c-13.005-5.957-24.088-11.828-33.938-18.13l15.979-14.545
			l24.394,26.813L138.957,226.435z M150.422,231.483l2.678-2.447l5.173,5.699C155.586,233.636,152.957,232.555,150.422,231.483z
			 M186.033,245.436c-0.067-0.02-0.115-0.058-0.191-0.067c0.134,0.039,0.201,0.077,0.22,0.077
			C186.062,245.445,186.043,245.445,186.033,245.436z M185.603,245.273c-1.176-0.431-2.267-0.861-3.423-1.291l-20.598-22.654
			l31.537-28.688l29.749,32.714C198.627,245.923,186.98,245.426,185.603,245.273z M283.781,288.601
			c-7.774-4.522-30.743-17.012-73.039-33.755c8.252-4.515,18.207-11.533,30.007-22.377c9.247-8.511,16.198-16.343,21.248-22.73
			c12.498,42.907,22.634,66.613,26.345,74.703L283.781,288.601z"/>
	</g>
</g>
<g>
</g>
<g>
</g>
<g>
</g>
<g>
</g>
<g>
</g>
<g>
</g>
<g>
</g>
<g>
</g>
<g>
</g>
<g>
</g>
<g>
</g>
<g>
</g>
<g>
</g>
<g>
</g>
<g>
</g>
</svg>
