<?xml version="1.0" encoding="iso-8859-1"?>
<!-- Generator: Adobe Illustrator 16.0.0, SVG Export Plug-In . SVG Version: 6.00 Build 0)  -->
<!DOCTYPE svg PUBLIC "-//W3C//DTD SVG 1.1//EN" "http://www.w3.org/Graphics/SVG/1.1/DTD/svg11.dtd">
<svg version="1.1" id="Capa_1" xmlns="http://www.w3.org/2000/svg" xmlns:xlink="http://www.w3.org/1999/xlink" x="0px" y="0px"
	 width="535.135px" height="535.135px" viewBox="0 0 535.135 535.135" style="enable-background:new 0 0 535.135 535.135;"
	 xml:space="preserve">
<g>
	<path d="M497.1,396.665c4.139,12.65-3.283,22.9-16.613,22.9h-107.42c-13.318,0-24.09-10.79-24.09-24.101v-38.154
		c0-13.31-9.439-29.345-21.076-35.81l-39.195-21.774c-11.627-6.455-30.499-6.455-42.125,0l-39.195,21.774
		c-11.627,6.474-21.067,22.5-21.067,35.81v38.154c0,13.311-10.79,24.101-24.1,24.101H54.798c-13.319,0-20.752-10.25-16.612-22.9
		l53.296-163.022c4.14-12.649,16.668-28.583,27.987-35.587l127.688-79.052c11.312-7.004,29.671-7.004,40.992,0l127.678,79.052
		c11.32,7.004,23.85,22.938,27.979,35.587L497.1,396.665z M0,374.879l9.213,46.485l18.237-3.615l-9.212-46.484L0,374.879z
		 M516.896,371.284l-9.217,46.484l18.236,3.615l9.219-46.484L516.896,371.284z"/>
</g>
<g>
</g>
<g>
</g>
<g>
</g>
<g>
</g>
<g>
</g>
<g>
</g>
<g>
</g>
<g>
</g>
<g>
</g>
<g>
</g>
<g>
</g>
<g>
</g>
<g>
</g>
<g>
</g>
<g>
</g>
</svg>
