<?xml version="1.0" encoding="iso-8859-1"?>
<!-- Generator: Adobe Illustrator 16.0.0, SVG Export Plug-In . SVG Version: 6.00 Build 0)  -->
<!DOCTYPE svg PUBLIC "-//W3C//DTD SVG 1.1//EN" "http://www.w3.org/Graphics/SVG/1.1/DTD/svg11.dtd">
<svg version="1.1" id="Capa_1" xmlns="http://www.w3.org/2000/svg" xmlns:xlink="http://www.w3.org/1999/xlink" x="0px" y="0px"
	 width="523.446px" height="523.446px" viewBox="0 0 523.446 523.446" style="enable-background:new 0 0 523.446 523.446;"
	 xml:space="preserve">
<g>
	<g>
		<path d="M44.642,314.957c3.223,5.613,8.645,9.744,14.908,11.341c1.941,0.497,3.892,0.736,5.833,0.736
			c4.055,0,8.014-1.128,11.571-3.213l0.019,0.028c1.473-0.736,36.462-18.321,61.334-55.529
			c20.684-30.963,69.864-41.501,92.852-44.819l14.019,24.289l-81.654,141.468c-3.959,6.865-1.616,15.634,5.25,19.593
			c2.256,1.301,4.724,1.923,7.162,1.923c4.944,0,9.773-2.582,12.431-7.172l73.373-127.114l73.373,127.114
			c2.649,4.599,7.479,7.172,12.432,7.172c2.438,0,4.905-0.622,7.162-1.923c6.866-3.959,9.209-12.728,5.25-19.593l-81.654-141.449
			l14.019-24.298c22.988,3.318,72.168,13.856,92.852,44.819c24.862,37.208,59.852,54.803,61.324,55.529l0.02-0.028
			c3.566,2.084,7.516,3.213,11.57,3.213c1.941,0,3.901-0.239,5.843-0.736c6.244-1.597,11.686-5.729,14.898-11.342l41.76-73.287
			c3.863-6.751,3.107-12.192,1.798-15.558c-2.057-5.221-6.933-9.266-13.751-11.398c-20.263-6.331-43.797-15.96-64.758-39.464
			l-3.566,3.184l3.318-3.452c-2.372-2.276-53.426-50.652-98.924-53.301c-1.148-2.878-3.175-5.422-6.072-7.095
			c-6.886-3.949-15.645-1.606-19.604,5.25l-57.299,99.287l-57.308-99.287c-3.959-6.866-12.737-9.199-19.594-5.25
			c-2.888,1.664-4.925,4.208-6.072,7.076c-45.479,2.61-96.552,51.044-98.934,53.32l3.318,3.452l-3.567-3.184
			c-20.961,23.504-44.494,33.144-64.748,39.464c-6.818,2.132-11.705,6.177-13.751,11.398c-1.329,3.366-2.084,8.807,1.798,15.558
			L44.642,314.957z M425.938,202.406l-18.542,32.12c9.151,17.299,21.458,31.451,34.444,42.716l18.532-32.111
			c-12.613-11.561-24.5-25.733-33.832-42.821l11.303-19.584c13.167,14.43,27.138,23.849,40.745,30.495l-18.303,31.681
			c13.799,9.61,26.881,16.218,35.946,20.225l-17.691,31.039c-8.176-3.231-21.658-9.266-36.901-18.848l-13.33,23.104
			c-11.016-8.635-24.222-21.038-35.171-37.408c-0.431-0.642-0.938-1.205-1.387-1.827l15.443-26.736
			c-0.076-0.21-0.172-0.402-0.239-0.603c-7.525-22.348-26.65-35.161-49.122-42.353l13.35-23.103
			C392.755,174.502,412.674,184.992,425.938,202.406z M343.891,134.167c0.545-0.946,0.956-1.941,1.253-2.945
			c13.091,0.976,26.938,6.197,39.837,13.043l-13.32,23.065c-16.457-1.406-29.528-8.071-40.43-11.227L343.891,134.167z
			 M316.007,182.487c12.145,2.505,24.451,8.511,39.665,11.141L337.8,224.6c-14.976-5.326-29.597-8.367-40.307-10.05L316.007,182.487
			z M207.482,182.487l18.513,32.054c-10.71,1.683-25.321,4.724-40.306,10.05l-17.882-30.963
			C183.021,190.998,195.337,184.992,207.482,182.487z M178.335,131.232c0.306,1.004,0.708,1.989,1.262,2.945l12.661,21.937
			c-10.911,3.165-23.983,9.83-40.44,11.226l-13.32-23.064C151.398,137.419,165.254,132.198,178.335,131.232z M44.9,213.23
			c13.607-6.646,27.568-16.065,40.736-30.495l11.303,19.584c-9.324,17.078-21.219,31.25-33.823,42.821l18.542,32.111
			c12.977-11.265,25.284-25.417,34.444-42.716l-18.551-32.121c13.273-17.413,33.191-27.903,54.774-34.014l13.35,23.103
			c-22.462,7.182-41.587,19.995-49.113,42.353c-0.077,0.21-0.182,0.401-0.249,0.602l15.443,26.737
			c-0.44,0.622-0.956,1.195-1.387,1.826c-10.939,16.371-24.136,28.774-35.171,37.409l-13.339-23.104
			c-15.252,9.582-28.726,15.616-36.902,18.857l-17.69-31.05c9.065-3.997,22.137-10.604,35.945-20.224L44.9,213.23z"/>
	</g>
</g>
<g>
</g>
<g>
</g>
<g>
</g>
<g>
</g>
<g>
</g>
<g>
</g>
<g>
</g>
<g>
</g>
<g>
</g>
<g>
</g>
<g>
</g>
<g>
</g>
<g>
</g>
<g>
</g>
<g>
</g>
</svg>
