<?xml version="1.0" encoding="iso-8859-1"?>
<!-- Generator: Adobe Illustrator 16.0.0, SVG Export Plug-In . SVG Version: 6.00 Build 0)  -->
<!DOCTYPE svg PUBLIC "-//W3C//DTD SVG 1.1//EN" "http://www.w3.org/Graphics/SVG/1.1/DTD/svg11.dtd">
<svg version="1.1" id="Capa_1" xmlns="http://www.w3.org/2000/svg" xmlns:xlink="http://www.w3.org/1999/xlink" x="0px" y="0px"
	 width="525.488px" height="525.488px" viewBox="0 0 525.488 525.488" style="enable-background:new 0 0 525.488 525.488;"
	 xml:space="preserve">
<g>
	<g>
		<path d="M280.524,148.773c-9.229,0-17.624,5.805-20.885,14.468l-34.951,92.708l-79.158,50.958
			c-5.011,3.223-8.473,8.205-9.735,14.038s-0.182,11.8,3.051,16.82c4.121,6.407,11.15,10.232,18.781,10.232
			c4.284,0,8.453-1.234,12.068-3.558l85.354-54.946c4.064-2.62,7.115-6.388,8.807-10.91l37.552-99.613
			c2.104-5.575,1.913-11.637-0.545-17.069c-2.457-5.422-6.885-9.572-12.46-11.686C285.869,149.261,283.211,148.773,280.524,148.773z
			"/>
		<circle cx="237.579" cy="62.797" r="62.797"/>
		<path d="M498.425,452.125l-32.981,2.601c-57.002,3.596-102.979,1.425-138.168-2.591h101.506c13.703,0,24.805-11.103,24.805-24.806
			s-11.102-24.805-24.805-24.805H291.502l-65.264-18.743l35.639-10.91c11.418-3.49,19.632-13.465,20.895-25.331l12.259-115.859
			l-18.991,50.375c-2.639,7.01-7.372,12.881-13.693,16.936l-85.364,54.965c-5.613,3.614-12.106,5.518-18.771,5.518
			c-8.711,0-16.868-3.251-23.15-8.893c0,0,0,0-0.01,0.009c-0.392-0.363-0.784-0.755-1.195-1.186l0.029-0.01
			c-1.798-1.759-3.49-3.662-4.896-5.833c-3.729-5.785-5.604-12.402-5.518-19.135c0.057-0.679,0.086-1.357,0.201-2.036
			c0.038-0.593,0.134-1.195,0.21-1.798c1.846-8.339,6.809-15.491,14.009-20.12l66.182-46.56l11.035-7.105l33.507-88.874
			c2.41-6.426,6.693-11.791,12.029-15.711l-50.939-1.606c-16.428-0.526-31.948,12.192-34.664,28.42l-7.937,47.373
			c-6.79-2.257-14.124-3.548-21.946-3.548c-25.752,0-47.851,15.511-57.547,37.676H77.302c-2.582,0-5.125,0.507-7.516,1.482
			L12.65,275.391c-10.146,4.15-15.004,15.74-10.854,25.876c3.146,7.688,10.557,12.336,18.37,12.336c2.505,0,5.049-0.488,7.506-1.492
			l53.531-21.897h3.041c0.765,3.213,1.769,6.311,3.012,9.313l-23.045,5.642c-15.941,3.901-25.714,19.986-21.851,35.927
			l29.759,122.772c3.309,13.617,15.481,22.759,28.897,22.759c2.324,0,4.676-0.277,7.038-0.851
			c15.97-3.873,25.79-19.967,21.917-35.945l-22.769-93.895l4.609-1.128l11.131,10.519c-2.572,6.817-2.716,14.324-0.067,21.171
			l46.292,119.934c4.561,11.81,15.826,19.058,27.77,19.058c3.557,0,7.181-0.641,10.71-2.008c15.329-5.92,22.969-23.142,17.05-38.479
			l-1.922-4.982c0.019,0.01,0.019,0.01,0.038,0.02c2.917,1.224,64.05,26.124,185.599,26.124c18.732,0,38.919-0.583,60.54-1.95
			l33.373-2.63c13.655-1.081,23.858-13.024,22.769-26.688C524.023,461.237,512.108,451.111,498.425,452.125z"/>
	</g>
</g>
<g>
</g>
<g>
</g>
<g>
</g>
<g>
</g>
<g>
</g>
<g>
</g>
<g>
</g>
<g>
</g>
<g>
</g>
<g>
</g>
<g>
</g>
<g>
</g>
<g>
</g>
<g>
</g>
<g>
</g>
</svg>
