<?xml version="1.0" encoding="iso-8859-1"?>
<!-- Generator: Adobe Illustrator 16.0.0, SVG Export Plug-In . SVG Version: 6.00 Build 0)  -->
<!DOCTYPE svg PUBLIC "-//W3C//DTD SVG 1.1//EN" "http://www.w3.org/Graphics/SVG/1.1/DTD/svg11.dtd">
<svg version="1.1" id="Capa_1" xmlns="http://www.w3.org/2000/svg" xmlns:xlink="http://www.w3.org/1999/xlink" x="0px" y="0px"
	 width="519.971px" height="519.971px" viewBox="0 0 519.971 519.971" style="enable-background:new 0 0 519.971 519.971;"
	 xml:space="preserve">
<g>
	<g>
		<path d="M15.185,456.82c8.367,0,15.167-6.789,15.167-15.176v-119.13h456.724c0.938,0,1.77-0.325,2.524-0.774v119.904
			c0,8.386,6.8,15.176,15.186,15.176c8.387,0,15.186-6.789,15.186-15.176V78.326c0-8.386-6.799-15.175-15.186-15.175h-489.6
			C6.799,63.151,0,69.94,0,78.326v363.318C0,450.031,6.799,456.82,15.185,456.82z M449.667,93.512H489.6v65.57
			c-0.755-0.44-1.587-0.774-2.524-0.774h-37.408V93.512z M449.667,168.434h37.408c0.938,0,1.77-0.325,2.524-0.774v62.271
			c-0.755-0.44-1.587-0.774-2.524-0.774h-37.408V168.434z M449.667,311.718v-72.445h37.408c0.938,0,1.77-0.325,2.524-0.765v74.655
			c-0.755-0.44-1.587-0.775-2.524-0.775h-37.542C449.562,312.158,449.667,311.958,449.667,311.718z M376.304,93.512h63.236v64.805
			h-63.236V93.512z M376.304,168.434h63.236v60.731h-63.236V168.434z M376.304,311.718v-72.445h63.236v72.445
			c0,0.239,0.105,0.439,0.134,0.669H376.17C376.198,312.158,376.304,311.958,376.304,311.718z M302.921,93.512h63.256v64.805
			h-63.256V93.512z M302.921,168.434h63.256v60.731h-63.256V168.434z M302.921,311.718v-72.445h63.256v72.445
			c0,0.239,0.105,0.439,0.134,0.669h-63.523C302.815,312.158,302.921,311.958,302.921,311.718z M229.538,93.512h63.256v64.805
			h-63.256V93.512L229.538,93.512z M229.538,168.434h63.256v60.731h-63.256V168.434L229.538,168.434z M229.538,311.718v-72.445
			h63.256v72.445c0,0.239,0.105,0.439,0.134,0.669h-63.523C229.433,312.158,229.538,311.958,229.538,311.718z M156.156,93.512
			h63.256v64.805h-63.256V93.512z M156.156,168.434h63.256v60.731h-63.256V168.434z M156.156,311.718v-72.445h63.256v72.445
			c0,0.239,0.105,0.439,0.134,0.669h-63.523C156.06,312.158,156.156,311.958,156.156,311.718z M82.783,93.512h63.256v64.805H82.783
			V93.512z M82.783,168.434h63.256v60.731H82.783V168.434z M82.783,311.718v-72.445h63.256v72.445c0,0.239,0.105,0.439,0.134,0.669
			H82.649C82.677,312.158,82.783,311.958,82.783,311.718z M30.352,93.512h42.323v64.805H30.352V93.512z M30.352,168.434h42.323
			v60.731H30.352V168.434z M30.352,239.273h42.323v72.445c0,0.239,0.105,0.439,0.134,0.669H30.352V239.273z"/>
	</g>
</g>
<g>
</g>
<g>
</g>
<g>
</g>
<g>
</g>
<g>
</g>
<g>
</g>
<g>
</g>
<g>
</g>
<g>
</g>
<g>
</g>
<g>
</g>
<g>
</g>
<g>
</g>
<g>
</g>
<g>
</g>
</svg>
