<?xml version="1.0" encoding="iso-8859-1"?>
<!-- Generator: Adobe Illustrator 16.0.0, SVG Export Plug-In . SVG Version: 6.00 Build 0)  -->
<!DOCTYPE svg PUBLIC "-//W3C//DTD SVG 1.1//EN" "http://www.w3.org/Graphics/SVG/1.1/DTD/svg11.dtd">
<svg version="1.1" id="Capa_1" xmlns="http://www.w3.org/2000/svg" xmlns:xlink="http://www.w3.org/1999/xlink" x="0px" y="0px"
	 width="554.666px" height="554.666px" viewBox="0 0 554.666 554.666" style="enable-background:new 0 0 554.666 554.666;"
	 xml:space="preserve">
<g>
	<g>
		<path d="M533.195,420.134l-56.515,41.76c-3.385,2.506-10.461,2.717-14.009,0.363l-49.515-32.646
			c-12.737-8.414-32.016-8.51-44.801-0.191l-50.71,32.906c-3.901,2.504-11.819,2.562-15.749,0.094l-52.7-33.287
			c-13.148-8.279-32.417-7.486-44.838,1.855l-40.927,30.83c-3.385,2.562-10.414,2.803-13.971,0.488l-50.7-32.877
			c-13.34-8.672-32.618-7.516-44.829,2.678L4.848,473.044c-5.719,4.762-6.483,13.254-1.731,18.973
			c2.677,3.193,6.512,4.848,10.366,4.848c3.041,0,6.11-1.033,8.616-3.127L71.192,452.8c3.108-2.602,9.477-2.982,12.891-0.775
			l50.71,32.887c13.11,8.52,32.397,7.822,44.848-1.568l40.938-30.83c3.414-2.592,10.595-2.896,14.219-0.592l52.699,33.277
			c12.823,8.08,32.063,7.965,44.801-0.277l50.71-32.904c3.825-2.469,11.522-2.43,15.3,0.076l49.515,32.637
			c13.015,8.615,32.331,8.109,44.877-1.168l56.515-41.768c5.977-4.428,7.229-12.871,2.82-18.848
			C547.605,416.96,539.172,415.698,533.195,420.134z"/>
		<path d="M248.481,407.989l52.001,32.848c0.411,0.059,1.301,0.049,1.702-0.01l1.128-0.736v-9.562l5.078,6.273l43.786-28.42
			c2.706-1.77,5.709-3.137,8.817-4.332l-25.838-40.248c-4.274-6.664-13.513-13.846-21.009-16.352l-60.292-20.102
			c-5.805-1.932-14.296-7.266-18.551-11.637l-59.288-60.875c-3.643-3.758-5.795-11.503-4.6-16.581l20.416-80.229
			c0.01-0.029,0.01-0.048,0.019-0.077c3.777,0.899,7.669,1.492,11.724,1.492c28.066,0,50.825-22.75,50.825-50.815
			c0-28.085-22.759-50.825-50.825-50.825s-50.825,22.75-50.825,50.825l-36.557,137.719c-2.324,7.985-0.229,19.431,4.752,26.067
			l65.857,87.822c3.519,4.695,6.502,13.627,6.502,19.498v27.09C209.935,397.901,232.712,398.063,248.481,407.989z"/>
		<path d="M373.894,253.938c0-20.1-9.448-35.725-22.597-38.584c-7.057-12.078-23.208-30.562-55.863-30.562
			c-34.11,0.009-50.003,18.341-56.802,30.533c-13.225,2.773-22.739,18.456-22.739,38.614c0,22.261,11.599,39.043,26.976,39.043
			c0.727,0,1.396-0.219,2.113-0.287c16.763,25.428,50.414,34.465,77.945,19.967c9.228-4.867,16.657-11.809,22.022-19.947
			c0.669,0.059,1.29,0.268,1.97,0.268C362.294,292.981,373.894,276.2,373.894,253.938z"/>
	</g>
</g>
<g>
</g>
<g>
</g>
<g>
</g>
<g>
</g>
<g>
</g>
<g>
</g>
<g>
</g>
<g>
</g>
<g>
</g>
<g>
</g>
<g>
</g>
<g>
</g>
<g>
</g>
<g>
</g>
<g>
</g>
</svg>
