<?xml version="1.0" encoding="iso-8859-1"?>
<!-- Generator: Adobe Illustrator 16.0.0, SVG Export Plug-In . SVG Version: 6.00 Build 0)  -->
<!DOCTYPE svg PUBLIC "-//W3C//DTD SVG 1.1//EN" "http://www.w3.org/Graphics/SVG/1.1/DTD/svg11.dtd">
<svg version="1.1" id="Capa_1" xmlns="http://www.w3.org/2000/svg" xmlns:xlink="http://www.w3.org/1999/xlink" x="0px" y="0px"
	 width="456.619px" height="456.619px" viewBox="0 0 456.619 456.619" style="enable-background:new 0 0 456.619 456.619;"
	 xml:space="preserve">
<g>
	<g>
		<path d="M402.706,88.453c24.385,0,44.227-19.842,44.227-44.227S427.09,0,402.706,0c-24.384,0-44.227,19.842-44.227,44.227
			S378.322,88.453,402.706,88.453z"/>
		<path d="M88.654,405.88c25.111,6.024,83.375,15.606,143.409,24.815c0.899,0.449,1.76,0.937,2.735,1.281
			c2.629,0.928,5.307,1.367,7.946,1.367c1.396,0,2.763-0.153,4.112-0.392c78.574,11.924,155.801,22.672,161.587,23.485
			c0.898,0.124,1.778,0.182,2.658,0.182c9.39,0,17.585-6.933,18.924-16.495c1.444-10.472-5.853-20.129-16.313-21.583
			c-1.319-0.182-68.458-9.524-141.621-20.482l34.674-98.427l108.161,37.943c7.315,2.544,15.405,1.415,21.736-3.06
			c6.32-4.485,10.078-11.753,10.078-19.498v-189.28c0-6.474-2.619-12.67-7.276-17.174c-4.638-4.504-10.624-6.895-17.404-6.722
			l-177.92,5.747c-3.127,0.096-6.072,0.832-8.769,2.018V93.234c0-5.278-4.284-9.562-9.562-9.562s-9.562,4.284-9.562,9.562v28.984
			l-178.417,5.68c-5.278,0.172-9.419,4.581-9.256,9.859c0.163,5.183,4.408,9.256,9.553,9.256c0.105,0,0.201,0,0.306,0l177.795-5.661
			v28.381c0,5.278,4.284,9.562,9.562,9.562c5.279,0,9.563-4.284,9.563-9.562v-16.352c3.164,1.387,6.646,2.171,10.317,1.989
			l117.581-3.796v117.208l-63.199-22.166c-12.45-4.36-26.077,2.18-30.456,14.611l-45.623,129.505
			c-54.104-8.387-104.375-16.763-126.388-22.042C53.235,358.049,47.306,339.182,47.249,339c0.191,0.66,0.21,1.033,0.21,1.033
			l-37.772,6.053C10.385,350.428,18.513,389.05,88.654,405.88z"/>
	</g>
</g>
<g>
</g>
<g>
</g>
<g>
</g>
<g>
</g>
<g>
</g>
<g>
</g>
<g>
</g>
<g>
</g>
<g>
</g>
<g>
</g>
<g>
</g>
<g>
</g>
<g>
</g>
<g>
</g>
<g>
</g>
</svg>
