<?xml version="1.0" encoding="iso-8859-1"?>
<!-- Generator: Adobe Illustrator 16.0.0, SVG Export Plug-In . SVG Version: 6.00 Build 0)  -->
<!DOCTYPE svg PUBLIC "-//W3C//DTD SVG 1.1//EN" "http://www.w3.org/Graphics/SVG/1.1/DTD/svg11.dtd">
<svg version="1.1" id="Capa_1" xmlns="http://www.w3.org/2000/svg" xmlns:xlink="http://www.w3.org/1999/xlink" x="0px" y="0px"
	 width="554.666px" height="554.666px" viewBox="0 0 554.666 554.666" style="enable-background:new 0 0 554.666 554.666;"
	 xml:space="preserve">
<g>
	<g>
		<circle cx="255.088" cy="207.68" r="65.168"/>
		<circle cx="123.977" cy="58.887" r="50.825"/>
		<path d="M35.266,274.971c-1.435,5.087,1.396,10.767,6.311,12.689l112.532,44.025c4.915,1.922,9.629,7.709,10.538,12.91
			l20.406,118.201l12.527-9.428c16.753-12.594,43.385-13.713,61.114-2.543l52.01,32.846c0.421,0.059,1.311,0.039,1.712-0.01
			l41.722-27.08l-19.498-58.514c-1.674-5,1.014-7.631,5.985-5.861l113.632,39.283c14.965,5.184,33.564-1.73,41.511-15.434
			l1.788-3.051c7.946-13.713,2.314-29.166-12.584-34.529L118.182,246.332c-4.973-1.798-7.86-7.373-6.464-12.46l20.215-73.593
			c4.188-15.281-4.868-30.772-20.234-34.606l-3.347-0.832c-15.367-3.834-31.384,5.393-35.773,20.617L35.266,274.971z"/>
		<path d="M533.195,469.865l-56.515,41.758c-3.385,2.506-10.461,2.717-14.009,0.363l-49.515-32.646
			c-12.737-8.414-32.016-8.51-44.811-0.182l-50.71,32.906c-3.901,2.504-11.818,2.562-15.739,0.096l-52.699-33.279
			c-13.148-8.279-32.417-7.486-44.838,1.855l-40.928,30.83c-3.385,2.562-10.414,2.803-13.971,0.488l-50.7-32.887
			c-13.33-8.672-32.618-7.516-44.829,2.678L4.847,522.783c-5.718,4.762-6.483,13.254-1.73,18.973
			c2.677,3.193,6.512,4.848,10.366,4.848c3.041,0,6.11-1.033,8.616-3.127l49.094-40.938c3.108-2.609,9.477-2.982,12.89-0.773
			l50.71,32.885c13.11,8.52,32.398,7.822,44.848-1.568l40.937-30.83c3.414-2.592,10.595-2.896,14.22-0.592l52.699,33.277
			c12.823,8.08,32.063,7.965,44.801-0.277l50.71-32.904c3.824-2.467,11.522-2.43,15.3,0.076l49.515,32.637
			c13.015,8.615,32.331,8.109,44.877-1.166l56.514-41.77c5.977-4.428,7.229-12.871,2.821-18.848
			C547.615,466.689,539.171,465.428,533.195,469.865z"/>
	</g>
</g>
<g>
</g>
<g>
</g>
<g>
</g>
<g>
</g>
<g>
</g>
<g>
</g>
<g>
</g>
<g>
</g>
<g>
</g>
<g>
</g>
<g>
</g>
<g>
</g>
<g>
</g>
<g>
</g>
<g>
</g>
</svg>
