<?xml version="1.0" encoding="iso-8859-1"?>
<!-- Generator: Adobe Illustrator 16.0.0, SVG Export Plug-In . SVG Version: 6.00 Build 0)  -->
<!DOCTYPE svg PUBLIC "-//W3C//DTD SVG 1.1//EN" "http://www.w3.org/Graphics/SVG/1.1/DTD/svg11.dtd">
<svg version="1.1" id="Capa_1" xmlns="http://www.w3.org/2000/svg" xmlns:xlink="http://www.w3.org/1999/xlink" x="0px" y="0px"
	 width="565.699px" height="565.699px" viewBox="0 0 565.699 565.699" style="enable-background:new 0 0 565.699 565.699;"
	 xml:space="preserve">
<g>
	<g>
		<path d="M540.615,69.759h-9.391c-13.846,0-25.082,11.227-25.082,25.073v21.678H373.865c-3.49-3.681-8.387-6.005-13.855-6.005
			c-5.471,0-10.367,2.324-13.857,6.005H220.243c-3.49-3.681-8.386-6.005-13.856-6.005s-10.366,2.324-13.856,6.005H59.545V94.832
			c0-13.846-11.226-25.073-25.073-25.073h-9.39C11.236,69.759,0,80.985,0,94.832v66.029c0,13.847,11.226,25.063,25.083,25.063h9.39
			c13.847,0,25.073-11.217,25.073-25.063v-21.678h127.717v84.465c0,6.751,3.557,12.996,9.362,16.447l31.652,18.791v104.691
			l-4.38-0.402c-6.741-0.564-13.339,1.615-18.312,6.139c-4.973,4.543-7.793,10.949-7.793,17.672v85.039
			c0,13.205,10.701,23.906,23.906,23.906c13.206,0,23.906-10.701,23.906-23.906v-58.828l34.281,3.164
			c1.502,0.135,3.003,0.145,4.485-0.008l32.092-3.08l0.518,58.963c0.113,13.139,10.795,23.705,23.906,23.705
			c0.066,0,0.143,0,0.209,0c13.207-0.125,23.811-10.92,23.697-24.107l-0.746-85.039c-0.059-6.703-2.926-13.072-7.908-17.557
			c-4.973-4.494-11.6-6.703-18.283-6.033l-0.432,0.037V259.307l32.35-19.212c5.805-3.442,9.363-9.696,9.363-16.447v-84.465h127.018
			v21.678c0,13.847,11.227,25.063,25.082,25.063h9.391c13.848,0,25.074-11.217,25.074-25.063V94.832
			C565.699,80.985,554.463,69.759,540.615,69.759z M340.885,212.766l-29.502,17.519c-1.539,0.918-2.83,2.065-4.006,3.299h-48.338
			c-1.176-1.233-2.477-2.381-4.007-3.299l-29.5-17.519v-73.574h115.371v73.574H340.885z"/>
		<path d="M282.869,226.469c20.788,0,37.581-16.907,37.581-37.628c0-20.856-16.793-37.628-37.581-37.628
			c-20.713,0-37.619,16.772-37.619,37.628C245.259,209.562,262.156,226.469,282.869,226.469z"/>
	</g>
</g>
<g>
</g>
<g>
</g>
<g>
</g>
<g>
</g>
<g>
</g>
<g>
</g>
<g>
</g>
<g>
</g>
<g>
</g>
<g>
</g>
<g>
</g>
<g>
</g>
<g>
</g>
<g>
</g>
<g>
</g>
</svg>
