<?xml version="1.0" encoding="iso-8859-1"?>
<!-- Generator: Adobe Illustrator 16.0.0, SVG Export Plug-In . SVG Version: 6.00 Build 0)  -->
<!DOCTYPE svg PUBLIC "-//W3C//DTD SVG 1.1//EN" "http://www.w3.org/Graphics/SVG/1.1/DTD/svg11.dtd">
<svg version="1.1" id="Capa_1" xmlns="http://www.w3.org/2000/svg" xmlns:xlink="http://www.w3.org/1999/xlink" x="0px" y="0px"
	 width="565.689px" height="565.689px" viewBox="0 0 565.689 565.689" style="enable-background:new 0 0 565.689 565.689;"
	 xml:space="preserve">
<g>
	<g>
		<path d="M281.061,164.346c23.496,0,42.544-19.048,42.544-42.534c0-23.342-19.049-42.39-42.544-42.39
			c-23.333,0-42.314,19.048-42.314,42.39C238.756,145.298,257.729,164.346,281.061,164.346z"/>
		<path d="M540.615,4.863h-9.391c-13.846,0-25.072,11.227-25.072,25.073v21.678H59.545V29.936c0-13.847-11.226-25.073-25.082-25.073
			h-9.381C11.236,4.863,0,16.089,0,29.936v66.029c0,13.847,11.226,25.063,25.083,25.063h9.39c13.847,0,25.083-11.217,25.083-25.063
			V74.287h50.174c-3.557,7.803-2.324,17.308,3.93,23.887l110.342,110.485v328.242c0,13.302,10.681,23.916,23.772,23.916
			c13.33,0,23.925-10.614,23.925-23.916V376.232h19.326l0.152,160.679c0,13.302,10.738,23.916,23.926,23.916
			c13.158,0,23.764-10.614,23.764-23.916l-0.145-328.242L449.064,98.183c6.254-6.579,7.479-16.084,3.93-23.887h53.158v21.678
			c0,13.846,11.227,25.063,25.074,25.063h9.389c13.848,0,25.074-11.217,25.074-25.063V29.936
			C565.699,16.089,554.463,4.863,540.615,4.863z M312.732,173.794h-61.946l-99.565-99.498h260.386L312.732,173.794z"/>
	</g>
</g>
<g>
</g>
<g>
</g>
<g>
</g>
<g>
</g>
<g>
</g>
<g>
</g>
<g>
</g>
<g>
</g>
<g>
</g>
<g>
</g>
<g>
</g>
<g>
</g>
<g>
</g>
<g>
</g>
<g>
</g>
</svg>
