<?xml version="1.0" encoding="iso-8859-1"?>
<!-- Generator: Adobe Illustrator 16.0.0, SVG Export Plug-In . SVG Version: 6.00 Build 0)  -->
<!DOCTYPE svg PUBLIC "-//W3C//DTD SVG 1.1//EN" "http://www.w3.org/Graphics/SVG/1.1/DTD/svg11.dtd">
<svg version="1.1" id="Capa_1" xmlns="http://www.w3.org/2000/svg" xmlns:xlink="http://www.w3.org/1999/xlink" x="0px" y="0px"
	 width="531.924px" height="531.924px" viewBox="0 0 531.924 531.924" style="enable-background:new 0 0 531.924 531.924;"
	 xml:space="preserve">
<g>
	<g>
		<path d="M53.349,480.072c29.481,0,53.359-23.887,53.359-53.358h13.206c0,29.472,23.887,53.358,53.359,53.358
			s53.359-23.887,53.359-53.358h13.206c0,29.472,23.877,53.358,53.358,53.358c29.472,0,53.359-23.887,53.359-53.358h13.196
			c0,29.472,23.887,53.358,53.358,53.358s53.35-23.887,53.35-53.358c0-13.168-4.791-25.207-12.699-34.512
			c-3.146-4.963-6.741-11.532-9.926-17.604c-4.905-9.361-0.22-14.544,8.415-8.453c21.171,14.937,20.798,36.596,16.974,51.762
			c-2.572,10.242,1.663,18.332,12.201,18.991l50.5,3.146c-0.784-62.873-51.064-93.904-78.785-106.249
			c4.351-3.433,7.583-8.118,8.29-13.32c2.314-17.098,1.444-43.5-17.499-68.334c-27.158-35.582-49.477-121.224-56.495-167.822
			c-1.578-10.451-10.404-16.562-20.856-15.013c-22.854,3.375-63.925,4.877-107.788-15.645c-9.562-4.484-17.672-0.449-18.044,10.107
			c-0.172,4.829-0.287,10.462-0.287,16.744c0.01,5.288,4.38,9.562,9.658,9.562h72.159c7.918,0,14.344,6.426,14.344,14.344
			s-6.426,14.344-14.344,14.344h-70.514c-5.279,0-9.18,4.026-8.482,8.95c0.698,4.935,5.805,8.874,11.093,8.874h67.913
			c7.918,0,14.344,6.427,14.344,14.344c0,7.918-6.426,14.344-14.344,14.344h-60.665c-5.279,0-8.521,3.959-7.373,8.874
			s6.187,8.932,11.466,8.932h56.572c7.918,0,14.344,6.426,14.344,14.344s-6.426,14.344-14.344,14.344h-55.119
			c-5.278,0-10.088,4.322-12.268,9.132c-3.796,8.358-11.131,14.784-23.849,18.227c-52.135,14.124-93.417,20.626-142.29,45.613
			c-48.874,24.986-27.148,67.358,16.304,64.088l3.988-0.115l-1.062,15.788c-0.631,9.486-8.186,19.153-15.061,26.517
			c-9.763-10.806-23.849-17.643-39.569-17.643C23.887,373.374,0,397.251,0,426.723C-0.019,456.185,23.868,480.072,53.349,480.072z
			 M401.577,261.913c15.434,0,27.941,12.508,27.941,27.942c0,15.434-12.508,27.941-27.941,27.941
			c-15.424,0-27.941-12.508-27.941-27.941C373.636,274.42,386.144,261.913,401.577,261.913z M341.562,342.238
			c-0.038,1.195,0.039,2.429,0.249,3.701l1.482,8.577c1.788,10.404-5.326,19.087-15.874,19.384l-23.074,0.649
			c-3.605-0.774-7.335-1.195-11.169-1.195c-4.829,0-9.477,0.698-13.933,1.894l-65.876,1.855
			c-10.557,0.296-19.326-8.023-19.584-18.57l-0.296-12.183L341.562,342.238z"/>
	</g>
</g>
<g>
</g>
<g>
</g>
<g>
</g>
<g>
</g>
<g>
</g>
<g>
</g>
<g>
</g>
<g>
</g>
<g>
</g>
<g>
</g>
<g>
</g>
<g>
</g>
<g>
</g>
<g>
</g>
<g>
</g>
</svg>
